solid OpenSCAD_Model
  facet normal 0 0 -1
    outer loop
      vertex -60 -40 0
      vertex -50 -40 0
      vertex -50 -50 0
    endloop
  endfacet
  facet normal 0 0 -1
    outer loop
      vertex -60 -40 0
      vertex -50 -50 0
      vertex -60 -50 0
    endloop
  endfacet
  facet normal 0 -0 1
    outer loop
      vertex -50 -50 25
      vertex -50 -40 25
      vertex -60 -40 25
    endloop
  endfacet
  facet normal 0 0 1
    outer loop
      vertex -60 -50 25
      vertex -50 -50 25
      vertex -60 -40 25
    endloop
  endfacet
  facet normal 0 1 0
    outer loop
      vertex -60 -40 0
      vertex -50 -40 25
      vertex -50 -40 0
    endloop
  endfacet
  facet normal 0 1 0
    outer loop
      vertex -60 -40 0
      vertex -60 -40 25
      vertex -50 -40 25
    endloop
  endfacet
  facet normal -1 0 0
    outer loop
      vertex -60 -50 0
      vertex -60 -40 25
      vertex -60 -40 0
    endloop
  endfacet
  facet normal -1 0 0
    outer loop
      vertex -60 -50 0
      vertex -60 -50 25
      vertex -60 -40 25
    endloop
  endfacet
  facet normal 0 -1 0
    outer loop
      vertex -50 -50 0
      vertex -60 -50 25
      vertex -60 -50 0
    endloop
  endfacet
  facet normal 0 -1 0
    outer loop
      vertex -50 -50 0
      vertex -50 -50 25
      vertex -60 -50 25
    endloop
  endfacet
  facet normal 1 0 0
    outer loop
      vertex -50 -40 0
      vertex -50 -50 25
      vertex -50 -50 0
    endloop
  endfacet
  facet normal 1 0 -0
    outer loop
      vertex -50 -40 0
      vertex -50 -40 25
      vertex -50 -50 25
    endloop
  endfacet
endsolid OpenSCAD_Model
