<?xml version="1.0" encoding="UTF-8" standalone="no"?>
<svg
   xmlns:dc="http://purl.org/dc/elements/1.1/"
   xmlns:cc="http://creativecommons.org/ns#"
   xmlns:rdf="http://www.w3.org/1999/02/22-rdf-syntax-ns#"
   xmlns:svg="http://www.w3.org/2000/svg"
   xmlns="http://www.w3.org/2000/svg"
   xmlns:xlink="http://www.w3.org/1999/xlink"
   xmlns:sodipodi="http://sodipodi.sourceforge.net/DTD/sodipodi-0.dtd"
   xmlns:inkscape="http://www.inkscape.org/namespaces/inkscape"
   inkscape:version="1.0 (4035a4fb49, 2020-05-01)"
   sodipodi:docname="viclogo.svg"
   viewBox="0 0 1625.3969 492.69839"
   height="492.69839"
   width="1625.3969"
   id="svg833"
   version="1.1">
  <metadata
     id="metadata839">
    <rdf:RDF>
      <cc:Work
         rdf:about="">
        <dc:format>image/svg+xml</dc:format>
        <dc:type
           rdf:resource="http://purl.org/dc/dcmitype/StillImage" />
        <dc:title />
      </cc:Work>
    </rdf:RDF>
  </metadata>
  <defs
     id="defs837">
    <linearGradient
       id="linearGradient957"
       inkscape:collect="always">
      <stop
         id="stop953"
         offset="0"
         style="stop-color:#000000;stop-opacity:1;" />
      <stop
         id="stop955"
         offset="1"
         style="stop-color:#000000;stop-opacity:0;" />
    </linearGradient>
    <linearGradient
       gradientUnits="userSpaceOnUse"
       y2="106.00414"
       x2="632.1969"
       y1="106.18802"
       x1="575.91382"
       id="linearGradient959"
       xlink:href="#linearGradient957"
       inkscape:collect="always" />
  </defs>
  <sodipodi:namedview
     inkscape:document-rotation="0"
     inkscape:current-layer="g841"
     inkscape:window-maximized="1"
     inkscape:window-y="-8"
     inkscape:window-x="-8"
     inkscape:cy="-173.44159"
     inkscape:cx="362.60665"
     inkscape:zoom="0.42451171"
     showgrid="false"
     id="namedview835"
     inkscape:window-height="1017"
     inkscape:window-width="1920"
     inkscape:pageshadow="2"
     inkscape:pageopacity="0"
     guidetolerance="10"
     gridtolerance="10"
     objecttolerance="10"
     borderopacity="1"
     bordercolor="#666666"
     pagecolor="#ffffff" />
  <g
     id="g841"
     inkscape:label="Image"
     inkscape:groupmode="layer">
    <text
       transform="scale(0.87573399,1.1418993)"
       id="text893"
       y="240.90863"
       x="58.593403"
       style="font-style:normal;font-weight:normal;font-size:59.9331px;line-height:1.25;font-family:sans-serif;fill:#000000;fill-opacity:1;stroke:none;stroke-width:1.49833"
       xml:space="preserve"><tspan
         style="font-style:normal;font-variant:normal;font-weight:normal;font-stretch:normal;font-size:287.679px;font-family:Skranji;-inkscape-font-specification:Skranji;stroke-width:1.49833"
         y="240.90863"
         x="58.593403"
         id="tspan891"
         sodipodi:role="line">VIC  2020</tspan><tspan
         id="tspan901"
         style="font-style:normal;font-variant:normal;font-weight:normal;font-stretch:normal;font-size:179.799px;font-family:Cairo;-inkscape-font-specification:Cairo;stroke-width:1.49833"
         y="410.75723"
         x="58.593403"
         sodipodi:role="line" /></text>
    <text
       id="text897"
       y="-353.34714"
       x="5514.5713"
       style="font-style:normal;font-weight:normal;font-size:40px;line-height:1.25;font-family:sans-serif;fill:#000000;fill-opacity:1;stroke:none"
       xml:space="preserve"><tspan
         y="-353.34714"
         x="5514.5713"
         id="tspan895"
         sodipodi:role="line" /><tspan
         id="tspan899"
         y="-303.34714"
         x="5514.5713"
         sodipodi:role="line" /></text>
    <text
       transform="scale(0.77447066,1.2912045)"
       xml:space="preserve"
       style="font-style:normal;font-weight:normal;font-size:70.065px;line-height:1.25;font-family:sans-serif;fill:#000000;fill-opacity:1;stroke:none;stroke-width:1.75162"
       x="55.600086"
       y="375.78748"
       id="text893-8"><tspan
         sodipodi:role="line"
         x="55.600086"
         y="375.78748"
         style="font-style:normal;font-variant:normal;font-weight:normal;font-stretch:normal;font-size:210.195px;font-family:Cairo;-inkscape-font-specification:Cairo;stroke-width:1.75162"
         id="tspan901-8">FICHTER EDITION</tspan></text>
    <rect
       y="165.65448"
       x="471.05722"
       height="45.806595"
       width="104.93874"
       id="rect928"
       style="fill:#000000;stroke:#000000" />
    <rect
       style="fill:url(#linearGradient959);stroke:#000000;fill-opacity:1"
       id="rect928-1"
       width="104.93874"
       height="45.806595"
       x="470.9751"
       y="106.18802" />
    <path
       id="path961"
       d="m 575.91382,106.18802 58.63876,-0.18388 -58.63876,45.99047"
       style="fill:none;stroke:#000000;stroke-width:1px;stroke-linecap:butt;stroke-linejoin:miter;stroke-opacity:1" />
    <path
       id="path961-4"
       d="m 575.99597,211.46107 58.63876,0.18388 -58.63876,-45.99047"
       style="fill:none;stroke:#000000;stroke-width:1px;stroke-linecap:butt;stroke-linejoin:miter;stroke-opacity:1" />
    <path
       id="path993"
       d="m 576.4095,128.68298 v -21.93697 h 28.03875 c 27.3238,0 28.02394,0.0139 27.45802,0.54639 -0.87192,0.82036 -55.16875,43.32755 -55.34472,43.32755 -0.0836,0 -0.15205,-9.87164 -0.15205,-21.93697 z"
       style="fill:#000000;stroke:#000000;stroke-width:0.294456" />
    <path
       id="path995"
       d="m 576.70396,189.02907 c 0,-17.06845 0.0791,-21.90547 0.35532,-21.73474 0.39333,0.24309 54.98282,43.0142 55.42936,43.42914 0.16188,0.15043 -11.5305,0.25995 -27.75248,0.25995 h -28.0322 z"
       style="fill:#000000;stroke:#000000;stroke-width:0.294456" />
    <path
       id="path997"
       d="m 547.4792,211.9404 -76.77939,-0.0747 v -23.26146 -23.26147 h 52.78269 52.78269 l 29.14968,22.84892 c 16.03232,12.5669 29.41101,23.10107 29.73041,23.40925 0.5715,0.55142 0.48956,0.55917 -5.15298,0.48728 -3.15354,-0.0402 -40.28443,-0.10669 -82.5131,-0.14779 z m 85.46283,-1.10784 c -0.25461,-0.30679 -0.47986,-0.35379 -0.72409,-0.1511 -0.21691,0.18002 -4.34486,0.32582 -10.63496,0.37564 l -10.28045,0.0814 11.00454,0.0697 c 9.79338,0.062 10.96386,0.0207 10.63496,-0.37564 z m -55.87325,-43.32165 c 0.11968,-0.18408 0.0203,-0.49845 -0.22084,-0.69858 -0.38773,-0.32179 -0.43036,2.22004 -0.36859,21.97722 l 0.0698,22.34109 0.151,-21.64251 c 0.083,-11.90338 0.24892,-21.79313 0.36859,-21.97722 z m 5.5243,3.90424 c 0,-0.0611 -0.23189,-0.29303 -0.5153,-0.5153 -0.46703,-0.36627 -0.47744,-0.35585 -0.11118,0.11117 0.38467,0.49049 0.62648,0.64647 0.62648,0.40413 z m -4.12239,-3.23902 c 0,-0.0611 -0.23188,-0.29303 -0.5153,-0.5153 -0.46702,-0.36626 -0.47744,-0.35585 -0.11117,0.11118 0.38467,0.49049 0.62647,0.64647 0.62647,0.40412 z"
       style="fill:#000000;stroke:#000000;stroke-width:0.294456" />
    <path
       id="path999"
       d="m 501.6913,211.94041 -30.99149,-0.0763 v -23.26067 -23.26067 h 52.87378 52.87377 l 25.81958,20.257 c 14.20077,11.14134 27.50309,21.57613 29.56071,23.1884 2.05763,1.61228 3.74707,3.0308 3.75432,3.15226 0.012,0.20055 -52.46647,0.20055 -133.89067,1e-5 z"
       style="fill:#000000;stroke:#000000;stroke-width:0.294456" />
    <path
       id="path1001"
       d="m 471.21334,211.95017 -0.81152,-0.12284 0.0754,-23.31591 0.0754,-23.3159 52.85484,-0.069 52.85484,-0.0691 10.15873,7.97679 c 5.5873,4.38723 18.9372,14.86735 29.66644,23.28915 10.72924,8.4218 19.50771,15.43061 19.50771,15.57513 0,0.25554 -162.6971,0.3067 -164.38181,0.0517 z"
       style="fill:#000000;stroke:#000000;stroke-width:0.294456" />
    <path
       id="path1003"
       d="m 470.60166,211.96494 c -0.10797,-0.10797 -0.1963,-10.70838 -0.1963,-23.55648 V 165.04829 H 523.40768 576.41 l 24.07152,18.90148 c 31.36222,24.62629 35.11363,27.61108 35.11363,27.93804 0,0.3133 -164.68034,0.39028 -164.99349,0.0771 z"
       style="fill:#000000;stroke:#000000;stroke-width:0.294456" />
    <path
       id="path1005"
       d="m 470.69981,129.16833 v -23.21835 l 82.37406,-0.15776 c 45.30572,-0.0868 82.39967,-0.13601 82.43098,-0.10942 0.0313,0.0266 -13.32596,10.54583 -29.68282,23.3761 l -29.73976,23.32778 h -52.69122 -52.69124 z m 107.77088,20.26772 1.0306,-0.93048 -1.2202,0.90996 c -1.42174,1.06026 -1.49043,1.07651 -1.66861,0.39466 -0.0818,-0.31287 -0.14808,-0.19313 -0.16882,0.30482 -0.029,0.69696 0.0432,0.77742 0.48114,0.53582 0.28341,-0.15637 0.97906,-0.70302 1.54589,-1.21478 z m 1.91397,-1.46621 c 0.29312,-0.3239 0.4667,-0.58891 0.38573,-0.58891 -0.081,0 -0.38706,0.26501 -0.68019,0.58891 -0.29313,0.3239 -0.46671,0.58892 -0.38573,0.58892 0.081,0 0.38706,-0.26502 0.68019,-0.58892 z m 1.36261,-1.10421 c 0.36626,-0.46702 0.35585,-0.47744 -0.11118,-0.11117 -0.28341,0.22227 -0.51529,0.45415 -0.51529,0.5153 0,0.24235 0.2418,0.0864 0.62647,-0.40413 z m 50.75609,-39.82516 c 0.53259,-0.58851 0.51648,-0.58887 -23.29,-0.51884 l -23.82295,0.0701 23.26202,0.15523 c 12.79411,0.0854 23.30296,0.18635 23.35301,0.22438 0.05,0.038 0.009,0.20166 -0.091,0.36361 -0.30525,0.49391 0.0248,0.32888 0.58891,-0.29445 z"
       style="fill:#000000;stroke:#000000;stroke-width:0.294456" />
    <path
       id="path1007"
       d="M 470.40536,129.16099 V 105.9353 l 56.3147,-0.20257 c 30.97308,-0.11141 68.14486,-0.16088 82.60396,-0.10994 l 26.28926,0.0926 -4.05784,3.22451 c -3.35138,2.66314 -48.21241,37.89697 -53.69199,42.16966 l -1.63783,1.2771 h -52.91013 -52.91013 z"
       style="fill:#000000;stroke:#000000;stroke-width:0.294456" />
    <path
       id="path1009"
       d="m 470.60166,152.48483 c -0.10797,-0.10796 -0.1963,-10.62636 -0.1963,-23.37421 v -23.17791 l 15.09087,-0.20027 c 8.29997,-0.11015 45.5214,-0.15904 82.71428,-0.10865 l 67.62342,0.0916 -29.89922,23.48287 -29.89923,23.48286 h -52.61876 c -28.94031,0 -52.70709,-0.0883 -52.81506,-0.19631 z"
       style="fill:#000000;stroke:#000000;stroke-width:0.294456" />
    <g
       style="font-style:normal;font-weight:normal;font-size:59.9331px;line-height:1.25;font-family:sans-serif;fill:#000000;fill-opacity:1;stroke:none;stroke-width:1.49833"
       id="text1041"
       transform="scale(0.87573399,1.1418993)"
       aria-label="VIC  2020">
      <path
         id="path1439"
         style="font-style:normal;font-variant:normal;font-weight:normal;font-stretch:normal;font-size:287.679px;font-family:Skranji;-inkscape-font-specification:Skranji;stroke-width:1.49833"
         d="m 162.53991,172.64106 q 0.56187,-0.56187 0.56187,-1.40468 0.28094,-0.84281 0.84281,-1.68562 1.12375,-2.80937 1.12375,-2.80937 0.28094,0 0.28094,-0.56187 0.56187,-1.12375 0.84281,-2.24749 0.28093,-1.12375 0.84281,-2.52843 1.12374,-1.40468 1.12374,-2.24749 0.28094,-0.84281 0.84281,-1.40469 1.12375,-3.0903 1.40468,-3.65217 0.84281,-1.96656 0.84281,-2.80937 0,-1.12374 0.28094,-1.96655 1.40468,-3.37124 1.40468,-3.65218 0,-0.28093 0.28094,-0.84281 0.84281,-2.24749 1.40468,-3.0903 0.56187,-0.84281 0.84281,-1.96655 l 1.40468,-4.21405 q 0.84281,-3.0903 1.12375,-3.0903 0.56187,-0.28094 0,-0.84281 1.12375,-2.52843 1.40468,-2.80937 0.28094,-0.28093 0.56187,-0.84281 0.56188,-1.96655 0.56188,-2.24749 0,-0.56187 0.28093,-0.84281 0.84281,-2.24749 0.84281,-2.52843 0.28094,-0.28093 0.28094,-0.56187 1.40468,-3.0903 0.84281,-3.65217 -0.28094,-0.84281 0,-1.68562 0,-0.84281 0.56187,-1.68562 0.56188,-1.12375 0.84281,-1.96656 0.84281,-3.93311 0.84281,-5.05686 0.28094,-1.12374 0.84281,-2.52842 0.28094,-1.12375 0.28094,-2.2475 0.28093,-1.12374 0.84281,-1.96655 1.12374,-3.090303 1.40468,-3.933112 0.56187,-0.84281 0.84281,-1.685619 0.28094,-2.809366 0.56187,-3.371239 0.28094,-0.842809 0.56188,-2.247492 0.28093,-2.247492 0.56187,-2.528428 0.28094,-0.280937 0.28094,-0.561873 0.56187,-1.123746 1.12374,-4.214048 1.12375,-3.090302 1.12375,-4.494984 0.84281,-3.933111 1.12374,-4.494984 1.40469,-3.090302 1.40469,-3.652175 0,-0.842809 0.28093,-1.685619 1.12375,-1.685619 1.12375,-1.966555 0,-0.280937 0.28094,-0.84281 0.28093,-0.561873 0,-1.404683 0,-0.842809 0.28093,-1.685619 0.84281,-1.966555 0.84281,-2.247492 0,-0.280936 0.28094,-0.842809 1.40468,-2.528429 1.40468,-2.809365 l 1.12375,-3.652175 q 0.28093,-0.842809 0.28093,-1.404682 0.28094,-0.84281 0.28094,-1.966556 0.84281,-2.528429 1.40468,-3.652175 0.84281,-1.404682 1.40468,-2.809365 1.12375,-3.090301 1.12375,-3.090301 0.56187,-1.123746 0.84281,-2.528429 0.28094,-1.404682 0.84281,-2.528429 3.0903,-4.77592 10.39465,-4.214047 3.0903,0 5.05686,0.842809 2.24749,0.84281 5.05685,1.404683 1.68562,0.561873 3.65218,0.561873 2.24749,0 3.93311,0.280936 1.12375,0.280937 1.96656,0.561873 1.12374,0.280937 1.96655,0.561873 1.40468,0.280937 2.80937,0.280937 1.68562,0 3.0903,0 1.40468,0 2.80936,0 1.40469,-0.280937 2.80937,0 1.12374,0 1.96655,0.280937 1.12375,0.280936 1.96656,0.280936 1.40468,0.280937 2.52843,0.280937 1.12374,0 2.24749,0 2.24749,0.280936 3.93311,0.280936 1.96656,-0.280936 3.93311,-0.280936 2.52843,1.123746 2.80937,1.685619 0.56187,0.280936 1.12374,0.842809 1.96656,0.561873 2.80937,2.247492 0.84281,1.685619 2.24749,3.090302 -0.28094,0.842809 0,1.685619 0.56187,0.561873 0.56187,1.404682 -0.56187,3.090302 -0.56187,3.090302 -0.28094,1.123746 -0.84281,1.685619 -0.28094,0.561873 -0.28094,1.685619 -0.56187,0.84281 -1.12374,2.247492 -0.56187,1.123746 -1.12375,2.528429 -1.12374,1.966555 -1.68562,3.371238 -0.56187,1.123746 -1.12374,2.528428 -1.68562,3.652175 -1.96656,4.494985 0,0.561873 -0.56187,1.123746 -1.12375,3.090301 -1.40468,3.371238 -0.28094,0.280936 -0.56188,0.842809 -0.84281,1.123746 -0.84281,1.966556 0,0.561873 -0.28093,1.123746 -1.40469,2.809365 -1.40469,3.652175 0,0.561873 -0.28093,1.123746 -1.40468,2.809365 -1.40468,2.809365 -1.40469,3.090301 -1.68562,3.933111 0,0.842809 -0.56188,1.685619 -0.84281,3.090301 -1.68562,4.214047 -0.84281,0.84281 -0.28093,1.966556 -0.56188,0.561873 -0.84281,1.404683 -0.28094,0.842809 -0.84281,1.404682 -0.56187,2.528427 -1.68562,5.056857 -0.84281,1.96656 -0.84281,3.0903 -1.12375,2.52843 -1.40468,2.80937 0,0 0,0.28093 -0.56188,1.96656 -1.12375,3.09031 -0.56187,2.24749 -1.12374,3.37123 -1.12375,3.0903 -1.40469,3.65218 0,0.56187 -0.56187,0.56187 0.28094,1.12375 -0.28094,1.96656 -0.28093,0.56187 -0.56187,1.40468 -1.12375,3.0903 -1.12375,3.93311 -1.12374,3.37124 -1.96655,3.65217 -0.56187,2.2475 -0.84281,3.09031 -0.28094,0.84281 -0.84281,2.52842 -0.56187,2.80937 -1.40468,5.61874 -0.56188,1.40468 -0.84281,1.96655 -0.28094,0.28094 -0.56188,0.84281 -0.28093,0.56187 -0.28093,1.40468 0,0.84281 -0.28094,1.68562 -0.28093,1.12375 -1.12374,2.24749 -0.56188,0.84281 -1.12375,1.96656 l -1.68562,3.93311 q -0.56187,0.84281 -0.84281,1.68562 0,0.84281 -0.56187,1.68562 -0.56187,1.96655 -1.68562,3.37124 -1.12375,2.80936 -1.12375,3.37123 0,0.56188 -0.28093,1.12375 -1.12375,2.52843 -1.12375,3.37124 0,0.56187 -0.28094,1.12375 -0.56187,0.8428 -0.84281,1.96655 -0.28093,1.12375 -0.84281,2.24749 -1.40468,2.52843 -1.40468,3.0903 0,0.56188 -0.28093,1.12375 -1.12375,1.68562 -1.40469,2.52843 0,0.56187 -0.56187,1.40468 -1.40468,2.52843 -1.40468,3.37124 0,0.84281 -0.28094,1.40468 -0.84281,1.12375 -1.12374,1.68562 -0.28094,0.56187 -0.28094,1.12375 -2.24749,3.37124 -2.52843,4.49498 -0.28094,1.12375 -0.84281,2.52843 -1.68562,3.0903 -2.24749,4.77592 -0.56187,1.40468 -1.40468,3.0903 -1.40469,2.24749 -1.40469,3.0903 0,0.84281 -0.28093,1.68562 -1.40469,2.52843 -1.40469,3.37124 0,0.56187 -0.28093,1.12375 -1.68562,2.52843 -1.68562,3.37124 0,0.56187 -0.56187,1.12374 -1.12375,1.68562 -1.12375,2.24749 0,0.56188 -0.28094,1.40469 -0.28093,0.56187 -0.84281,1.40468 -0.56187,0.56187 -0.84281,1.40468 -0.84281,3.0903 -1.12374,3.37124 -0.28094,0.28094 -0.56187,0.84281 -0.28094,0.84281 -0.28094,1.96655 0,0.84281 -0.56187,1.68562 -1.12375,1.96656 -1.40469,2.52843 0,0.56187 -0.28093,1.12375 -0.28094,0.56187 -0.56188,1.40468 -0.28093,1.12375 -0.56187,2.24749 -2.24749,2.80937 -3.93311,2.80937 -0.56187,0.28093 -1.40468,0 -0.84281,0 -1.68562,0 -4.21405,0 -5.89967,-0.28094 -1.68562,0 -3.65217,0.28094 -1.40469,0 -2.80937,0.28093 -1.12374,0.28094 -2.80936,0 -1.12375,0 -1.96656,-0.28093 -0.84281,0 -1.68562,0 -1.40468,-0.28094 -2.52843,0 -0.84281,0.28093 -1.68562,0.28093 -3.0903,0.56188 -6.1806,0 -0.84281,0 -1.68562,-0.28093 -0.84281,0 -1.96655,0 -0.84281,-0.28094 -1.68562,-0.28094 -0.56188,0.28094 -1.40469,0.28094 -1.12374,0.28093 -3.37123,0.28093 -1.40469,0.28094 -3.09031,0.84281 -1.40468,0.56188 -2.80936,0.56188 -1.68562,0.28093 -3.37124,0 -1.68562,-0.28094 -3.0903,-0.28094 -1.12375,0.28094 -2.24749,0.56187 -1.12375,0.56188 -2.52843,0.56188 -0.56187,0 -1.68562,-0.28094 -0.84281,-0.28094 -1.40468,-0.56187 -3.65218,-2.2475 -3.65218,-4.21405 -1.40468,-1.96656 -1.96655,-2.52843 -0.84281,-1.40468 -0.84281,-1.96656 0,-0.56187 -0.28094,-1.12374 -1.12374,-3.65218 -1.96655,-4.49499 -0.56188,-1.40468 -1.12375,-2.24749 -0.28094,-0.84281 -0.84281,-1.96655 -1.40468,-3.65218 -1.96656,-4.49499 -0.28093,-0.84281 -0.8428,-2.24749 -1.40469,-3.0903 -1.96656,-3.93311 -0.28094,-0.84281 -0.84281,-1.68562 -0.56187,-0.84281 -0.84281,-1.40468 -0.28094,-0.84281 -0.84281,-1.68562 -0.56187,-0.84281 -1.68562,-3.65218 -0.56187,-1.96655 -1.12374,-2.24749 -0.28094,-0.56187 -0.56188,-1.12374 -0.56187,-2.80937 -1.12374,-3.37124 l -0.84281,-3.37124 q -1.12375,-2.80937 -1.12375,-3.0903 0.28094,-0.28094 0,-0.56187 -1.12374,-2.80937 -1.40468,-3.65218 0,-0.84281 -0.56187,-1.68562 -0.28094,-0.84281 -0.84281,-1.40468 -0.28094,-0.84281 -0.84281,-1.68562 -0.28094,-1.12375 -0.28094,-1.96656 0,-0.8428 -0.56187,-1.68561 -0.28094,-0.84281 -0.84281,-1.40469 -0.28094,-0.84281 -0.56188,-1.68562 -0.56187,-1.96655 -0.8428,-2.24749 -0.28094,-0.56187 -0.56188,-1.12374 -1.12374,-3.37124 -1.40468,-3.93312 -0.280937,-0.56187 -0.84281,-1.12374 -1.404682,-3.93311 -1.966555,-5.05686 -0.280937,-1.12374 -0.84281,-2.52843 -1.123746,-1.12374 -1.685619,-2.24749 -0.280936,-1.40468 -0.842809,-2.52843 -1.404683,-3.0903 -1.68562,-3.37124 -0.280936,-0.56187 -0.561873,-1.12374 -0.561873,-2.52843 -0.842809,-3.37124 -0.280937,-1.12375 -0.561873,-2.24749 -0.561873,-0.56188 -0.84281,-1.40468 -0.280936,-0.84281 -0.842809,-1.40469 -1.123746,-2.24749 -1.123746,-2.52843 0.280936,-0.28093 0,-0.84281 -0.561873,-2.52842 -1.123746,-4.21404 -0.561873,-2.80937 -1.123746,-4.21405 -0.280937,-1.40468 -0.84281,-2.80937 -0.842809,-1.96655 -1.123746,-2.52842 -0.280936,-0.84281 -0.561873,-1.40469 -0.842809,-3.0903 -1.123746,-3.37123 0,-0.28094 -0.280936,-1.12375 -0.84281,-3.0903 -1.123746,-3.0903 0,0 0,-0.28094 -0.280937,-0.56187 -0.561873,-1.68562 -0.280937,-1.40468 -0.561873,-1.96655 -0.84281,-2.52843 -1.123747,-3.37124 0,-1.12375 -0.561873,-2.24749 -0.280936,-0.84281 -0.842809,-1.96656 -0.280937,-1.40468 -0.561873,-2.24749 -1.123746,-1.96656 -1.123746,-2.24749 0,-0.56188 -0.280937,-1.12375 -1.404682,-2.52843 -1.685619,-2.80936 0,-0.56188 -0.280936,-1.12375 -1.404683,-2.528429 -1.404683,-2.809366 0,-0.561873 -0.561873,-1.123746 -0.561873,-2.247492 -1.123746,-3.371238 -1.404682,-2.809365 -1.404682,-2.809365 0.280936,-0.280937 0,-0.84281 -1.685619,-3.652174 -2.247492,-5.337793 -0.561873,-1.685619 -1.685619,-3.371238 -1.404683,-3.090302 -1.404683,-3.652175 0.280937,-0.84281 0,-1.404683 -1.685619,-3.090301 -1.685619,-4.214047 l -1.404683,-3.371238 q -1.685619,-4.494985 -2.528428,-6.46154 -1.123746,-1.966556 -3.090302,-3.371238 0,-1.404683 -0.842809,-2.247492 -0.84281,-1.123746 -1.404683,-2.528429 -0.842809,-2.809365 -0.842809,-3.090301 -0.561873,-1.404683 -0.84281,-2.809366 -0.280936,-1.404682 0,-3.090301 0.561873,-5.056857 6.46154,-6.742476 0.842809,-0.280937 3.652174,-0.280937 1.404683,-0.280936 2.247492,-0.280936 1.123747,-0.280937 2.528429,-0.561873 1.404683,-0.280937 2.247492,-0.280937 1.123746,-0.280936 2.247492,-0.561873 1.404683,-0.280936 2.247492,-0.280936 1.123746,-0.280937 2.528429,-0.561874 1.123746,-0.280936 2.247492,0 1.404682,0 2.809365,-0.280936 1.404683,0 2.528429,0 1.404682,-0.280937 2.809365,-0.561873 3.371238,-0.561873 6.461539,-1.123746 3.090302,-0.84281 6.180604,-1.123746 3.652175,0 5.056855,-0.84281 1.12375,-0.280936 2.24749,-0.280936 1.40469,-0.280937 2.80937,-0.561873 1.96655,-0.280937 4.21405,-0.561873 2.24749,-0.280937 4.21404,-0.280937 1.96656,0 4.77592,0.561873 2.2475,0.84281 2.80937,1.685619 0.56187,0.84281 1.68562,1.685619 1.96655,1.966556 2.24749,2.809366 0.56187,0.842809 0.56187,1.966555 0,0.84281 0,1.404683 1.12375,2.528428 1.12375,3.933111 0,1.404682 0,2.247492 0.56187,1.404682 0.56187,3.652174 0.28094,1.966556 0.56188,3.933112 0.28093,1.123746 0,2.247492 0,1.123746 0.28093,1.966555 0.28094,1.123746 0.56188,2.247492 0.56187,0.84281 0.84281,1.966556 0.56187,2.528428 0.56187,3.371238 0,0.84281 0.28093,1.685619 0.56188,4.214048 1.40469,7.866222 1.12374,3.371238 0.84281,4.214048 0,0.561873 0,1.123746 1.12374,3.652175 1.12374,4.775921 0.28094,0.842809 0.84281,1.966555 1.12375,2.809365 1.40469,3.652175 0.28093,0.842809 0.56187,2.247492 0.28093,0.842809 0,1.966555 0,0.84281 0.28093,1.68562 1.12375,3.371238 1.12375,5.337798 1.40468,3.65217 1.40468,4.77592 0,1.12374 0.56188,2.24749 1.12374,1.12374 1.40468,1.96655 0.28094,0.56188 0.28094,1.12375 0.8428,2.52843 0.56187,3.37124 0,0.84281 0.28093,1.68562 0,1.68562 1.12375,4.49498 0.28094,1.40468 0.56187,2.80937 0.56188,1.12374 1.12375,2.52842 0.56187,2.2475 1.12375,5.3378 0.84281,3.0903 1.96655,5.61873 0.84281,1.12374 0.84281,2.24749 0.28094,0.84281 0.56187,1.40468 1.40469,3.0903 1.40469,3.65218 0.28093,0.56187 0.56187,1.12374 0.56187,1.12375 0.84281,2.2475 0.56187,0.84281 1.12375,1.96655 0.56187,1.96656 1.12374,3.65218 0.56187,3.0903 0.84281,3.93311 0.84281,2.52843 1.12375,4.21404 0.56187,1.68562 0.56187,3.65218 1.12375,1.12375 1.12375,2.80936 0,1.68562 0.84281,3.09031 z" />
      <path
         id="path1441"
         style="font-style:normal;font-variant:normal;font-weight:normal;font-stretch:normal;font-size:287.679px;font-family:Skranji;-inkscape-font-specification:Skranji;stroke-width:1.49833"
         d="m 359.75735,39.196217 q -0.28094,0.842809 -0.56188,1.685619 0,0.561873 0,1.404682 0,0.280937 0,2.247492 0.28094,1.966556 0.28094,3.090302 l 0.28094,4.775921 v 4.77592 q 0,3.090302 0,3.933111 0.28093,0.561873 0.28093,1.123746 -0.84281,3.652175 -0.84281,5.056858 0,1.404682 0,2.809365 -0.28093,2.528428 -0.28093,5.337793 0,2.809365 -0.28094,5.056858 0,0.561873 -0.28094,1.966555 0,1.123746 0,1.966556 0,1.966555 -0.28093,3.090301 0,0.84281 0,2.247492 -0.56188,2.528429 -0.56188,3.652175 0,0.561873 0,1.685619 0.28094,0.84281 0,1.685619 -0.56187,3.933109 -0.56187,4.494989 v 5.33779 q 0,1.40468 0.28094,2.80936 0.28093,1.12375 0.28093,2.52843 0,1.96656 -0.28093,3.93311 0,1.68562 0,3.37124 -0.28094,2.52843 0,4.49499 0.28093,1.68562 0.28093,3.0903 0.28094,1.40468 0,2.52843 0,0.84281 0,2.24749 0.28094,1.68562 0,4.21405 0,2.24749 0.28094,5.05685 0.56187,3.65218 0.28094,4.77592 0,0.84281 0,1.96656 v 4.77592 q -0.56188,1.96656 -0.56188,2.52843 0.28094,0.56187 0.28094,1.12374 v 12.36121 q 0,2.80937 0,4.21405 0.28094,1.40468 -0.28094,3.0903 0.84281,2.80937 0.56188,3.65217 0,0.56188 0.28093,1.12375 0,1.40468 0,2.80937 0.28094,1.12374 0.28094,2.52842 0.28094,2.2475 0,4.77593 0,2.24749 0.28094,3.65217 0.28093,2.80936 0,3.37124 0,0.28093 0,0.84281 0,2.52843 0,3.65217 0.28093,0.84281 0.28093,1.40468 0.28094,1.96656 0.28094,3.65218 0.28094,1.68562 0.84281,3.37124 0.28094,2.52843 0.28094,4.77592 0.28093,2.24749 0.8428,4.77592 0,1.68562 0.56188,3.37124 0.56187,1.68562 0.28093,2.24749 0,0.28094 0,0.84281 0,1.12374 0,1.68562 0.28094,0.56187 -0.28093,1.68562 -0.56188,2.80936 -0.56188,3.93311 0,0.84281 -0.28093,1.96655 -1.12375,1.96656 -1.68562,2.2475 -0.28094,0 -0.56187,0.56187 -1.40469,1.68562 -1.96656,1.96655 -0.28094,0 -0.56187,0.56188 l -2.80937,1.40468 q -1.40468,0.84281 -2.80936,0.56187 -1.12375,0 -2.52843,0.28094 l -4.21405,0.28094 q -2.52843,-0.28094 -3.0903,-0.28094 -0.56187,0.28094 -1.12375,0.28094 -0.84281,0 -1.68562,-0.28094 -0.8428,0 -1.40468,0 h -5.05686 q -1.40468,0 -2.80936,-0.28094 -1.12375,-0.28093 -2.52843,0.56188 -1.96655,-0.28094 -3.93311,0.28093 -1.96656,0.56187 -3.93311,0.84281 -1.96656,-0.28094 -3.65218,0 -1.40468,0.28094 -2.52842,0.28094 -2.2475,0.56187 -2.52843,0.28093 0,0 -0.56188,0 -0.56187,-0.28093 -1.68561,-0.28093 -0.84281,0.28093 -1.68562,0.28093 -1.12375,0 -2.52843,-0.28093 -1.12375,-0.28094 -2.24749,-0.28094 -2.80937,-1.68562 -2.80937,-1.68562 -3.0903,-2.24749 -3.65217,-2.52843 -0.56188,-0.28093 -1.12375,-0.56187 -0.56187,-1.40468 -1.40468,-1.96655 -0.84281,-0.84281 -1.40469,-1.96656 -0.28093,-0.56187 -0.56187,-1.96656 0,-1.40468 0,-1.96655 0,-3.93311 0,-5.89967 0,-2.24749 0.56187,-4.49498 0.28094,-2.52843 1.40469,-5.61873 0.84281,-2.52843 0.84281,-3.93311 0.28093,-0.84281 0.56187,-1.96656 0.28094,-1.12375 0.28094,-1.96655 0.28093,-0.84281 0,-1.68562 0,-0.84281 0,-1.40469 0.84281,-4.49498 0.56187,-6.46154 0,-1.96655 0,-3.65217 v -10.39465 -5.3378 q 0,-4.21404 0,-7.30434 0.28094,-3.37124 -0.28094,-6.74248 -0.56187,-2.24749 -0.56187,-2.80937 0.28094,-0.56187 0.28094,-1.12374 0,-1.68562 0,-3.0903 0.28093,-1.68562 0,-3.37124 -0.28094,-4.21405 -0.84281,-8.14716 -0.28094,-4.21405 -0.28094,-8.4281 v -3.37123 q -0.28094,-1.68562 -0.56187,-3.37124 0,-1.68562 0,-3.65218 v -4.49498 q -0.28094,-1.96656 -0.28094,-3.65218 0.28094,-3.37123 0,-4.49498 -0.28094,-1.12375 -0.28094,-1.96655 -0.56187,-1.68562 -0.84281,-3.37124 0,-1.68562 -0.28093,-3.65218 -0.56188,-3.65217 -0.84281,-4.49498 0,-0.84281 0,-2.247494 0.28093,-0.842809 0,-2.247492 0,-1.404682 0,-2.809365 v -3.652175 q -0.28094,-2.809365 -0.28094,-2.809365 0.28094,-0.280936 0.28094,-0.561873 -0.28094,-3.371238 -0.28094,-6.742476 0.28094,-3.652175 0,-7.023413 -0.28093,-3.652174 -0.56187,-5.899666 -0.28094,-2.247492 -0.56187,-4.494985 -0.28094,-1.404682 -0.56188,-2.528428 0,-1.404683 0,-2.809365 -0.28093,-0.84281 -0.28093,-1.404683 0,-0.842809 -0.28094,-1.966555 -0.28094,-1.685619 -0.56187,-3.090302 -0.28094,-1.685619 -0.28094,-3.090302 0.56187,-1.966555 0.28094,-3.933111 0,-1.966555 0.28093,-2.528428 0,-1.123746 0.28094,-1.685619 0.56187,-0.84281 0.56187,-1.966556 1.12375,-1.685619 2.24749,-2.809365 3.09031,-1.966556 3.65218,-1.966556 0.84281,0 1.68562,0.280937 1.12374,0.280936 1.96655,0.280936 0.56188,0 1.40469,-0.280936 0.84281,-0.280937 1.68562,-0.280937 0.84281,0.561873 1.68561,0.561873 1.12375,-0.280936 1.96656,-0.280936 3.37124,-0.84281 4.21405,-0.561873 1.12374,0.280936 1.96655,0 h 4.77592 q 1.12375,0.280936 1.96656,0.280936 1.12375,-0.280936 1.96656,-0.280936 h 9.2709 q 3.0903,-0.561873 3.93311,-0.561873 1.40468,-0.280937 2.80937,-0.280937 1.68562,-0.280936 3.0903,-0.561873 1.40468,-0.280936 3.37124,0 2.24749,0 3.65217,0 3.65218,0.561873 4.77592,0.561873 3.93311,1.685619 4.77592,1.685619 1.12375,0 1.68562,0.280937 0.56187,0.280936 1.12375,1.123746 0.56187,0.561873 1.12374,1.123746 z" />
      <path
         id="path1443"
         style="font-style:normal;font-variant:normal;font-weight:normal;font-stretch:normal;font-size:287.679px;font-family:Skranji;-inkscape-font-specification:Skranji;stroke-width:1.49833"
         d="m 533.3761,88.921979 q -3.37124,1.685619 -4.77592,1.404682 -1.12375,-0.561873 -3.0903,-0.280936 -0.84281,-0.280937 -1.68562,0 -0.84281,0.280936 -1.40468,0.561873 -0.84281,0 -1.68562,-0.280937 -0.84281,-0.280936 -1.96656,0.280937 -0.56187,0 -1.40468,0.280936 -0.84281,0 -1.68562,-0.280936 -3.65217,-0.561873 -5.33779,0 -0.84281,0 -1.68562,-0.280937 -0.84281,-0.280936 -1.40469,-0.280936 -3.37123,0.842809 -4.77592,1.123746 -1.40468,0.280936 -2.80936,0.561873 -1.68562,0.561873 -3.65218,0.842809 -1.68561,0 -3.37123,0.561873 -1.12375,0.280937 -3.37124,1.404683 -2.80937,1.404683 -3.93311,1.685619 -1.12375,0.280937 -2.2475,0.84281 -1.12374,0.561873 -1.96655,0.561873 -0.56187,0 -1.40468,0.561873 -3.93311,2.809366 -5.61873,3.090306 -2.52843,1.40468 -3.09031,1.96655 -0.28093,0.28094 -0.56187,0.56187 -2.52843,1.68562 -3.37124,2.52843 -2.80936,1.40468 -3.93311,3.0903 -2.52843,2.2475 -2.52843,2.2475 -1.96655,2.52842 -2.52842,3.65217 -0.56188,0.84281 -1.12375,1.96656 -1.68562,1.68562 -1.96656,2.52842 -0.28093,0.56188 -0.84281,0.84281 -0.56187,1.12375 -0.84281,1.68562 -0.28093,0.56188 -0.56187,1.68562 -0.84281,2.52843 -1.12374,3.0903 0,0.28094 0,0.56188 -0.84281,3.0903 -0.84281,4.21404 0,1.12375 0,1.96656 0,1.96656 -0.28094,3.0903 0.56187,1.96656 0.56187,3.65218 0,1.40468 0.56188,3.37123 0.56187,1.96656 1.68561,3.65218 1.40469,2.52843 1.40469,3.0903 0.28093,0.56187 0.56187,1.12375 1.68562,3.0903 1.68562,3.0903 0.28094,0 0.56187,0.56187 0.56188,0.56187 0.84281,1.40468 0.56188,0.84281 1.12375,1.40469 1.96655,2.24749 1.96655,2.52843 0.28094,0.28093 0.84281,0.8428 1.96656,2.2475 2.2475,2.2475 1.96655,0.84281 2.80936,1.68562 1.68562,1.12374 2.52843,1.96655 3.65217,1.68562 4.21405,2.52843 0.84281,0.56187 1.68562,1.12375 2.52842,0.84281 2.52842,1.12374 0.28094,0 0.84281,0.28094 3.09031,1.12374 3.93311,1.12374 0.56188,0.28094 1.40469,0.56188 0.84281,0.28093 1.68562,0.84281 0.56187,0.28093 1.40468,0.28093 0.84281,0 1.68562,0.56188 l 3.37124,0.84281 q 3.65217,1.40468 6.1806,1.68562 3.37124,0.8428 4.21405,1.12374 1.12374,0.28094 1.96655,0.56187 2.24749,0.56188 4.49499,0.84281 2.24749,0 4.77592,0.28094 0.84281,0 1.68562,0.28094 0.84281,0 1.96655,0 3.0903,0 3.37124,0 0.56187,-0.28094 1.12375,-0.28094 0.56187,0 1.40468,0.28094 1.12374,0.28093 2.52843,0.56187 1.12374,0 1.96655,0 1.12375,-0.28094 2.24749,0.28094 3.09031,1.12374 3.65218,3.65217 0.56187,2.52843 0.84281,5.61873 v 4.49499 q 0.28094,1.40468 0.28094,2.52842 0,1.12375 0,2.2475 0,1.40468 -0.28094,2.80936 0,1.12375 0,2.52843 -0.28094,2.80936 -0.28094,5.61873 0,2.80936 0,3.65217 0,2.80937 -0.28093,3.93312 0,0.84281 0,1.68561 v 5.61873 q 0.56187,1.68562 0.56187,2.2475 0.28094,0.56187 0,1.12374 -0.56187,1.40469 -0.56187,2.2475 0.28093,0.8428 0.28093,1.40468 -0.28093,1.68562 -0.28093,2.24749 0.28093,0.28094 -0.28094,1.12375 -0.84281,3.65217 -2.80937,5.33779 -3.93311,1.68562 -5.61873,1.96655 -1.40468,0.28094 -3.65217,0.56188 -1.40468,0 -2.24749,0 -0.84281,0.28093 -2.24749,0.28093 -3.09031,0.84281 -4.21405,0.84281 -1.12375,0 -1.96656,0 -2.52843,0.84281 -4.21405,0.56188 -1.40468,-0.28094 -2.24749,-0.28094 -0.56187,0.56187 -1.68562,0.56187 -1.12374,0 -1.68562,-0.56187 -0.28093,-0.28094 -2.52842,0.28094 -1.96656,0.56187 -2.80937,0.28093 -5.05686,-1.12374 -7.02341,-1.12374 -1.96656,0 -3.93311,-0.56188 -3.93311,-1.12374 -5.61873,-1.68561 -1.40469,-0.28094 -3.0903,-0.56188 -0.84281,-0.28093 -1.68562,-0.28093 -0.84281,0 -1.68562,-0.28094 -1.40469,0 -1.96656,-0.56187 -0.56187,-0.28094 -1.12374,0 -3.37124,-1.12375 -3.37124,-1.12375 0,-0.28094 -0.28094,-0.28094 -3.0903,-0.56187 -3.37124,-0.84281 -0.28093,-0.28093 -0.56187,-0.28093 -2.80937,-0.56188 -3.37124,-0.84281 l -4.49498,-1.40468 q -1.12375,-0.28094 -2.80937,-1.40469 -3.65217,-1.96655 -3.93311,-1.96655 -3.37124,-1.40468 -4.49498,-1.68562 -0.84281,-0.28094 -1.96656,-0.56187 -3.0903,-1.68562 -3.93311,-1.96656 -0.56187,-0.28094 -1.40468,-0.84281 -2.80937,-1.40468 -3.0903,-1.68562 0,-0.28094 -0.28094,-0.28094 -2.24749,-1.12374 -3.0903,-1.40468 -0.56187,-0.28093 -1.12375,-0.28093 -0.56187,-0.84281 -1.68562,-1.68562 -0.84281,-0.84281 -1.40468,-2.2475 -0.56187,-0.56187 -1.68562,-0.56187 -0.84281,0 -1.40468,-0.56187 -3.37124,-2.80937 -4.21405,-3.37124 -2.80936,-1.96656 -3.37124,-1.96656 -0.56187,-0.28093 -1.12374,-0.8428 -0.56188,-0.56188 -1.12375,-1.12375 -0.56187,-0.84281 -1.12375,-1.40468 -0.8428,-1.12375 -1.96655,-1.68562 -0.84281,-0.84281 -1.68562,-1.96656 -2.24749,-2.80936 -2.80936,-2.80936 -0.28094,-0.28094 -0.84281,-0.84281 -1.40469,-1.96656 -1.96656,-3.0903 -0.56187,-1.12375 -1.68562,-1.68562 -2.80936,-3.37124 -2.80936,-4.21405 -1.96656,-1.96656 -2.2475,-2.52843 l -1.96655,-2.80936 q -1.68562,-3.37124 -1.96656,-3.37124 -2.24749,-3.65218 -2.52843,-3.65218 -0.56187,-2.80936 -1.68561,-4.77592 -0.84281,-2.24749 -1.12375,-3.37124 -1.68562,-4.21404 -1.96656,-5.33779 -0.56187,-1.40468 -1.12374,-3.37124 -0.28094,-1.96655 -0.56188,-3.65217 -1.40468,-3.93311 -1.40468,-4.77592 0,-3.65218 -0.56187,-4.77592 -0.28094,-1.40469 -0.28094,-2.80937 0,-1.96655 0.28094,-3.0903 0.28094,-1.12375 0.28094,-1.96656 0,-2.80936 -0.28094,-3.0903 0,-0.56187 0,-1.12374 l 0.28094,-3.09031 q 0.56187,-3.37123 0.84281,-4.21404 0.8428,-2.24749 0.56187,-2.52843 0,-0.28094 0.28093,-0.84281 0.56188,-1.96656 0.56188,-2.80937 0,-0.84281 0.28093,-1.96655 0.56188,-2.80937 0.56188,-4.49499 0.28093,-0.56187 0.56187,-1.40468 0.28094,-0.84281 0.56187,-1.68562 0.28094,-3.37124 0.56188,-3.65217 0.28093,-0.28094 0.28093,-0.84281 0.84281,-2.52843 0.56188,-2.80937 0,-0.28093 0,-0.56187 0.84281,-2.52843 1.96655,-4.49498 0.84281,-3.37124 1.12375,-3.93311 2.24749,-3.090306 2.24749,-3.652179 0.28094,-0.561873 0.84281,-1.123746 1.68562,-2.809366 2.24749,-3.371239 0.28094,-0.561873 0.28094,-1.685619 0.28093,-1.123746 0.56187,-1.685619 2.24749,-2.528428 2.24749,-2.809365 0,-0.280936 0.56188,-0.561873 0.84281,-2.247492 2.52842,-4.494984 1.12375,-1.966555 1.12375,-2.247492 0.28094,-0.280937 0.28094,-0.84281 1.40468,-1.685619 2.52843,-2.247492 1.68561,-2.809365 1.96655,-3.090301 1.96656,-1.966556 1.96656,-2.247492 0,-0.280937 0.56187,-0.561873 0.56187,-0.561873 1.40468,-0.84281 0.84281,-0.561873 1.68562,-1.123746 1.68562,-1.685619 2.52843,-2.528428 0.84281,-1.123746 1.68562,-2.247493 2.80936,-1.966555 2.80936,-2.247492 1.40469,-1.404682 2.2475,-2.247492 0.84281,-1.404682 1.40468,-1.685619 0.56187,-0.561873 1.12374,-1.123746 2.80937,-2.809365 2.80937,-2.528428 1.96656,-1.685619 3.0903,-2.247492 1.40468,-0.84281 2.80937,-1.685619 2.24749,-1.123747 2.52842,-1.404683 0.56188,-0.561873 1.12375,-0.84281 1.12375,-0.842809 2.24749,-1.404682 1.12375,-0.561873 2.24749,-1.123746 1.40469,-0.561873 2.52843,-0.84281 1.12375,-0.280936 2.52843,-0.561873 l 2.24749,-2.247492 q 3.09031,-1.123746 3.65218,-1.404682 3.0903,-1.123746 3.93311,-1.123746 1.12375,0 1.96656,-0.280937 3.37123,-1.404682 3.93311,-1.685619 3.93311,-1.123746 4.49498,-1.404682 0.84281,-0.280937 1.68562,0 1.96656,-0.84281 3.0903,-0.84281 l 3.0903,-1.123746 3.0903,-0.561873 q 3.93312,-0.84281 5.05686,-0.84281 1.12375,-0.280936 2.52843,-0.842809 2.80937,-0.84281 3.37124,-0.561873 0.56187,0.280936 1.12374,0.280936 3.09031,0 3.93312,-0.280936 1.12374,-0.561873 2.24749,-0.561873 1.96655,0 3.93311,0.561873 1.96655,0.280936 3.93311,-0.280937 3.93311,0 4.77592,0 0.84281,-0.280936 1.68562,0 1.40468,0.84281 3.0903,0 1.96656,-0.561873 2.24749,-0.280936 0.56188,0.280936 1.12375,0.280936 3.37124,1.123746 3.93311,1.123746 0.56187,-0.280936 1.12375,0 3.0903,1.404683 3.37123,1.404683 0.56188,-0.280937 1.12375,-0.280937 1.68562,0 2.24749,0.280937 0.84281,0.280936 1.40469,-0.280937 l 2.80936,1.966556 q 1.12375,1.966556 1.40468,2.247492 0.28094,0.280937 0.28094,0.561873 0.28094,0.84281 0,2.528429 0,1.404682 0.28094,3.090301 0.28093,2.809365 0.28093,2.809365 0.28094,0 0.28094,0.280937 0,1.123746 0,2.528428 0.28094,1.123747 0,2.247493 0,1.123746 -0.28094,2.247492 0,0.842809 0,2.528428 0,3.090302 0,3.371238 0.28094,0.280937 0.28094,0.561873 -0.84281,5.056858 -0.84281,6.46154 0,1.123746 0,3.933111 0,1.685619 0,1.685619 0,-0.280936 0,-0.561873 0,-0.280936 -0.28094,0 0,0 0,1.966556 0,1.685619 0,2.247492 0.28094,0.280936 0.28094,0.842809 0,2.247492 0,3.090302 0.28094,0.84281 0.28094,1.404683 0,1.123746 -0.28094,2.247492 -0.28094,0.842809 -0.28094,2.247492 -0.84281,3.090301 -0.56187,3.371238 z" />
      <path
         id="path1445"
         style="font-style:normal;font-variant:normal;font-weight:normal;font-stretch:normal;font-size:287.679px;font-family:Skranji;-inkscape-font-specification:Skranji;stroke-width:1.49833"
         d="m 828.35947,188.3735 q 2.24749,0.56188 4.77592,0.28094 2.80936,-0.28094 5.61873,-0.56187 1.40468,0 2.80936,0.28093 1.40469,0 2.80937,-0.28093 3.0903,-0.56188 3.0903,-0.28094 0.28094,0 0.84281,0 2.24749,-0.56187 2.52843,-0.84281 0.28094,-0.28094 0.84281,-0.28094 3.37124,-0.28093 3.0903,0 0,0 0.56187,0 2.2475,-0.28093 2.52843,0 0.56188,0 0.84281,0 1.12375,-0.28093 1.68562,-0.56187 0.84281,-0.28094 1.96656,-0.28094 3.37123,0.56188 4.21404,0.28094 0.84281,-0.28094 1.68562,-0.28094 l 3.0903,-0.56187 q 3.93312,-0.28093 5.05686,-0.56187 l 3.93311,0.28094 q 5.05686,0.56187 5.61873,0.8428 0.84281,0.56188 1.12375,1.68562 0.56187,0.84281 1.40468,1.40469 1.12375,3.93311 1.68562,6.74247 0.56187,2.24749 0.56187,4.77592 -0.56187,4.49499 -0.56187,5.89967 0,0.56187 0,1.40468 0.28094,0.84281 0.28094,1.96656 -0.56188,3.65217 -0.56188,4.49498 0.28094,0.56187 0.28094,1.12375 -0.84281,2.80936 -0.56187,4.21405 0.28093,1.12374 0.28093,1.96655 0.28094,2.24749 0,4.21405 -0.28093,1.68562 -0.28093,3.37124 0.28093,3.37124 0,4.21404 0,0.84281 0,1.40469 0,1.12374 0,1.96655 0.28093,0.84281 -0.28094,1.68562 -1.96655,2.80937 -2.52843,3.0903 -1.96655,0.84281 -2.52843,1.12375 -0.28093,0.28094 -0.84281,0.28094 h -3.93311 q -3.37123,0 -4.21404,-0.28094 -0.56188,0 -1.12375,0 -2.24749,-0.28094 -4.49498,-0.28094 -2.2475,0 -4.77592,0 -2.2475,-0.28093 -3.09031,-0.28093 -0.84281,0.28093 -2.24749,0 -2.52843,-0.28094 -3.0903,-0.28094 -0.28094,0.28094 -0.84281,0.28094 -2.80936,0 -5.05686,-0.28094 -2.24749,0 -5.33779,-0.28094 -1.40468,-0.28093 -2.80937,-0.28093 -1.40468,0 -2.80936,-0.28094 -2.24749,0 -3.0903,0 -0.84281,-0.28094 -1.40468,-0.28094 -1.40469,-0.56187 -3.93312,-0.28093 -2.24749,0.28093 -4.21404,0 -4.49499,-0.28094 -8.70904,0 -4.21404,0 -8.98996,-0.28094 -1.40469,0.28094 -1.96656,0.28094 -0.56187,-0.28094 -1.40468,0 -0.56187,-0.28094 -2.24749,0 -1.68562,0.28093 -2.2475,0.56187 -0.84281,0 -2.24749,0 -1.12374,0.28094 -2.52843,0 -0.56187,0 -1.40468,0 -0.56187,-0.28094 -1.68562,0 -3.37124,0.28094 -4.77592,0.56187 -1.12374,0.28094 -2.52843,0 -3.37124,-0.28093 -4.49498,0 -0.84281,0.28094 -1.68562,0.56188 h -5.05686 l -4.21405,0.28093 q -0.84281,0 -1.68561,0 -0.56188,0.28094 -1.40469,0.28094 -0.56187,0 -1.40468,-0.28094 -0.84281,0 -1.68562,0 -1.12374,0 -1.68562,0 -0.56187,0.28094 -1.68562,0 -1.12374,-0.28093 -1.96655,-0.56187 -0.84281,-0.28094 -1.96656,-0.56187 -1.68562,-2.80937 -1.96655,-3.93311 -0.28094,-1.12375 -1.12375,-1.96656 l -1.40468,-3.37124 q -2.24749,-2.52843 -2.80937,-4.21405 -1.40468,-2.52842 -1.68562,-3.37123 -0.28093,-1.12375 -0.84281,-1.96656 0,-1.40468 -0.56187,-1.96655 -0.56187,-0.84281 -1.12374,-1.68562 -0.28094,-2.52843 -0.28094,-2.52843 0,-0.28094 -0.28094,-0.56188 l -1.68562,-4.49498 q -0.56187,-1.40468 -0.84281,-2.24749 -0.28093,-1.12375 -1.40468,-1.68562 0.28094,-1.96656 0.28094,-2.52843 0.28093,-0.56187 0.28093,-1.40468 0.56188,-2.80937 1.40469,-4.21405 1.12374,-1.40468 1.96655,-2.52843 2.52843,-1.96655 3.0903,-1.96655 0.56188,-0.28094 1.12375,-0.56188 1.40468,-1.12374 1.68562,-1.12374 0.56187,-0.28094 1.12374,-0.84281 1.96656,-1.68562 2.2475,-1.68562 0.28093,-0.28094 0.84281,-0.84281 l 3.65217,-3.37124 q 1.96656,-1.40468 2.24749,-1.68562 0.56188,-0.56187 1.12375,-1.12374 l 3.37124,-2.80937 2.52843,-1.96655 q 1.96655,-2.2475 2.24749,-2.2475 2.52843,-2.52843 3.0903,-2.80936 2.24749,-1.96656 2.52843,-2.24749 0.28093,-0.56188 0.84281,-0.84281 2.24749,-1.68562 2.24749,-1.68562 0,-0.28094 0.28094,-0.56188 3.93311,-3.65217 5.33779,-5.05685 1.40468,-1.68562 2.80937,-3.0903 1.68561,-1.68562 2.52842,-2.52843 2.52843,-2.24749 2.80937,-2.24749 0.28094,0 0.56187,-0.56188 2.80937,-2.24749 4.49499,-3.93311 1.12374,-1.12375 1.68561,-1.12375 0.56188,-0.28093 1.12375,-0.56187 l 2.52843,-2.52843 q 0.56187,-0.56187 1.12375,-1.12374 0.56187,-0.56188 1.12374,-1.12375 1.40468,-1.68562 2.24749,-2.24749 0.84281,-0.84281 1.68562,-1.68562 1.96656,-2.24749 2.52843,-2.52843 2.80937,-3.37124 3.93311,-4.21405 1.12375,-1.12374 2.24749,-2.52842 1.40469,-1.40469 2.52843,-3.09031 1.40469,-1.68562 2.80937,-3.37123 1.68562,-1.40469 3.0903,-3.09031 1.40468,-2.24749 1.96656,-2.52842 0.56187,-0.28094 0,-0.84281 1.40468,-0.56188 1.96655,-1.68562 0.84281,-1.12375 1.68562,-2.2475 0.28094,-0.8428 0.84281,-1.68561 0.56187,-0.84281 1.12375,-1.68562 0.56187,-0.84281 0.84281,-1.96656 0.28093,-1.12375 1.40468,-1.68562 0,-1.40468 0.28093,-2.52843 0.56188,-1.12374 1.12375,-2.52843 0.56187,-1.68561 0.56187,-2.528424 0,-1.123746 0,-1.685619 0,-3.652175 -0.28093,-4.214048 0,-0.842809 0,-1.685619 0,-2.528428 -0.28094,-2.528428 0,-0.280937 0,-0.561873 -0.56187,-1.123746 -0.56187,-1.966556 0,-0.842809 -0.56188,-1.685619 -0.56187,-0.561873 -1.96655,-1.685619 -1.12375,-1.404682 -1.96656,-1.966555 -1.96655,-0.84281 -3.0903,-0.84281 -1.68562,-0.561873 -2.24749,-0.280936 -0.56187,0 -1.12375,0 -0.84281,0 -1.68562,0 -0.84281,-0.280937 -1.96655,0 -1.96656,0.561873 -2.80937,0.842809 -0.84281,0.280937 -1.40468,0.280937 -1.40468,0 -3.37124,1.404682 -3.37124,2.247492 -3.93311,3.090302 -0.56187,0.842809 -1.40468,1.123746 -1.12375,1.685619 -1.96656,2.528428 -0.84281,1.123746 -1.40468,1.966556 -0.28094,0.561873 -0.56187,1.123746 -1.40468,2.809365 -1.68562,3.371238 -0.28094,0.280937 -0.56187,0.84281 -0.84281,3.090302 -1.68562,3.933112 -0.56188,0.84281 -0.84281,2.24749 -0.28094,1.12375 -0.84281,1.96656 -0.84281,0.84281 -1.68562,2.24749 -0.56187,1.40468 -1.12375,2.80936 -1.40468,2.52843 -1.40468,3.09031 -2.52843,2.24749 -3.65217,3.0903 -4.49499,0 -6.46154,-0.56188 -1.68562,-0.56187 -2.2475,-2.52842 -2.52842,-1.40469 -3.93311,-1.96656 -2.80936,-1.12375 -3.37124,-1.40468 -0.56187,-0.28094 -1.12374,-0.56188 -1.12375,-0.56187 -2.24749,-0.84281 -0.84281,-0.56187 -1.40469,-1.68561 -1.40468,0.28093 -1.68562,-0.28094 -0.28093,-0.84281 -1.40468,-1.12375 -1.40468,-1.12374 -2.80936,-2.80936 -1.12375,-1.68562 -3.37124,-2.809367 -1.40468,-1.123746 -1.68562,-1.123746 -0.28094,-0.280937 -0.84281,-0.84281 -1.12375,-0.842809 -1.68562,-1.123746 -0.56187,-0.561873 -1.12374,-1.123746 -2.52843,-1.404683 -3.37124,-2.247492 -1.40469,-1.404683 -2.52843,-1.966556 -3.0903,-2.809365 -3.37124,-3.090301 -1.40468,-2.247492 -1.68562,-2.247492 -0.28093,-0.280937 -0.28093,-0.561873 -0.56188,-1.404683 -0.84281,-2.247492 0,-1.123746 0.28093,-1.685619 1.40468,-3.371239 1.68562,-4.775921 1.12375,-2.809365 1.12375,-3.090302 0,-0.561873 0.28093,-0.842809 1.40469,-1.966556 1.40469,-2.247492 0,-0.561873 0.28093,-1.123746 1.40469,-1.685619 1.68562,-2.247492 0.56187,-0.84281 0.84281,-1.404683 1.68562,-2.528429 1.68562,-2.809365 0.28094,-0.561873 0.84281,-1.123746 1.68562,-2.809365 2.24749,-3.090302 0.84281,-1.966555 1.12375,-1.966555 0.56187,-0.280937 0.28093,-0.84281 1.68562,-1.966555 1.96656,-1.966555 0.56187,-0.280937 0.84281,-0.84281 0.56187,-0.561873 1.12375,-1.123746 0.84281,-0.842809 1.96655,-1.123746 0.56187,-1.123746 1.40468,-1.404683 0.84281,-0.280936 1.40469,-1.123746 0.56187,-0.561873 1.12374,-1.123746 0.84281,-0.561873 1.40468,-1.404682 0.84281,-0.280937 1.40469,-0.561873 0.56187,-0.280937 1.40468,-0.84281 1.96656,-2.247492 3.65217,-2.809365 2.52843,-1.966555 3.09031,-2.247492 0.56187,-0.280936 1.68562,-0.561873 2.80936,-1.966555 3.37123,-1.966555 0.84281,0 1.40469,-0.561873 1.96655,-1.123746 2.52842,-1.123746 0.84281,0 1.68562,-0.561874 2.52843,-1.123746 3.09031,-1.404682 0.56187,-0.280937 1.12374,-0.561873 0.84281,-0.280937 1.40468,0 0.84281,0 1.68562,-0.280937 0.56188,-0.280936 1.12375,-0.561873 0.84281,-0.280936 1.96655,-0.280936 2.80937,0 4.77593,-0.84281 1.96655,-0.842809 4.21404,-1.123746 1.68562,0.280937 2.24749,0 0.84281,-0.280936 1.40469,-0.280936 3.37124,0 3.93311,0 0.56187,-0.280937 1.12374,-0.84281 1.96656,0.84281 4.21405,0.280937 l 3.37124,-0.280937 3.0903,0.561873 q 3.0903,0 3.93311,0 1.12375,-0.280936 1.96656,0 0.56187,0 1.40468,0.561873 0.84281,0.280937 1.68562,0.561873 2.80937,0.280937 3.37124,1.123746 3.37124,0.84281 4.21405,1.404683 0.84281,0.561873 1.96655,0 0.84281,1.123746 1.96656,1.404682 1.12374,0 1.96655,0.561873 l 3.0903,2.247493 q 2.80937,0.842809 2.80937,1.123746 0,0 0.28094,0 2.80936,1.685619 3.37123,1.685619 2.52843,1.966555 3.09031,2.528428 1.68561,1.404683 2.52842,1.966556 1.96656,1.123746 2.52843,1.966555 0.84281,0.84281 1.68562,1.685619 0.56187,0.561873 1.40468,1.123746 0.84281,0.280937 1.40469,0.84281 1.12374,0.84281 1.68562,1.685619 0.56187,0.561873 1.12374,0.84281 1.12375,2.528428 2.80937,3.933111 0.84281,1.685619 1.12374,1.966555 0.56188,0 1.12375,0.561873 0.28094,1.123746 1.96655,3.371238 1.12375,1.404683 1.96656,3.371239 0.84281,1.685619 1.68562,3.652174 1.12375,2.247492 1.96655,3.090302 0.56188,2.809365 1.12375,4.214047 1.12375,3.652175 1.12375,4.775921 0,1.123746 0.28093,2.528429 0.84281,3.652174 1.12375,4.494984 0.28094,0.561873 0,1.404682 1.40468,2.247492 0.84281,5.618731 -0.56187,3.371238 0.28094,5.618731 -0.56188,2.24749 -0.84281,4.49498 0,1.96656 -0.84281,3.37124 0,2.52843 -0.28094,3.37124 -0.28094,0.84281 -0.56187,1.68562 -0.56188,2.80936 -0.56188,3.37124 -1.40468,2.24749 -1.68562,2.80936 0,0.28094 -0.28093,0.56187 l -1.96656,2.80937 q 0,1.68562 -0.56187,2.52843 -0.56187,0.84281 -1.12375,2.24749 -2.52842,1.40468 -2.52842,1.68562 0,0 -0.28094,0.28094 -1.12375,1.12374 -1.40468,1.68561 0,0.28094 -0.56188,0.84281 -1.68562,2.2475 -2.24749,2.52843 -0.28094,0 -0.56187,0.56188 -1.96656,2.80936 -2.52843,3.93311 -2.24749,2.24749 -2.52843,2.52843 0,0 -0.28094,0 -1.96655,2.24749 -3.37123,3.65217 -2.2475,2.52843 -2.2475,2.52843 0.28094,0 0,0.28094 -2.24749,1.96655 -3.0903,2.80936 -1.68562,1.68562 -2.24749,2.52843 -0.56187,0.84281 -1.68562,1.40468 -2.52843,2.24749 -3.0903,2.80937 -0.28094,0.28093 -0.84281,0.84281 -2.52843,2.24749 -2.80936,2.80936 -0.28094,0.56187 -0.84281,0.84281 -1.68562,2.80937 -1.96656,2.80937 -0.28094,0 -0.56187,0.28093 -1.12375,1.68562 -2.80937,2.80937 -0.84281,0.84281 -1.40468,1.40468 -0.56187,0.56187 -1.12375,1.12375 -1.40468,1.40468 -2.24749,2.24749 -0.84281,0.84281 -1.40468,1.96655 -0.56187,0.56188 -1.12375,1.40469 -0.28093,0.56187 -1.12374,0.84281 l -1.96656,2.52842 q -1.40468,0.84281 -1.96655,1.68562 -0.56188,0.56188 -1.12375,1.12375 -2.24749,2.24749 -2.52843,2.24749 -0.28094,0.84281 -1.12375,1.68562 -0.56187,0.56187 -1.12374,1.40468 z" />
      <path
         id="path1447"
         style="font-style:normal;font-variant:normal;font-weight:normal;font-stretch:normal;font-size:287.679px;font-family:Skranji;-inkscape-font-specification:Skranji;stroke-width:1.49833"
         d="m 912.07853,153.25644 q -0.28093,-3.37124 -0.28093,-3.37124 -0.56188,-3.65217 -0.56188,-4.77592 0,-1.40468 0,-2.80936 0,-1.40469 0.28094,-2.52843 0.28094,-1.12375 -0.28094,-2.52843 0.84281,-1.12375 0.56188,-2.24749 0,-1.40469 0,-2.80937 0.28093,-2.80936 0,-3.0903 0,-0.56187 0,-1.12375 l 0.28093,-3.37123 q 0,-2.2475 0.28094,-2.2475 0.28094,-0.28093 0.28094,-0.84281 -0.28094,-1.40468 0.28093,-3.0903 0,-1.40468 0,-2.80936 0,-1.40469 0.56188,-2.80937 l 0.56187,-3.37124 q 1.12374,-3.93311 1.12374,-4.49498 0.56188,-1.12375 1.12375,-3.37124 0.28094,-0.56187 0.56187,-1.40468 0.28094,-1.123747 0.56188,-2.247493 0.56187,-0.842809 0.56187,-1.966555 0.28094,-1.404683 0.84281,-2.528429 1.68562,-3.371238 1.68562,-4.214048 0.28093,-0.842809 0.56187,-1.404682 1.12375,-2.247492 1.12375,-2.247492 0.28093,-0.280937 0.56187,-0.84281 0.84281,-2.809365 0.84281,-2.809365 0.28094,-0.280936 0.56187,-0.842809 1.68562,-3.933112 1.68562,-4.214048 1.40468,-3.090302 1.96656,-3.371238 0.56187,-0.561873 0.84281,-1.685619 1.40468,-1.123746 1.68562,-1.685619 0.56187,-0.84281 1.12374,-1.404683 0.28094,-1.685619 1.12375,-2.528428 0.84281,-1.123746 1.96655,-1.68562 1.68562,-1.966555 1.96656,-2.809365 0.56187,-1.123746 1.68562,-1.404682 1.68562,-1.966556 1.96655,-2.528429 0.28094,-0.561873 0.84281,-1.123746 3.93311,-3.371238 4.77592,-4.214047 3.93312,-3.090302 5.05686,-3.933112 0.84281,-0.842809 1.40468,-1.123746 0.56188,-0.561873 1.12375,-1.123746 2.24749,-1.685619 2.80936,-1.685619 0.56188,-0.280936 1.12375,-0.561873 2.52843,-1.966555 2.52843,-1.966555 0,-0.280937 0.56187,-0.561873 2.52843,-1.404683 3.0903,-1.685619 0.84281,-0.280937 1.40469,-0.84281 3.0903,-1.685619 3.37123,-1.404682 0.56188,0 0,-0.561873 2.2475,-0.84281 2.52843,-0.84281 0.28094,0 0.56188,-0.280936 2.24749,-1.123747 2.80936,-1.68562 0.84281,-0.561873 2.24749,-0.842809 1.40469,-0.561873 2.2475,-1.404683 1.12374,0.280937 1.68561,-0.280936 0.56188,-0.561873 1.12375,-1.123746 1.40468,0 2.80937,-0.561873 1.40468,-0.561873 2.80936,0 1.68562,-0.280937 2.52843,-0.280937 1.12375,-0.280936 2.24749,-0.280936 1.40468,0 2.52843,0.280936 1.40468,0.280937 2.80937,-0.280936 2.52842,0.561873 2.8094,0.561873 0.5618,-0.280937 1.4046,-0.280937 1.6857,-0.280936 3.3713,0 3.0903,0.561873 3.0903,0.561873 1.9665,0.561873 3.9331,0.561873 2.2475,0 3.3712,1.404683 1.6857,0.280936 2.8094,0.842809 1.4047,0.561873 2.5284,1.123746 2.2475,1.404683 2.5285,1.404683 0.2809,-0.280936 0.8428,0 2.8093,1.404683 2.8093,1.404683 2.5285,0.561873 2.5285,0.842809 0.2809,0 0.5618,0 l 3.9331,2.528429 q 2.5285,1.123746 2.8094,1.966555 1.4047,0.280937 1.9666,1.123746 0.8428,0.84281 2.2475,1.404683 2.5284,1.685619 3.0903,2.247492 0.8428,0.561873 1.4046,1.123746 1.9666,1.966556 2.5285,2.247492 3.0903,2.528429 5.0568,3.933111 l 3.6522,3.652175 q 2.2475,2.528428 2.5284,3.371238 0.5619,0.842809 1.1238,1.404682 1.1237,2.247493 1.4047,2.528429 0.2809,0.280937 0.5618,0.84281 1.6856,3.090301 1.6856,3.652174 1.9666,2.247492 2.2475,2.528429 0.281,0.842809 0.5619,1.685619 0.5619,0.842809 0.5619,1.404682 1.1237,1.123746 1.6856,2.247492 0.5619,1.123746 1.1238,2.528429 1.4046,3.090302 1.9665,4.775921 2.2475,3.933111 2.8094,4.77592 0.8428,2.809365 1.1237,3.933111 0.281,0.84281 1.4047,1.404683 0,1.404683 0.2809,2.528429 0.5619,1.123746 1.1238,2.528429 1.1237,3.93311 1.1237,5.05686 0.281,0.84281 0.281,1.68562 0.2809,1.96655 0.2809,2.52842 0.2809,0.28094 0.2809,0.84281 0.8428,2.2475 0.8428,3.65218 1.4047,3.37124 1.4047,4.77592 0.8428,2.52843 0.5619,3.37124 0,0.56187 0,1.40468 0.2809,0.84281 0.2809,3.93311 0.5619,2.24749 0.5619,3.93311 0.2809,1.12375 0.2809,3.37124 -0.2809,3.0903 -0.5618,6.1806 -0.281,3.0903 -0.5619,6.18061 0,0.56187 0,1.40468 0.2809,0.84281 0,1.68562 0,1.40468 -0.2809,2.52843 -0.281,1.12374 -0.281,2.52843 0,0.56187 0,1.68561 0.281,0.84281 -0.2809,1.40469 -0.2809,0.56187 -0.2809,1.40468 0.2809,0.84281 -0.281,1.68562 -1.1237,3.65217 -1.1237,6.46154 0,2.80936 -1.4047,4.77592 -0.5619,3.0903 -0.8428,3.65217 -0.281,0.28094 -0.5619,0.84281 l -1.4047,5.05686 q -0.8428,2.80937 -1.1237,3.0903 -0.281,0 -0.5619,0.56187 -0.5619,1.40469 -0.8428,2.2475 -0.2809,0.56187 -0.2809,1.68562 -1.4047,2.80936 -1.6857,3.0903 l -1.1237,3.65217 q -1.4047,2.80937 -2.5284,4.49499 -1.6857,2.80936 -1.9666,3.65217 -0.2809,0.56187 -0.8428,0.84281 -1.1237,2.52843 -1.1237,3.37124 -2.2475,1.68562 -2.8094,2.80936 -0.5619,0.56188 -1.1238,1.68562 -0.5618,0.84281 -1.1237,1.40468 -1.4047,1.96656 -1.9666,2.80937 -0.2809,0.56187 -1.1237,0.56187 -1.6856,2.52843 -2.5284,3.37124 -1.1238,1.12375 -1.6856,1.96656 -0.281,0.56187 -0.8429,1.12374 -2.5284,1.96656 -3.9331,3.37124 -0.8428,0.84281 -2.2475,1.96656 -1.1237,1.12374 -2.5284,2.24749 -1.6856,1.68562 -4.214,3.37124 -0.8428,0.56187 -1.6857,0.84281 -0.5618,0 -1.4046,0.56187 -1.6857,1.40468 -4.495,2.24749 -2.5285,1.40468 -3.3713,1.68562 -0.5618,0 -1.1237,0.84281 -3.6522,1.40468 -4.7759,1.68562 -1.1238,0.56187 -2.5285,1.12374 l -3.0903,0.56188 q -0.8428,0.28093 -1.9665,0.56187 -0.8428,0.28094 -1.4047,0.28094 -1.6856,0.56187 -3.3712,0.56187 -2.2475,0.84281 -3.0903,0.56187 -0.8428,0 -1.9666,0 -2.5284,1.12375 -3.0903,1.12375 -3.0903,-0.28094 -3.65217,-0.56187 -0.28093,0 -0.84281,0 -3.0903,-0.28094 -4.49498,-0.28094 -1.40468,0 -2.80937,-0.28094 -0.84281,0 -2.24749,0 -1.12375,0 -2.24749,-0.56187 -1.40468,-0.28094 -2.24749,-0.56187 -0.84281,0 -1.40469,-0.56188 -2.80936,0 -3.65217,-0.56187 -0.56187,-0.28094 -1.40468,0 -0.84281,-0.56187 -1.68562,-0.84281 -0.56188,-0.28093 -1.40468,-0.84281 -0.84281,-0.56187 -1.96656,-0.56187 -1.12375,0 -1.96656,-0.56187 -1.96655,-1.40469 -2.24749,-1.40469 -0.28093,0 -0.84281,-0.28093 -2.52843,-1.12375 -2.52843,-1.12375 0,-0.28094 -0.28093,-0.28094 -2.24749,-1.12374 -2.24749,-2.24749 -4.21405,-3.37124 -6.74248,-4.49498 -2.52843,-1.12375 -3.37124,-3.65218 -2.24749,-1.68562 -2.52843,-1.96655 -2.52843,-1.68562 -2.80936,-1.96656 -1.40469,-2.24749 -1.96656,-2.80936 -2.52843,-2.80937 -3.37124,-3.65218 -0.56187,-1.12374 -1.40468,-1.68562 -1.68562,-2.24749 -2.52843,-3.0903 -0.84281,-0.84281 -1.96655,-1.68562 -1.12375,-2.24749 -1.68562,-2.24749 -0.56188,-0.28094 -1.12375,-0.84281 -2.80936,-2.80936 -3.0903,-5.89966 -1.68562,-2.80937 -2.52843,-3.65218 -0.56187,-0.84281 -0.84281,-2.24749 -1.40468,-2.24749 -1.40468,-2.80937 -1.40468,-1.96655 -1.68562,-2.80936 -1.12375,-3.0903 -1.12375,-3.37124 0,-0.56187 -0.56187,-1.12375 -0.84281,-2.24749 -1.40468,-3.93311 l -0.84281,-3.65217 q -1.12375,-2.80937 -1.12375,-3.0903 0,-0.28094 -0.28093,-0.56188 -0.56188,-3.37123 -0.84281,-3.93311 -0.28094,-0.84281 -0.56188,-1.40468 -0.28093,-3.37124 -0.56187,-4.21405 -0.28094,-0.84281 -0.56187,-1.96655 -0.56187,-2.2475 -0.56187,-2.80937 0.28093,-0.84281 -0.28094,-1.40468 l -0.84281,-3.0903 q 0,-0.84281 0,-1.68562 0.28094,-0.84281 0,-1.68562 z M 1016.025,86.112614 q -1.6856,-2.247492 -1.9665,-2.247492 -0.281,-0.280937 -0.5619,-0.561873 -1.1237,-1.123746 -2.2475,-2.809365 -1.1237,-0.84281 -2.2475,-2.247493 -0.8428,-1.685619 -1.9665,-2.247492 l -3.0903,-1.404682 q -4.21408,-0.84281 -5.61876,-0.280937 -3.65217,1.404683 -4.77592,1.966556 -0.84281,0.280936 -1.68562,0.842809 -1.68562,1.123746 -2.24749,1.404683 -0.56187,0.280936 -0.84281,0.842809 l -2.52843,1.966556 q -2.52843,2.247492 -3.0903,3.090302 -1.68562,1.966555 -1.96656,2.247492 -0.28093,0 -0.28093,0.280936 -1.96656,2.528429 -2.24749,3.371238 -0.28094,0.84281 -1.12375,1.685619 -0.28094,1.123746 -0.84281,1.966556 -0.28094,0.561873 -0.84281,1.123746 -0.84281,1.685619 -0.84281,2.528429 0,0.561873 -0.28094,1.123746 -0.28093,0.561873 -1.40468,2.247493 -1.12374,1.40468 -0.56187,2.24749 -0.56187,0.84281 -0.56187,1.68562 0,0.56187 -0.28094,1.40468 -1.40468,3.37124 -1.68562,5.05686 -0.28094,1.40468 -0.84281,3.0903 -0.28094,1.40468 -0.56187,2.52843 0,1.12375 -0.56188,2.24749 0.56188,1.68562 0,2.52843 -0.28093,0.84281 -0.28093,1.96656 -0.28094,2.52842 -0.28094,3.37123 0,0.84281 0,1.12375 0,1.12375 -0.28093,2.24749 0,0.84281 0,2.24749 v 3.65218 q 0,0.84281 0.28093,2.24749 0.28094,1.12375 0,1.96656 l 0.28094,4.77592 q 0.28093,2.52843 0.56187,3.37124 0.28094,0.8428 0.28094,1.68561 0,1.40469 -0.28094,2.52843 -0.28094,1.12375 0.28094,2.2475 0.56187,2.80936 0.84281,3.0903 0.28093,3.37123 0.28093,3.37123 0.56188,1.96656 0.56188,3.37124 1.12374,2.80937 1.40468,3.65218 0.28094,0.84281 0.56187,1.68562 0.28094,2.24749 0.56188,2.52843 0.28093,0 0.28093,0.56187 1.12375,3.0903 1.12375,3.37124 0,0.28093 0.28093,0.56187 0.84281,1.40468 1.68562,2.80936 0.84281,1.12375 0.56188,3.37124 1.12374,3.0903 1.12374,3.93311 0,0.84281 0.56188,1.12375 1.40468,1.96656 1.12374,2.24749 0,0 0.28094,0.56187 1.40468,1.40469 1.68562,1.68562 0.28093,0.28094 0.28093,0.84281 2.52843,1.40469 3.37124,2.2475 2.52843,2.52842 3.0903,2.80936 0.56188,0 0.56188,1.12375 2.24749,0.84281 3.0903,1.12374 1.12374,0 1.96655,0.28094 2.80937,1.12375 2.80937,1.12375 0.28094,-0.28094 0.56187,-0.28094 2.80937,-0.28094 3.65217,-0.28094 3.0903,-0.84281 3.0903,-0.84281 3.0903,-2.24749 3.6522,-2.52843 0.8428,-0.28093 1.4047,-1.40468 2.5284,-2.24749 3.3712,-3.37124 1.1237,-1.12374 1.9666,-2.52843 2.2475,-2.80936 2.5284,-3.93311 0.5619,-1.12374 1.4047,-1.68562 1.1237,-3.93311 1.6856,-4.49498 1.1237,-2.80936 1.1237,-3.65217 0.281,-1.12375 0.8428,-1.96656 0.8429,-3.93311 1.1238,-4.49498 0.5619,-0.56188 0.8428,-1.12375 0.5619,-1.12375 0.5619,-2.24749 0,-1.40468 1.1237,-1.96656 0,-1.12374 0.281,-2.24749 0.2809,-1.12375 0.5618,-2.24749 0.8428,-3.65218 0.8428,-4.77592 0,-1.40468 0.281,-2.80937 1.1237,-3.0903 0.8428,-3.37124 0,-0.56187 0,-0.84281 0.5619,-2.80936 0,-3.93311 0,-0.84281 0,-1.68562 0.2809,-0.8428 0.5619,-1.96655 0,-2.80937 0,-3.65218 0,-1.12374 0,-2.52842 0,-3.09031 -0.281,-3.93312 -0.2809,-0.8428 -0.2809,-1.40468 0,-2.24749 0,-3.93311 0,-1.68562 -0.5619,-3.37124 -0.2809,-0.84281 -0.2809,-1.68562 0,-1.12374 0,-1.68562 -1.1238,-3.0903 -1.1238,-3.65217 0.281,-0.84281 0.281,-1.68562 -0.8428,-1.40468 -0.8428,-1.96655 0,-0.84281 -0.5619,-1.40469 0.5619,-1.40468 0,-2.24749 -0.5619,-1.12375 -0.8428,-1.96655 -0.8428,-3.37124 -1.1238,-4.21405 -0.8428,-3.37124 -1.4047,-3.933113 -0.8428,-3.090302 -1.1237,-3.371238 0,-0.280937 -0.2809,-0.561874 -1.4047,-3.371238 -1.6857,-3.933111 -1.6856,-3.371238 -2.2474,-3.652174 -0.281,-0.561873 -0.8429,-1.123746 z" />
      <path
         id="path1449"
         style="font-style:normal;font-variant:normal;font-weight:normal;font-stretch:normal;font-size:287.679px;font-family:Skranji;-inkscape-font-specification:Skranji;stroke-width:1.49833"
         d="m 1187.9582,188.3735 q 2.2475,0.56188 4.7759,0.28094 2.8093,-0.28094 5.6187,-0.56187 1.4047,0 2.8094,0.28093 1.4047,0 2.8093,-0.28093 3.0903,-0.56188 3.0903,-0.28094 0.281,0 0.8429,0 2.2474,-0.56187 2.5284,-0.84281 0.2809,-0.28094 0.8428,-0.28094 3.3712,-0.28093 3.0903,0 0,0 0.5619,0 2.2475,-0.28093 2.5284,0 0.5619,0 0.8428,0 1.1238,-0.28093 1.6856,-0.56187 0.8428,-0.28094 1.9666,-0.28094 3.3712,0.56188 4.214,0.28094 0.8428,-0.28094 1.6856,-0.28094 l 3.0903,-0.56187 q 3.9332,-0.28093 5.0569,-0.56187 l 3.9331,0.28094 q 5.0569,0.56187 5.6187,0.8428 0.8429,0.56188 1.1238,1.68562 0.5619,0.84281 1.4047,1.40469 1.1237,3.93311 1.6856,6.74247 0.5619,2.24749 0.5619,4.77592 -0.5619,4.49499 -0.5619,5.89967 0,0.56187 0,1.40468 0.2809,0.84281 0.2809,1.96656 -0.5618,3.65217 -0.5618,4.49498 0.2809,0.56187 0.2809,1.12375 -0.8428,2.80936 -0.5619,4.21405 0.281,1.12374 0.281,1.96655 0.2809,2.24749 0,4.21405 -0.281,1.68562 -0.281,3.37124 0.281,3.37124 0,4.21404 0,0.84281 0,1.40469 0,1.12374 0,1.96655 0.281,0.84281 -0.2809,1.68562 -1.9666,2.80937 -2.5284,3.0903 -1.9666,0.84281 -2.5285,1.12375 -0.2809,0.28094 -0.8428,0.28094 h -3.9331 q -3.3712,0 -4.214,-0.28094 -0.5619,0 -1.1238,0 -2.2475,-0.28094 -4.495,-0.28094 -2.2475,0 -4.7759,0 -2.2475,-0.28093 -3.0903,-0.28093 -0.8428,0.28093 -2.2475,0 -2.5284,-0.28094 -3.0903,-0.28094 -0.2809,0.28094 -0.8428,0.28094 -2.8094,0 -5.0569,-0.28094 -2.2474,0 -5.3377,-0.28094 -1.4047,-0.28093 -2.8094,-0.28093 -1.4047,0 -2.8094,-0.28094 -2.2475,0 -3.0903,0 -0.8428,-0.28094 -1.4047,-0.28094 -1.4046,-0.56187 -3.9331,-0.28093 -2.2475,0.28093 -4.214,0 -4.495,-0.28094 -8.7091,0 -4.214,0 -8.9899,-0.28094 -1.4047,0.28094 -1.9666,0.28094 -0.5618,-0.28094 -1.4047,0 -0.5618,-0.28094 -2.2475,0 -1.6856,0.28093 -2.2474,0.56187 -0.8429,0 -2.2475,0 -1.1238,0.28094 -2.5285,0 -0.5618,0 -1.4046,0 -0.5619,-0.28094 -1.6857,0 -3.3712,0.28094 -4.7759,0.56187 -1.1237,0.28094 -2.5284,0 -3.3713,-0.28093 -4.495,0 -0.8428,0.28094 -1.6856,0.56188 h -5.0569 l -4.214,0.28093 q -0.8428,0 -1.6856,0 -0.5619,0.28094 -1.4047,0.28094 -0.5619,0 -1.4047,-0.28094 -0.8428,0 -1.6856,0 -1.1238,0 -1.6856,0 -0.5619,0.28094 -1.6857,0 -1.1237,-0.28093 -1.9665,-0.56187 -0.8428,-0.28094 -1.9666,-0.56187 -1.6856,-2.80937 -1.9665,-3.93311 -0.281,-1.12375 -1.1238,-1.96656 l -1.4047,-3.37124 q -2.2475,-2.52843 -2.8093,-4.21405 -1.4047,-2.52842 -1.6856,-3.37123 -0.281,-1.12375 -0.8429,-1.96656 0,-1.40468 -0.5618,-1.96655 -0.5619,-0.84281 -1.1238,-1.68562 -0.2809,-2.52843 -0.2809,-2.52843 0,-0.28094 -0.2809,-0.56188 l -1.6857,-4.49498 q -0.5618,-1.40468 -0.8428,-2.24749 -0.2809,-1.12375 -1.4047,-1.68562 0.281,-1.96656 0.281,-2.52843 0.2809,-0.56187 0.2809,-1.40468 0.5619,-2.80937 1.4047,-4.21405 1.1237,-1.40468 1.9666,-2.52843 2.5284,-1.96655 3.0903,-1.96655 0.5618,-0.28094 1.1237,-0.56188 1.4047,-1.12374 1.6856,-1.12374 0.5619,-0.28094 1.1238,-0.84281 1.9665,-1.68562 2.2475,-1.68562 0.2809,-0.28094 0.8428,-0.84281 l 3.6521,-3.37124 q 1.9666,-1.40468 2.2475,-1.68562 0.5619,-0.56187 1.1238,-1.12374 l 3.3712,-2.80937 2.5284,-1.96655 q 1.9666,-2.2475 2.2475,-2.2475 2.5285,-2.52843 3.0903,-2.80936 2.2475,-1.96656 2.5285,-2.24749 0.2809,-0.56188 0.8428,-0.84281 2.2475,-1.68562 2.2475,-1.68562 0,-0.28094 0.2809,-0.56188 3.9331,-3.65217 5.3378,-5.05685 1.4047,-1.68562 2.8094,-3.0903 1.6856,-1.68562 2.5284,-2.52843 2.5284,-2.24749 2.8094,-2.24749 0.2809,0 0.5618,-0.56188 2.8094,-2.24749 4.495,-3.93311 1.1238,-1.12375 1.6856,-1.12375 0.5619,-0.28093 1.1238,-0.56187 l 2.5284,-2.52843 q 0.5619,-0.56187 1.1238,-1.12374 0.5618,-0.56188 1.1237,-1.12375 1.4047,-1.68562 2.2475,-2.24749 0.8428,-0.84281 1.6856,-1.68562 1.9666,-2.24749 2.5284,-2.52843 2.8094,-3.37124 3.9332,-4.21405 1.1237,-1.12374 2.2474,-2.52842 1.4047,-1.40469 2.5285,-3.09031 1.4047,-1.68562 2.8093,-3.37123 1.6857,-1.40469 3.0903,-3.09031 1.4047,-2.24749 1.9666,-2.52842 0.5619,-0.28094 0,-0.84281 1.4047,-0.56188 1.9666,-1.68562 0.8428,-1.12375 1.6856,-2.2475 0.2809,-0.8428 0.8428,-1.68561 0.5619,-0.84281 1.1237,-1.68562 0.5619,-0.84281 0.8428,-1.96656 0.281,-1.12375 1.4047,-1.68562 0,-1.40468 0.281,-2.52843 0.5618,-1.12374 1.1237,-2.52843 0.5619,-1.68561 0.5619,-2.528424 0,-1.123746 0,-1.685619 0,-3.652175 -0.281,-4.214048 0,-0.842809 0,-1.685619 0,-2.528428 -0.2809,-2.528428 0,-0.280937 0,-0.561873 -0.5619,-1.123746 -0.5619,-1.966556 0,-0.842809 -0.5618,-1.685619 -0.5619,-0.561873 -1.9666,-1.685619 -1.1237,-1.404682 -1.9666,-1.966555 -1.9665,-0.84281 -3.0903,-0.84281 -1.6856,-0.561873 -2.2474,-0.280936 -0.5619,0 -1.1238,0 -0.8428,0 -1.6856,0 -0.8428,-0.280937 -1.9666,0 -1.9665,0.561873 -2.8093,0.842809 -0.8428,0.280937 -1.4047,0.280937 -1.4047,0 -3.3713,1.404682 -3.3712,2.247492 -3.9331,3.090302 -0.5618,0.842809 -1.4046,1.123746 -1.1238,1.685619 -1.9666,2.528428 -0.8428,1.123746 -1.4047,1.966556 -0.2809,0.561873 -0.5619,1.123746 -1.4046,2.809365 -1.6856,3.371238 -0.2809,0.280937 -0.5619,0.84281 -0.8428,3.090302 -1.6856,3.933112 -0.5618,0.84281 -0.8428,2.24749 -0.2809,1.12375 -0.8428,1.96656 -0.8428,0.84281 -1.6856,2.24749 -0.5619,1.40468 -1.1238,2.80936 -1.4046,2.52843 -1.4046,3.09031 -2.5285,2.24749 -3.6522,3.0903 -4.495,0 -6.4616,-0.56188 -1.6856,-0.56187 -2.2474,-2.52842 -2.5285,-1.40469 -3.9332,-1.96656 -2.8093,-1.12375 -3.3712,-1.40468 -0.5619,-0.28094 -1.1237,-0.56188 -1.1238,-0.56187 -2.2475,-0.84281 -0.8428,-0.56187 -1.4047,-1.68561 -1.4047,0.28093 -1.6856,-0.28094 -0.281,-0.84281 -1.4047,-1.12375 -1.4047,-1.12374 -2.8094,-2.80936 -1.1237,-1.68562 -3.3712,-2.809367 -1.4047,-1.123746 -1.6856,-1.123746 -0.281,-0.280937 -0.8428,-0.84281 -1.1238,-0.842809 -1.6857,-1.123746 -0.5618,-0.561873 -1.1237,-1.123746 -2.5284,-1.404683 -3.3712,-2.247492 -1.4047,-1.404683 -2.5285,-1.966556 -3.0903,-2.809365 -3.3712,-3.090301 -1.4047,-2.247492 -1.6856,-2.247492 -0.281,-0.280937 -0.281,-0.561873 -0.5618,-1.404683 -0.8428,-2.247492 0,-1.123746 0.281,-1.685619 1.4046,-3.371239 1.6856,-4.775921 1.1237,-2.809365 1.1237,-3.090302 0,-0.561873 0.281,-0.842809 1.4046,-1.966556 1.4046,-2.247492 0,-0.561873 0.281,-1.123746 1.4047,-1.685619 1.6856,-2.247492 0.5619,-0.84281 0.8428,-1.404683 1.6856,-2.528429 1.6856,-2.809365 0.281,-0.561873 0.8428,-1.123746 1.6857,-2.809365 2.2475,-3.090302 0.8428,-1.966555 1.1238,-1.966555 0.5618,-0.280937 0.2809,-0.84281 1.6856,-1.966555 1.9666,-1.966555 0.5618,-0.280937 0.8428,-0.84281 0.5618,-0.561873 1.1237,-1.123746 0.8428,-0.842809 1.9666,-1.123746 0.5618,-1.123746 1.4047,-1.404683 0.8428,-0.280936 1.4046,-1.123746 0.5619,-0.561873 1.1238,-1.123746 0.8428,-0.561873 1.4047,-1.404682 0.8428,-0.280937 1.4047,-0.561873 0.5618,-0.280937 1.4046,-0.84281 1.9666,-2.247492 3.6522,-2.809365 2.5284,-1.966555 3.0903,-2.247492 0.5619,-0.280936 1.6856,-0.561873 2.8094,-1.966555 3.3713,-1.966555 0.8428,0 1.4046,-0.561873 1.9666,-1.123746 2.5285,-1.123746 0.8428,0 1.6856,-0.561874 2.5284,-1.123746 3.0903,-1.404682 0.5619,-0.280937 1.1237,-0.561873 0.8429,-0.280937 1.4047,0 0.8428,0 1.6856,-0.280937 0.5619,-0.280936 1.1238,-0.561873 0.8428,-0.280936 1.9665,-0.280936 2.8094,0 4.776,-0.84281 1.9665,-0.842809 4.214,-1.123746 1.6856,0.280937 2.2475,0 0.8428,-0.280936 1.4047,-0.280936 3.3712,0 3.9331,0 0.5619,-0.280937 1.1237,-0.84281 1.9666,0.84281 4.2141,0.280937 l 3.3712,-0.280937 3.0903,0.561873 q 3.0903,0 3.9331,0 1.1238,-0.280936 1.9666,0 0.5619,0 1.4047,0.561873 0.8428,0.280937 1.6856,0.561873 2.8094,0.280937 3.3712,1.123746 3.3713,0.84281 4.2141,1.404683 0.8428,0.561873 1.9665,0 0.8429,1.123746 1.9666,1.404682 1.1237,0 1.9666,0.561873 l 3.0903,2.247493 q 2.8093,0.842809 2.8093,1.123746 0,0 0.281,0 2.8093,1.685619 3.3712,1.685619 2.5284,1.966555 3.0903,2.528428 1.6856,1.404683 2.5284,1.966556 1.9666,1.123746 2.5285,1.966555 0.8428,0.84281 1.6856,1.685619 0.5618,0.561873 1.4047,1.123746 0.8428,0.280937 1.4046,0.84281 1.1238,0.84281 1.6857,1.685619 0.5618,0.561873 1.1237,0.84281 1.1238,2.528428 2.8094,3.933111 0.8428,1.685619 1.1237,1.966555 0.5619,0 1.1238,0.561873 0.2809,1.123746 1.9665,3.371238 1.1238,1.404683 1.9666,3.371239 0.8428,1.685619 1.6856,3.652174 1.1237,2.247492 1.9665,3.090302 0.5619,2.809365 1.1238,4.214047 1.1237,3.652175 1.1237,4.775921 0,1.123746 0.281,2.528429 0.8428,3.652174 1.1237,4.494984 0.281,0.561873 0,1.404682 1.4047,2.247492 0.8428,5.618731 -0.5618,3.371238 0.281,5.618731 -0.5619,2.24749 -0.8428,4.49498 0,1.96656 -0.8428,3.37124 0,2.52843 -0.281,3.37124 -0.2809,0.84281 -0.5619,1.68562 -0.5618,2.80936 -0.5618,3.37124 -1.4047,2.24749 -1.6857,2.80936 0,0.28094 -0.2809,0.56187 l -1.9665,2.80937 q 0,1.68562 -0.5619,2.52843 -0.5619,0.84281 -1.1238,2.24749 -2.5284,1.40468 -2.5284,1.68562 0,0 -0.2809,0.28094 -1.1238,1.12374 -1.4047,1.68561 0,0.28094 -0.5619,0.84281 -1.6856,2.2475 -2.2475,2.52843 -0.2809,0 -0.5618,0.56188 -1.9666,2.80936 -2.5285,3.93311 -2.2475,2.24749 -2.5284,2.52843 0,0 -0.2809,0 -1.9666,2.24749 -3.3713,3.65217 -2.2475,2.52843 -2.2475,2.52843 0.281,0 0,0.28094 -2.2475,1.96655 -3.0903,2.80936 -1.6856,1.68562 -2.2475,2.52843 -0.5618,0.84281 -1.6856,1.40468 -2.5284,2.24749 -3.0903,2.80937 -0.2809,0.28093 -0.8428,0.84281 -2.5284,2.24749 -2.8094,2.80936 -0.2809,0.56187 -0.8428,0.84281 -1.6856,2.80937 -1.9665,2.80937 -0.281,0 -0.5619,0.28093 -1.1237,1.68562 -2.8094,2.80937 -0.8428,0.84281 -1.4046,1.40468 -0.5619,0.56187 -1.1238,1.12375 -1.4047,1.40468 -2.2475,2.24749 -0.8428,0.84281 -1.4047,1.96655 -0.5618,0.56188 -1.1237,1.40469 -0.2809,0.56187 -1.1238,0.84281 l -1.9665,2.52842 q -1.4047,0.84281 -1.9666,1.68562 -0.5618,0.56188 -1.1237,1.12375 -2.2475,2.24749 -2.5284,2.24749 -0.281,0.84281 -1.1238,1.68562 -0.5619,0.56187 -1.1237,1.40468 z" />
      <path
         id="path1451"
         style="font-style:normal;font-variant:normal;font-weight:normal;font-stretch:normal;font-size:287.679px;font-family:Skranji;-inkscape-font-specification:Skranji;stroke-width:1.49833"
         d="m 1271.6772,153.25644 q -0.2809,-3.37124 -0.2809,-3.37124 -0.5619,-3.65217 -0.5619,-4.77592 0,-1.40468 0,-2.80936 0,-1.40469 0.281,-2.52843 0.2809,-1.12375 -0.281,-2.52843 0.8428,-1.12375 0.5619,-2.24749 0,-1.40469 0,-2.80937 0.2809,-2.80936 0,-3.0903 0,-0.56187 0,-1.12375 l 0.2809,-3.37123 q 0,-2.2475 0.281,-2.2475 0.2809,-0.28093 0.2809,-0.84281 -0.2809,-1.40468 0.2809,-3.0903 0,-1.40468 0,-2.80936 0,-1.40469 0.5619,-2.80937 l 0.5619,-3.37124 q 1.1237,-3.93311 1.1237,-4.49498 0.5619,-1.12375 1.1238,-3.37124 0.2809,-0.56187 0.5618,-1.40468 0.281,-1.123747 0.5619,-2.247493 0.5619,-0.842809 0.5619,-1.966555 0.2809,-1.404683 0.8428,-2.528429 1.6856,-3.371238 1.6856,-4.214048 0.281,-0.842809 0.5619,-1.404682 1.1237,-2.247492 1.1237,-2.247492 0.281,-0.280937 0.5619,-0.84281 0.8428,-2.809365 0.8428,-2.809365 0.281,-0.280936 0.5619,-0.842809 1.6856,-3.933112 1.6856,-4.214048 1.4047,-3.090302 1.9666,-3.371238 0.5618,-0.561873 0.8428,-1.685619 1.4047,-1.123746 1.6856,-1.685619 0.5619,-0.84281 1.1237,-1.404683 0.281,-1.685619 1.1238,-2.528428 0.8428,-1.123746 1.9665,-1.68562 1.6857,-1.966555 1.9666,-2.809365 0.5619,-1.123746 1.6856,-1.404682 1.6856,-1.966556 1.9666,-2.528429 0.2809,-0.561873 0.8428,-1.123746 3.9331,-3.371238 4.7759,-4.214047 3.9331,-3.090302 5.0569,-3.933112 0.8428,-0.842809 1.4046,-1.123746 0.5619,-0.561873 1.1238,-1.123746 2.2475,-1.685619 2.8094,-1.685619 0.5618,-0.280936 1.1237,-0.561873 2.5284,-1.966555 2.5284,-1.966555 0,-0.280937 0.5619,-0.561873 2.5284,-1.404683 3.0903,-1.685619 0.8428,-0.280937 1.4047,-0.84281 3.0903,-1.685619 3.3712,-1.404682 0.5619,0 0,-0.561873 2.2475,-0.84281 2.5285,-0.84281 0.2809,0 0.5618,-0.280936 2.2475,-1.123747 2.8094,-1.68562 0.8428,-0.561873 2.2475,-0.842809 1.4047,-0.561873 2.2475,-1.404683 1.1237,0.280937 1.6856,-0.280936 0.5619,-0.561873 1.1237,-1.123746 1.4047,0 2.8094,-0.561873 1.4047,-0.561873 2.8094,0 1.6856,-0.280937 2.5284,-0.280937 1.1237,-0.280936 2.2475,-0.280936 1.4047,0 2.5284,0.280936 1.4047,0.280937 2.8094,-0.280936 2.5284,0.561873 2.8094,0.561873 0.5618,-0.280937 1.4046,-0.280937 1.6857,-0.280936 3.3713,0 3.0903,0.561873 3.0903,0.561873 1.9665,0.561873 3.9331,0.561873 2.2475,0 3.3712,1.404683 1.6856,0.280936 2.8094,0.842809 1.4047,0.561873 2.5284,1.123746 2.2475,1.404683 2.5284,1.404683 0.281,-0.280936 0.8429,0 2.8093,1.404683 2.8093,1.404683 2.5285,0.561873 2.5285,0.842809 0.2809,0 0.5618,0 l 3.9331,2.528429 q 2.5285,1.123746 2.8094,1.966555 1.4047,0.280937 1.9666,1.123746 0.8428,0.84281 2.2474,1.404683 2.5285,1.685619 3.0903,2.247492 0.8429,0.561873 1.4047,1.123746 1.9666,1.966556 2.5285,2.247492 3.0903,2.528429 5.0568,3.933111 l 3.6522,3.652175 q 2.2475,2.528428 2.5284,3.371238 0.5619,0.842809 1.1238,1.404682 1.1237,2.247493 1.4046,2.528429 0.281,0.280937 0.5619,0.84281 1.6856,3.090301 1.6856,3.652174 1.9666,2.247492 2.2475,2.528429 0.281,0.842809 0.5619,1.685619 0.5619,0.842809 0.5619,1.404682 1.1237,1.123746 1.6856,2.247492 0.5619,1.123746 1.1237,2.528429 1.4047,3.090302 1.9666,4.775921 2.2475,3.933111 2.8094,4.77592 0.8428,2.809365 1.1237,3.933111 0.2809,0.84281 1.4047,1.404683 0,1.404683 0.2809,2.528429 0.5619,1.123746 1.1238,2.528429 1.1237,3.93311 1.1237,5.05686 0.281,0.84281 0.281,1.68562 0.2809,1.96655 0.2809,2.52842 0.2809,0.28094 0.2809,0.84281 0.8428,2.2475 0.8428,3.65218 1.4047,3.37124 1.4047,4.77592 0.8428,2.52843 0.5619,3.37124 0,0.56187 0,1.40468 0.2809,0.84281 0.2809,3.93311 0.5619,2.24749 0.5619,3.93311 0.2809,1.12375 0.2809,3.37124 -0.2809,3.0903 -0.5618,6.1806 -0.281,3.0903 -0.5619,6.18061 0,0.56187 0,1.40468 0.2809,0.84281 0,1.68562 0,1.40468 -0.2809,2.52843 -0.281,1.12374 -0.281,2.52843 0,0.56187 0,1.68561 0.281,0.84281 -0.2809,1.40469 -0.2809,0.56187 -0.2809,1.40468 0.2809,0.84281 -0.281,1.68562 -1.1237,3.65217 -1.1237,6.46154 0,2.80936 -1.4047,4.77592 -0.5619,3.0903 -0.8428,3.65217 -0.281,0.28094 -0.5619,0.84281 l -1.4047,5.05686 q -0.8428,2.80937 -1.1237,3.0903 -0.281,0 -0.5619,0.56187 -0.5619,1.40469 -0.8428,2.2475 -0.2809,0.56187 -0.2809,1.68562 -1.4047,2.80936 -1.6857,3.0903 l -1.1237,3.65217 q -1.4047,2.80937 -2.5284,4.49499 -1.6857,2.80936 -1.9666,3.65217 -0.2809,0.56187 -0.8428,0.84281 -1.1237,2.52843 -1.1237,3.37124 -2.2475,1.68562 -2.8094,2.80936 -0.5619,0.56188 -1.1238,1.68562 -0.5618,0.84281 -1.1237,1.40468 -1.4047,1.96656 -1.9666,2.80937 -0.2809,0.56187 -1.1237,0.56187 -1.6856,2.52843 -2.5284,3.37124 -1.1238,1.12375 -1.6857,1.96656 -0.2809,0.56187 -0.8428,1.12374 -2.5284,1.96656 -3.9331,3.37124 -0.8428,0.84281 -2.2475,1.96656 -1.1237,1.12374 -2.5284,2.24749 -1.6856,1.68562 -4.214,3.37124 -0.8429,0.56187 -1.6857,0.84281 -0.5618,0 -1.4046,0.56187 -1.6857,1.40468 -4.495,2.24749 -2.5285,1.40468 -3.3713,1.68562 -0.5618,0 -1.1237,0.84281 -3.6522,1.40468 -4.7759,1.68562 -1.1238,0.56187 -2.5285,1.12374 l -3.0903,0.56188 q -0.8428,0.28093 -1.9665,0.56187 -0.8428,0.28094 -1.4047,0.28094 -1.6856,0.56187 -3.3712,0.56187 -2.2475,0.84281 -3.0903,0.56187 -0.8429,0 -1.9666,0 -2.5284,1.12375 -3.0903,1.12375 -3.0903,-0.28094 -3.6522,-0.56187 -0.2809,0 -0.8428,0 -3.0903,-0.28094 -4.495,-0.28094 -1.4047,0 -2.8093,-0.28094 -0.8428,0 -2.2475,0 -1.1238,0 -2.2475,-0.56187 -1.4047,-0.28094 -2.2475,-0.56187 -0.8428,0 -1.4047,-0.56188 -2.8094,0 -3.6522,-0.56187 -0.5618,-0.28094 -1.4046,0 -0.8429,-0.56187 -1.6857,-0.84281 -0.5618,-0.28093 -1.4047,-0.84281 -0.8428,-0.56187 -1.9665,-0.56187 -1.1238,0 -1.9666,-0.56187 -1.9665,-1.40469 -2.2475,-1.40469 -0.2809,0 -0.8428,-0.28093 -2.5284,-1.12375 -2.5284,-1.12375 0,-0.28094 -0.2809,-0.28094 -2.2475,-1.12374 -2.2475,-2.24749 -4.2141,-3.37124 -6.7425,-4.49498 -2.5284,-1.12375 -3.3712,-3.65218 -2.2475,-1.68562 -2.5285,-1.96655 -2.5284,-1.68562 -2.8093,-1.96656 -1.4047,-2.24749 -1.9666,-2.80936 -2.5284,-2.80937 -3.3712,-3.65218 -0.5619,-1.12374 -1.4047,-1.68562 -1.6856,-2.24749 -2.5284,-3.0903 -0.8428,-0.84281 -1.9666,-1.68562 -1.1237,-2.24749 -1.6856,-2.24749 -0.5619,-0.28094 -1.1238,-0.84281 -2.8093,-2.80936 -3.0903,-5.89966 -1.6856,-2.80937 -2.5284,-3.65218 -0.5619,-0.84281 -0.8428,-2.24749 -1.4047,-2.24749 -1.4047,-2.80937 -1.4047,-1.96655 -1.6856,-2.80936 -1.1237,-3.0903 -1.1237,-3.37124 0,-0.56187 -0.5619,-1.12375 -0.8428,-2.24749 -1.4047,-3.93311 l -0.8428,-3.65217 q -1.1238,-2.80937 -1.1238,-3.0903 0,-0.28094 -0.2809,-0.56188 -0.5619,-3.37123 -0.8428,-3.93311 -0.2809,-0.84281 -0.5619,-1.40468 -0.2809,-3.37124 -0.5618,-4.21405 -0.281,-0.84281 -0.5619,-1.96655 -0.5619,-2.2475 -0.5619,-2.80937 0.2809,-0.84281 -0.2809,-1.40468 l -0.8428,-3.0903 q 0,-0.84281 0,-1.68562 0.2809,-0.84281 0,-1.68562 z m 103.9465,-67.143826 q -1.6856,-2.247492 -1.9665,-2.247492 -0.281,-0.280937 -0.5619,-0.561873 -1.1237,-1.123746 -2.2475,-2.809365 -1.1237,-0.84281 -2.2475,-2.247493 -0.8428,-1.685619 -1.9665,-2.247492 l -3.0903,-1.404682 q -4.2141,-0.84281 -5.6188,-0.280937 -3.6521,1.404683 -4.7759,1.966556 -0.8428,0.280936 -1.6856,0.842809 -1.6856,1.123746 -2.2475,1.404683 -0.5619,0.280936 -0.8428,0.842809 l -2.5284,1.966556 q -2.5285,2.247492 -3.0903,3.090302 -1.6857,1.966555 -1.9666,2.247492 -0.2809,0 -0.2809,0.280936 -1.9666,2.528429 -2.2475,3.371238 -0.281,0.84281 -1.1238,1.685619 -0.2809,1.123746 -0.8428,1.966556 -0.2809,0.561873 -0.8428,1.123746 -0.8428,1.685619 -0.8428,2.528429 0,0.561873 -0.2809,1.123746 -0.281,0.561873 -1.4047,2.247493 -1.1238,1.40468 -0.5619,2.24749 -0.5619,0.84281 -0.5619,1.68562 0,0.56187 -0.2809,1.40468 -1.4047,3.37124 -1.6856,5.05686 -0.281,1.40468 -0.8428,3.0903 -0.281,1.40468 -0.5619,2.52843 0,1.12375 -0.5619,2.24749 0.5619,1.68562 0,2.52843 -0.2809,0.84281 -0.2809,1.96656 -0.2809,2.52842 -0.2809,3.37123 0,0.84281 0,1.12375 0,1.12375 -0.281,2.24749 0,0.84281 0,2.24749 v 3.65218 q 0,0.84281 0.281,2.24749 0.2809,1.12375 0,1.96656 l 0.2809,4.77592 q 0.2809,2.52843 0.5619,3.37124 0.2809,0.8428 0.2809,1.68561 0,1.40469 -0.2809,2.52843 -0.281,1.12375 0.2809,2.2475 0.5619,2.80936 0.8428,3.0903 0.2809,3.37123 0.2809,3.37123 0.5619,1.96656 0.5619,3.37124 1.1238,2.80937 1.4047,3.65218 0.2809,0.84281 0.5619,1.68562 0.2809,2.24749 0.5618,2.52843 0.281,0 0.281,0.56187 1.1237,3.0903 1.1237,3.37124 0,0.28093 0.281,0.56187 0.8428,1.40468 1.6856,2.80936 0.8428,1.12375 0.5619,3.37124 1.1237,3.0903 1.1237,3.93311 0,0.84281 0.5619,1.12375 1.4047,1.96656 1.1237,2.24749 0,0 0.281,0.56187 1.4046,1.40469 1.6856,1.68562 0.2809,0.28094 0.2809,0.84281 2.5284,1.40469 3.3713,2.2475 2.5284,2.52842 3.0903,2.80936 0.5618,0 0.5618,1.12375 2.2475,0.84281 3.0903,1.12374 1.1238,0 1.9666,0.28094 2.8094,1.12375 2.8094,1.12375 0.2809,-0.28094 0.5618,-0.28094 2.8094,-0.28094 3.6522,-0.28094 3.0903,-0.84281 3.0903,-0.84281 3.0903,-2.24749 3.6522,-2.52843 0.8428,-0.28093 1.4047,-1.40468 2.5284,-2.24749 3.3712,-3.37124 1.1237,-1.12374 1.9666,-2.52843 2.2474,-2.80936 2.5284,-3.93311 0.5619,-1.12374 1.4047,-1.68562 1.1237,-3.93311 1.6856,-4.49498 1.1237,-2.80936 1.1237,-3.65217 0.281,-1.12375 0.8428,-1.96656 0.8428,-3.93311 1.1238,-4.49498 0.5619,-0.56188 0.8428,-1.12375 0.5619,-1.12375 0.5619,-2.24749 0,-1.40468 1.1237,-1.96656 0,-1.12374 0.2809,-2.24749 0.281,-1.12375 0.5619,-2.24749 0.8428,-3.65218 0.8428,-4.77592 0,-1.40468 0.281,-2.80937 1.1237,-3.0903 0.8428,-3.37124 0,-0.56187 0,-0.84281 0.5619,-2.80936 0,-3.93311 0,-0.84281 0,-1.68562 0.2809,-0.8428 0.5619,-1.96655 0,-2.80937 0,-3.65218 0,-1.12374 0,-2.52842 0,-3.09031 -0.281,-3.93312 -0.2809,-0.8428 -0.2809,-1.40468 0,-2.24749 0,-3.93311 0,-1.68562 -0.5619,-3.37124 -0.2809,-0.84281 -0.2809,-1.68562 0,-1.12374 0,-1.68562 -1.1238,-3.0903 -1.1238,-3.65217 0.281,-0.84281 0.281,-1.68562 -0.8429,-1.40468 -0.8429,-1.96655 0,-0.84281 -0.5618,-1.40469 0.5618,-1.40468 0,-2.24749 -0.5619,-1.12375 -0.8428,-1.96655 -0.8428,-3.37124 -1.1238,-4.21405 -0.8428,-3.37124 -1.4047,-3.933113 -0.8428,-3.090302 -1.1237,-3.371238 0,-0.280937 -0.2809,-0.561874 -1.4047,-3.371238 -1.6857,-3.933111 -1.6856,-3.371238 -2.2475,-3.652174 -0.2809,-0.561873 -0.8428,-1.123746 z" />
    </g>
    <text
       transform="scale(0.87573399,1.1418993)"
       id="text1045"
       y="410.75723"
       x="58.593403"
       style="font-style:normal;font-weight:normal;font-size:59.9331px;line-height:1.25;font-family:sans-serif;fill:#000000;fill-opacity:1;stroke:none;stroke-width:1.49833"
       xml:space="preserve"><tspan
         id="tspan1043"
         style="font-style:normal;font-variant:normal;font-weight:normal;font-stretch:normal;font-size:179.799px;font-family:Cairo;-inkscape-font-specification:Cairo;stroke-width:1.49833"
         y="410.75723"
         x="58.593403"
         sodipodi:role="line" /></text>
    <text
       transform="scale(0.77447066,1.2912045)"
       xml:space="preserve"
       style="font-style:normal;font-weight:normal;font-size:70.065px;line-height:1.25;font-family:sans-serif;fill:#000000;fill-opacity:1;stroke:none;stroke-width:1.75162"
       x="55.600086"
       y="375.78748"
       id="text1049"><tspan
         sodipodi:role="line"
         x="55.600086"
         y="375.78748"
         style="font-style:normal;font-variant:normal;font-weight:normal;font-stretch:normal;font-size:210.195px;font-family:Cairo;-inkscape-font-specification:Cairo;stroke-width:1.75162"
         id="tspan1047">FICHTER EDITION</tspan></text>
    <g
       style="font-style:normal;font-weight:normal;font-size:70.065px;line-height:1.25;font-family:sans-serif;fill:#000000;fill-opacity:1;stroke:none;stroke-width:1.75162"
       id="text1095"
       transform="scale(0.77447066,1.2912045)"
       aria-label="FICHTER EDITION">
      <path
         id="path1454"
         style="font-style:normal;font-variant:normal;font-weight:normal;font-stretch:normal;font-size:210.195px;font-family:Cairo;-inkscape-font-specification:Cairo;stroke-width:1.75162"
         d="m 89.651677,244.62579 v 56.75265 H 149.55725 V 315.6717 H 89.651677 v 60.11578 H 73.466662 V 230.33253 h 87.020728 v 14.29326 z" />
      <path
         id="path1456"
         style="font-style:normal;font-variant:normal;font-weight:normal;font-stretch:normal;font-size:210.195px;font-family:Cairo;-inkscape-font-specification:Cairo;stroke-width:1.75162"
         d="m 183.90115,230.33253 h 16.18501 v 145.45495 h -16.18501 z" />
      <path
         id="path1458"
         style="font-style:normal;font-variant:normal;font-weight:normal;font-stretch:normal;font-size:210.195px;font-family:Cairo;-inkscape-font-specification:Cairo;stroke-width:1.75162"
         d="m 285.23485,377.88943 q -22.28067,0 -34.26178,-8.19761 -11.98112,-8.4078 -16.39521,-24.38262 -4.4141,-15.97482 -4.4141,-42.2492 0,-26.06418 4.4141,-42.039 4.41409,-16.18501 15.97482,-24.38262 11.77092,-8.4078 33.6312,-8.4078 17.02579,0 39.30647,4.62429 l -0.63059,13.66268 q -21.2297,-3.78351 -36.57393,-3.78351 -16.39521,0 -24.80301,5.88546 -8.4078,5.88546 -11.56073,18.91755 -2.94273,13.03209 -2.94273,37.8351 0,21.43989 2.73254,33.6312 2.94273,11.98111 11.77092,18.28696 8.82819,6.09566 26.69476,6.09566 14.50346,0 34.68218,-3.78351 l 0.63059,13.87287 q -21.65009,4.4141 -38.2555,4.4141 z" />
      <path
         id="path1460"
         style="font-style:normal;font-variant:normal;font-weight:normal;font-stretch:normal;font-size:210.195px;font-family:Cairo;-inkscape-font-specification:Cairo;stroke-width:1.75162"
         d="M 456.31717,230.33253 V 375.78748 H 440.34235 V 309.99644 H 366.3537 v 65.79104 H 350.16869 V 230.33253 h 16.18501 v 65.16045 h 73.98865 v -65.16045 z" />
      <path
         id="path1462"
         style="font-style:normal;font-variant:normal;font-weight:normal;font-stretch:normal;font-size:210.195px;font-family:Cairo;-inkscape-font-specification:Cairo;stroke-width:1.75162"
         d="m 521.85202,244.83599 h -44.77153 v -14.50346 h 105.0975 v 14.50346 h -44.35115 v 130.95149 h -15.97482 z" />
      <path
         id="path1464"
         style="font-style:normal;font-variant:normal;font-weight:normal;font-stretch:normal;font-size:210.195px;font-family:Cairo;-inkscape-font-specification:Cairo;stroke-width:1.75162"
         d="m 618.83405,244.62579 v 50.23661 h 59.69538 v 14.08306 h -59.69538 v 52.54876 h 72.30708 v 14.29326 h -88.4921 V 230.33253 h 88.4921 v 14.29326 z" />
      <path
         id="path1466"
         style="font-style:normal;font-variant:normal;font-weight:normal;font-stretch:normal;font-size:210.195px;font-family:Cairo;-inkscape-font-specification:Cairo;stroke-width:1.75162"
         d="m 718.83104,230.33253 h 53.80992 q 23.33165,0 34.89237,10.93014 11.56073,10.71995 11.56073,33.21081 0,33.8414 -26.69477,42.2492 l 27.95594,59.0648 H 802.48865 L 776.21428,320.0858 h -41.19822 v 55.70168 h -16.18502 z m 54.02012,75.46001 q 29.63749,0 29.63749,-30.68847 0,-30.47828 -29.84769,-30.47828 h -37.6249 v 61.16675 z" />
      <path
         id="path1468"
         style="font-style:normal;font-variant:normal;font-weight:normal;font-stretch:normal;font-size:210.195px;font-family:Cairo;-inkscape-font-specification:Cairo;stroke-width:1.75162"
         d="m 910.7259,244.62579 v 50.23661 h 59.69538 v 14.08306 H 910.7259 v 52.54876 h 72.30708 v 14.29326 h -88.4921 V 230.33253 h 88.4921 v 14.29326 z" />
      <path
         id="path1470"
         style="font-style:normal;font-variant:normal;font-weight:normal;font-stretch:normal;font-size:210.195px;font-family:Cairo;-inkscape-font-specification:Cairo;stroke-width:1.75162"
         d="m 1062.6411,230.33253 q 22.0704,0 33.8414,9.66897 11.9811,9.66897 15.9748,24.59282 3.9937,14.92384 3.9937,34.89237 0,39.93705 -13.2423,58.22401 -13.0321,18.07678 -40.5676,18.07678 h -51.9182 V 230.33253 Z m 0,131.16169 q 37.2045,0 37.2045,-60.53617 0,-29.4273 -9.0384,-42.87978 -9.0384,-13.45248 -28.1661,-13.45248 h -35.7332 v 116.86843 z" />
      <path
         id="path1472"
         style="font-style:normal;font-variant:normal;font-weight:normal;font-stretch:normal;font-size:210.195px;font-family:Cairo;-inkscape-font-specification:Cairo;stroke-width:1.75162"
         d="m 1146.2002,230.33253 h 16.185 v 145.45495 h -16.185 z" />
      <path
         id="path1474"
         style="font-style:normal;font-variant:normal;font-weight:normal;font-stretch:normal;font-size:210.195px;font-family:Cairo;-inkscape-font-specification:Cairo;stroke-width:1.75162"
         d="m 1227.5653,244.83599 h -44.7715 v -14.50346 h 105.0975 v 14.50346 h -44.3511 v 130.95149 h -15.9749 z" />
      <path
         id="path1476"
         style="font-style:normal;font-variant:normal;font-weight:normal;font-stretch:normal;font-size:210.195px;font-family:Cairo;-inkscape-font-specification:Cairo;stroke-width:1.75162"
         d="m 1308.3623,230.33253 h 16.185 v 145.45495 h -16.185 z" />
      <path
         id="path1478"
         style="font-style:normal;font-variant:normal;font-weight:normal;font-stretch:normal;font-size:210.195px;font-family:Cairo;-inkscape-font-specification:Cairo;stroke-width:1.75162"
         d="m 1411.7979,377.88943 q -21.6501,0 -34.2618,-7.77722 -12.6117,-7.77721 -18.0767,-23.75204 -5.2549,-16.18501 -5.2549,-42.66958 0,-26.27438 5.4651,-42.66959 5.465,-16.6054 18.0767,-24.59281 12.6117,-8.19761 33.8414,-8.19761 21.2297,0 33.8414,8.19761 12.6117,7.98741 18.0768,24.59281 5.6753,16.39521 5.6753,43.08998 0,26.69476 -5.4651,42.66958 -5.2549,15.97483 -17.8666,23.54185 -12.4015,7.56702 -34.0516,7.56702 z m 0,-14.29326 q 15.9748,0 24.5928,-5.88547 8.8282,-5.88546 12.4015,-18.49716 3.5734,-12.82189 3.5734,-35.10256 0,-22.28067 -3.7835,-35.52296 -3.5734,-13.24228 -12.4016,-19.54813 -8.8281,-6.51605 -24.5928,-6.51605 -15.7646,0 -24.5928,6.30585 -8.8282,6.30585 -12.6117,19.54814 -3.5733,13.24228 -3.5733,35.31276 0,22.07047 3.5733,35.10256 3.5733,12.8219 12.4015,18.91755 9.0384,5.88547 25.0132,5.88547 z" />
      <path
         id="path1480"
         style="font-style:normal;font-variant:normal;font-weight:normal;font-stretch:normal;font-size:210.195px;font-family:Cairo;-inkscape-font-specification:Cairo;stroke-width:1.75162"
         d="m 1605.2102,230.33253 v 145.45495 h -29.6375 l -56.5424,-131.16169 h -3.9937 v 131.16169 h -16.1851 V 230.33253 h 30.2681 l 55.9119,131.16169 h 4.2039 V 230.33253 Z" />
    </g>
  </g>
</svg>
