G04 #@! TF.GenerationSoftware,KiCad,Pcbnew,(5.1.5)-3*
G04 #@! TF.CreationDate,2021-08-03T21:44:56-05:00*
G04 #@! TF.ProjectId,vic2020keyboard,76696332-3032-4306-9b65-79626f617264,rev?*
G04 #@! TF.SameCoordinates,Original*
G04 #@! TF.FileFunction,Copper,L1,Top*
G04 #@! TF.FilePolarity,Positive*
%FSLAX46Y46*%
G04 Gerber Fmt 4.6, Leading zero omitted, Abs format (unit mm)*
G04 Created by KiCad (PCBNEW (5.1.5)-3) date 2021-08-03 21:44:56*
%MOMM*%
%LPD*%
G04 APERTURE LIST*
%ADD10C,2.200000*%
%ADD11O,2.400000X2.400000*%
%ADD12C,2.400000*%
%ADD13C,1.800000*%
%ADD14R,1.800000X1.800000*%
%ADD15C,6.400000*%
%ADD16C,2.286000*%
%ADD17O,1.700000X1.700000*%
%ADD18R,1.700000X1.700000*%
%ADD19C,0.600000*%
%ADD20C,0.375000*%
G04 APERTURE END LIST*
D10*
X310550000Y-140940000D03*
X316900000Y-138400000D03*
X56150000Y-160140000D03*
X62500000Y-157600000D03*
X53750000Y-140940000D03*
X60100000Y-138400000D03*
D11*
X59690000Y-103124000D03*
D12*
X67310000Y-103124000D03*
D13*
X59436000Y-94996000D03*
D14*
X56896000Y-94996000D03*
D15*
X176530000Y-93472000D03*
X252603000Y-102108000D03*
X41529000Y-203708000D03*
X311404000Y-203581000D03*
X41529000Y-93472000D03*
X243967000Y-203708000D03*
X370205000Y-203835000D03*
X370332000Y-116205000D03*
D10*
X296545000Y-121920000D03*
X302895000Y-119380000D03*
D16*
X321945000Y-119507000D03*
X315595000Y-122047000D03*
D17*
X254254000Y-94234000D03*
X251714000Y-94234000D03*
X249174000Y-94234000D03*
X246634000Y-94234000D03*
X244094000Y-94234000D03*
X241554000Y-94234000D03*
X239014000Y-94234000D03*
X236474000Y-94234000D03*
X233934000Y-94234000D03*
X231394000Y-94234000D03*
X228854000Y-94234000D03*
X226314000Y-94234000D03*
X223774000Y-94234000D03*
X221234000Y-94234000D03*
X218694000Y-94234000D03*
X216154000Y-94234000D03*
X213614000Y-94234000D03*
X211074000Y-94234000D03*
X208534000Y-94234000D03*
D18*
X205994000Y-94234000D03*
D10*
X353750000Y-140940000D03*
X360100000Y-138400000D03*
X334550000Y-141040000D03*
X340900000Y-138500000D03*
D16*
X245745000Y-119380000D03*
X239395000Y-121920000D03*
X74295000Y-119380000D03*
X67945000Y-121920000D03*
X93345000Y-119380000D03*
X86995000Y-121920000D03*
X112395000Y-119380000D03*
X106045000Y-121920000D03*
X131445000Y-119380000D03*
X125095000Y-121920000D03*
X150495000Y-119380000D03*
X144145000Y-121920000D03*
X169545000Y-119380000D03*
X163195000Y-121920000D03*
X188595000Y-119380000D03*
X182245000Y-121920000D03*
X207645000Y-119380000D03*
X201295000Y-121920000D03*
X226695000Y-119380000D03*
X220345000Y-121920000D03*
X264740000Y-119420000D03*
X258390000Y-121960000D03*
X283845000Y-119380000D03*
X277495000Y-121920000D03*
X274320000Y-138430000D03*
X267970000Y-140970000D03*
X293370000Y-138430000D03*
X287020000Y-140970000D03*
X260032000Y-157480000D03*
X253682000Y-160020000D03*
X279082000Y-157480000D03*
X272732000Y-160020000D03*
X55245000Y-119380000D03*
X48895000Y-121920000D03*
X231458000Y-176530000D03*
X225108000Y-179070000D03*
X250508000Y-176530000D03*
X244158000Y-179070000D03*
X269558000Y-176530000D03*
X263208000Y-179070000D03*
X88582500Y-157480000D03*
X82232500Y-160020000D03*
X174308000Y-176530000D03*
X167958000Y-179070000D03*
X136208000Y-176530000D03*
X129858000Y-179070000D03*
X126682000Y-157480000D03*
X120332000Y-160020000D03*
X121920000Y-138430000D03*
X115570000Y-140970000D03*
X145732000Y-157480000D03*
X139382000Y-160020000D03*
X164782000Y-157480000D03*
X158432000Y-160020000D03*
X183832000Y-157480000D03*
X177482000Y-160020000D03*
X217170000Y-138430000D03*
X210820000Y-140970000D03*
X202882000Y-157480000D03*
X196532000Y-160020000D03*
X221932000Y-157480000D03*
X215582000Y-160020000D03*
X240982000Y-157480000D03*
X234632000Y-160020000D03*
X212408000Y-176530000D03*
X206058000Y-179070000D03*
X193358000Y-176530000D03*
X187008000Y-179070000D03*
X236220000Y-138430000D03*
X229870000Y-140970000D03*
X255270000Y-138430000D03*
X248920000Y-140970000D03*
X83940000Y-138420000D03*
X77590000Y-140960000D03*
X140970000Y-138430000D03*
X134620000Y-140970000D03*
X107632000Y-157480000D03*
X101282000Y-160020000D03*
X160020000Y-138430000D03*
X153670000Y-140970000D03*
X198120000Y-138430000D03*
X191770000Y-140970000D03*
X155258000Y-176530000D03*
X148908000Y-179070000D03*
X102870000Y-138430000D03*
X96520000Y-140970000D03*
X117158000Y-176530000D03*
X110808000Y-179070000D03*
X179070000Y-138430000D03*
X172720000Y-140970000D03*
X98107500Y-176530000D03*
X91757500Y-179070000D03*
X67151200Y-176530000D03*
X60801200Y-179070000D03*
X57658000Y-195453000D03*
X51308000Y-197993000D03*
X93345000Y-90805000D03*
X86995000Y-93345000D03*
X112395000Y-90805000D03*
X106045000Y-93345000D03*
X131445000Y-90805000D03*
X125095000Y-93345000D03*
X150495000Y-90805000D03*
X144145000Y-93345000D03*
X309840000Y-157420000D03*
X303490000Y-159960000D03*
X176689000Y-195580000D03*
X170339000Y-198120000D03*
X340940000Y-119507000D03*
X334590000Y-122047000D03*
X359918000Y-176276000D03*
X353568000Y-178816000D03*
X340614000Y-176276000D03*
X334264000Y-178816000D03*
X304927000Y-176403000D03*
X298577000Y-178943000D03*
D19*
X242090000Y-102189500D03*
X238252000Y-119380000D03*
X84486599Y-110077401D03*
X159766000Y-88392000D03*
X159766000Y-106172000D03*
X131155000Y-116174600D03*
X332824001Y-145867501D03*
X240495200Y-139157500D03*
X292764300Y-158293700D03*
X298831000Y-157480000D03*
X322500000Y-151300000D03*
X158439300Y-158290300D03*
X253803500Y-112801300D03*
X323850000Y-159893000D03*
X256206100Y-97710100D03*
X242824000Y-97536000D03*
X330900000Y-133300000D03*
X340550000Y-128250000D03*
X243358200Y-98830600D03*
D20*
X283200000Y-117000000D02*
X247672400Y-117000000D01*
X247031200Y-118093800D02*
X245745000Y-119380000D01*
X283845000Y-119380000D02*
X285355000Y-117870000D01*
X285355000Y-117870000D02*
X320308000Y-117870000D01*
X320308000Y-117870000D02*
X321945000Y-119507000D01*
X207645000Y-119380000D02*
X209177900Y-117847100D01*
X209177900Y-117847100D02*
X244212100Y-117847100D01*
X244212100Y-117847100D02*
X245745000Y-119380000D01*
X169545000Y-119380000D02*
X171075900Y-117849100D01*
X171075900Y-117849100D02*
X206114100Y-117849100D01*
X206114100Y-117849100D02*
X207645000Y-119380000D01*
X93345000Y-119380000D02*
X94875900Y-117849100D01*
X94875900Y-117849100D02*
X129914100Y-117849100D01*
X129914100Y-117849100D02*
X131445000Y-119380000D01*
X283845000Y-117645000D02*
X283845000Y-119380000D01*
X283200000Y-117000000D02*
X283845000Y-117645000D01*
X247672400Y-117452600D02*
X246887999Y-118237001D01*
X246887999Y-118237001D02*
X245745000Y-119380000D01*
X247672400Y-117000000D02*
X247672400Y-117452600D01*
X244094000Y-94234000D02*
X244094000Y-95471800D01*
X242090000Y-102189500D02*
X244094000Y-100185500D01*
X244094000Y-100185500D02*
X244094000Y-95471800D01*
X220345000Y-121920000D02*
X239395000Y-121920000D01*
X229870000Y-140970000D02*
X210820000Y-140970000D01*
X264922000Y-119634000D02*
X280265400Y-119634000D01*
X280265400Y-119634000D02*
X281602600Y-120971200D01*
X281602600Y-120971200D02*
X295268700Y-120971200D01*
X295268700Y-120971200D02*
X296859900Y-119380000D01*
X296859900Y-119380000D02*
X302895000Y-119380000D01*
X226695000Y-119380000D02*
X238252000Y-119380000D01*
X241493500Y-119380000D02*
X243024400Y-120910900D01*
X243024400Y-120910900D02*
X251482800Y-120910900D01*
X251482800Y-120910900D02*
X252759700Y-119634000D01*
X252759700Y-119634000D02*
X264922000Y-119634000D01*
X188595000Y-119406800D02*
X172374600Y-119406800D01*
X172374600Y-119406800D02*
X170864400Y-120917000D01*
X170864400Y-120917000D02*
X165460400Y-120917000D01*
X165460400Y-120917000D02*
X163950200Y-119406800D01*
X163950200Y-119406800D02*
X150495000Y-119406800D01*
X226695000Y-119380000D02*
X210501400Y-119380000D01*
X210501400Y-119380000D02*
X208964400Y-120917000D01*
X208964400Y-120917000D02*
X203560400Y-120917000D01*
X203560400Y-120917000D02*
X202050200Y-119406800D01*
X202050200Y-119406800D02*
X188595000Y-119406800D01*
X188595000Y-119380000D02*
X188595000Y-119406800D01*
X150495000Y-119406800D02*
X134274600Y-119406800D01*
X134274600Y-119406800D02*
X132764400Y-120917000D01*
X132764400Y-120917000D02*
X130442000Y-120917000D01*
X130442000Y-120917000D02*
X128905000Y-119380000D01*
X128905000Y-119380000D02*
X112395000Y-119380000D01*
X150495000Y-119380000D02*
X150495000Y-119406800D01*
X112395000Y-119380000D02*
X98112400Y-119380000D01*
X98112400Y-119380000D02*
X96536800Y-120955600D01*
X96536800Y-120955600D02*
X88256100Y-120955600D01*
X88256100Y-120955600D02*
X86680500Y-119380000D01*
X86680500Y-119380000D02*
X74295000Y-119380000D01*
X238252000Y-119380000D02*
X241493500Y-119380000D01*
X86995000Y-121920000D02*
X67945000Y-121920000D01*
X254254000Y-94234000D02*
X254254000Y-93031919D01*
X254254000Y-93031919D02*
X254254000Y-89662000D01*
X254254000Y-89662000D02*
X252984000Y-88392000D01*
X252984000Y-88392000D02*
X159766000Y-88392000D01*
X84486599Y-110077401D02*
X155860599Y-110077401D01*
X155860599Y-110077401D02*
X159766000Y-106172000D01*
X159766000Y-88392000D02*
X159766000Y-88392000D01*
X159766000Y-106172000D02*
X159766000Y-106172000D01*
X131155000Y-116174600D02*
X229077700Y-116174600D01*
X125095000Y-121920000D02*
X106045000Y-121920000D01*
X115570000Y-140970000D02*
X96520000Y-140970000D01*
X250864001Y-95083999D02*
X250864001Y-96432001D01*
X251714000Y-94234000D02*
X250864001Y-95083999D01*
X249015499Y-98280503D02*
X248937497Y-98280503D01*
X250864001Y-96432001D02*
X249015499Y-98280503D01*
X231043400Y-116174600D02*
X229077700Y-116174600D01*
X248937497Y-98280503D02*
X231043400Y-116174600D01*
X163195000Y-121920000D02*
X144145000Y-121920000D01*
X153670000Y-140970000D02*
X134620000Y-140970000D01*
X201295000Y-121920000D02*
X182245000Y-121920000D01*
X244158000Y-179070000D02*
X225108000Y-179070000D01*
X267970000Y-140970000D02*
X248920000Y-140970000D01*
X296545000Y-121920000D02*
X315468000Y-121920000D01*
X315468000Y-121920000D02*
X315595000Y-122047000D01*
X334650000Y-140940000D02*
X334550000Y-141040000D01*
X353750000Y-140940000D02*
X334650000Y-140940000D01*
X274320000Y-138443300D02*
X267201400Y-138443300D01*
X267201400Y-138443300D02*
X265675700Y-139969000D01*
X265675700Y-139969000D02*
X250459000Y-139969000D01*
X250459000Y-139969000D02*
X248920000Y-138430000D01*
X248920000Y-138430000D02*
X236220000Y-138430000D01*
X274320000Y-138430000D02*
X274320000Y-138443300D01*
X198120000Y-138430000D02*
X199695800Y-136854200D01*
X199695800Y-136854200D02*
X234644200Y-136854200D01*
X234644200Y-136854200D02*
X236220000Y-138430000D01*
X198120000Y-138430000D02*
X196589100Y-136899100D01*
X196589100Y-136899100D02*
X161550900Y-136899100D01*
X161550900Y-136899100D02*
X160020000Y-138430000D01*
X83820000Y-138430000D02*
X100551600Y-138430000D01*
X100551600Y-138430000D02*
X102093300Y-139971700D01*
X102093300Y-139971700D02*
X113284600Y-139971700D01*
X113284600Y-139971700D02*
X114826300Y-138430000D01*
X114826300Y-138430000D02*
X121920000Y-138430000D01*
X333124000Y-146167500D02*
X360367500Y-146167500D01*
X332824001Y-145867501D02*
X333124000Y-146167500D01*
X360367500Y-146167500D02*
X360600000Y-145935000D01*
X360600000Y-145935000D02*
X360600000Y-141000000D01*
X360100000Y-140500000D02*
X360100000Y-138400000D01*
X360600000Y-141000000D02*
X360100000Y-140500000D01*
X102870000Y-138430000D02*
X91593100Y-127153100D01*
X91593100Y-127153100D02*
X63018100Y-127153100D01*
X63018100Y-127153100D02*
X55245000Y-119380000D01*
X102870000Y-138430000D02*
X104416300Y-136883700D01*
X104416300Y-136883700D02*
X139423700Y-136883700D01*
X139423700Y-136883700D02*
X140970000Y-138430000D01*
X240495200Y-139157500D02*
X239685800Y-139966900D01*
X239685800Y-139966900D02*
X235216900Y-139966900D01*
X235216900Y-139966900D02*
X233680000Y-138430000D01*
X233680000Y-138430000D02*
X217170000Y-138430000D01*
X217170000Y-138430000D02*
X200976400Y-138430000D01*
X200976400Y-138430000D02*
X199439400Y-139967000D01*
X199439400Y-139967000D02*
X197117000Y-139967000D01*
X197117000Y-139967000D02*
X195580000Y-138430000D01*
X195580000Y-138430000D02*
X179070000Y-138430000D01*
X293370000Y-138430000D02*
X291826100Y-136886100D01*
X291826100Y-136886100D02*
X256813900Y-136886100D01*
X256813900Y-136886100D02*
X255270000Y-138430000D01*
X140970000Y-138430000D02*
X157596400Y-138430000D01*
X157596400Y-138430000D02*
X159172000Y-140005600D01*
X159172000Y-140005600D02*
X163211800Y-140005600D01*
X163211800Y-140005600D02*
X164787400Y-138430000D01*
X164787400Y-138430000D02*
X179070000Y-138430000D01*
X260032000Y-157480000D02*
X274830500Y-157480000D01*
X274830500Y-157480000D02*
X276393700Y-159043200D01*
X276393700Y-159043200D02*
X286000000Y-159043200D01*
X286000000Y-159043200D02*
X286749500Y-158293700D01*
X286749500Y-158293700D02*
X292764300Y-158293700D01*
X221932000Y-157506800D02*
X234658800Y-157506800D01*
X234658800Y-157506800D02*
X236171000Y-159019000D01*
X236171000Y-159019000D02*
X251360100Y-159019000D01*
X251360100Y-159019000D02*
X252899100Y-157480000D01*
X252899100Y-157480000D02*
X260032000Y-157480000D01*
X145732000Y-157480000D02*
X158838400Y-157480000D01*
X158838400Y-157480000D02*
X160375400Y-159017000D01*
X160375400Y-159017000D02*
X169648700Y-159017000D01*
X169648700Y-159017000D02*
X171158900Y-157506800D01*
X171158900Y-157506800D02*
X183832000Y-157506800D01*
X221932000Y-157506800D02*
X215555200Y-157506800D01*
X215555200Y-157506800D02*
X214043000Y-159019000D01*
X214043000Y-159019000D02*
X198799400Y-159019000D01*
X198799400Y-159019000D02*
X197287200Y-157506800D01*
X197287200Y-157506800D02*
X183832000Y-157506800D01*
X183832000Y-157480000D02*
X183832000Y-157506800D01*
X221932000Y-157480000D02*
X221932000Y-157506800D01*
X107632000Y-157480000D02*
X109178700Y-155933300D01*
X109178700Y-155933300D02*
X144185300Y-155933300D01*
X144185300Y-155933300D02*
X145732000Y-157480000D01*
X298831000Y-157480000D02*
X302020000Y-157480000D01*
X304800000Y-154700000D02*
X304900000Y-154700000D01*
X304800000Y-154700000D02*
X305100000Y-154400000D01*
X302020000Y-157480000D02*
X304800000Y-154700000D01*
X304900000Y-154700000D02*
X308300000Y-151300000D01*
X308300000Y-151300000D02*
X322500000Y-151300000D01*
X322500000Y-151300000D02*
X322500000Y-151300000D01*
X240982000Y-157480000D02*
X242513300Y-155948700D01*
X242513300Y-155948700D02*
X277550700Y-155948700D01*
X277550700Y-155948700D02*
X279082000Y-157480000D01*
X240982000Y-157480000D02*
X239451100Y-155949100D01*
X239451100Y-155949100D02*
X204412900Y-155949100D01*
X204412900Y-155949100D02*
X202882000Y-157480000D01*
X164782000Y-157480000D02*
X166321100Y-155940900D01*
X166321100Y-155940900D02*
X201342900Y-155940900D01*
X201342900Y-155940900D02*
X202882000Y-157480000D01*
X158439300Y-158290300D02*
X147778100Y-158290300D01*
X147778100Y-158290300D02*
X147051400Y-159017000D01*
X147051400Y-159017000D02*
X144729000Y-159017000D01*
X144729000Y-159017000D02*
X143192000Y-157480000D01*
X143192000Y-157480000D02*
X126682000Y-157480000D01*
X88582500Y-157480000D02*
X105313600Y-157480000D01*
X105313600Y-157480000D02*
X106855300Y-159021700D01*
X106855300Y-159021700D02*
X118046200Y-159021700D01*
X118046200Y-159021700D02*
X119587900Y-157480000D01*
X119587900Y-157480000D02*
X126682000Y-157480000D01*
X358775001Y-175133001D02*
X358775001Y-175075001D01*
X359918000Y-176276000D02*
X358775001Y-175133001D01*
X293094301Y-157606199D02*
X283393801Y-157606199D01*
X303861701Y-168373599D02*
X293094301Y-157606199D01*
X359918000Y-176276000D02*
X352015599Y-168373599D01*
X352015599Y-168373599D02*
X303861701Y-168373599D01*
X283267602Y-157480000D02*
X278720000Y-157480000D01*
X283393801Y-157606199D02*
X283267602Y-157480000D01*
X278720000Y-157480000D02*
X279082000Y-157480000D01*
X67151200Y-176530000D02*
X62992000Y-172370800D01*
X62992000Y-172370800D02*
X62992000Y-160020000D01*
X117158000Y-176530000D02*
X110034400Y-176530000D01*
X110034400Y-176530000D02*
X108492700Y-178071700D01*
X108492700Y-178071700D02*
X97330800Y-178071700D01*
X97330800Y-178071700D02*
X95852100Y-176593000D01*
X95852100Y-176593000D02*
X67214200Y-176593000D01*
X67214200Y-176593000D02*
X67151200Y-176530000D01*
X340614000Y-176276000D02*
X340480100Y-176409900D01*
X340480100Y-176409900D02*
X312784900Y-176409900D01*
X312784900Y-176409900D02*
X311199200Y-174824200D01*
X311199200Y-174824200D02*
X297582500Y-174824200D01*
X297582500Y-174824200D02*
X295876700Y-176530000D01*
X295876700Y-176530000D02*
X269558000Y-176530000D01*
X269558000Y-176530000D02*
X268027100Y-174999100D01*
X268027100Y-174999100D02*
X232988900Y-174999100D01*
X232988900Y-174999100D02*
X231458000Y-176530000D01*
X231458000Y-176530000D02*
X229927100Y-174999100D01*
X229927100Y-174999100D02*
X194888900Y-174999100D01*
X194888900Y-174999100D02*
X193358000Y-176530000D01*
X155258000Y-176530000D02*
X156788900Y-174999100D01*
X156788900Y-174999100D02*
X191827100Y-174999100D01*
X191827100Y-174999100D02*
X193358000Y-176530000D01*
X117158000Y-176530000D02*
X133668000Y-176530000D01*
X133668000Y-176530000D02*
X135205000Y-178067000D01*
X135205000Y-178067000D02*
X137527400Y-178067000D01*
X137527400Y-178067000D02*
X139064400Y-176530000D01*
X139064400Y-176530000D02*
X155258000Y-176530000D01*
X62500000Y-159528000D02*
X62500000Y-157600000D01*
X62992000Y-160020000D02*
X62500000Y-159528000D01*
X136208000Y-176530000D02*
X134612300Y-174934300D01*
X134612300Y-174934300D02*
X99703200Y-174934300D01*
X99703200Y-174934300D02*
X98107500Y-176530000D01*
X304927000Y-176403000D02*
X298704000Y-176403000D01*
X298704000Y-176403000D02*
X297040100Y-178066900D01*
X297040100Y-178066900D02*
X268554900Y-178066900D01*
X268554900Y-178066900D02*
X267018000Y-176530000D01*
X267018000Y-176530000D02*
X250508000Y-176530000D01*
X212408000Y-176556800D02*
X225134800Y-176556800D01*
X225134800Y-176556800D02*
X226638900Y-178060900D01*
X226638900Y-178060900D02*
X237205500Y-178060900D01*
X237205500Y-178060900D02*
X238736400Y-176530000D01*
X238736400Y-176530000D02*
X250508000Y-176530000D01*
X174308000Y-176530000D02*
X187008000Y-176530000D01*
X187008000Y-176530000D02*
X188547000Y-178069000D01*
X188547000Y-178069000D02*
X194359000Y-178069000D01*
X194359000Y-178069000D02*
X195871200Y-176556800D01*
X195871200Y-176556800D02*
X212408000Y-176556800D01*
X212408000Y-176530000D02*
X212408000Y-176556800D01*
X334772000Y-122047000D02*
X325526300Y-112801300D01*
X325526300Y-112801300D02*
X253803500Y-112801300D01*
X334772000Y-122047000D02*
X334772000Y-134873100D01*
X334772000Y-134873100D02*
X323850000Y-145795100D01*
X323850000Y-145795100D02*
X323850000Y-159893000D01*
X106045000Y-93345000D02*
X86995000Y-93345000D01*
X125095000Y-93345000D02*
X106045000Y-93345000D01*
X144145000Y-93345000D02*
X125095000Y-93345000D01*
X334264000Y-178816000D02*
X353568000Y-178816000D01*
X164581400Y-89881600D02*
X232121600Y-89881600D01*
X232121600Y-89881600D02*
X236474000Y-94234000D01*
X144145000Y-93345000D02*
X161118000Y-93345000D01*
X161118000Y-93345000D02*
X164581400Y-89881600D01*
X323850000Y-159893000D02*
X323850000Y-159893000D01*
X323783000Y-159960000D02*
X323850000Y-159893000D01*
X303490000Y-159960000D02*
X323783000Y-159960000D01*
X256206100Y-98217200D02*
X256206100Y-110723900D01*
X256206100Y-110723900D02*
X256995100Y-111512900D01*
X256995100Y-111512900D02*
X326473900Y-111512900D01*
X326473900Y-111512900D02*
X336303700Y-121342700D01*
X211074000Y-95436081D02*
X213360000Y-97722081D01*
X211074000Y-94234000D02*
X211074000Y-95436081D01*
X236152081Y-97722081D02*
X236338162Y-97536000D01*
X213360000Y-97722081D02*
X236152081Y-97722081D01*
X236338162Y-97536000D02*
X242824000Y-97536000D01*
X256206100Y-98217200D02*
X256206100Y-97710100D01*
X256206100Y-97710100D02*
X256206100Y-97710100D01*
X242824000Y-97536000D02*
X242824000Y-97536000D01*
X316900000Y-138400000D02*
X325800000Y-138400000D01*
X325800000Y-138400000D02*
X330900000Y-133300000D01*
X330900000Y-133300000D02*
X330900000Y-133300000D01*
X336442700Y-121342700D02*
X336900000Y-121800000D01*
X336303700Y-121342700D02*
X336442700Y-121342700D01*
X336900000Y-121800000D02*
X340000000Y-121800000D01*
X340000000Y-121800000D02*
X341500000Y-123300000D01*
X341500000Y-123300000D02*
X341500000Y-127300000D01*
X341500000Y-127300000D02*
X340550000Y-128250000D01*
X340550000Y-128250000D02*
X340500000Y-128300000D01*
X205994000Y-97282000D02*
X205994000Y-94234000D01*
X243358200Y-98830600D02*
X207542600Y-98830600D01*
X207542600Y-98830600D02*
X205994000Y-97282000D01*
X213614000Y-92710000D02*
X213614000Y-94234000D01*
X212090000Y-91186000D02*
X213614000Y-92710000D01*
X202438000Y-91186000D02*
X212090000Y-91186000D01*
X200914000Y-92710000D02*
X202438000Y-91186000D01*
X200914000Y-99568000D02*
X200914000Y-92710000D01*
X69007056Y-103124000D02*
X72563056Y-106680000D01*
X155448000Y-106680000D02*
X159766000Y-102362000D01*
X67310000Y-103124000D02*
X69007056Y-103124000D01*
X198120000Y-102362000D02*
X200914000Y-99568000D01*
X72563056Y-106680000D02*
X155448000Y-106680000D01*
X159766000Y-102362000D02*
X198120000Y-102362000D01*
X59436000Y-102870000D02*
X59690000Y-103124000D01*
X59436000Y-94996000D02*
X59436000Y-102870000D01*
M02*
