M48
; DRILL file {KiCad (5.1.5)-3} date 8/3/2021 9:44:58 PM
; FORMAT={-:-/ absolute / inch / decimal}
; #@! TF.CreationDate,2021-08-03T21:44:58-05:00
; #@! TF.GenerationSoftware,Kicad,Pcbnew,(5.1.5)-3
; #@! TF.FileFunction,NonPlated,1,2,NPTH
FMAT,2
INCH
T1C0.0669
T2C0.0670
T3C0.1200
T4C0.1570
T5C0.1575
%
G90
G05
T1
X14.2772Y-5.6488
X11.625Y-4.9
X12.025Y-4.9
X2.0661Y-5.6488
X2.4661Y-5.6488
X2.1606Y-6.4047
X2.5606Y-6.4047
X13.1213Y-5.6528
X13.5213Y-5.6528
X12.1764Y-5.6488
X12.5764Y-5.6488
X13.8772Y-5.6488
T2
X7.125Y-4.9
X7.525Y-4.9
X6.375Y-4.9
X6.775Y-4.9
X11.705Y-7.145
X12.105Y-7.145
X3.375Y-3.775
X3.775Y-3.775
X3.375Y-4.9
X3.775Y-4.9
X9.0Y-5.65
X9.4Y-5.65
X5.8125Y-7.15
X6.2125Y-7.15
X6.0Y-5.65
X6.4Y-5.65
X11.25Y-5.65
X11.65Y-5.65
X3.1875Y-6.4
X3.5875Y-6.4
X1.97Y-7.895
X2.37Y-7.895
X13.1228Y-4.905
X13.5228Y-4.905
X5.625Y-3.775
X6.025Y-3.775
X2.625Y-4.9
X3.025Y-4.9
X9.1875Y-6.4
X9.5875Y-6.4
X7.5Y-5.65
X7.9Y-5.65
X3.9375Y-6.4
X4.3375Y-6.4
X8.625Y-4.9
X9.025Y-4.9
X10.875Y-4.9
X11.275Y-4.9
X3.5625Y-7.15
X3.9625Y-7.15
X13.11Y-7.14
X13.51Y-7.14
X6.75Y-5.65
X7.15Y-5.65
X9.375Y-4.9
X9.775Y-4.9
X8.4375Y-6.4
X8.8375Y-6.4
X8.0625Y-7.15
X8.4625Y-7.15
X10.6875Y-6.4
X11.0875Y-6.4
X7.875Y-4.9
X8.275Y-4.9
X10.3125Y-7.15
X10.7125Y-7.15
X4.3125Y-7.15
X4.7125Y-7.15
X13.87Y-7.14
X14.27Y-7.14
X4.125Y-3.775
X4.525Y-3.775
X5.625Y-4.9
X6.025Y-4.9
X6.9375Y-6.4
X7.3375Y-6.4
X7.6875Y-6.4
X8.0875Y-6.4
X10.1228Y-4.9016
X10.5228Y-4.9016
X4.6875Y-6.4
X5.0875Y-6.4
X8.8125Y-7.15
X9.2125Y-7.15
X3.75Y-5.65
X4.15Y-5.65
X4.875Y-3.775
X5.275Y-3.775
X4.875Y-4.9
X5.275Y-4.9
X5.4375Y-6.4
X5.8375Y-6.4
X6.1875Y-6.4
X6.5875Y-6.4
X9.9375Y-6.4
X10.3375Y-6.4
X5.0625Y-7.15
X5.4625Y-7.15
X9.5625Y-7.15
X9.9625Y-7.15
X6.6563Y-7.9
X7.0563Y-7.9
X12.375Y-4.905
X12.775Y-4.905
X5.25Y-5.65
X5.65Y-5.65
X7.3125Y-7.15
X7.7125Y-7.15
X9.75Y-5.65
X10.15Y-5.65
X10.5Y-5.65
X10.9Y-5.65
X6.5625Y-7.15
X6.9625Y-7.15
X1.875Y-4.9
X2.275Y-4.9
X2.3437Y-7.15
X2.7437Y-7.15
X11.8984Y-6.3976
X12.2984Y-6.3976
X4.125Y-4.9
X4.525Y-4.9
X3.0047Y-5.6496
X3.4047Y-5.6496
X8.25Y-5.65
X8.65Y-5.65
X4.5Y-5.65
X4.9Y-5.65
T3
X4.8863Y-8.175
X8.8263Y-8.175
X2.0737Y-6.875
X3.0137Y-6.875
X11.6284Y-6.1226
X12.5684Y-6.1226
X11.435Y-6.87
X12.375Y-6.87
T4
X4.5125Y-7.15
X14.07Y-7.14
X4.325Y-3.775
X5.825Y-4.9
X7.1375Y-6.4
X7.8875Y-6.4
X10.3228Y-4.9016
X4.8875Y-6.4
X9.0125Y-7.15
X3.95Y-5.65
X5.075Y-3.775
X5.075Y-4.9
X5.6375Y-6.4
X6.3875Y-6.4
X10.1375Y-6.4
X5.2625Y-7.15
X9.7625Y-7.15
X4.8863Y-7.575
X6.8563Y-7.9
X8.8263Y-7.575
X12.575Y-4.905
X5.45Y-5.65
X7.5125Y-7.15
X9.95Y-5.65
X10.7Y-5.65
X6.7625Y-7.15
X2.075Y-4.9
X2.0737Y-7.475
X2.5437Y-7.15
X3.0137Y-7.475
X11.6284Y-6.7226
X12.0984Y-6.3976
X12.5684Y-6.7226
X4.325Y-4.9
X3.2047Y-5.6496
X8.45Y-5.65
X4.7Y-5.65
X7.325Y-4.9
X6.575Y-4.9
X11.435Y-7.47
X11.905Y-7.145
X12.375Y-7.47
X3.575Y-3.775
X3.575Y-4.9
X9.2Y-5.65
X6.0125Y-7.15
X6.2Y-5.65
X11.45Y-5.65
X3.3875Y-6.4
X2.17Y-7.895
X13.3228Y-4.905
X5.825Y-3.775
X2.825Y-4.9
X9.3875Y-6.4
X7.7Y-5.65
X4.1375Y-6.4
X8.825Y-4.9
X11.075Y-4.9
X3.7625Y-7.15
X13.31Y-7.14
X6.95Y-5.65
X9.575Y-4.9
X8.6375Y-6.4
X8.2625Y-7.15
X10.8875Y-6.4
X8.075Y-4.9
X10.5125Y-7.15
T5
X13.3213Y-5.6528
X14.0772Y-5.6488
X11.825Y-4.9
X2.2661Y-5.6488
X2.3606Y-6.4047
X12.3764Y-5.6488
T0
M30
