M48
; DRILL file {KiCad (5.1.5)-3} date 8/3/2021 9:44:58 PM
; FORMAT={-:-/ absolute / inch / decimal}
; #@! TF.CreationDate,2021-08-03T21:44:58-05:00
; #@! TF.GenerationSoftware,Kicad,Pcbnew,(5.1.5)-3
; #@! TF.FileFunction,Plated,1,2,PTH
FMAT,2
INCH
T1C0.0157
T2C0.0354
T3C0.0394
T4C0.0472
T5C0.0590
T6C0.0591
T7C0.1260
%
G90
G05
T1
X3.3262Y-4.3338
X5.1636Y-4.5738
X6.2378Y-6.2319
X6.29Y-3.48
X6.29Y-4.18
X9.38Y-4.7
X9.4683Y-5.4786
X9.5311Y-4.0232
X9.56Y-3.84
X9.581Y-3.891
X9.9923Y-4.441
X10.0869Y-3.8469
X11.5262Y-6.232
X11.765Y-6.2
X12.6969Y-5.9567
X12.75Y-6.295
X13.0276Y-5.248
X13.1033Y-5.7428
X13.4075Y-5.0492
T2
X2.24Y-3.74
X2.34Y-3.74
T3
X8.11Y-3.71
X8.21Y-3.71
X8.31Y-3.71
X8.41Y-3.71
X8.51Y-3.71
X8.61Y-3.71
X8.71Y-3.71
X8.81Y-3.71
X8.91Y-3.71
X9.01Y-3.71
X9.11Y-3.71
X9.21Y-3.71
X9.31Y-3.71
X9.41Y-3.71
X9.51Y-3.71
X9.61Y-3.71
X9.71Y-3.71
X9.81Y-3.71
X9.91Y-3.71
X10.01Y-3.71
T4
X2.35Y-4.06
X2.65Y-4.06
T5
X9.425Y-4.8
X9.675Y-4.7
X8.4875Y-6.3
X8.7375Y-6.2
X8.1125Y-7.05
X8.3625Y-6.95
X10.7375Y-6.3
X10.9875Y-6.2
X7.925Y-4.8
X8.175Y-4.7
X10.3625Y-7.05
X10.6125Y-6.95
X4.3625Y-7.05
X4.6125Y-6.95
X13.92Y-7.04
X14.17Y-6.94
X4.175Y-3.675
X4.425Y-3.575
X5.675Y-4.8
X5.925Y-4.7
X6.9875Y-6.3
X7.2375Y-6.2
X7.7375Y-6.3
X7.9875Y-6.2
X10.1728Y-4.8016
X10.4228Y-4.7016
X4.7375Y-6.3
X4.9875Y-6.2
X8.8625Y-7.05
X9.1125Y-6.95
X3.8Y-5.55
X4.05Y-5.45
X4.925Y-3.675
X5.175Y-3.575
X4.925Y-4.8
X5.175Y-4.7
X5.4875Y-6.3
X5.7375Y-6.2
X6.2375Y-6.3
X6.4875Y-6.2
X9.9875Y-6.3
X10.2375Y-6.2
X5.1125Y-7.05
X5.3625Y-6.95
X9.6125Y-7.05
X9.8625Y-6.95
X6.7063Y-7.8
X6.9563Y-7.7
X12.425Y-4.805
X12.675Y-4.705
X5.3Y-5.55
X5.55Y-5.45
X7.3625Y-7.05
X7.6125Y-6.95
X9.8Y-5.55
X10.05Y-5.45
X10.55Y-5.55
X10.8Y-5.45
X6.6125Y-7.05
X6.8625Y-6.95
X1.925Y-4.8
X2.175Y-4.7
X2.3937Y-7.05
X2.6437Y-6.95
X11.9484Y-6.2976
X12.1984Y-6.1976
X4.175Y-4.8
X4.425Y-4.7
X3.0547Y-5.5496
X3.3047Y-5.4496
X8.3Y-5.55
X8.55Y-5.45
X4.55Y-5.55
X4.8Y-5.45
X7.175Y-4.8
X7.425Y-4.7
X6.425Y-4.8
X6.675Y-4.7
X11.755Y-7.045
X12.005Y-6.945
X3.425Y-3.675
X3.675Y-3.575
X3.425Y-4.8
X3.675Y-4.7
X9.05Y-5.55
X9.3Y-5.45
X5.8625Y-7.05
X6.1125Y-6.95
X6.05Y-5.55
X6.3Y-5.45
X11.3Y-5.55
X11.55Y-5.45
X3.2375Y-6.3
X3.4875Y-6.2
X2.02Y-7.795
X2.27Y-7.695
X13.1728Y-4.805
X13.4228Y-4.705
X5.675Y-3.675
X5.925Y-3.575
X2.675Y-4.8
X2.925Y-4.7
X9.2375Y-6.3
X9.4875Y-6.2
X7.55Y-5.55
X7.8Y-5.45
X3.9875Y-6.3
X4.2375Y-6.2
X8.675Y-4.8
X8.925Y-4.7
X10.925Y-4.8
X11.175Y-4.7
X3.6125Y-7.05
X3.8625Y-6.95
X13.16Y-7.04
X13.41Y-6.94
X6.8Y-5.55
X7.05Y-5.45
T6
X12.2264Y-5.5488
X12.4764Y-5.4488
X13.9272Y-5.5488
X14.1772Y-5.4488
X11.675Y-4.8
X11.925Y-4.7
X2.1161Y-5.5488
X2.3661Y-5.4488
X2.2106Y-6.3047
X2.4606Y-6.2047
X13.1713Y-5.5528
X13.4213Y-5.4528
T7
X6.95Y-3.68
X9.945Y-4.02
X14.58Y-4.575
X9.605Y-8.02
X1.635Y-3.68
X14.575Y-8.025
X12.26Y-8.015
X1.635Y-8.02
T0
M30
