G04 #@! TF.GenerationSoftware,KiCad,Pcbnew,(5.1.5)-3*
G04 #@! TF.CreationDate,2021-08-15T22:03:36-05:00*
G04 #@! TF.ProjectId,Vic2020mainboard,56696332-3032-4306-9d61-696e626f6172,rev?*
G04 #@! TF.SameCoordinates,Original*
G04 #@! TF.FileFunction,Profile,NP*
%FSLAX46Y46*%
G04 Gerber Fmt 4.6, Leading zero omitted, Abs format (unit mm)*
G04 Created by KiCad (PCBNEW (5.1.5)-3) date 2021-08-15 22:03:36*
%MOMM*%
%LPD*%
G04 APERTURE LIST*
%ADD10C,0.150000*%
%ADD11C,0.001000*%
G04 APERTURE END LIST*
D10*
X35306000Y-208280000D02*
G75*
G03X37846000Y-210820000I2540000J0D01*
G01*
X390555000Y-210820000D02*
G75*
G03X393095000Y-208280000I0J2540000D01*
G01*
X374015000Y-210820000D02*
X45720000Y-210820000D01*
X45720000Y-210820000D02*
X37846000Y-210820000D01*
X35306000Y-208026000D02*
X35306000Y-88900000D01*
X225425000Y-86360000D02*
X45720000Y-86360000D01*
X35306000Y-208280000D02*
X35306000Y-208026000D01*
X45720000Y-86360000D02*
X37845000Y-86360000D01*
X393100000Y-111760000D02*
X393100000Y-88900000D01*
X37846000Y-86360000D02*
G75*
G03X35306000Y-88900000I0J-2540000D01*
G01*
X374000000Y-86360000D02*
X390560000Y-86360000D01*
X393100000Y-111760000D02*
X393095000Y-208280000D01*
X374015000Y-210820000D02*
X390555000Y-210820000D01*
X374000000Y-86360000D02*
X225425000Y-86360000D01*
X393100000Y-88900000D02*
G75*
G03X390560000Y-86360000I-2540000J0D01*
G01*
D11*
X91950000Y-89600000D02*
X93750000Y-89600000D01*
X93750000Y-89600000D02*
X93750000Y-87900000D01*
X93750000Y-87900000D02*
X91950000Y-87900000D01*
X91950000Y-87900000D02*
X91950000Y-89600000D01*
X100450000Y-89600000D02*
X102250000Y-89600000D01*
X102250000Y-89600000D02*
X102250000Y-87900000D01*
X102250000Y-87900000D02*
X100450000Y-87900000D01*
X100450000Y-87900000D02*
X100450000Y-89600000D01*
X70150000Y-89600000D02*
X71950000Y-89600000D01*
X71950000Y-89600000D02*
X71950000Y-87900000D01*
X71950000Y-87900000D02*
X70150000Y-87900000D01*
X70150000Y-87900000D02*
X70150000Y-89600000D01*
X78650000Y-89600000D02*
X80450000Y-89600000D01*
X80450000Y-89600000D02*
X80450000Y-87900000D01*
X80450000Y-87900000D02*
X78650000Y-87900000D01*
X78650000Y-87900000D02*
X78650000Y-89600000D01*
M02*
