G04 #@! TF.GenerationSoftware,KiCad,Pcbnew,(5.1.5)-3*
G04 #@! TF.CreationDate,2021-08-15T22:03:35-05:00*
G04 #@! TF.ProjectId,Vic2020mainboard,56696332-3032-4306-9d61-696e626f6172,rev?*
G04 #@! TF.SameCoordinates,Original*
G04 #@! TF.FileFunction,Copper,L1,Top*
G04 #@! TF.FilePolarity,Positive*
%FSLAX46Y46*%
G04 Gerber Fmt 4.6, Leading zero omitted, Abs format (unit mm)*
G04 Created by KiCad (PCBNEW (5.1.5)-3) date 2021-08-15 22:03:35*
%MOMM*%
%LPD*%
G04 APERTURE LIST*
%ADD10C,1.600000*%
%ADD11C,1.200000*%
%ADD12R,1.200000X1.200000*%
%ADD13C,1.524000*%
%ADD14R,1.524000X1.524000*%
%ADD15O,1.600000X1.600000*%
%ADD16R,1.600000X1.600000*%
%ADD17C,4.000000*%
%ADD18O,4.200000X2.100000*%
%ADD19O,1.550000X3.100000*%
%ADD20R,1.500000X1.500000*%
%ADD21C,1.500000*%
%ADD22C,6.400000*%
%ADD23C,2.540000*%
%ADD24C,1.950000*%
%ADD25O,1.700000X1.700000*%
%ADD26R,1.700000X1.700000*%
%ADD27O,2.000000X3.500000*%
%ADD28O,3.300000X2.000000*%
%ADD29R,4.000000X2.000000*%
%ADD30R,1.398000X1.398000*%
%ADD31C,1.398000*%
%ADD32C,3.306000*%
%ADD33C,0.800000*%
%ADD34C,1.000000*%
%ADD35C,0.250000*%
%ADD36C,1.500000*%
G04 APERTURE END LIST*
D10*
X103625000Y-127975000D03*
X108625000Y-127975000D03*
D11*
X360625000Y-110925000D03*
D12*
X360625000Y-108925000D03*
D13*
X375860000Y-97300000D03*
X371900000Y-97300000D03*
X367940000Y-97300000D03*
X363980000Y-97300000D03*
X360020000Y-97300000D03*
X356060000Y-97300000D03*
X352100000Y-97300000D03*
X348140000Y-97300000D03*
X344180000Y-97300000D03*
X340220000Y-97300000D03*
X336260000Y-97300000D03*
X332300000Y-97300000D03*
X328340000Y-97300000D03*
X324380000Y-97300000D03*
X320420000Y-97300000D03*
X316460000Y-97300000D03*
X312500000Y-97300000D03*
X308540000Y-97300000D03*
X304580000Y-97300000D03*
X300620000Y-97300000D03*
X296660000Y-97300000D03*
X292700000Y-97300000D03*
D14*
X375860000Y-100600000D03*
D13*
X371900000Y-100600000D03*
X367940000Y-100600000D03*
X363980000Y-100600000D03*
X360020000Y-100600000D03*
X356060000Y-100600000D03*
X352100000Y-100600000D03*
X348140000Y-100600000D03*
X344180000Y-100600000D03*
X340220000Y-100600000D03*
X336260000Y-100600000D03*
X332300000Y-100600000D03*
X328340000Y-100600000D03*
X324380000Y-100600000D03*
X320420000Y-100600000D03*
X316460000Y-100600000D03*
X312500000Y-100600000D03*
X308540000Y-100600000D03*
X304580000Y-100600000D03*
X300620000Y-100600000D03*
X296660000Y-100600000D03*
X292700000Y-100600000D03*
D15*
X123020000Y-123900000D03*
D10*
X115400000Y-123900000D03*
D15*
X299620000Y-150700000D03*
D10*
X292000000Y-150700000D03*
D15*
X299620000Y-147300000D03*
D10*
X292000000Y-147300000D03*
D15*
X299635000Y-143700000D03*
D10*
X292015000Y-143700000D03*
D15*
X299620000Y-140200000D03*
D10*
X292000000Y-140200000D03*
X149300000Y-170600000D03*
X154300000Y-170600000D03*
D15*
X231520000Y-176800000D03*
X223900000Y-192040000D03*
X231520000Y-179340000D03*
X223900000Y-189500000D03*
X231520000Y-181880000D03*
X223900000Y-186960000D03*
X231520000Y-184420000D03*
X223900000Y-184420000D03*
X231520000Y-186960000D03*
X223900000Y-181880000D03*
X231520000Y-189500000D03*
X223900000Y-179340000D03*
X231520000Y-192040000D03*
D16*
X223900000Y-176800000D03*
D17*
X385500000Y-165160000D03*
X385500000Y-190160000D03*
D10*
X388040000Y-173505000D03*
X388040000Y-176275000D03*
X388040000Y-179045000D03*
X388040000Y-181815000D03*
X385200000Y-172120000D03*
X385200000Y-174890000D03*
X385200000Y-177660000D03*
X385200000Y-180430000D03*
D16*
X385200000Y-183200000D03*
D15*
X378220000Y-136900000D03*
X370600000Y-152140000D03*
X378220000Y-139440000D03*
X370600000Y-149600000D03*
X378220000Y-141980000D03*
X370600000Y-147060000D03*
X378220000Y-144520000D03*
X370600000Y-144520000D03*
X378220000Y-147060000D03*
X370600000Y-141980000D03*
X378220000Y-149600000D03*
X370600000Y-139440000D03*
X378220000Y-152140000D03*
D16*
X370600000Y-136900000D03*
D15*
X194820000Y-176900000D03*
X187200000Y-192140000D03*
X194820000Y-179440000D03*
X187200000Y-189600000D03*
X194820000Y-181980000D03*
X187200000Y-187060000D03*
X194820000Y-184520000D03*
X187200000Y-184520000D03*
X194820000Y-187060000D03*
X187200000Y-181980000D03*
X194820000Y-189600000D03*
X187200000Y-179440000D03*
X194820000Y-192140000D03*
D16*
X187200000Y-176900000D03*
D15*
X95280000Y-205500000D03*
D10*
X102900000Y-205500000D03*
D15*
X114120000Y-201000000D03*
D10*
X106500000Y-201000000D03*
D15*
X114120000Y-205500000D03*
D10*
X106500000Y-205500000D03*
D15*
X318400000Y-204100000D03*
D10*
X326020000Y-204100000D03*
D18*
X97100000Y-91900000D03*
D19*
X97100000Y-96400000D03*
D18*
X75300000Y-91900000D03*
D19*
X75300000Y-96400000D03*
D15*
X137620000Y-179900000D03*
X130000000Y-202760000D03*
X137620000Y-182440000D03*
X130000000Y-200220000D03*
X137620000Y-184980000D03*
X130000000Y-197680000D03*
X137620000Y-187520000D03*
X130000000Y-195140000D03*
X137620000Y-190060000D03*
X130000000Y-192600000D03*
X137620000Y-192600000D03*
X130000000Y-190060000D03*
X137620000Y-195140000D03*
X130000000Y-187520000D03*
X137620000Y-197680000D03*
X130000000Y-184980000D03*
X137620000Y-200220000D03*
X130000000Y-182440000D03*
X137620000Y-202760000D03*
D16*
X130000000Y-179900000D03*
D10*
X154700000Y-190000000D03*
X149700000Y-190000000D03*
D20*
X53200000Y-112760000D03*
D21*
X53200000Y-117840000D03*
X53200000Y-115300000D03*
D20*
X58600000Y-105100000D03*
D21*
X58600000Y-110180000D03*
X58600000Y-107640000D03*
D15*
X126960000Y-117000000D03*
D10*
X116800000Y-117000000D03*
D15*
X139160000Y-104600000D03*
D10*
X129000000Y-104600000D03*
D15*
X146360000Y-109700000D03*
D10*
X136200000Y-109700000D03*
D15*
X161860000Y-127200000D03*
D10*
X151700000Y-127200000D03*
D15*
X161960000Y-115500000D03*
D10*
X151800000Y-115500000D03*
D15*
X161860000Y-119700000D03*
D10*
X151700000Y-119700000D03*
D15*
X66900000Y-140340000D03*
D10*
X66900000Y-150500000D03*
D15*
X236900000Y-192060000D03*
D10*
X236900000Y-181900000D03*
D15*
X219000000Y-187260000D03*
D10*
X219000000Y-177100000D03*
D11*
X94600000Y-121500000D03*
D12*
X94600000Y-119500000D03*
D11*
X82900000Y-130400000D03*
D12*
X82900000Y-128400000D03*
D11*
X198200000Y-91600000D03*
D12*
X196200000Y-91600000D03*
D11*
X104200000Y-121600000D03*
D12*
X104200000Y-119600000D03*
D10*
X167800000Y-91000000D03*
X167800000Y-96000000D03*
D15*
X283240000Y-120000000D03*
X268000000Y-153020000D03*
X283240000Y-122540000D03*
X268000000Y-150480000D03*
X283240000Y-125080000D03*
X268000000Y-147940000D03*
X283240000Y-127620000D03*
X268000000Y-145400000D03*
X283240000Y-130160000D03*
X268000000Y-142860000D03*
X283240000Y-132700000D03*
X268000000Y-140320000D03*
X283240000Y-135240000D03*
X268000000Y-137780000D03*
X283240000Y-137780000D03*
X268000000Y-135240000D03*
X283240000Y-140320000D03*
X268000000Y-132700000D03*
X283240000Y-142860000D03*
X268000000Y-130160000D03*
X283240000Y-145400000D03*
X268000000Y-127620000D03*
X283240000Y-147940000D03*
X268000000Y-125080000D03*
X283240000Y-150480000D03*
X268000000Y-122540000D03*
X283240000Y-153020000D03*
D16*
X268000000Y-120000000D03*
D22*
X311404000Y-203581000D03*
X176530000Y-93472000D03*
X370205000Y-203835000D03*
X41529000Y-93472000D03*
X41529000Y-203708000D03*
X370332000Y-116205000D03*
X252603000Y-102108000D03*
X70500000Y-136100000D03*
X88000000Y-204200000D03*
X386500000Y-203400000D03*
X383300000Y-98800000D03*
X283700000Y-98600000D03*
X243967000Y-203708000D03*
D15*
X359020000Y-114900000D03*
X351400000Y-122520000D03*
X359020000Y-117440000D03*
X351400000Y-119980000D03*
X359020000Y-119980000D03*
X351400000Y-117440000D03*
X359020000Y-122520000D03*
D16*
X351400000Y-114900000D03*
D15*
X317720000Y-112600000D03*
X310100000Y-120220000D03*
X317720000Y-115140000D03*
X310100000Y-117680000D03*
X317720000Y-117680000D03*
X310100000Y-115140000D03*
X317720000Y-120220000D03*
D16*
X310100000Y-112600000D03*
D15*
X339220000Y-111600000D03*
X331600000Y-119220000D03*
X339220000Y-114140000D03*
X331600000Y-116680000D03*
X339220000Y-116680000D03*
X331600000Y-114140000D03*
X339220000Y-119220000D03*
D16*
X331600000Y-111600000D03*
D21*
X149400000Y-176700000D03*
X154300000Y-176700000D03*
D15*
X254040000Y-109200000D03*
X238800000Y-157460000D03*
X254040000Y-111740000D03*
X238800000Y-154920000D03*
X254040000Y-114280000D03*
X238800000Y-152380000D03*
X254040000Y-116820000D03*
X238800000Y-149840000D03*
X254040000Y-119360000D03*
X238800000Y-147300000D03*
X254040000Y-121900000D03*
X238800000Y-144760000D03*
X254040000Y-124440000D03*
X238800000Y-142220000D03*
X254040000Y-126980000D03*
X238800000Y-139680000D03*
X254040000Y-129520000D03*
X238800000Y-137140000D03*
X254040000Y-132060000D03*
X238800000Y-134600000D03*
X254040000Y-134600000D03*
X238800000Y-132060000D03*
X254040000Y-137140000D03*
X238800000Y-129520000D03*
X254040000Y-139680000D03*
X238800000Y-126980000D03*
X254040000Y-142220000D03*
X238800000Y-124440000D03*
X254040000Y-144760000D03*
X238800000Y-121900000D03*
X254040000Y-147300000D03*
X238800000Y-119360000D03*
X254040000Y-149840000D03*
X238800000Y-116820000D03*
X254040000Y-152380000D03*
X238800000Y-114280000D03*
X254040000Y-154920000D03*
X238800000Y-111740000D03*
X254040000Y-157460000D03*
D16*
X238800000Y-109200000D03*
D15*
X220040000Y-109600000D03*
X204800000Y-157860000D03*
X220040000Y-112140000D03*
X204800000Y-155320000D03*
X220040000Y-114680000D03*
X204800000Y-152780000D03*
X220040000Y-117220000D03*
X204800000Y-150240000D03*
X220040000Y-119760000D03*
X204800000Y-147700000D03*
X220040000Y-122300000D03*
X204800000Y-145160000D03*
X220040000Y-124840000D03*
X204800000Y-142620000D03*
X220040000Y-127380000D03*
X204800000Y-140080000D03*
X220040000Y-129920000D03*
X204800000Y-137540000D03*
X220040000Y-132460000D03*
X204800000Y-135000000D03*
X220040000Y-135000000D03*
X204800000Y-132460000D03*
X220040000Y-137540000D03*
X204800000Y-129920000D03*
X220040000Y-140080000D03*
X204800000Y-127380000D03*
X220040000Y-142620000D03*
X204800000Y-124840000D03*
X220040000Y-145160000D03*
X204800000Y-122300000D03*
X220040000Y-147700000D03*
X204800000Y-119760000D03*
X220040000Y-150240000D03*
X204800000Y-117220000D03*
X220040000Y-152780000D03*
X204800000Y-114680000D03*
X220040000Y-155320000D03*
X204800000Y-112140000D03*
X220040000Y-157860000D03*
D16*
X204800000Y-109600000D03*
D15*
X146440000Y-114700000D03*
X131200000Y-162960000D03*
X146440000Y-117240000D03*
X131200000Y-160420000D03*
X146440000Y-119780000D03*
X131200000Y-157880000D03*
X146440000Y-122320000D03*
X131200000Y-155340000D03*
X146440000Y-124860000D03*
X131200000Y-152800000D03*
X146440000Y-127400000D03*
X131200000Y-150260000D03*
X146440000Y-129940000D03*
X131200000Y-147720000D03*
X146440000Y-132480000D03*
X131200000Y-145180000D03*
X146440000Y-135020000D03*
X131200000Y-142640000D03*
X146440000Y-137560000D03*
X131200000Y-140100000D03*
X146440000Y-140100000D03*
X131200000Y-137560000D03*
X146440000Y-142640000D03*
X131200000Y-135020000D03*
X146440000Y-145180000D03*
X131200000Y-132480000D03*
X146440000Y-147720000D03*
X131200000Y-129940000D03*
X146440000Y-150260000D03*
X131200000Y-127400000D03*
X146440000Y-152800000D03*
X131200000Y-124860000D03*
X146440000Y-155340000D03*
X131200000Y-122320000D03*
X146440000Y-157880000D03*
X131200000Y-119780000D03*
X146440000Y-160420000D03*
X131200000Y-117240000D03*
X146440000Y-162960000D03*
D16*
X131200000Y-114700000D03*
D15*
X358820000Y-164200000D03*
X351200000Y-187060000D03*
X358820000Y-166740000D03*
X351200000Y-184520000D03*
X358820000Y-169280000D03*
X351200000Y-181980000D03*
X358820000Y-171820000D03*
X351200000Y-179440000D03*
X358820000Y-174360000D03*
X351200000Y-176900000D03*
X358820000Y-176900000D03*
X351200000Y-174360000D03*
X358820000Y-179440000D03*
X351200000Y-171820000D03*
X358820000Y-181980000D03*
X351200000Y-169280000D03*
X358820000Y-184520000D03*
X351200000Y-166740000D03*
X358820000Y-187060000D03*
D16*
X351200000Y-164200000D03*
D15*
X188140000Y-122900000D03*
X172900000Y-161000000D03*
X188140000Y-125440000D03*
X172900000Y-158460000D03*
X188140000Y-127980000D03*
X172900000Y-155920000D03*
X188140000Y-130520000D03*
X172900000Y-153380000D03*
X188140000Y-133060000D03*
X172900000Y-150840000D03*
X188140000Y-135600000D03*
X172900000Y-148300000D03*
X188140000Y-138140000D03*
X172900000Y-145760000D03*
X188140000Y-140680000D03*
X172900000Y-143220000D03*
X188140000Y-143220000D03*
X172900000Y-140680000D03*
X188140000Y-145760000D03*
X172900000Y-138140000D03*
X188140000Y-148300000D03*
X172900000Y-135600000D03*
X188140000Y-150840000D03*
X172900000Y-133060000D03*
X188140000Y-153380000D03*
X172900000Y-130520000D03*
X188140000Y-155920000D03*
X172900000Y-127980000D03*
X188140000Y-158460000D03*
X172900000Y-125440000D03*
X188140000Y-161000000D03*
D16*
X172900000Y-122900000D03*
D15*
X336920000Y-163800000D03*
X329300000Y-186660000D03*
X336920000Y-166340000D03*
X329300000Y-184120000D03*
X336920000Y-168880000D03*
X329300000Y-181580000D03*
X336920000Y-171420000D03*
X329300000Y-179040000D03*
X336920000Y-173960000D03*
X329300000Y-176500000D03*
X336920000Y-176500000D03*
X329300000Y-173960000D03*
X336920000Y-179040000D03*
X329300000Y-171420000D03*
X336920000Y-181580000D03*
X329300000Y-168880000D03*
X336920000Y-184120000D03*
X329300000Y-166340000D03*
X336920000Y-186660000D03*
D16*
X329300000Y-163800000D03*
D15*
X338120000Y-127600000D03*
X330500000Y-150460000D03*
X338120000Y-130140000D03*
X330500000Y-147920000D03*
X338120000Y-132680000D03*
X330500000Y-145380000D03*
X338120000Y-135220000D03*
X330500000Y-142840000D03*
X338120000Y-137760000D03*
X330500000Y-140300000D03*
X338120000Y-140300000D03*
X330500000Y-137760000D03*
X338120000Y-142840000D03*
X330500000Y-135220000D03*
X338120000Y-145380000D03*
X330500000Y-132680000D03*
X338120000Y-147920000D03*
X330500000Y-130140000D03*
X338120000Y-150460000D03*
D16*
X330500000Y-127600000D03*
D15*
X316620000Y-164200000D03*
X309000000Y-187060000D03*
X316620000Y-166740000D03*
X309000000Y-184520000D03*
X316620000Y-169280000D03*
X309000000Y-181980000D03*
X316620000Y-171820000D03*
X309000000Y-179440000D03*
X316620000Y-174360000D03*
X309000000Y-176900000D03*
X316620000Y-176900000D03*
X309000000Y-174360000D03*
X316620000Y-179440000D03*
X309000000Y-171820000D03*
X316620000Y-181980000D03*
X309000000Y-169280000D03*
X316620000Y-184520000D03*
X309000000Y-166740000D03*
X316620000Y-187060000D03*
D16*
X309000000Y-164200000D03*
D15*
X88440000Y-155900000D03*
X73200000Y-188920000D03*
X88440000Y-158440000D03*
X73200000Y-186380000D03*
X88440000Y-160980000D03*
X73200000Y-183840000D03*
X88440000Y-163520000D03*
X73200000Y-181300000D03*
X88440000Y-166060000D03*
X73200000Y-178760000D03*
X88440000Y-168600000D03*
X73200000Y-176220000D03*
X88440000Y-171140000D03*
X73200000Y-173680000D03*
X88440000Y-173680000D03*
X73200000Y-171140000D03*
X88440000Y-176220000D03*
X73200000Y-168600000D03*
X88440000Y-178760000D03*
X73200000Y-166060000D03*
X88440000Y-181300000D03*
X73200000Y-163520000D03*
X88440000Y-183840000D03*
X73200000Y-160980000D03*
X88440000Y-186380000D03*
X73200000Y-158440000D03*
X88440000Y-188920000D03*
D16*
X73200000Y-155900000D03*
D15*
X114640000Y-150200000D03*
X99400000Y-188300000D03*
X114640000Y-152740000D03*
X99400000Y-185760000D03*
X114640000Y-155280000D03*
X99400000Y-183220000D03*
X114640000Y-157820000D03*
X99400000Y-180680000D03*
X114640000Y-160360000D03*
X99400000Y-178140000D03*
X114640000Y-162900000D03*
X99400000Y-175600000D03*
X114640000Y-165440000D03*
X99400000Y-173060000D03*
X114640000Y-167980000D03*
X99400000Y-170520000D03*
X114640000Y-170520000D03*
X99400000Y-167980000D03*
X114640000Y-173060000D03*
X99400000Y-165440000D03*
X114640000Y-175600000D03*
X99400000Y-162900000D03*
X114640000Y-178140000D03*
X99400000Y-160360000D03*
X114640000Y-180680000D03*
X99400000Y-157820000D03*
X114640000Y-183220000D03*
X99400000Y-155280000D03*
X114640000Y-185760000D03*
X99400000Y-152740000D03*
X114640000Y-188300000D03*
D16*
X99400000Y-150200000D03*
D15*
X213320000Y-177200000D03*
X205700000Y-192440000D03*
X213320000Y-179740000D03*
X205700000Y-189900000D03*
X213320000Y-182280000D03*
X205700000Y-187360000D03*
X213320000Y-184820000D03*
X205700000Y-184820000D03*
X213320000Y-187360000D03*
X205700000Y-182280000D03*
X213320000Y-189900000D03*
X205700000Y-179740000D03*
X213320000Y-192440000D03*
D16*
X205700000Y-177200000D03*
D15*
X358820000Y-131900000D03*
X351200000Y-149680000D03*
X358820000Y-134440000D03*
X351200000Y-147140000D03*
X358820000Y-136980000D03*
X351200000Y-144600000D03*
X358820000Y-139520000D03*
X351200000Y-142060000D03*
X358820000Y-142060000D03*
X351200000Y-139520000D03*
X358820000Y-144600000D03*
X351200000Y-136980000D03*
X358820000Y-147140000D03*
X351200000Y-134440000D03*
X358820000Y-149680000D03*
D16*
X351200000Y-131900000D03*
D15*
X61540000Y-140200000D03*
X46300000Y-188460000D03*
X61540000Y-142740000D03*
X46300000Y-185920000D03*
X61540000Y-145280000D03*
X46300000Y-183380000D03*
X61540000Y-147820000D03*
X46300000Y-180840000D03*
X61540000Y-150360000D03*
X46300000Y-178300000D03*
X61540000Y-152900000D03*
X46300000Y-175760000D03*
X61540000Y-155440000D03*
X46300000Y-173220000D03*
X61540000Y-157980000D03*
X46300000Y-170680000D03*
X61540000Y-160520000D03*
X46300000Y-168140000D03*
X61540000Y-163060000D03*
X46300000Y-165600000D03*
X61540000Y-165600000D03*
X46300000Y-163060000D03*
X61540000Y-168140000D03*
X46300000Y-160520000D03*
X61540000Y-170680000D03*
X46300000Y-157980000D03*
X61540000Y-173220000D03*
X46300000Y-155440000D03*
X61540000Y-175760000D03*
X46300000Y-152900000D03*
X61540000Y-178300000D03*
X46300000Y-150360000D03*
X61540000Y-180840000D03*
X46300000Y-147820000D03*
X61540000Y-183380000D03*
X46300000Y-145280000D03*
X61540000Y-185920000D03*
X46300000Y-142740000D03*
X61540000Y-188460000D03*
D16*
X46300000Y-140200000D03*
D15*
X268620000Y-174900000D03*
X261000000Y-192680000D03*
X268620000Y-177440000D03*
X261000000Y-190140000D03*
X268620000Y-179980000D03*
X261000000Y-187600000D03*
X268620000Y-182520000D03*
X261000000Y-185060000D03*
X268620000Y-185060000D03*
X261000000Y-182520000D03*
X268620000Y-187600000D03*
X261000000Y-179980000D03*
X268620000Y-190140000D03*
X261000000Y-177440000D03*
X268620000Y-192680000D03*
D16*
X261000000Y-174900000D03*
D15*
X317420000Y-132300000D03*
X309800000Y-150080000D03*
X317420000Y-134840000D03*
X309800000Y-147540000D03*
X317420000Y-137380000D03*
X309800000Y-145000000D03*
X317420000Y-139920000D03*
X309800000Y-142460000D03*
X317420000Y-142460000D03*
X309800000Y-139920000D03*
X317420000Y-145000000D03*
X309800000Y-137380000D03*
X317420000Y-147540000D03*
X309800000Y-134840000D03*
X317420000Y-150080000D03*
D16*
X309800000Y-132300000D03*
D15*
X287020000Y-177100000D03*
X279400000Y-192340000D03*
X287020000Y-179640000D03*
X279400000Y-189800000D03*
X287020000Y-182180000D03*
X279400000Y-187260000D03*
X287020000Y-184720000D03*
X279400000Y-184720000D03*
X287020000Y-187260000D03*
X279400000Y-182180000D03*
X287020000Y-189800000D03*
X279400000Y-179640000D03*
X287020000Y-192340000D03*
D16*
X279400000Y-177100000D03*
D15*
X251520000Y-175000000D03*
X243900000Y-192780000D03*
X251520000Y-177540000D03*
X243900000Y-190240000D03*
X251520000Y-180080000D03*
X243900000Y-187700000D03*
X251520000Y-182620000D03*
X243900000Y-185160000D03*
X251520000Y-185160000D03*
X243900000Y-182620000D03*
X251520000Y-187700000D03*
X243900000Y-180080000D03*
X251520000Y-190240000D03*
X243900000Y-177540000D03*
X251520000Y-192780000D03*
D16*
X243900000Y-175000000D03*
D15*
X171220000Y-177500000D03*
X163600000Y-192740000D03*
X171220000Y-180040000D03*
X163600000Y-190200000D03*
X171220000Y-182580000D03*
X163600000Y-187660000D03*
X171220000Y-185120000D03*
X163600000Y-185120000D03*
X171220000Y-187660000D03*
X163600000Y-182580000D03*
X171220000Y-190200000D03*
X163600000Y-180040000D03*
X171220000Y-192740000D03*
D16*
X163600000Y-177500000D03*
D23*
X44640000Y-102540000D03*
X47180000Y-112700000D03*
X42100000Y-112700000D03*
D15*
X169680000Y-105400000D03*
D10*
X177300000Y-105400000D03*
D15*
X169780000Y-101500000D03*
D10*
X177400000Y-101500000D03*
D15*
X190720000Y-101500000D03*
D10*
X183100000Y-101500000D03*
D15*
X186380000Y-96400000D03*
D10*
X194000000Y-96400000D03*
D15*
X40200000Y-196120000D03*
D10*
X40200000Y-188500000D03*
D15*
X50320000Y-122500000D03*
D10*
X42700000Y-122500000D03*
D15*
X75020000Y-121400000D03*
D10*
X67400000Y-121400000D03*
D15*
X100020000Y-112700000D03*
D10*
X92400000Y-112700000D03*
D15*
X61820000Y-130200000D03*
D10*
X54200000Y-130200000D03*
D15*
X89020000Y-105500000D03*
D10*
X81400000Y-105500000D03*
D15*
X88520000Y-121200000D03*
D10*
X80900000Y-121200000D03*
D15*
X88320000Y-113400000D03*
D10*
X80700000Y-113400000D03*
D15*
X62620000Y-122600000D03*
D10*
X55000000Y-122600000D03*
D15*
X302420000Y-117100000D03*
D10*
X294800000Y-117100000D03*
D15*
X302420000Y-120500000D03*
D10*
X294800000Y-120500000D03*
D15*
X302420000Y-110100000D03*
D10*
X294800000Y-110100000D03*
D15*
X294680000Y-113400000D03*
D10*
X302300000Y-113400000D03*
D15*
X40300000Y-160420000D03*
D10*
X40300000Y-152800000D03*
D15*
X40300000Y-174120000D03*
D10*
X40300000Y-166500000D03*
D15*
X40300000Y-138680000D03*
D10*
X40300000Y-146300000D03*
D15*
X73820000Y-114900000D03*
D10*
X66200000Y-114900000D03*
D15*
X378100000Y-109680000D03*
D10*
X378100000Y-117300000D03*
D15*
X156420000Y-204400000D03*
D10*
X148800000Y-204400000D03*
D15*
X181920000Y-204300000D03*
D10*
X174300000Y-204300000D03*
D15*
X168720000Y-204400000D03*
D10*
X161100000Y-204400000D03*
D15*
X193720000Y-204500000D03*
D10*
X186100000Y-204500000D03*
D15*
X378200000Y-130120000D03*
D10*
X378200000Y-122500000D03*
D24*
X151800000Y-99000000D03*
X146800000Y-101500000D03*
X144300000Y-99000000D03*
X156800000Y-101500000D03*
X159300000Y-99000000D03*
X154300000Y-89000000D03*
X149300000Y-89000000D03*
X151800000Y-104000000D03*
D25*
X352460000Y-201460000D03*
X352460000Y-204000000D03*
X349920000Y-201460000D03*
X349920000Y-204000000D03*
X347380000Y-201460000D03*
X347380000Y-204000000D03*
X344840000Y-201460000D03*
X344840000Y-204000000D03*
X342300000Y-201460000D03*
X342300000Y-204000000D03*
X339760000Y-201460000D03*
X339760000Y-204000000D03*
X337220000Y-201460000D03*
X337220000Y-204000000D03*
X334680000Y-201460000D03*
D26*
X334680000Y-204000000D03*
D27*
X51400000Y-92000000D03*
X60400000Y-92000000D03*
D28*
X55900000Y-93000000D03*
D29*
X55900000Y-99000000D03*
D25*
X186960000Y-90800000D03*
D26*
X189500000Y-90800000D03*
D25*
X254254000Y-94234000D03*
X251714000Y-94234000D03*
X249174000Y-94234000D03*
X246634000Y-94234000D03*
X244094000Y-94234000D03*
X241554000Y-94234000D03*
X239014000Y-94234000D03*
X236474000Y-94234000D03*
X233934000Y-94234000D03*
X231394000Y-94234000D03*
X228854000Y-94234000D03*
X226314000Y-94234000D03*
X223774000Y-94234000D03*
X221234000Y-94234000D03*
X218694000Y-94234000D03*
X216154000Y-94234000D03*
X213614000Y-94234000D03*
X211074000Y-94234000D03*
X208534000Y-94234000D03*
D26*
X205994000Y-94234000D03*
D30*
X118850000Y-95100000D03*
D31*
X118850000Y-97590000D03*
X125550000Y-95100000D03*
X125550000Y-97590000D03*
D32*
X122200000Y-91290000D03*
X128960000Y-92100000D03*
X115440000Y-92100000D03*
D25*
X119000000Y-106060000D03*
D26*
X119000000Y-108600000D03*
D25*
X277980000Y-113900000D03*
X275440000Y-113900000D03*
D26*
X272900000Y-113900000D03*
D25*
X77620000Y-145900000D03*
X80160000Y-145900000D03*
D26*
X82700000Y-145900000D03*
D25*
X82800000Y-151300000D03*
X80260000Y-151300000D03*
D26*
X77720000Y-151300000D03*
D10*
X372300000Y-175700000D03*
X377300000Y-175700000D03*
X377600000Y-171300000D03*
X372600000Y-171300000D03*
X205800000Y-196900000D03*
X210800000Y-196900000D03*
X331800000Y-155200000D03*
X336800000Y-155200000D03*
X163200000Y-197000000D03*
X168200000Y-197000000D03*
X50300000Y-135600000D03*
X45300000Y-135600000D03*
X272800000Y-157400000D03*
X277800000Y-157400000D03*
X207200000Y-162700000D03*
X212200000Y-162700000D03*
X311200000Y-154600000D03*
X316200000Y-154600000D03*
X310300000Y-191800000D03*
X315300000Y-191800000D03*
X99200000Y-105200000D03*
X94200000Y-105200000D03*
X358000000Y-191800000D03*
X353000000Y-191800000D03*
X224000000Y-197200000D03*
X229000000Y-197200000D03*
X234200000Y-152600000D03*
X234200000Y-157600000D03*
X330400000Y-192000000D03*
X335400000Y-192000000D03*
X244000000Y-197200000D03*
X249000000Y-197200000D03*
X136300000Y-167500000D03*
X131300000Y-167500000D03*
X279500000Y-196900000D03*
X284500000Y-196900000D03*
X187300000Y-196900000D03*
X192300000Y-196900000D03*
X261400000Y-197000000D03*
X266400000Y-197000000D03*
X75200000Y-102700000D03*
X70200000Y-102700000D03*
X106400000Y-194300000D03*
X101400000Y-194300000D03*
X73200000Y-194800000D03*
X78200000Y-194800000D03*
X352500000Y-154100000D03*
X357500000Y-154100000D03*
X172900000Y-165600000D03*
X177900000Y-165600000D03*
D11*
X66700000Y-98700000D03*
D12*
X64700000Y-98700000D03*
D10*
X48000000Y-129300000D03*
X43000000Y-129300000D03*
X74700000Y-108500000D03*
X69700000Y-108500000D03*
X110400000Y-112600000D03*
X105400000Y-112600000D03*
X110200000Y-105200000D03*
X105200000Y-105200000D03*
X155100000Y-198300000D03*
X150100000Y-198300000D03*
D33*
X237254500Y-159242900D03*
X351362500Y-108962500D03*
X174774600Y-162220400D03*
X301260700Y-159994100D03*
X306142400Y-138069800D03*
X325778600Y-135251500D03*
X329350800Y-123013900D03*
X356300000Y-108925000D03*
X105502100Y-152008400D03*
X339279100Y-159588900D03*
X347844800Y-168154600D03*
X313602300Y-194101900D03*
X247789300Y-184073300D03*
X165101500Y-176898900D03*
X149223500Y-163142200D03*
X84634000Y-147075400D03*
X118102400Y-117834400D03*
X55427400Y-103401100D03*
X249058300Y-167421500D03*
X56660800Y-207733200D03*
X222709000Y-171722300D03*
X298027300Y-173312500D03*
X304953500Y-185822500D03*
X325140200Y-187528600D03*
X327574300Y-194218400D03*
X221341600Y-153993800D03*
X232729700Y-167252600D03*
X245606000Y-168446700D03*
X271910400Y-200756600D03*
X248075300Y-195080300D03*
X248128400Y-179029500D03*
X238606200Y-178701500D03*
X222769100Y-127323800D03*
X225687700Y-126851400D03*
X94145400Y-137490300D03*
X115055500Y-191540300D03*
X337020400Y-198823800D03*
X274365000Y-193449100D03*
X90772600Y-162751500D03*
X105026400Y-199854600D03*
X229603500Y-202531800D03*
X248293600Y-204783000D03*
X244605600Y-168631100D03*
X231729300Y-167620600D03*
X213422700Y-150068300D03*
X230698600Y-172334600D03*
X321283300Y-180854600D03*
X323558300Y-198325600D03*
X185773600Y-106830600D03*
X302536300Y-180765300D03*
X47821100Y-174752100D03*
X80580900Y-138204000D03*
X337593900Y-121433000D03*
X255992600Y-115992700D03*
X65806700Y-161875400D03*
X212483400Y-113328700D03*
X137003700Y-111643000D03*
X114456000Y-144659300D03*
X336330100Y-126097900D03*
X336424900Y-124647200D03*
X205750000Y-118665700D03*
X136388300Y-118912500D03*
X115013600Y-141829600D03*
X71563700Y-144089000D03*
X286910900Y-106993900D03*
X329435600Y-141855800D03*
X331099000Y-107573700D03*
X220030900Y-91183100D03*
X234216300Y-144960400D03*
X87450400Y-150969400D03*
X247202200Y-107052400D03*
X189406300Y-111363200D03*
X189813700Y-114054000D03*
X143779900Y-112368300D03*
X116014900Y-145775000D03*
X76498100Y-149443800D03*
X261434900Y-94004800D03*
X246248000Y-149840000D03*
X167451600Y-104700000D03*
X110394300Y-169820600D03*
X91203100Y-102787000D03*
X93292800Y-149511600D03*
X81200800Y-153817100D03*
X63278800Y-160047700D03*
X336165900Y-102323600D03*
X332879400Y-102323600D03*
X332453900Y-169034800D03*
X323913000Y-160358800D03*
X59334100Y-164396000D03*
X179446100Y-108077100D03*
X133294700Y-130766500D03*
X111556600Y-141173800D03*
X104951100Y-165690900D03*
X333985400Y-171099700D03*
X332719200Y-107208000D03*
X334990900Y-107208000D03*
X257675900Y-152557500D03*
X289689800Y-151607700D03*
X294329900Y-123772500D03*
X334073600Y-123739200D03*
X71806100Y-195871000D03*
X169960600Y-201932400D03*
X172990000Y-198569300D03*
X251160400Y-197356200D03*
X329676100Y-107935300D03*
X252325300Y-109851000D03*
X257110800Y-178336000D03*
X152551100Y-206557300D03*
X246431100Y-176430600D03*
X327699400Y-173183400D03*
X322591700Y-174795100D03*
X322805800Y-196217700D03*
X281495600Y-196069600D03*
X60033200Y-161150000D03*
X329996100Y-100037800D03*
X266065600Y-96804700D03*
X256110400Y-178651200D03*
X76417600Y-184494300D03*
X262632800Y-183716600D03*
X277826200Y-181446900D03*
X282986900Y-168772400D03*
X304424500Y-164023900D03*
X311698400Y-138181700D03*
X267154900Y-95796600D03*
X236579700Y-147758100D03*
X229057500Y-149850200D03*
X311202200Y-136731000D03*
X243776300Y-147844100D03*
X237704300Y-185778400D03*
X179718500Y-103358600D03*
X49194100Y-112542900D03*
X186040000Y-109258600D03*
X370012800Y-98713000D03*
X84903700Y-103125600D03*
X83798100Y-143525100D03*
X72724500Y-146370300D03*
X64924100Y-157586400D03*
X364084300Y-158328000D03*
X359051200Y-158328000D03*
X126580500Y-172597100D03*
X118866700Y-197815500D03*
X318423600Y-197660200D03*
X246549800Y-198754900D03*
X235927300Y-201873400D03*
X113216000Y-203980000D03*
X109401200Y-197127000D03*
X338097900Y-175374600D03*
X339623100Y-173206300D03*
X342338900Y-150033700D03*
X352443500Y-150819300D03*
X318489800Y-195899100D03*
X70153900Y-164625000D03*
X89980400Y-172913400D03*
X329206300Y-104489100D03*
X109652000Y-204671100D03*
X238123300Y-206974800D03*
X252251300Y-202609100D03*
X302860700Y-202609100D03*
X327444300Y-179440000D03*
X297439600Y-205209200D03*
X74316300Y-182745700D03*
X378246900Y-99605200D03*
X378278500Y-169108700D03*
X360875900Y-157291600D03*
X356129200Y-158668100D03*
X306920200Y-201263300D03*
X248905400Y-201347000D03*
X69294800Y-175094600D03*
X326142400Y-184069900D03*
X350158700Y-109758000D03*
X359667300Y-159463600D03*
X363307900Y-159463600D03*
X328041800Y-189386800D03*
X326547200Y-187016200D03*
X233494600Y-199836700D03*
X308495500Y-198252100D03*
X118304200Y-164344600D03*
X118191300Y-158103000D03*
X326272600Y-104205700D03*
X312455200Y-163646300D03*
X297278700Y-156933500D03*
X225146900Y-167360700D03*
X344610600Y-152915900D03*
X315675100Y-151852700D03*
X209281800Y-178970300D03*
X207822900Y-167702800D03*
X207311000Y-161269500D03*
X200539000Y-161269500D03*
X180383000Y-129163600D03*
X181415700Y-109525700D03*
X257159500Y-106343700D03*
X187174000Y-109125700D03*
X134009500Y-128814600D03*
X261434600Y-148836900D03*
X244292900Y-149103000D03*
X243703600Y-129815300D03*
X245305900Y-128742600D03*
X246422300Y-102524600D03*
X196722200Y-101190400D03*
X290394700Y-186764900D03*
X260330900Y-145352800D03*
X230821200Y-144234500D03*
X252531900Y-112684500D03*
X235698300Y-123815200D03*
X388281300Y-170746500D03*
X370516900Y-91695400D03*
X218503000Y-90206800D03*
X225717000Y-116397000D03*
X367256000Y-162955700D03*
X251140700Y-167871800D03*
X387447600Y-95429700D03*
X221346100Y-110813800D03*
X209981500Y-112783900D03*
X174851200Y-183886100D03*
X88064500Y-102564600D03*
X78196200Y-117957100D03*
X248577900Y-113845000D03*
X308367600Y-110989200D03*
X257723400Y-124494700D03*
X257695700Y-129377400D03*
X245225900Y-131888100D03*
X256100400Y-150954100D03*
X258856000Y-174047700D03*
X246218500Y-174742900D03*
X257012300Y-183745400D03*
X132226000Y-183854600D03*
X75842500Y-187583000D03*
X79573300Y-187650000D03*
X311122000Y-168010000D03*
X294365300Y-168597700D03*
X290535200Y-191070000D03*
X278907900Y-159335500D03*
X325263900Y-156980800D03*
X329383300Y-120077600D03*
X287036000Y-174407000D03*
X228539400Y-172334600D03*
X145197100Y-187974600D03*
X340546900Y-166294300D03*
X335234800Y-183132300D03*
X285391400Y-184103400D03*
X241578100Y-183984900D03*
X140720700Y-181889400D03*
X339882000Y-143394700D03*
X290982600Y-189485300D03*
X273020600Y-155140200D03*
X161797600Y-177769800D03*
X156528900Y-172645500D03*
X108278900Y-168685900D03*
X101273900Y-143093600D03*
X181563600Y-171773700D03*
X320661100Y-146650000D03*
X133355800Y-160155500D03*
X299217600Y-162263500D03*
X123056900Y-161658000D03*
X347811500Y-149735300D03*
X180407300Y-172228700D03*
X190895900Y-158258400D03*
X185553500Y-170278200D03*
X124893300Y-168941800D03*
X282296800Y-159162600D03*
X218722600Y-156590000D03*
X290041000Y-171399300D03*
X113120200Y-148783300D03*
X106209100Y-180608200D03*
X160123100Y-134327600D03*
X140108500Y-150863600D03*
X290547700Y-169048000D03*
X293364900Y-168497400D03*
X217586000Y-128708700D03*
X183360700Y-133602300D03*
X180159200Y-151342700D03*
X122308000Y-181870500D03*
X333033400Y-152118800D03*
X332363100Y-178635900D03*
X257132600Y-123506300D03*
X163778800Y-121764900D03*
X246174500Y-142075300D03*
X248350200Y-161334700D03*
X166924300Y-157175000D03*
X142246900Y-176561200D03*
X294349200Y-126321500D03*
X287458200Y-139531600D03*
X138121400Y-160708300D03*
X324363300Y-127954800D03*
X222475100Y-126316700D03*
X213694700Y-133730000D03*
X152303900Y-136951100D03*
X272595700Y-141194700D03*
X288820700Y-161796600D03*
X140672000Y-174336500D03*
X324363300Y-129801200D03*
X280501900Y-133536600D03*
X244457400Y-135788000D03*
X245594000Y-107835500D03*
X181905900Y-112273100D03*
X177751400Y-139137700D03*
X135365800Y-157737600D03*
X119975700Y-186888000D03*
X108169900Y-187354200D03*
X270467100Y-138264400D03*
X286127400Y-161450300D03*
X319062100Y-130978900D03*
X327184800Y-174744200D03*
X334215900Y-183039900D03*
X320842300Y-185415300D03*
X319441600Y-198793800D03*
X190709300Y-199028400D03*
X176555600Y-171422700D03*
X285176700Y-160307900D03*
X182751900Y-161682600D03*
X179411500Y-143220000D03*
X136205500Y-155653800D03*
X120370600Y-188130200D03*
X110862500Y-188570300D03*
X304585300Y-170524900D03*
X286303300Y-145514600D03*
X140998900Y-168846200D03*
X311779800Y-169702800D03*
X128537000Y-170954100D03*
X128530400Y-175359000D03*
X111950400Y-148674600D03*
X106078800Y-164957100D03*
X329365900Y-134007500D03*
X112805900Y-147164300D03*
X105941300Y-162830900D03*
X327949400Y-130710800D03*
X243696700Y-128208900D03*
X245159700Y-102825500D03*
X180229900Y-109976000D03*
X176716700Y-135600000D03*
X239282300Y-174313900D03*
X232392000Y-148602500D03*
X281336200Y-146577200D03*
X255190400Y-123573100D03*
X258513800Y-106792500D03*
X180268500Y-111433100D03*
X177463000Y-133060000D03*
X326733900Y-128589900D03*
X126634000Y-143936500D03*
X119372400Y-158973600D03*
X277526600Y-141717000D03*
X306215900Y-177101200D03*
X271909300Y-150494900D03*
X183736400Y-140030000D03*
X180171100Y-154650000D03*
X123545400Y-152024900D03*
X287496300Y-153020000D03*
X277524800Y-153323600D03*
X220856200Y-146524000D03*
X323386200Y-178383400D03*
X225990800Y-171770200D03*
X170432700Y-132972800D03*
X340218700Y-158582800D03*
X183244100Y-156248100D03*
X189506400Y-169186100D03*
X168462300Y-136225700D03*
X303190100Y-166271000D03*
X290797000Y-154125400D03*
X168462300Y-138702700D03*
X191868100Y-136074700D03*
X304653100Y-189634000D03*
X294926000Y-170949000D03*
X191947000Y-170057900D03*
X348786300Y-155179600D03*
X195553100Y-158901500D03*
X201079300Y-137540000D03*
X185369000Y-130792700D03*
X338316000Y-158429100D03*
X208931800Y-142547600D03*
X197484600Y-129119900D03*
X349133800Y-159976100D03*
X219554900Y-166802300D03*
X206569700Y-154050000D03*
X192788000Y-126703600D03*
X342715200Y-157357400D03*
X184228600Y-131954500D03*
X172654100Y-196738400D03*
X77202000Y-107135600D03*
X275271400Y-185916800D03*
X251374400Y-145283200D03*
X242438200Y-144081700D03*
X252496600Y-95520600D03*
X114423800Y-103520600D03*
X107056500Y-133409700D03*
X360618000Y-152481300D03*
X211404400Y-167702900D03*
X126455700Y-158500500D03*
X117911500Y-183967800D03*
X127336000Y-184979900D03*
X119124400Y-200980400D03*
X236125300Y-167277900D03*
X305751600Y-163668800D03*
X316587400Y-141078500D03*
X242686300Y-167438100D03*
X360833700Y-161018800D03*
X237125700Y-167252600D03*
X147742200Y-188688900D03*
X142893400Y-141919000D03*
D34*
X136300000Y-165600000D02*
X136300000Y-167500000D01*
X132700300Y-162960000D02*
X135340300Y-165600000D01*
X135340300Y-165600000D02*
X136300000Y-165600000D01*
X172900000Y-165600000D02*
X136300000Y-165600000D01*
X272800000Y-157400000D02*
X271212100Y-158987900D01*
X271212100Y-158987900D02*
X250744000Y-158987900D01*
X250744000Y-158987900D02*
X249739000Y-157982900D01*
X249739000Y-157982900D02*
X241438100Y-157982900D01*
X241438100Y-157982900D02*
X240288100Y-159132900D01*
X240288100Y-159132900D02*
X237364500Y-159132900D01*
X237364500Y-159132900D02*
X237254500Y-159242900D01*
X330400000Y-192000000D02*
X330002600Y-192397400D01*
X330002600Y-192397400D02*
X317807400Y-192397400D01*
X317807400Y-192397400D02*
X316861400Y-193343400D01*
X316861400Y-193343400D02*
X314399900Y-193343400D01*
X314399900Y-193343400D02*
X312856500Y-191800000D01*
X312856500Y-191800000D02*
X310300000Y-191800000D01*
X310300000Y-191800000D02*
X308258200Y-193841800D01*
X308258200Y-193841800D02*
X286111200Y-193841800D01*
X286111200Y-193841800D02*
X284609400Y-192340000D01*
X284609400Y-192340000D02*
X280900300Y-192340000D01*
X369099700Y-152140000D02*
X361832900Y-152140000D01*
X361832900Y-152140000D02*
X361073900Y-151381000D01*
X361073900Y-151381000D02*
X359964300Y-151381000D01*
X359964300Y-151381000D02*
X359525500Y-151819800D01*
X359525500Y-151819800D02*
X354696400Y-151819800D01*
X354696400Y-151819800D02*
X352500000Y-154016200D01*
X292700000Y-100600000D02*
X291748800Y-100600000D01*
X291748800Y-100600000D02*
X284451700Y-107897100D01*
X284451700Y-107897100D02*
X271349700Y-107897100D01*
X240300300Y-109200000D02*
X251297500Y-109200000D01*
X251297500Y-109200000D02*
X252797800Y-107699700D01*
X252797800Y-107699700D02*
X256322600Y-107699700D01*
X256322600Y-107699700D02*
X256520000Y-107897100D01*
X256520000Y-107897100D02*
X271349700Y-107897100D01*
X238800000Y-109200000D02*
X237299700Y-109200000D01*
X204800000Y-109600000D02*
X206300300Y-109600000D01*
X206300300Y-109600000D02*
X207823500Y-108076800D01*
X207823500Y-108076800D02*
X236176500Y-108076800D01*
X236176500Y-108076800D02*
X237299700Y-109200000D01*
X259499700Y-192680000D02*
X257856200Y-194323500D01*
X257856200Y-194323500D02*
X248874600Y-194323500D01*
X248874600Y-194323500D02*
X247331100Y-192780000D01*
X247331100Y-192780000D02*
X245400300Y-192780000D01*
X167800000Y-91000000D02*
X169584800Y-89215200D01*
X169584800Y-89215200D02*
X187915200Y-89215200D01*
X187915200Y-89215200D02*
X189500000Y-90800000D01*
X131200000Y-162960000D02*
X132700300Y-162960000D01*
X106400000Y-194300000D02*
X104399200Y-196300800D01*
X104399200Y-196300800D02*
X74700800Y-196300800D01*
X74700800Y-196300800D02*
X73200000Y-194800000D01*
X61540000Y-188460000D02*
X63040300Y-188460000D01*
X73200000Y-188920000D02*
X63500300Y-188920000D01*
X63500300Y-188920000D02*
X63040300Y-188460000D01*
X50320000Y-122500000D02*
X50320000Y-124000300D01*
X50320000Y-124000300D02*
X48000000Y-126320300D01*
X48000000Y-126320300D02*
X48000000Y-129300000D01*
X331800000Y-155200000D02*
X333325200Y-153674800D01*
X333325200Y-153674800D02*
X343813500Y-153674800D01*
X343813500Y-153674800D02*
X344154900Y-154016200D01*
X344154900Y-154016200D02*
X352500000Y-154016200D01*
X352500000Y-154016200D02*
X352500000Y-154100000D01*
X370600000Y-152140000D02*
X369099700Y-152140000D01*
X351300000Y-108900000D02*
X358137700Y-102062300D01*
X358137700Y-102062300D02*
X372935400Y-102062300D01*
X372935400Y-102062300D02*
X374397700Y-100600000D01*
X311200000Y-154600000D02*
X312743000Y-153057000D01*
X312743000Y-153057000D02*
X329657000Y-153057000D01*
X329657000Y-153057000D02*
X331800000Y-155200000D01*
X271349700Y-113900000D02*
X271349700Y-107897100D01*
X106500000Y-205500000D02*
X102900000Y-205500000D01*
X377600000Y-171300000D02*
X376700000Y-171300000D01*
X376700000Y-171300000D02*
X372300000Y-175700000D01*
X279400000Y-192340000D02*
X280900300Y-192340000D01*
X163600000Y-192740000D02*
X165100300Y-192740000D01*
X165100300Y-192740000D02*
X166600600Y-194240300D01*
X166600600Y-194240300D02*
X184640300Y-194240300D01*
X184640300Y-194240300D02*
X187300000Y-196900000D01*
X243900000Y-192780000D02*
X245400300Y-192780000D01*
X261000000Y-192680000D02*
X259499700Y-192680000D01*
X375860000Y-100600000D02*
X374397700Y-100600000D01*
X155100000Y-198300000D02*
X161900000Y-198300000D01*
X161900000Y-198300000D02*
X163200000Y-197000000D01*
X130000000Y-202760000D02*
X108260000Y-202760000D01*
X108260000Y-202760000D02*
X106500000Y-201000000D01*
X272900000Y-113900000D02*
X271349700Y-113900000D01*
X238800000Y-109200000D02*
X240300300Y-109200000D01*
X334680000Y-204000000D02*
X333129700Y-204000000D01*
X333129700Y-204000000D02*
X333029700Y-204100000D01*
X333029700Y-204100000D02*
X326020000Y-204100000D01*
D35*
X301260700Y-159994100D02*
X300650300Y-160604500D01*
X300650300Y-160604500D02*
X285905900Y-160604500D01*
X285905900Y-160604500D02*
X284326500Y-162183900D01*
X284326500Y-162183900D02*
X280906700Y-162183900D01*
X280906700Y-162183900D02*
X280327900Y-162762700D01*
X280327900Y-162762700D02*
X277487800Y-162762700D01*
X277487800Y-162762700D02*
X277359300Y-162634200D01*
X277359300Y-162634200D02*
X242412300Y-162634200D01*
X242412300Y-162634200D02*
X241936200Y-163110300D01*
X241936200Y-163110300D02*
X240587700Y-163110300D01*
X240587700Y-163110300D02*
X240427500Y-163270500D01*
X240427500Y-163270500D02*
X214656200Y-163270500D01*
X214656200Y-163270500D02*
X213200700Y-164726000D01*
X213200700Y-164726000D02*
X186900000Y-164726000D01*
X186900000Y-164726000D02*
X184581900Y-162407900D01*
X184581900Y-162407900D02*
X174962100Y-162407900D01*
X174962100Y-162407900D02*
X174774600Y-162220400D01*
X351400000Y-117440000D02*
X352525300Y-117440000D01*
X353887800Y-119083800D02*
X351611500Y-121360100D01*
X351611500Y-121360100D02*
X344954700Y-121360100D01*
X344954700Y-121360100D02*
X343300900Y-123013900D01*
X343300900Y-123013900D02*
X329350800Y-123013900D01*
X378200000Y-130120000D02*
X364924000Y-130120000D01*
X364924000Y-130120000D02*
X353887800Y-119083800D01*
X352525300Y-117440000D02*
X352525300Y-117721300D01*
X352525300Y-117721300D02*
X353887800Y-119083800D01*
X306142400Y-138069800D02*
X308246800Y-135965400D01*
X308246800Y-135965400D02*
X325064700Y-135965400D01*
X325064700Y-135965400D02*
X325778600Y-135251500D01*
X378100000Y-109680000D02*
X376974700Y-109680000D01*
X356300000Y-108900000D02*
X376194700Y-108900000D01*
X376194700Y-108900000D02*
X376974700Y-109680000D01*
X119000000Y-106060000D02*
X111060000Y-106060000D01*
X111060000Y-106060000D02*
X110200000Y-105200000D01*
X105502100Y-152008400D02*
X107503700Y-154010000D01*
X107503700Y-154010000D02*
X120939500Y-154010000D01*
X120939500Y-154010000D02*
X127349500Y-160420000D01*
X127349500Y-160420000D02*
X131200000Y-160420000D01*
X90145300Y-105500000D02*
X92171000Y-107525700D01*
X92171000Y-107525700D02*
X100325700Y-107525700D01*
X100325700Y-107525700D02*
X105400000Y-112600000D01*
X89020000Y-105500000D02*
X90145300Y-105500000D01*
X81400000Y-105500000D02*
X76720000Y-110180000D01*
X76720000Y-110180000D02*
X58600000Y-110180000D01*
X132325300Y-157880000D02*
X132743100Y-157880000D01*
X132743100Y-157880000D02*
X133868400Y-159005300D01*
X133868400Y-159005300D02*
X164619900Y-159005300D01*
X164619900Y-159005300D02*
X169017000Y-163402400D01*
X169017000Y-163402400D02*
X184302600Y-163402400D01*
X184302600Y-163402400D02*
X186526800Y-165626600D01*
X186526800Y-165626600D02*
X213573900Y-165626600D01*
X213573900Y-165626600D02*
X215029400Y-164171100D01*
X215029400Y-164171100D02*
X240800700Y-164171100D01*
X240800700Y-164171100D02*
X240960900Y-164010900D01*
X240960900Y-164010900D02*
X242309400Y-164010900D01*
X242309400Y-164010900D02*
X242785500Y-163534800D01*
X242785500Y-163534800D02*
X276986100Y-163534800D01*
X276986100Y-163534800D02*
X277114600Y-163663300D01*
X277114600Y-163663300D02*
X280701100Y-163663300D01*
X280701100Y-163663300D02*
X281270700Y-163093700D01*
X281270700Y-163093700D02*
X285509800Y-163093700D01*
X285509800Y-163093700D02*
X287532100Y-161071400D01*
X287532100Y-161071400D02*
X287532100Y-161071300D01*
X287532100Y-161071300D02*
X301209500Y-161071300D01*
X301209500Y-161071300D02*
X302584600Y-159696200D01*
X302584600Y-159696200D02*
X306544500Y-159696200D01*
X306544500Y-159696200D02*
X306594600Y-159746300D01*
X306594600Y-159746300D02*
X314332400Y-159746300D01*
X314332400Y-159746300D02*
X314466400Y-159612300D01*
X314466400Y-159612300D02*
X326370400Y-159612300D01*
X326370400Y-159612300D02*
X326624500Y-159866400D01*
X326624500Y-159866400D02*
X339001600Y-159866400D01*
X339001600Y-159866400D02*
X339279100Y-159588900D01*
X131200000Y-157880000D02*
X132325300Y-157880000D01*
X372600000Y-171300000D02*
X369454600Y-168154600D01*
X369454600Y-168154600D02*
X347844800Y-168154600D01*
X131200000Y-155340000D02*
X131200000Y-156465300D01*
X247789300Y-184073300D02*
X244921400Y-181205400D01*
X244921400Y-181205400D02*
X242302600Y-181205400D01*
X242302600Y-181205400D02*
X241161100Y-180063900D01*
X241161100Y-180063900D02*
X236375400Y-180063900D01*
X236375400Y-180063900D02*
X231986100Y-175674600D01*
X231986100Y-175674600D02*
X181839900Y-175674600D01*
X181839900Y-175674600D02*
X181139900Y-176374600D01*
X181139900Y-176374600D02*
X165625800Y-176374600D01*
X165625800Y-176374600D02*
X165101500Y-176898900D01*
X313602300Y-194101900D02*
X313725600Y-194225200D01*
X313725600Y-194225200D02*
X320660900Y-194225200D01*
X320660900Y-194225200D02*
X321439300Y-193446800D01*
X321439300Y-193446800D02*
X359553200Y-193446800D01*
X359553200Y-193446800D02*
X377300000Y-175700000D01*
X131200000Y-156465300D02*
X130918700Y-156465300D01*
X130918700Y-156465300D02*
X130041300Y-157342700D01*
X130041300Y-157342700D02*
X130041300Y-158342600D01*
X130041300Y-158342600D02*
X130929100Y-159230400D01*
X130929100Y-159230400D02*
X133456600Y-159230400D01*
X133456600Y-159230400D02*
X133681900Y-159455700D01*
X133681900Y-159455700D02*
X141905700Y-159455700D01*
X141905700Y-159455700D02*
X143995400Y-161545400D01*
X143995400Y-161545400D02*
X147626700Y-161545400D01*
X147626700Y-161545400D02*
X149223500Y-163142200D01*
X80160000Y-145900000D02*
X81335300Y-145900000D01*
X81335300Y-145900000D02*
X81335300Y-146708000D01*
X81335300Y-146708000D02*
X81702700Y-147075400D01*
X81702700Y-147075400D02*
X84634000Y-147075400D01*
X126960000Y-117000000D02*
X125834700Y-117000000D01*
X125834700Y-117000000D02*
X125000300Y-117834400D01*
X125000300Y-117834400D02*
X118102400Y-117834400D01*
X89445300Y-113400000D02*
X94605000Y-118559700D01*
X94605000Y-118559700D02*
X128854400Y-118559700D01*
X128854400Y-118559700D02*
X130074700Y-119780000D01*
X88320000Y-113400000D02*
X89445300Y-113400000D01*
X131200000Y-119780000D02*
X130074700Y-119780000D01*
X95999700Y-96400000D02*
X92074300Y-100325400D01*
X92074300Y-100325400D02*
X58503100Y-100325400D01*
X58503100Y-100325400D02*
X55427400Y-103401100D01*
X97100000Y-96400000D02*
X95999700Y-96400000D01*
X97100000Y-96400000D02*
X111290000Y-96400000D01*
X111290000Y-96400000D02*
X114290000Y-99400000D01*
X117040000Y-99400000D02*
X118850000Y-97590000D01*
X114290000Y-99400000D02*
X117040000Y-99400000D01*
X249058300Y-167421500D02*
X249333400Y-167146400D01*
X249333400Y-167146400D02*
X275502500Y-167146400D01*
X275502500Y-167146400D02*
X275621800Y-167265700D01*
X275621800Y-167265700D02*
X282193900Y-167265700D01*
X282193900Y-167265700D02*
X282313200Y-167146400D01*
X282313200Y-167146400D02*
X287715500Y-167146400D01*
X287715500Y-167146400D02*
X289038800Y-165823100D01*
X289038800Y-165823100D02*
X300279100Y-165823100D01*
X300279100Y-165823100D02*
X303704200Y-162398000D01*
X303704200Y-162398000D02*
X305424900Y-162398000D01*
X305424900Y-162398000D02*
X305497500Y-162470600D01*
X305497500Y-162470600D02*
X321959400Y-162470600D01*
X321959400Y-162470600D02*
X322374100Y-162885300D01*
X322374100Y-162885300D02*
X326906500Y-162885300D01*
X326906500Y-162885300D02*
X327568200Y-162223600D01*
X327568200Y-162223600D02*
X372533600Y-162223600D01*
X372533600Y-162223600D02*
X385200000Y-174890000D01*
X56660800Y-207733200D02*
X112368100Y-207733200D01*
X112368100Y-207733200D02*
X112659900Y-208025000D01*
X112659900Y-208025000D02*
X151719300Y-208025000D01*
X151719300Y-208025000D02*
X151877700Y-208183400D01*
X151877700Y-208183400D02*
X344928600Y-208183400D01*
X344928600Y-208183400D02*
X348744700Y-204367300D01*
X348744700Y-204367300D02*
X348744700Y-204000000D01*
X47425300Y-142740000D02*
X49965300Y-145280000D01*
X49965300Y-145280000D02*
X61540000Y-145280000D01*
X349920000Y-204000000D02*
X348744700Y-204000000D01*
X352460000Y-204000000D02*
X349920000Y-204000000D01*
X46300000Y-142740000D02*
X47425300Y-142740000D01*
X298027300Y-173312500D02*
X297740100Y-173025300D01*
X297740100Y-173025300D02*
X286928100Y-173025300D01*
X286928100Y-173025300D02*
X285652000Y-171749200D01*
X285652000Y-171749200D02*
X281486200Y-171749200D01*
X281486200Y-171749200D02*
X281212700Y-171475700D01*
X281212700Y-171475700D02*
X247265100Y-171475700D01*
X247265100Y-171475700D02*
X246966000Y-171774800D01*
X246966000Y-171774800D02*
X234007200Y-171774800D01*
X234007200Y-171774800D02*
X232941100Y-170708700D01*
X232941100Y-170708700D02*
X225827500Y-170708700D01*
X225827500Y-170708700D02*
X224813900Y-171722300D01*
X224813900Y-171722300D02*
X222709000Y-171722300D01*
X304953500Y-185822500D02*
X320004800Y-185822500D01*
X320004800Y-185822500D02*
X321710900Y-187528600D01*
X321710900Y-187528600D02*
X325140200Y-187528600D01*
X349920000Y-201460000D02*
X348744700Y-201460000D01*
X348744700Y-201460000D02*
X348744700Y-201092700D01*
X348744700Y-201092700D02*
X341870400Y-194218400D01*
X341870400Y-194218400D02*
X327574300Y-194218400D01*
X232729700Y-167252600D02*
X235048300Y-167252600D01*
X235048300Y-167252600D02*
X236409400Y-168613700D01*
X236409400Y-168613700D02*
X243438700Y-168613700D01*
X243438700Y-168613700D02*
X244185600Y-167866800D01*
X244185600Y-167866800D02*
X245026100Y-167866800D01*
X245026100Y-167866800D02*
X245606000Y-168446700D01*
X346204700Y-201460000D02*
X346204700Y-201827300D01*
X346204700Y-201827300D02*
X345373900Y-202658100D01*
X345373900Y-202658100D02*
X321469900Y-202658100D01*
X321469900Y-202658100D02*
X318806900Y-199995100D01*
X318806900Y-199995100D02*
X291418700Y-199995100D01*
X291418700Y-199995100D02*
X290657200Y-200756600D01*
X290657200Y-200756600D02*
X271910400Y-200756600D01*
X347380000Y-201460000D02*
X346204700Y-201460000D01*
X221341600Y-153993800D02*
X208736300Y-153993800D01*
X208736300Y-153993800D02*
X207522500Y-152780000D01*
X207522500Y-152780000D02*
X204800000Y-152780000D01*
X46300000Y-151485300D02*
X46018700Y-151485300D01*
X46018700Y-151485300D02*
X44697400Y-152806600D01*
X44697400Y-152806600D02*
X44697400Y-157998400D01*
X44697400Y-157998400D02*
X45949000Y-159250000D01*
X45949000Y-159250000D02*
X46656600Y-159250000D01*
X46656600Y-159250000D02*
X47455900Y-160049300D01*
X47455900Y-160049300D02*
X47455900Y-163543600D01*
X47455900Y-163543600D02*
X46669500Y-164330000D01*
X46669500Y-164330000D02*
X45913400Y-164330000D01*
X45913400Y-164330000D02*
X44227100Y-166016300D01*
X44227100Y-166016300D02*
X44227100Y-177845300D01*
X44227100Y-177845300D02*
X45951800Y-179570000D01*
X45951800Y-179570000D02*
X46951100Y-179570000D01*
X46951100Y-179570000D02*
X68055800Y-200674700D01*
X68055800Y-200674700D02*
X93331600Y-200674700D01*
X93331600Y-200674700D02*
X99770300Y-207113400D01*
X99770300Y-207113400D02*
X112385200Y-207113400D01*
X112385200Y-207113400D02*
X112846500Y-207574700D01*
X112846500Y-207574700D02*
X151905900Y-207574700D01*
X151905900Y-207574700D02*
X152064100Y-207732900D01*
X152064100Y-207732900D02*
X342839100Y-207732900D01*
X342839100Y-207732900D02*
X346204700Y-204367300D01*
X346204700Y-204367300D02*
X346204700Y-204000000D01*
X347380000Y-204000000D02*
X346204700Y-204000000D01*
X46300000Y-150360000D02*
X46300000Y-151485300D01*
X248075300Y-195080300D02*
X248155000Y-195160000D01*
X248155000Y-195160000D02*
X268767600Y-195160000D01*
X268767600Y-195160000D02*
X271226400Y-192701200D01*
X271226400Y-192701200D02*
X275077300Y-192701200D01*
X275077300Y-192701200D02*
X276799900Y-194423800D01*
X276799900Y-194423800D02*
X285526000Y-194423800D01*
X285526000Y-194423800D02*
X285962800Y-194860600D01*
X285962800Y-194860600D02*
X313955700Y-194860600D01*
X313955700Y-194860600D02*
X314140700Y-194675600D01*
X314140700Y-194675600D02*
X320642800Y-194675600D01*
X320642800Y-194675600D02*
X320986200Y-195019000D01*
X320986200Y-195019000D02*
X337591000Y-195019000D01*
X337591000Y-195019000D02*
X343664700Y-201092700D01*
X343664700Y-201092700D02*
X343664700Y-201460000D01*
X248128400Y-179029500D02*
X247800400Y-178701500D01*
X247800400Y-178701500D02*
X238606200Y-178701500D01*
X225687700Y-126851400D02*
X223241500Y-126851400D01*
X223241500Y-126851400D02*
X222769100Y-127323800D01*
X344840000Y-201460000D02*
X343664700Y-201460000D01*
X115055500Y-191540300D02*
X117385200Y-193870000D01*
X117385200Y-193870000D02*
X161233100Y-193870000D01*
X161233100Y-193870000D02*
X162848300Y-195485200D01*
X162848300Y-195485200D02*
X163485200Y-195485200D01*
X163485200Y-195485200D02*
X168601000Y-200601000D01*
X168601000Y-200601000D02*
X232596300Y-200601000D01*
X232596300Y-200601000D02*
X233007600Y-201012300D01*
X233007600Y-201012300D02*
X233981700Y-201012300D01*
X233981700Y-201012300D02*
X234831700Y-200162300D01*
X234831700Y-200162300D02*
X245571500Y-200162300D01*
X245571500Y-200162300D02*
X245846300Y-200437100D01*
X245846300Y-200437100D02*
X271203900Y-200437100D01*
X271203900Y-200437100D02*
X271635100Y-200005900D01*
X271635100Y-200005900D02*
X288633200Y-200005900D01*
X288633200Y-200005900D02*
X289094400Y-199544700D01*
X289094400Y-199544700D02*
X321274300Y-199544700D01*
X321274300Y-199544700D02*
X323259100Y-197559900D01*
X323259100Y-197559900D02*
X335756500Y-197559900D01*
X335756500Y-197559900D02*
X337020400Y-198823800D01*
X94145400Y-137490300D02*
X89227600Y-132572500D01*
X89227600Y-132572500D02*
X64567500Y-132572500D01*
X64567500Y-132572500D02*
X56940000Y-140200000D01*
X56940000Y-140200000D02*
X46300000Y-140200000D01*
X274365000Y-193449100D02*
X275790000Y-194874100D01*
X275790000Y-194874100D02*
X285339400Y-194874100D01*
X285339400Y-194874100D02*
X285778700Y-195313400D01*
X285778700Y-195313400D02*
X314139800Y-195313400D01*
X314139800Y-195313400D02*
X314317200Y-195136000D01*
X314317200Y-195136000D02*
X320428100Y-195136000D01*
X320428100Y-195136000D02*
X320761400Y-195469300D01*
X320761400Y-195469300D02*
X335518500Y-195469300D01*
X335518500Y-195469300D02*
X341124700Y-201075500D01*
X341124700Y-201075500D02*
X341124700Y-201460000D01*
X342300000Y-201460000D02*
X341124700Y-201460000D01*
X47425300Y-155440000D02*
X48550600Y-156565300D01*
X48550600Y-156565300D02*
X66852100Y-156565300D01*
X66852100Y-156565300D02*
X67541400Y-157254600D01*
X67541400Y-157254600D02*
X82604200Y-157254600D01*
X82604200Y-157254600D02*
X87599600Y-162250000D01*
X87599600Y-162250000D02*
X90271100Y-162250000D01*
X90271100Y-162250000D02*
X90772600Y-162751500D01*
X229603500Y-202531800D02*
X229424100Y-202711200D01*
X229424100Y-202711200D02*
X141457800Y-202711200D01*
X141457800Y-202711200D02*
X140236600Y-201490000D01*
X140236600Y-201490000D02*
X120659800Y-201490000D01*
X120659800Y-201490000D02*
X119024400Y-199854600D01*
X119024400Y-199854600D02*
X105026400Y-199854600D01*
X341124700Y-204000000D02*
X341124700Y-204367300D01*
X341124700Y-204367300D02*
X338380600Y-207111400D01*
X338380600Y-207111400D02*
X300367600Y-207111400D01*
X300367600Y-207111400D02*
X297740100Y-204483900D01*
X297740100Y-204483900D02*
X248592700Y-204483900D01*
X248592700Y-204483900D02*
X248293600Y-204783000D01*
X342300000Y-204000000D02*
X341124700Y-204000000D01*
X46300000Y-155440000D02*
X47425300Y-155440000D01*
X231729300Y-167620600D02*
X232086600Y-167977900D01*
X232086600Y-167977900D02*
X235024000Y-167977900D01*
X235024000Y-167977900D02*
X236110100Y-169064000D01*
X236110100Y-169064000D02*
X244172700Y-169064000D01*
X244172700Y-169064000D02*
X244605600Y-168631100D01*
X205925300Y-150240000D02*
X206097000Y-150068300D01*
X206097000Y-150068300D02*
X213422700Y-150068300D01*
X204800000Y-150240000D02*
X205925300Y-150240000D01*
X321283300Y-180854600D02*
X305603000Y-180854600D01*
X305603000Y-180854600D02*
X303512100Y-178763700D01*
X303512100Y-178763700D02*
X290346500Y-178763700D01*
X290346500Y-178763700D02*
X284682900Y-173100100D01*
X284682900Y-173100100D02*
X280926400Y-173100100D01*
X280926400Y-173100100D02*
X280652900Y-172826600D01*
X280652900Y-172826600D02*
X247824900Y-172826600D01*
X247824900Y-172826600D02*
X247519500Y-173132000D01*
X247519500Y-173132000D02*
X233453700Y-173132000D01*
X233453700Y-173132000D02*
X232656300Y-172334600D01*
X232656300Y-172334600D02*
X230698600Y-172334600D01*
X337220000Y-201460000D02*
X336044700Y-201460000D01*
X336044700Y-201460000D02*
X336044700Y-201092700D01*
X336044700Y-201092700D02*
X333277600Y-198325600D01*
X333277600Y-198325600D02*
X323558300Y-198325600D01*
X185773600Y-106830600D02*
X185965300Y-106638900D01*
X185965300Y-106638900D02*
X189740000Y-106638900D01*
X189740000Y-106638900D02*
X196396700Y-99982200D01*
X196396700Y-99982200D02*
X247868200Y-99982200D01*
X247868200Y-99982200D02*
X249870100Y-97980300D01*
X249870100Y-97980300D02*
X278898000Y-97980300D01*
X278898000Y-97980300D02*
X281836400Y-95041900D01*
X281836400Y-95041900D02*
X298361900Y-95041900D01*
X298361900Y-95041900D02*
X300620000Y-97300000D01*
X151800000Y-104000000D02*
X148475000Y-107325000D01*
X148475000Y-107325000D02*
X133230500Y-107325000D01*
X133230500Y-107325000D02*
X126317600Y-114237900D01*
X126317600Y-114237900D02*
X91715700Y-114237900D01*
X91715700Y-114237900D02*
X89291000Y-111813200D01*
X89291000Y-111813200D02*
X86509900Y-111813200D01*
X86509900Y-111813200D02*
X83797700Y-114525400D01*
X83797700Y-114525400D02*
X76790100Y-114525400D01*
X76790100Y-114525400D02*
X76002400Y-113737700D01*
X76002400Y-113737700D02*
X67362300Y-113737700D01*
X67362300Y-113737700D02*
X66200000Y-114900000D01*
X302536300Y-180765300D02*
X279400000Y-180765300D01*
X279400000Y-179640000D02*
X279400000Y-180765300D01*
X220040000Y-114680000D02*
X218914700Y-114680000D01*
X46300000Y-160520000D02*
X39164700Y-153384700D01*
X39164700Y-153384700D02*
X39164700Y-130310400D01*
X39164700Y-130310400D02*
X53064400Y-116410700D01*
X53064400Y-116410700D02*
X82587700Y-116410700D01*
X82587700Y-116410700D02*
X86734800Y-112263600D01*
X86734800Y-112263600D02*
X88945800Y-112263600D01*
X88945800Y-112263600D02*
X92507600Y-115825400D01*
X92507600Y-115825400D02*
X146765400Y-115825400D01*
X146765400Y-115825400D02*
X147565400Y-116625400D01*
X147565400Y-116625400D02*
X183056900Y-116625400D01*
X183056900Y-116625400D02*
X183877000Y-115805300D01*
X183877000Y-115805300D02*
X217789400Y-115805300D01*
X217789400Y-115805300D02*
X218914700Y-114680000D01*
X254040000Y-114987300D02*
X254040000Y-115067200D01*
X254040000Y-115067200D02*
X256472300Y-117499500D01*
X256472300Y-117499500D02*
X284852100Y-117499500D01*
X284852100Y-117499500D02*
X291871800Y-124519200D01*
X291871800Y-124519200D02*
X335218200Y-124519200D01*
X335218200Y-124519200D02*
X335815500Y-123921900D01*
X335815500Y-123921900D02*
X336725400Y-123921900D01*
X336725400Y-123921900D02*
X337184300Y-124380800D01*
X337184300Y-124380800D02*
X337184300Y-126925300D01*
X337184300Y-126925300D02*
X336994700Y-127114900D01*
X336994700Y-127114900D02*
X336994700Y-130710800D01*
X336994700Y-130710800D02*
X337838600Y-131554700D01*
X337838600Y-131554700D02*
X338120000Y-131554700D01*
X221165300Y-114680000D02*
X222690600Y-113154700D01*
X222690600Y-113154700D02*
X246736300Y-113154700D01*
X246736300Y-113154700D02*
X248568900Y-114987300D01*
X248568900Y-114987300D02*
X254040000Y-114987300D01*
X338120000Y-132680000D02*
X338120000Y-131554700D01*
X220040000Y-114680000D02*
X221165300Y-114680000D01*
X254040000Y-114280000D02*
X254040000Y-114987300D01*
X73200000Y-178760000D02*
X64952700Y-178760000D01*
X64952700Y-178760000D02*
X63222700Y-177030000D01*
X63222700Y-177030000D02*
X50099000Y-177030000D01*
X50099000Y-177030000D02*
X47821100Y-174752100D01*
X80580900Y-138204000D02*
X80592500Y-138215600D01*
X118338200Y-128589500D02*
X120935300Y-125992400D01*
X120935300Y-125992400D02*
X123681000Y-125992400D01*
X123681000Y-125992400D02*
X128643400Y-121030000D01*
X128643400Y-121030000D02*
X213201600Y-121030000D01*
X213201600Y-121030000D02*
X217011600Y-117220000D01*
X217011600Y-117220000D02*
X220040000Y-117220000D01*
X252914700Y-116820000D02*
X251766400Y-115671700D01*
X251766400Y-115671700D02*
X222713600Y-115671700D01*
X222713600Y-115671700D02*
X221165300Y-117220000D01*
X255992600Y-115992700D02*
X291992800Y-115992700D01*
X291992800Y-115992700D02*
X297877000Y-121876900D01*
X297877000Y-121876900D02*
X337150000Y-121876900D01*
X337150000Y-121876900D02*
X337593900Y-121433000D01*
X220040000Y-117220000D02*
X221165300Y-117220000D01*
X254040000Y-116820000D02*
X252914700Y-116820000D01*
X110639500Y-128589500D02*
X118338200Y-128589500D01*
X110639500Y-128589500D02*
X110600000Y-128550000D01*
X110639500Y-128589500D02*
X110385500Y-128589500D01*
X110385500Y-128589500D02*
X109275000Y-129700000D01*
X109275000Y-129700000D02*
X105000000Y-129700000D01*
X97425000Y-137275000D02*
X97425000Y-137300000D01*
X105000000Y-129700000D02*
X97425000Y-137275000D01*
X97425000Y-137300000D02*
X96600000Y-138125000D01*
X96600000Y-138125000D02*
X96575000Y-138125000D01*
X96575000Y-138125000D02*
X95725000Y-138975000D01*
X95725000Y-138975000D02*
X84650000Y-138975000D01*
X83879000Y-138204000D02*
X80580900Y-138204000D01*
X84650000Y-138975000D02*
X83879000Y-138204000D01*
X137003700Y-111643000D02*
X162822900Y-111643000D01*
X162822900Y-111643000D02*
X164682800Y-113502900D01*
X164682800Y-113502900D02*
X182975600Y-113502900D01*
X182975600Y-113502900D02*
X183149800Y-113328700D01*
X183149800Y-113328700D02*
X209500600Y-113328700D01*
X209500600Y-113328700D02*
X209681100Y-113509200D01*
X209681100Y-113509200D02*
X212302900Y-113509200D01*
X212302900Y-113509200D02*
X212483400Y-113328700D01*
X336330100Y-124969500D02*
X336330100Y-124742000D01*
X336330100Y-124742000D02*
X336424900Y-124647200D01*
X336330100Y-126097900D02*
X336330100Y-124969500D01*
X255165300Y-119360000D02*
X257075300Y-121270000D01*
X257075300Y-121270000D02*
X286550200Y-121270000D01*
X286550200Y-121270000D02*
X290249700Y-124969500D01*
X290249700Y-124969500D02*
X336330100Y-124969500D01*
X49277600Y-161875400D02*
X49277600Y-159360100D01*
X49277600Y-159360100D02*
X46627500Y-156710000D01*
X46627500Y-156710000D02*
X45901000Y-156710000D01*
X45901000Y-156710000D02*
X45168900Y-155977900D01*
X45168900Y-155977900D02*
X45168900Y-154923200D01*
X45168900Y-154923200D02*
X46066800Y-154025300D01*
X46066800Y-154025300D02*
X46766200Y-154025300D01*
X46766200Y-154025300D02*
X49016700Y-151774800D01*
X49016700Y-151774800D02*
X49016700Y-151774700D01*
X49016700Y-151774700D02*
X69066400Y-151774700D01*
X69066400Y-151774700D02*
X76590600Y-144250500D01*
X76590600Y-144250500D02*
X114047200Y-144250500D01*
X114047200Y-144250500D02*
X114456000Y-144659300D01*
X49277600Y-161875400D02*
X65806700Y-161875400D01*
X47425300Y-165600000D02*
X49277600Y-163747700D01*
X49277600Y-163747700D02*
X49277600Y-161875400D01*
X220602700Y-119760000D02*
X220040000Y-119760000D01*
X220602700Y-119760000D02*
X221165300Y-119760000D01*
X254040000Y-119360000D02*
X252914700Y-119360000D01*
X221165300Y-119760000D02*
X222690600Y-118234700D01*
X222690600Y-118234700D02*
X251789400Y-118234700D01*
X251789400Y-118234700D02*
X252914700Y-119360000D01*
X46300000Y-165600000D02*
X47425300Y-165600000D01*
X254040000Y-119360000D02*
X255165300Y-119360000D01*
X115013600Y-141829600D02*
X114493700Y-142349500D01*
X114493700Y-142349500D02*
X73303200Y-142349500D01*
X73303200Y-142349500D02*
X71563700Y-144089000D01*
X136388300Y-118912500D02*
X136810500Y-118490300D01*
X136810500Y-118490300D02*
X205574600Y-118490300D01*
X205574600Y-118490300D02*
X205750000Y-118665700D01*
X328481000Y-104955700D02*
X328481000Y-102866800D01*
X328481000Y-102866800D02*
X332006200Y-99341600D01*
X332006200Y-99341600D02*
X349150200Y-99341600D01*
X349150200Y-99341600D02*
X350050800Y-98441000D01*
X350050800Y-98441000D02*
X358879000Y-98441000D01*
X358879000Y-98441000D02*
X360020000Y-97300000D01*
X328481000Y-104955700D02*
X331099000Y-107573700D01*
X286910900Y-106993900D02*
X326442800Y-106993900D01*
X326442800Y-106993900D02*
X328481000Y-104955700D01*
X254040000Y-121900000D02*
X252914700Y-121900000D01*
X220040000Y-122300000D02*
X221165300Y-122300000D01*
X221165300Y-122300000D02*
X222690600Y-120774700D01*
X222690600Y-120774700D02*
X251789400Y-120774700D01*
X251789400Y-120774700D02*
X252914700Y-121900000D01*
X72637400Y-171140000D02*
X73200000Y-171140000D01*
X72074700Y-171140000D02*
X68858300Y-174356400D01*
X68858300Y-174356400D02*
X48451200Y-174356400D01*
X48451200Y-174356400D02*
X48121600Y-174026800D01*
X48121600Y-174026800D02*
X47520700Y-174026800D01*
X47520700Y-174026800D02*
X47191100Y-174356400D01*
X47191100Y-174356400D02*
X45827700Y-174356400D01*
X45827700Y-174356400D02*
X45174700Y-173703400D01*
X45174700Y-173703400D02*
X45174700Y-170109200D01*
X45174700Y-170109200D02*
X46018600Y-169265300D01*
X46018600Y-169265300D02*
X46300000Y-169265300D01*
X329435600Y-141855800D02*
X329866100Y-141425300D01*
X329866100Y-141425300D02*
X335869400Y-141425300D01*
X335869400Y-141425300D02*
X336994700Y-140300000D01*
X338120000Y-140300000D02*
X336994700Y-140300000D01*
X72637400Y-171140000D02*
X72074700Y-171140000D01*
X46300000Y-168140000D02*
X46300000Y-169265300D01*
X221165300Y-150240000D02*
X226444800Y-144960500D01*
X226444800Y-144960500D02*
X234216300Y-144960500D01*
X234216300Y-144960500D02*
X234216300Y-144960400D01*
X218914700Y-150240000D02*
X217789400Y-149114700D01*
X217789400Y-149114700D02*
X189265300Y-149114700D01*
X189265300Y-149114700D02*
X188665400Y-149714600D01*
X188665400Y-149714600D02*
X149135500Y-149714600D01*
X149135500Y-149714600D02*
X147232900Y-151617200D01*
X147232900Y-151617200D02*
X124656000Y-151617200D01*
X124656000Y-151617200D02*
X124323800Y-151285000D01*
X124323800Y-151285000D02*
X123259600Y-151285000D01*
X123259600Y-151285000D02*
X123199400Y-151345200D01*
X123199400Y-151345200D02*
X105864700Y-151345200D01*
X105864700Y-151345200D02*
X105802600Y-151283100D01*
X105802600Y-151283100D02*
X105201700Y-151283100D01*
X105201700Y-151283100D02*
X105139600Y-151345200D01*
X105139600Y-151345200D02*
X87826200Y-151345200D01*
X87826200Y-151345200D02*
X87450400Y-150969400D01*
X356060000Y-97300000D02*
X349943100Y-91183100D01*
X349943100Y-91183100D02*
X220030900Y-91183100D01*
X220040000Y-150240000D02*
X221165300Y-150240000D01*
X219477400Y-150240000D02*
X220040000Y-150240000D01*
X219477400Y-150240000D02*
X218914700Y-150240000D01*
X73200000Y-168600000D02*
X72074700Y-168600000D01*
X46300000Y-170680000D02*
X47425300Y-170680000D01*
X47425300Y-170680000D02*
X48657900Y-169447400D01*
X48657900Y-169447400D02*
X71227300Y-169447400D01*
X71227300Y-169447400D02*
X72074700Y-168600000D01*
X189406300Y-111363200D02*
X190363000Y-111363200D01*
X190363000Y-111363200D02*
X194957000Y-106769200D01*
X194957000Y-106769200D02*
X246919000Y-106769200D01*
X246919000Y-106769200D02*
X247202200Y-107052400D01*
X143779900Y-112368300D02*
X162274400Y-112368300D01*
X162274400Y-112368300D02*
X163960100Y-114054000D01*
X163960100Y-114054000D02*
X189813700Y-114054000D01*
X261434900Y-94004800D02*
X262199000Y-93240700D01*
X262199000Y-93240700D02*
X330003500Y-93240700D01*
X330003500Y-93240700D02*
X335654100Y-98891300D01*
X335654100Y-98891300D02*
X348870300Y-98891300D01*
X348870300Y-98891300D02*
X350461600Y-97300000D01*
X350461600Y-97300000D02*
X352100000Y-97300000D01*
X76498100Y-149443800D02*
X76408600Y-149354300D01*
X76408600Y-149354300D02*
X76408600Y-145391700D01*
X76408600Y-145391700D02*
X77099500Y-144700800D01*
X77099500Y-144700800D02*
X84344400Y-144700800D01*
X84344400Y-144700800D02*
X85418600Y-145775000D01*
X85418600Y-145775000D02*
X116014900Y-145775000D01*
X254040000Y-149840000D02*
X246248000Y-149840000D01*
X47425300Y-173220000D02*
X48550600Y-172094700D01*
X48550600Y-172094700D02*
X70181500Y-172094700D01*
X70181500Y-172094700D02*
X72406200Y-169870000D01*
X72406200Y-169870000D02*
X73521600Y-169870000D01*
X73521600Y-169870000D02*
X74325300Y-169066300D01*
X74325300Y-169066300D02*
X74325300Y-168029200D01*
X74325300Y-168029200D02*
X73481400Y-167185300D01*
X73481400Y-167185300D02*
X73200000Y-167185300D01*
X73200000Y-166060000D02*
X73200000Y-167185300D01*
X46300000Y-173220000D02*
X47425300Y-173220000D01*
X73200000Y-163520000D02*
X84099800Y-163520000D01*
X84099800Y-163520000D02*
X87885000Y-167305200D01*
X87885000Y-167305200D02*
X93307000Y-167305200D01*
X93307000Y-167305200D02*
X95396400Y-169394600D01*
X95396400Y-169394600D02*
X107961900Y-169394600D01*
X107961900Y-169394600D02*
X108387900Y-169820600D01*
X108387900Y-169820600D02*
X110394300Y-169820600D01*
X167451600Y-104700000D02*
X167913500Y-104238100D01*
X167913500Y-104238100D02*
X190127000Y-104238100D01*
X190127000Y-104238100D02*
X196426400Y-97938700D01*
X196426400Y-97938700D02*
X245491400Y-97938700D01*
X245491400Y-97938700D02*
X246913600Y-96516500D01*
X246913600Y-96516500D02*
X255429400Y-96516500D01*
X255429400Y-96516500D02*
X259664000Y-92281900D01*
X259664000Y-92281900D02*
X343121900Y-92281900D01*
X343121900Y-92281900D02*
X348140000Y-97300000D01*
X72637400Y-163520000D02*
X73200000Y-163520000D01*
X72637400Y-163520000D02*
X72074700Y-163520000D01*
X72074700Y-163520000D02*
X72074700Y-163730200D01*
X72074700Y-163730200D02*
X68989400Y-166815500D01*
X68989400Y-166815500D02*
X46026400Y-166815500D01*
X46026400Y-166815500D02*
X44677500Y-168164400D01*
X44677500Y-168164400D02*
X44677500Y-174137500D01*
X44677500Y-174137500D02*
X46300000Y-175760000D01*
X344180000Y-97300000D02*
X345320900Y-98440900D01*
X345320900Y-98440900D02*
X348599300Y-98440900D01*
X348599300Y-98440900D02*
X349247200Y-97793000D01*
X349247200Y-97793000D02*
X349247200Y-96841100D01*
X349247200Y-96841100D02*
X344237600Y-91831500D01*
X344237600Y-91831500D02*
X226957700Y-91831500D01*
X226957700Y-91831500D02*
X225044000Y-93745200D01*
X225044000Y-93745200D02*
X225044000Y-94628200D01*
X225044000Y-94628200D02*
X223486500Y-96185700D01*
X223486500Y-96185700D02*
X196127000Y-96185700D01*
X196127000Y-96185700D02*
X194778100Y-97534600D01*
X194778100Y-97534600D02*
X169813800Y-97534600D01*
X169813800Y-97534600D02*
X169518100Y-97238900D01*
X169518100Y-97238900D02*
X142862100Y-97238900D01*
X142862100Y-97238900D02*
X137570900Y-102530100D01*
X137570900Y-102530100D02*
X91460000Y-102530100D01*
X91460000Y-102530100D02*
X91203100Y-102787000D01*
X81200800Y-153817100D02*
X82269100Y-153817100D01*
X82269100Y-153817100D02*
X86379900Y-149706300D01*
X86379900Y-149706300D02*
X93098100Y-149706300D01*
X93098100Y-149706300D02*
X93292800Y-149511600D01*
X73200000Y-160980000D02*
X64211100Y-160980000D01*
X64211100Y-160980000D02*
X63278800Y-160047700D01*
X89565300Y-163520000D02*
X90088100Y-164042800D01*
X90088100Y-164042800D02*
X116804900Y-164042800D01*
X116804900Y-164042800D02*
X117228400Y-163619300D01*
X117228400Y-163619300D02*
X124951200Y-163619300D01*
X124951200Y-163619300D02*
X130428100Y-169096200D01*
X130428100Y-169096200D02*
X136926400Y-169096200D01*
X136926400Y-169096200D02*
X139045100Y-166977500D01*
X139045100Y-166977500D02*
X214893400Y-166977500D01*
X214893400Y-166977500D02*
X216244300Y-165626600D01*
X216244300Y-165626600D02*
X241255900Y-165626600D01*
X241255900Y-165626600D02*
X241520700Y-165361800D01*
X241520700Y-165361800D02*
X242869200Y-165361800D01*
X242869200Y-165361800D02*
X243336100Y-164894900D01*
X243336100Y-164894900D02*
X276435500Y-164894900D01*
X276435500Y-164894900D02*
X276554800Y-165014200D01*
X276554800Y-165014200D02*
X281260900Y-165014200D01*
X281260900Y-165014200D02*
X281380200Y-164894900D01*
X281380200Y-164894900D02*
X286782500Y-164894900D01*
X286782500Y-164894900D02*
X288105900Y-163571500D01*
X288105900Y-163571500D02*
X299346200Y-163571500D01*
X299346200Y-163571500D02*
X302771200Y-160146500D01*
X302771200Y-160146500D02*
X306357900Y-160146500D01*
X306357900Y-160146500D02*
X306430500Y-160219100D01*
X306430500Y-160219100D02*
X323773300Y-160219100D01*
X323773300Y-160219100D02*
X323913000Y-160358800D01*
X335794700Y-168880000D02*
X335639900Y-169034800D01*
X335639900Y-169034800D02*
X332453900Y-169034800D01*
X332879400Y-102323600D02*
X336165900Y-102323600D01*
X88440000Y-163520000D02*
X89565300Y-163520000D01*
X336920000Y-168880000D02*
X335794700Y-168880000D01*
X87877400Y-163520000D02*
X88440000Y-163520000D01*
X87877400Y-163520000D02*
X87314700Y-163520000D01*
X59334100Y-164396000D02*
X67021700Y-164396000D01*
X67021700Y-164396000D02*
X69079100Y-162338600D01*
X69079100Y-162338600D02*
X86133300Y-162338600D01*
X86133300Y-162338600D02*
X87314700Y-163520000D01*
X179446100Y-108077100D02*
X181960400Y-105562800D01*
X181960400Y-105562800D02*
X189542200Y-105562800D01*
X189542200Y-105562800D02*
X196182400Y-98922600D01*
X196182400Y-98922600D02*
X247335700Y-98922600D01*
X247335700Y-98922600D02*
X249178700Y-97079600D01*
X249178700Y-97079600D02*
X257334100Y-97079600D01*
X257334100Y-97079600D02*
X261623300Y-92790400D01*
X261623300Y-92790400D02*
X331750400Y-92790400D01*
X331750400Y-92790400D02*
X336260000Y-97300000D01*
X133294700Y-130766500D02*
X132995800Y-131065400D01*
X132995800Y-131065400D02*
X121665000Y-131065400D01*
X121665000Y-131065400D02*
X111556600Y-141173800D01*
X88440000Y-166060000D02*
X89565300Y-166060000D01*
X89565300Y-166060000D02*
X90089800Y-166584500D01*
X90089800Y-166584500D02*
X104057500Y-166584500D01*
X104057500Y-166584500D02*
X104951100Y-165690900D01*
X332719200Y-107208000D02*
X334990900Y-107208000D01*
X336920000Y-171420000D02*
X335794700Y-171420000D01*
X333985400Y-171099700D02*
X335474400Y-171099700D01*
X335474400Y-171099700D02*
X335794700Y-171420000D01*
X89565300Y-173680000D02*
X92625600Y-176740300D01*
X92625600Y-176740300D02*
X140405200Y-176740300D01*
X140405200Y-176740300D02*
X142874100Y-174271400D01*
X142874100Y-174271400D02*
X157202600Y-174271400D01*
X157202600Y-174271400D02*
X157458500Y-174015500D01*
X157458500Y-174015500D02*
X179677600Y-174015500D01*
X179677600Y-174015500D02*
X180288700Y-173404400D01*
X180288700Y-173404400D02*
X233089200Y-173404400D01*
X233089200Y-173404400D02*
X233268500Y-173583700D01*
X233268500Y-173583700D02*
X247704700Y-173583700D01*
X247704700Y-173583700D02*
X247984300Y-173304100D01*
X247984300Y-173304100D02*
X260529400Y-173304100D01*
X260529400Y-173304100D02*
X261000000Y-173774700D01*
X294329900Y-123772500D02*
X334040300Y-123772500D01*
X334040300Y-123772500D02*
X334073600Y-123739200D01*
X257675900Y-152557500D02*
X258625700Y-151607700D01*
X258625700Y-151607700D02*
X289689800Y-151607700D01*
X261000000Y-174900000D02*
X261000000Y-173774700D01*
X88440000Y-173680000D02*
X89565300Y-173680000D01*
X251160400Y-197356200D02*
X250155700Y-198360900D01*
X250155700Y-198360900D02*
X247181600Y-198360900D01*
X247181600Y-198360900D02*
X246850300Y-198029600D01*
X246850300Y-198029600D02*
X246242800Y-198029600D01*
X246242800Y-198029600D02*
X245728000Y-198544400D01*
X245728000Y-198544400D02*
X191251100Y-198544400D01*
X191251100Y-198544400D02*
X191009800Y-198303100D01*
X191009800Y-198303100D02*
X190408900Y-198303100D01*
X190408900Y-198303100D02*
X190142800Y-198569200D01*
X190142800Y-198569200D02*
X172990000Y-198569200D01*
X172990000Y-198569200D02*
X172990000Y-198569300D01*
X257110800Y-178336000D02*
X258006800Y-177440000D01*
X258006800Y-177440000D02*
X261000000Y-177440000D01*
X169960600Y-201932400D02*
X151812400Y-201932400D01*
X151812400Y-201932400D02*
X148810000Y-198930000D01*
X148810000Y-198930000D02*
X74865100Y-198930000D01*
X74865100Y-198930000D02*
X71806100Y-195871000D01*
X252325300Y-109851000D02*
X252944300Y-110470000D01*
X252944300Y-110470000D02*
X266521400Y-110470000D01*
X266521400Y-110470000D02*
X271143500Y-115092100D01*
X271143500Y-115092100D02*
X278677200Y-115092100D01*
X278677200Y-115092100D02*
X285834000Y-107935300D01*
X285834000Y-107935300D02*
X329676100Y-107935300D01*
X261000000Y-179980000D02*
X261000000Y-178854700D01*
X61540000Y-185920000D02*
X61540000Y-187045300D01*
X152551100Y-206557300D02*
X152434400Y-206674000D01*
X152434400Y-206674000D02*
X113635900Y-206674000D01*
X113635900Y-206674000D02*
X110902800Y-203940900D01*
X110902800Y-203940900D02*
X106065500Y-203940900D01*
X106065500Y-203940900D02*
X102280700Y-200156100D01*
X102280700Y-200156100D02*
X71633800Y-200156100D01*
X71633800Y-200156100D02*
X60414700Y-188937000D01*
X60414700Y-188937000D02*
X60414700Y-187889200D01*
X60414700Y-187889200D02*
X61258600Y-187045300D01*
X61258600Y-187045300D02*
X61540000Y-187045300D01*
X261000000Y-178854700D02*
X261281300Y-178854700D01*
X261281300Y-178854700D02*
X262142400Y-177993600D01*
X262142400Y-177993600D02*
X262142400Y-176921800D01*
X262142400Y-176921800D02*
X261490600Y-176270000D01*
X261490600Y-176270000D02*
X246591700Y-176270000D01*
X246591700Y-176270000D02*
X246431100Y-176430600D01*
X322805800Y-196217700D02*
X322397600Y-196625900D01*
X322397600Y-196625900D02*
X285817400Y-196625900D01*
X285817400Y-196625900D02*
X284966200Y-195774700D01*
X284966200Y-195774700D02*
X281790500Y-195774700D01*
X281790500Y-195774700D02*
X281495600Y-196069600D01*
X60033200Y-161150000D02*
X60033200Y-160407900D01*
X60033200Y-160407900D02*
X61214200Y-159226900D01*
X61214200Y-159226900D02*
X71287800Y-159226900D01*
X71287800Y-159226900D02*
X72074700Y-158440000D01*
X327699400Y-173183400D02*
X326087700Y-174795100D01*
X326087700Y-174795100D02*
X322591700Y-174795100D01*
X73200000Y-158440000D02*
X72074700Y-158440000D01*
X324380000Y-97300000D02*
X326439400Y-99359400D01*
X326439400Y-99359400D02*
X329317700Y-99359400D01*
X329317700Y-99359400D02*
X329996100Y-100037800D01*
X138745300Y-184980000D02*
X147767800Y-184980000D01*
X147767800Y-184980000D02*
X157831700Y-174916100D01*
X157831700Y-174916100D02*
X180050800Y-174916100D01*
X180050800Y-174916100D02*
X180661900Y-174305000D01*
X180661900Y-174305000D02*
X232716000Y-174305000D01*
X232716000Y-174305000D02*
X233477200Y-175066200D01*
X233477200Y-175066200D02*
X242708500Y-175066200D01*
X242708500Y-175066200D02*
X242774700Y-175000000D01*
X136494700Y-184980000D02*
X135369400Y-186105300D01*
X135369400Y-186105300D02*
X116030600Y-186105300D01*
X116030600Y-186105300D02*
X115226000Y-186909900D01*
X115226000Y-186909900D02*
X108751400Y-186909900D01*
X108751400Y-186909900D02*
X108470400Y-186628900D01*
X108470400Y-186628900D02*
X107869500Y-186628900D01*
X107869500Y-186628900D02*
X107588500Y-186909900D01*
X107588500Y-186909900D02*
X96979000Y-186909900D01*
X96979000Y-186909900D02*
X95179100Y-185110000D01*
X95179100Y-185110000D02*
X77033300Y-185110000D01*
X77033300Y-185110000D02*
X76417600Y-184494300D01*
X245025300Y-175000000D02*
X245025300Y-176062600D01*
X245025300Y-176062600D02*
X246118600Y-177155900D01*
X246118600Y-177155900D02*
X249544400Y-177155900D01*
X249544400Y-177155900D02*
X251053800Y-178665300D01*
X251053800Y-178665300D02*
X256096300Y-178665300D01*
X256096300Y-178665300D02*
X256110400Y-178651200D01*
X320420000Y-97300000D02*
X316811000Y-93691000D01*
X316811000Y-93691000D02*
X268181900Y-93691000D01*
X268181900Y-93691000D02*
X266065600Y-95807300D01*
X266065600Y-95807300D02*
X266065600Y-96804700D01*
X259874700Y-182520000D02*
X256110400Y-178755700D01*
X256110400Y-178755700D02*
X256110400Y-178651200D01*
X243900000Y-175000000D02*
X242774700Y-175000000D01*
X243900000Y-175000000D02*
X244462700Y-175000000D01*
X137620000Y-184980000D02*
X136494700Y-184980000D01*
X137620000Y-184980000D02*
X138745300Y-184980000D01*
X244462700Y-175000000D02*
X245025300Y-175000000D01*
X261000000Y-182520000D02*
X259874700Y-182520000D01*
X282986900Y-168772400D02*
X288000200Y-168772400D01*
X288000200Y-168772400D02*
X289350500Y-167422100D01*
X289350500Y-167422100D02*
X300979600Y-167422100D01*
X300979600Y-167422100D02*
X304377800Y-164023900D01*
X304377800Y-164023900D02*
X304424500Y-164023900D01*
X277826200Y-181446900D02*
X275556500Y-183716600D01*
X275556500Y-183716600D02*
X262632800Y-183716600D01*
X317420000Y-139920000D02*
X313436700Y-139920000D01*
X313436700Y-139920000D02*
X311698400Y-138181700D01*
X312500000Y-97300000D02*
X309341300Y-94141300D01*
X309341300Y-94141300D02*
X268810200Y-94141300D01*
X268810200Y-94141300D02*
X267154900Y-95796600D01*
X229057500Y-149850200D02*
X231149600Y-147758100D01*
X231149600Y-147758100D02*
X236579700Y-147758100D01*
X316294700Y-137380000D02*
X315645700Y-136731000D01*
X315645700Y-136731000D02*
X311202200Y-136731000D01*
X317420000Y-137380000D02*
X316294700Y-137380000D01*
X252914700Y-147300000D02*
X252370600Y-147844100D01*
X252370600Y-147844100D02*
X243776300Y-147844100D01*
X254040000Y-147300000D02*
X252914700Y-147300000D01*
X243900000Y-187700000D02*
X242774700Y-187700000D01*
X242774700Y-187700000D02*
X240853200Y-185778500D01*
X240853200Y-185778500D02*
X237704300Y-185778500D01*
X237704300Y-185778500D02*
X237704300Y-185778400D01*
X318545300Y-137380000D02*
X319296500Y-136628800D01*
X319296500Y-136628800D02*
X342497900Y-136628800D01*
X342497900Y-136628800D02*
X344065700Y-138196600D01*
X344065700Y-138196600D02*
X371008700Y-138196600D01*
X371008700Y-138196600D02*
X377094700Y-144282600D01*
X377094700Y-144282600D02*
X377094700Y-144520000D01*
X317420000Y-137380000D02*
X318545300Y-137380000D01*
X378220000Y-144520000D02*
X377094700Y-144520000D01*
X186040000Y-109258600D02*
X186040100Y-109258600D01*
X186040100Y-109258600D02*
X186040100Y-109233900D01*
X186040100Y-109233900D02*
X186981000Y-108293000D01*
X186981000Y-108293000D02*
X190792600Y-108293000D01*
X190792600Y-108293000D02*
X195393500Y-103692100D01*
X195393500Y-103692100D02*
X246280600Y-103692100D01*
X246280600Y-103692100D02*
X247147600Y-102825100D01*
X247147600Y-102825100D02*
X247147600Y-102529300D01*
X247147600Y-102529300D02*
X251120800Y-98556100D01*
X251120800Y-98556100D02*
X254673600Y-98556100D01*
X254673600Y-98556100D02*
X258273100Y-102155600D01*
X258273100Y-102155600D02*
X286143900Y-102155600D01*
X286143900Y-102155600D02*
X289828200Y-98471300D01*
X289828200Y-98471300D02*
X303408700Y-98471300D01*
X303408700Y-98471300D02*
X304580000Y-97300000D01*
X179718500Y-103358600D02*
X160509700Y-103358600D01*
X160509700Y-103358600D02*
X157309800Y-100158700D01*
X157309800Y-100158700D02*
X153141300Y-100158700D01*
X153141300Y-100158700D02*
X147439400Y-105860600D01*
X147439400Y-105860600D02*
X131969900Y-105860600D01*
X131969900Y-105860600D02*
X124071100Y-113759400D01*
X124071100Y-113759400D02*
X103211900Y-113759400D01*
X103211900Y-113759400D02*
X100801200Y-111348700D01*
X100801200Y-111348700D02*
X50388300Y-111348700D01*
X50388300Y-111348700D02*
X49194100Y-112542900D01*
X370012800Y-98713000D02*
X370012800Y-97746400D01*
X370012800Y-97746400D02*
X362694000Y-90427600D01*
X362694000Y-90427600D02*
X219409900Y-90427600D01*
X219409900Y-90427600D02*
X218869200Y-90968300D01*
X218869200Y-90968300D02*
X218221700Y-90968300D01*
X218221700Y-90968300D02*
X216207200Y-88953800D01*
X216207200Y-88953800D02*
X193980900Y-88953800D01*
X193980900Y-88953800D02*
X190709900Y-92224800D01*
X190709900Y-92224800D02*
X188190900Y-92224800D01*
X188190900Y-92224800D02*
X183416500Y-96999200D01*
X183416500Y-96999200D02*
X173113300Y-96999200D01*
X173113300Y-96999200D02*
X170944000Y-94829900D01*
X170944000Y-94829900D02*
X167370200Y-94829900D01*
X167370200Y-94829900D02*
X165940700Y-96259400D01*
X165940700Y-96259400D02*
X130701100Y-96259400D01*
X130701100Y-96259400D02*
X125254000Y-101706500D01*
X125254000Y-101706500D02*
X90526100Y-101706500D01*
X90526100Y-101706500D02*
X88905200Y-103327400D01*
X88905200Y-103327400D02*
X85105500Y-103327400D01*
X85105500Y-103327400D02*
X84903700Y-103125600D01*
X72724500Y-146370300D02*
X75569700Y-143525100D01*
X75569700Y-143525100D02*
X83798100Y-143525100D01*
X61540000Y-157980000D02*
X64530500Y-157980000D01*
X64530500Y-157980000D02*
X64924100Y-157586400D01*
X359051200Y-158328000D02*
X364084300Y-158328000D01*
X357694700Y-169280000D02*
X356539800Y-170434900D01*
X356539800Y-170434900D02*
X350763300Y-170434900D01*
X350763300Y-170434900D02*
X350455800Y-170127400D01*
X350455800Y-170127400D02*
X318592700Y-170127400D01*
X318592700Y-170127400D02*
X317745300Y-169280000D01*
X316620000Y-169280000D02*
X317745300Y-169280000D01*
X358820000Y-169280000D02*
X357694700Y-169280000D01*
X315494700Y-171820000D02*
X311819800Y-175494900D01*
X311819800Y-175494900D02*
X301235500Y-175494900D01*
X301235500Y-175494900D02*
X298315600Y-172575000D01*
X298315600Y-172575000D02*
X287322500Y-172575000D01*
X287322500Y-172575000D02*
X286046400Y-171298900D01*
X286046400Y-171298900D02*
X281672800Y-171298900D01*
X281672800Y-171298900D02*
X281399300Y-171025400D01*
X281399300Y-171025400D02*
X247078500Y-171025400D01*
X247078500Y-171025400D02*
X246779400Y-171324500D01*
X246779400Y-171324500D02*
X234193800Y-171324500D01*
X234193800Y-171324500D02*
X233127700Y-170258400D01*
X233127700Y-170258400D02*
X225464800Y-170258400D01*
X225464800Y-170258400D02*
X224768500Y-170954700D01*
X224768500Y-170954700D02*
X222366100Y-170954700D01*
X222366100Y-170954700D02*
X222015500Y-171305300D01*
X222015500Y-171305300D02*
X182121000Y-171305300D01*
X182121000Y-171305300D02*
X181864100Y-171048400D01*
X181864100Y-171048400D02*
X177955700Y-171048400D01*
X177955700Y-171048400D02*
X176828000Y-172176100D01*
X176828000Y-172176100D02*
X157085300Y-172176100D01*
X157085300Y-172176100D02*
X156829400Y-171920200D01*
X156829400Y-171920200D02*
X156228500Y-171920200D01*
X156228500Y-171920200D02*
X155972600Y-172176100D01*
X155972600Y-172176100D02*
X132738900Y-172176100D01*
X132738900Y-172176100D02*
X132317900Y-172597100D01*
X132317900Y-172597100D02*
X126580500Y-172597100D01*
X118866700Y-197815500D02*
X112992300Y-197815500D01*
X112992300Y-197815500D02*
X106643000Y-191466200D01*
X106643000Y-191466200D02*
X81726600Y-191466200D01*
X81726600Y-191466200D02*
X75225700Y-184965300D01*
X75225700Y-184965300D02*
X73200000Y-184965300D01*
X358820000Y-172945300D02*
X359101400Y-172945300D01*
X359101400Y-172945300D02*
X359945300Y-173789200D01*
X359945300Y-173789200D02*
X359945300Y-174836700D01*
X359945300Y-174836700D02*
X359237100Y-175544900D01*
X359237100Y-175544900D02*
X340546800Y-175544900D01*
X340546800Y-175544900D02*
X337669300Y-172667400D01*
X337669300Y-172667400D02*
X328209200Y-172667400D01*
X328209200Y-172667400D02*
X327361800Y-171820000D01*
X327361800Y-171820000D02*
X317745300Y-171820000D01*
X73200000Y-183840000D02*
X73200000Y-184965300D01*
X316620000Y-171820000D02*
X315494700Y-171820000D01*
X316934900Y-171820000D02*
X316620000Y-171820000D01*
X316934900Y-171820000D02*
X317745300Y-171820000D01*
X358820000Y-171820000D02*
X358820000Y-172945300D01*
X246549800Y-198754900D02*
X246632600Y-198837700D01*
X246632600Y-198837700D02*
X266153900Y-198837700D01*
X266153900Y-198837700D02*
X266578500Y-198413100D01*
X266578500Y-198413100D02*
X284875700Y-198413100D01*
X284875700Y-198413100D02*
X285762100Y-197526700D01*
X285762100Y-197526700D02*
X318290100Y-197526700D01*
X318290100Y-197526700D02*
X318423600Y-197660200D01*
X113216000Y-203980000D02*
X145757100Y-203980000D01*
X145757100Y-203980000D02*
X146575500Y-203161600D01*
X146575500Y-203161600D02*
X194845400Y-203161600D01*
X194845400Y-203161600D02*
X194954300Y-203270500D01*
X194954300Y-203270500D02*
X234530200Y-203270500D01*
X234530200Y-203270500D02*
X235927300Y-201873400D01*
X73200000Y-186380000D02*
X76003500Y-186380000D01*
X76003500Y-186380000D02*
X81662300Y-192038800D01*
X81662300Y-192038800D02*
X105736200Y-192038800D01*
X105736200Y-192038800D02*
X109401200Y-195703800D01*
X109401200Y-195703800D02*
X109401200Y-197127000D01*
X316620000Y-174360000D02*
X317745300Y-174360000D01*
X317745300Y-174360000D02*
X318916200Y-175530900D01*
X318916200Y-175530900D02*
X327753900Y-175530900D01*
X327753900Y-175530900D02*
X327910200Y-175374600D01*
X327910200Y-175374600D02*
X338097900Y-175374600D01*
X357694700Y-174360000D02*
X356541000Y-173206300D01*
X356541000Y-173206300D02*
X339623100Y-173206300D01*
X358820000Y-174360000D02*
X357694700Y-174360000D01*
X89565300Y-188920000D02*
X90760600Y-190115300D01*
X90760600Y-190115300D02*
X112280900Y-190115300D01*
X112280900Y-190115300D02*
X112980500Y-190814900D01*
X112980500Y-190814900D02*
X127023600Y-190814900D01*
X127023600Y-190814900D02*
X127394100Y-191185400D01*
X127394100Y-191185400D02*
X159185400Y-191185400D01*
X159185400Y-191185400D02*
X163034900Y-195034900D01*
X163034900Y-195034900D02*
X163671800Y-195034900D01*
X163671800Y-195034900D02*
X166796100Y-198159200D01*
X166796100Y-198159200D02*
X172285000Y-198159200D01*
X172285000Y-198159200D02*
X172607600Y-197836600D01*
X172607600Y-197836600D02*
X173372500Y-197836600D01*
X173372500Y-197836600D02*
X173618500Y-198082600D01*
X173618500Y-198082600D02*
X189992500Y-198082600D01*
X189992500Y-198082600D02*
X190222300Y-197852800D01*
X190222300Y-197852800D02*
X191196400Y-197852800D01*
X191196400Y-197852800D02*
X191426200Y-198082600D01*
X191426200Y-198082600D02*
X207644600Y-198082600D01*
X207644600Y-198082600D02*
X211398200Y-194329000D01*
X211398200Y-194329000D02*
X245744900Y-194329000D01*
X245744900Y-194329000D02*
X247223400Y-195807500D01*
X247223400Y-195807500D02*
X268757000Y-195807500D01*
X268757000Y-195807500D02*
X269240100Y-195324400D01*
X269240100Y-195324400D02*
X285152800Y-195324400D01*
X285152800Y-195324400D02*
X285727500Y-195899100D01*
X285727500Y-195899100D02*
X318489800Y-195899100D01*
X70153900Y-164625000D02*
X69178900Y-165600000D01*
X69178900Y-165600000D02*
X62665300Y-165600000D01*
X358820000Y-176900000D02*
X357694700Y-176900000D01*
X316620000Y-176900000D02*
X317745300Y-176900000D01*
X317745300Y-176900000D02*
X318470700Y-177625400D01*
X318470700Y-177625400D02*
X337097000Y-177625400D01*
X337097000Y-177625400D02*
X337496900Y-178025300D01*
X337496900Y-178025300D02*
X356569400Y-178025300D01*
X356569400Y-178025300D02*
X357694700Y-176900000D01*
X352443500Y-150819300D02*
X343124500Y-150819300D01*
X343124500Y-150819300D02*
X342338900Y-150033700D01*
X88440000Y-188920000D02*
X89565300Y-188920000D01*
X61540000Y-165600000D02*
X62665300Y-165600000D01*
X109652000Y-204671100D02*
X110579800Y-204671100D01*
X110579800Y-204671100D02*
X113033100Y-207124400D01*
X113033100Y-207124400D02*
X152092500Y-207124400D01*
X152092500Y-207124400D02*
X152250700Y-207282600D01*
X152250700Y-207282600D02*
X237815500Y-207282600D01*
X237815500Y-207282600D02*
X238123300Y-206974800D01*
X89980400Y-172913400D02*
X89477000Y-172410000D01*
X89477000Y-172410000D02*
X84720700Y-172410000D01*
X84720700Y-172410000D02*
X77240300Y-164929600D01*
X77240300Y-164929600D02*
X71935000Y-164929600D01*
X71935000Y-164929600D02*
X68724600Y-168140000D01*
X68724600Y-168140000D02*
X61540000Y-168140000D01*
X329206300Y-104489100D02*
X352170900Y-104489100D01*
X352170900Y-104489100D02*
X356060000Y-100600000D01*
X302860700Y-202609100D02*
X252251300Y-202609100D01*
X327444300Y-179440000D02*
X316620000Y-179440000D01*
X75664300Y-183768900D02*
X75664300Y-184767000D01*
X75664300Y-184767000D02*
X81462900Y-190565600D01*
X81462900Y-190565600D02*
X109091800Y-190565600D01*
X109091800Y-190565600D02*
X114878400Y-196352200D01*
X114878400Y-196352200D02*
X149752100Y-196352200D01*
X149752100Y-196352200D02*
X154485900Y-201086000D01*
X154485900Y-201086000D02*
X232444400Y-201086000D01*
X232444400Y-201086000D02*
X232821000Y-201462600D01*
X232821000Y-201462600D02*
X234168300Y-201462600D01*
X234168300Y-201462600D02*
X234544900Y-201086000D01*
X234544900Y-201086000D02*
X236165700Y-201086000D01*
X236165700Y-201086000D02*
X242341600Y-207261900D01*
X242341600Y-207261900D02*
X295386900Y-207261900D01*
X295386900Y-207261900D02*
X297439600Y-205209200D01*
X352100000Y-100600000D02*
X353664600Y-99035400D01*
X353664600Y-99035400D02*
X369309500Y-99035400D01*
X369309500Y-99035400D02*
X369712400Y-99438300D01*
X369712400Y-99438300D02*
X378080000Y-99438300D01*
X378080000Y-99438300D02*
X378246900Y-99605200D01*
X75664300Y-183768900D02*
X75339500Y-183768900D01*
X75339500Y-183768900D02*
X74316300Y-182745700D01*
X87314700Y-183840000D02*
X87243600Y-183768900D01*
X87243600Y-183768900D02*
X75664300Y-183768900D01*
X88440000Y-183840000D02*
X87314700Y-183840000D01*
X356569400Y-180586100D02*
X356569400Y-180024800D01*
X356569400Y-180024800D02*
X358281400Y-178312800D01*
X358281400Y-178312800D02*
X367187100Y-178312800D01*
X367187100Y-178312800D02*
X376391200Y-169108700D01*
X376391200Y-169108700D02*
X378278500Y-169108700D01*
X357694700Y-181980000D02*
X356569400Y-180854700D01*
X356569400Y-180854700D02*
X356569400Y-180586100D01*
X317745300Y-181980000D02*
X323513100Y-181980000D01*
X323513100Y-181980000D02*
X325068200Y-180424900D01*
X325068200Y-180424900D02*
X341398000Y-180424900D01*
X341398000Y-180424900D02*
X341559200Y-180586100D01*
X341559200Y-180586100D02*
X356569400Y-180586100D01*
X358820000Y-181980000D02*
X357694700Y-181980000D01*
X316620000Y-181980000D02*
X317745300Y-181980000D01*
X248905400Y-201347000D02*
X249040300Y-201481900D01*
X249040300Y-201481900D02*
X306701600Y-201481900D01*
X306701600Y-201481900D02*
X306920200Y-201263300D01*
X356129200Y-158668100D02*
X357505700Y-157291600D01*
X357505700Y-157291600D02*
X360875900Y-157291600D01*
X69294800Y-175094600D02*
X85148100Y-175094600D01*
X85148100Y-175094600D02*
X87543500Y-177490000D01*
X87543500Y-177490000D02*
X88790200Y-177490000D01*
X88790200Y-177490000D02*
X89565400Y-178265200D01*
X89565400Y-178265200D02*
X89565400Y-179330600D01*
X89565400Y-179330600D02*
X88721300Y-180174700D01*
X88721300Y-180174700D02*
X88440000Y-180174700D01*
X317745300Y-184520000D02*
X318195400Y-184069900D01*
X318195400Y-184069900D02*
X326142400Y-184069900D01*
X88440000Y-181300000D02*
X88440000Y-180174700D01*
X316620000Y-184520000D02*
X317745300Y-184520000D01*
X308495500Y-198252100D02*
X286971400Y-198252100D01*
X286971400Y-198252100D02*
X286360000Y-198863500D01*
X286360000Y-198863500D02*
X271434800Y-198863500D01*
X271434800Y-198863500D02*
X270761800Y-199536500D01*
X270761800Y-199536500D02*
X246219500Y-199536500D01*
X246219500Y-199536500D02*
X245944600Y-199261600D01*
X245944600Y-199261600D02*
X234069700Y-199261600D01*
X234069700Y-199261600D02*
X233494600Y-199836700D01*
X344180000Y-100600000D02*
X345315500Y-101735500D01*
X345315500Y-101735500D02*
X352502300Y-101735500D01*
X352502300Y-101735500D02*
X354752100Y-99485700D01*
X354752100Y-99485700D02*
X356495200Y-99485700D01*
X356495200Y-99485700D02*
X357181900Y-100172400D01*
X357181900Y-100172400D02*
X357181900Y-101217900D01*
X357181900Y-101217900D02*
X350158700Y-108241100D01*
X350158700Y-108241100D02*
X350158700Y-109758000D01*
X363307900Y-159463600D02*
X359667300Y-159463600D01*
X316620000Y-187060000D02*
X318784100Y-187060000D01*
X318784100Y-187060000D02*
X320007200Y-188283100D01*
X320007200Y-188283100D02*
X325487100Y-188283100D01*
X325487100Y-188283100D02*
X326547200Y-187223000D01*
X326547200Y-187223000D02*
X326547200Y-187016200D01*
X358820000Y-187060000D02*
X357694700Y-187060000D01*
X328041800Y-189386800D02*
X328266900Y-189161700D01*
X328266900Y-189161700D02*
X355593000Y-189161700D01*
X355593000Y-189161700D02*
X357694700Y-187060000D01*
X62665300Y-175760000D02*
X64540000Y-177634700D01*
X64540000Y-177634700D02*
X86189400Y-177634700D01*
X86189400Y-177634700D02*
X87314700Y-178760000D01*
X87877400Y-178760000D02*
X88440000Y-178760000D01*
X87877400Y-178760000D02*
X87314700Y-178760000D01*
X61540000Y-175760000D02*
X62665300Y-175760000D01*
X118304200Y-164344600D02*
X123660400Y-164344600D01*
X123660400Y-164344600D02*
X128864300Y-169548500D01*
X128864300Y-169548500D02*
X137965600Y-169548500D01*
X137965600Y-169548500D02*
X139811300Y-167702800D01*
X139811300Y-167702800D02*
X207822900Y-167702800D01*
X62665300Y-155440000D02*
X63372700Y-154732600D01*
X63372700Y-154732600D02*
X80795900Y-154732600D01*
X80795900Y-154732600D02*
X83145400Y-157082100D01*
X83145400Y-157082100D02*
X89177900Y-157082100D01*
X89177900Y-157082100D02*
X89565400Y-156694600D01*
X89565400Y-156694600D02*
X116782900Y-156694600D01*
X116782900Y-156694600D02*
X118191300Y-158103000D01*
X207822900Y-167702800D02*
X208548300Y-168428200D01*
X208548300Y-168428200D02*
X211704900Y-168428200D01*
X211704900Y-168428200D02*
X212155100Y-167978000D01*
X212155100Y-167978000D02*
X212155100Y-167977900D01*
X212155100Y-167977900D02*
X224529700Y-167977900D01*
X224529700Y-167977900D02*
X225146900Y-167360700D01*
X61540000Y-155440000D02*
X62665300Y-155440000D01*
X326272600Y-104205700D02*
X312145700Y-104205700D01*
X312145700Y-104205700D02*
X308540000Y-100600000D01*
X310125300Y-164200000D02*
X310679000Y-163646300D01*
X310679000Y-163646300D02*
X312455200Y-163646300D01*
X309000000Y-164200000D02*
X310125300Y-164200000D01*
X255165300Y-154920000D02*
X256110800Y-155865500D01*
X256110800Y-155865500D02*
X272865400Y-155865500D01*
X272865400Y-155865500D02*
X275538400Y-158538500D01*
X275538400Y-158538500D02*
X278253100Y-158538500D01*
X278253100Y-158538500D02*
X279858100Y-156933500D01*
X279858100Y-156933500D02*
X297278700Y-156933500D01*
X254040000Y-154920000D02*
X255165300Y-154920000D01*
X253477400Y-154920000D02*
X254040000Y-154920000D01*
X253477400Y-154920000D02*
X252914700Y-154920000D01*
X344610600Y-152915900D02*
X344544200Y-152849500D01*
X344544200Y-152849500D02*
X331054500Y-152849500D01*
X331054500Y-152849500D02*
X330057700Y-151852700D01*
X330057700Y-151852700D02*
X315675100Y-151852700D01*
X252914700Y-154920000D02*
X251785000Y-156049700D01*
X251785000Y-156049700D02*
X221895000Y-156049700D01*
X221895000Y-156049700D02*
X221165300Y-155320000D01*
X205700000Y-179740000D02*
X206825300Y-179740000D01*
X209281800Y-178970300D02*
X207595000Y-178970300D01*
X207595000Y-178970300D02*
X206825300Y-179740000D01*
X220040000Y-155320000D02*
X221165300Y-155320000D01*
X181415700Y-109525700D02*
X184873700Y-106067700D01*
X184873700Y-106067700D02*
X184873700Y-106067600D01*
X184873700Y-106067600D02*
X189674400Y-106067600D01*
X189674400Y-106067600D02*
X196341900Y-99400100D01*
X196341900Y-99400100D02*
X247813300Y-99400100D01*
X247813300Y-99400100D02*
X249683400Y-97530000D01*
X249683400Y-97530000D02*
X278711400Y-97530000D01*
X278711400Y-97530000D02*
X281649800Y-94591600D01*
X281649800Y-94591600D02*
X307489600Y-94591600D01*
X307489600Y-94591600D02*
X312500000Y-99602000D01*
X312500000Y-99602000D02*
X312500000Y-100600000D01*
X200539000Y-161269500D02*
X207311000Y-161269500D01*
X188140000Y-130520000D02*
X187014700Y-130520000D01*
X180383000Y-129163600D02*
X185658300Y-129163600D01*
X185658300Y-129163600D02*
X187014700Y-130520000D01*
X132325300Y-122320000D02*
X133450600Y-123445300D01*
X133450600Y-123445300D02*
X147560600Y-123445300D01*
X147560600Y-123445300D02*
X149672900Y-125557600D01*
X149672900Y-125557600D02*
X154221400Y-125557600D01*
X154221400Y-125557600D02*
X157827400Y-129163600D01*
X157827400Y-129163600D02*
X180383000Y-129163600D01*
X131200000Y-122320000D02*
X132325300Y-122320000D01*
X42377000Y-145022300D02*
X41577700Y-145022300D01*
X41577700Y-145022300D02*
X40300000Y-146300000D01*
X45174700Y-147820000D02*
X42377000Y-145022300D01*
X46300000Y-147820000D02*
X45174700Y-147820000D01*
X257159500Y-105811000D02*
X284149300Y-105811000D01*
X284149300Y-105811000D02*
X290483600Y-99476700D01*
X290483600Y-99476700D02*
X303456700Y-99476700D01*
X303456700Y-99476700D02*
X304580000Y-100600000D01*
X187174000Y-109125700D02*
X190596800Y-109125700D01*
X190596800Y-109125700D02*
X193911500Y-105811000D01*
X193911500Y-105811000D02*
X257159500Y-105811000D01*
X257159500Y-105811000D02*
X257159500Y-106343700D01*
X117422400Y-130367500D02*
X118975300Y-128814600D01*
X117422400Y-130450000D02*
X117422400Y-130367500D01*
X105825000Y-130450000D02*
X117422400Y-130450000D01*
X118975300Y-128814600D02*
X134009500Y-128814600D01*
X42377000Y-145022300D02*
X45784700Y-141614600D01*
X68031300Y-139631300D02*
X96643700Y-139631300D01*
X62155600Y-141614600D02*
X64569300Y-139200900D01*
X96643700Y-139631300D02*
X105825000Y-130450000D01*
X45784700Y-141614600D02*
X62155600Y-141614600D01*
X64569300Y-139200900D02*
X67600900Y-139200900D01*
X67600900Y-139200900D02*
X68031300Y-139631300D01*
X244292900Y-149103000D02*
X244692500Y-148703400D01*
X244692500Y-148703400D02*
X261301100Y-148703400D01*
X261301100Y-148703400D02*
X261434600Y-148836900D01*
X245305900Y-128742600D02*
X244233200Y-129815300D01*
X244233200Y-129815300D02*
X243703600Y-129815300D01*
X196722200Y-101190400D02*
X245088100Y-101190400D01*
X245088100Y-101190400D02*
X246422300Y-102524600D01*
X189594700Y-101500000D02*
X188436900Y-100342200D01*
X188436900Y-100342200D02*
X158142300Y-100342200D01*
X158142300Y-100342200D02*
X156800100Y-99000000D01*
X156800100Y-99000000D02*
X151800000Y-99000000D01*
X190720000Y-101500000D02*
X189594700Y-101500000D01*
X287020000Y-187260000D02*
X288145300Y-187260000D01*
X290394700Y-186764900D02*
X288640400Y-186764900D01*
X288640400Y-186764900D02*
X288145300Y-187260000D01*
X230821200Y-144234500D02*
X236401600Y-144234500D01*
X236401600Y-144234500D02*
X238208700Y-146041600D01*
X238208700Y-146041600D02*
X251641900Y-146041600D01*
X251641900Y-146041600D02*
X252630100Y-145053400D01*
X252630100Y-145053400D02*
X252630100Y-144506500D01*
X252630100Y-144506500D02*
X253555300Y-143581300D01*
X253555300Y-143581300D02*
X254965400Y-143581300D01*
X254965400Y-143581300D02*
X256736900Y-145352800D01*
X256736900Y-145352800D02*
X260330900Y-145352800D01*
X204800000Y-112140000D02*
X203674700Y-112140000D01*
X169117400Y-105400000D02*
X176735500Y-113018100D01*
X176735500Y-113018100D02*
X182505300Y-113018100D01*
X182505300Y-113018100D02*
X182917100Y-112606300D01*
X182917100Y-112606300D02*
X203208400Y-112606300D01*
X203208400Y-112606300D02*
X203674700Y-112140000D01*
X169117400Y-105400000D02*
X168554700Y-105400000D01*
X169680000Y-105400000D02*
X169117400Y-105400000D01*
X156800000Y-101500000D02*
X160725300Y-105425300D01*
X160725300Y-105425300D02*
X168529400Y-105425300D01*
X168529400Y-105425300D02*
X168554700Y-105400000D01*
X205925300Y-114680000D02*
X213049800Y-114680000D01*
X213049800Y-114680000D02*
X214464500Y-113265300D01*
X214464500Y-113265300D02*
X221713600Y-113265300D01*
X221713600Y-113265300D02*
X224386700Y-110592200D01*
X224386700Y-110592200D02*
X250439600Y-110592200D01*
X250439600Y-110592200D02*
X252531900Y-112684500D01*
X204800000Y-114680000D02*
X205925300Y-114680000D01*
X203674700Y-124840000D02*
X203674700Y-125344200D01*
X203674700Y-125344200D02*
X204295900Y-125965400D01*
X204295900Y-125965400D02*
X220676800Y-125965400D01*
X220676800Y-125965400D02*
X222827000Y-123815200D01*
X222827000Y-123815200D02*
X235698300Y-123815200D01*
X147565300Y-122320000D02*
X149278600Y-124033300D01*
X149278600Y-124033300D02*
X202868000Y-124033300D01*
X202868000Y-124033300D02*
X203674700Y-124840000D01*
X204800000Y-124840000D02*
X203674700Y-124840000D01*
X146440000Y-122320000D02*
X147565300Y-122320000D01*
X385200000Y-177660000D02*
X386464200Y-176395800D01*
X386464200Y-176395800D02*
X386464200Y-172563600D01*
X386464200Y-172563600D02*
X388281300Y-170746500D01*
X370516900Y-91695400D02*
X368797100Y-89975600D01*
X368797100Y-89975600D02*
X218734200Y-89975600D01*
X218734200Y-89975600D02*
X218503000Y-90206800D01*
X204800000Y-122300000D02*
X214013200Y-122300000D01*
X214013200Y-122300000D02*
X217678600Y-118634600D01*
X217678600Y-118634600D02*
X221098100Y-118634600D01*
X221098100Y-118634600D02*
X223335700Y-116397000D01*
X223335700Y-116397000D02*
X225717000Y-116397000D01*
X251140700Y-167871800D02*
X282224700Y-167871800D01*
X282224700Y-167871800D02*
X282499800Y-167596700D01*
X282499800Y-167596700D02*
X287902100Y-167596700D01*
X287902100Y-167596700D02*
X289225400Y-166273400D01*
X289225400Y-166273400D02*
X300465800Y-166273400D01*
X300465800Y-166273400D02*
X300465800Y-166273300D01*
X300465800Y-166273300D02*
X303890800Y-162848300D01*
X303890800Y-162848300D02*
X305238300Y-162848300D01*
X305238300Y-162848300D02*
X305310900Y-162920900D01*
X305310900Y-162920900D02*
X321772800Y-162920900D01*
X321772800Y-162920900D02*
X322187500Y-163335600D01*
X322187500Y-163335600D02*
X327156100Y-163335600D01*
X327156100Y-163335600D02*
X327817800Y-162673900D01*
X327817800Y-162673900D02*
X366974200Y-162673900D01*
X366974200Y-162673900D02*
X367256000Y-162955700D01*
X385200000Y-183200000D02*
X385200000Y-182074700D01*
X387447600Y-95429700D02*
X389022100Y-97004200D01*
X389022100Y-97004200D02*
X389022100Y-171045500D01*
X389022100Y-171045500D02*
X388557300Y-171510300D01*
X388557300Y-171510300D02*
X388375100Y-171510300D01*
X388375100Y-171510300D02*
X386914700Y-172970700D01*
X386914700Y-172970700D02*
X386914700Y-180360000D01*
X386914700Y-180360000D02*
X385200000Y-182074700D01*
X209981500Y-112783900D02*
X211951600Y-110813800D01*
X211951600Y-110813800D02*
X221346100Y-110813800D01*
X163600000Y-180040000D02*
X163600000Y-182580000D01*
X164725300Y-182580000D02*
X166031400Y-183886100D01*
X166031400Y-183886100D02*
X174851200Y-183886100D01*
X163600000Y-182580000D02*
X164725300Y-182580000D01*
X183045300Y-204300000D02*
X183245300Y-204500000D01*
X183245300Y-204500000D02*
X186100000Y-204500000D01*
X181920000Y-204300000D02*
X183045300Y-204300000D01*
X171220000Y-190200000D02*
X163600000Y-190200000D01*
X339220000Y-111600000D02*
X338094700Y-111600000D01*
X338094700Y-111600000D02*
X335469300Y-108974600D01*
X335469300Y-108974600D02*
X301920600Y-108974600D01*
X301920600Y-108974600D02*
X301280500Y-109614700D01*
X301280500Y-109614700D02*
X301280500Y-112380500D01*
X301280500Y-112380500D02*
X302300000Y-113400000D01*
X302420000Y-110100000D02*
X303545300Y-110100000D01*
X303545300Y-110100000D02*
X334054700Y-110100000D01*
X334054700Y-110100000D02*
X338094700Y-114140000D01*
X339220000Y-114140000D02*
X338094700Y-114140000D01*
X339220000Y-117805300D02*
X339501300Y-117805300D01*
X339501300Y-117805300D02*
X340355400Y-118659400D01*
X340355400Y-118659400D02*
X340355400Y-119748200D01*
X340355400Y-119748200D02*
X339395900Y-120707700D01*
X339395900Y-120707700D02*
X337293500Y-120707700D01*
X337293500Y-120707700D02*
X336609000Y-121392200D01*
X336609000Y-121392200D02*
X304437500Y-121392200D01*
X304437500Y-121392200D02*
X303545300Y-120500000D01*
X302420000Y-120500000D02*
X303545300Y-120500000D01*
X339220000Y-116680000D02*
X339220000Y-117805300D01*
X302420000Y-117100000D02*
X303545300Y-117100000D01*
X339220000Y-119220000D02*
X337084500Y-119220000D01*
X337084500Y-119220000D02*
X335487600Y-120816900D01*
X335487600Y-120816900D02*
X328657900Y-120816900D01*
X328657900Y-120816900D02*
X326791000Y-118950000D01*
X326791000Y-118950000D02*
X305395300Y-118950000D01*
X305395300Y-118950000D02*
X303545300Y-117100000D01*
X370600000Y-136900000D02*
X373017700Y-136900000D01*
X373017700Y-136900000D02*
X386851400Y-123066300D01*
X386851400Y-123066300D02*
X386851400Y-97348200D01*
X386851400Y-97348200D02*
X377870100Y-88366900D01*
X377870100Y-88366900D02*
X167409000Y-88366900D01*
X167409000Y-88366900D02*
X163301300Y-92474600D01*
X163301300Y-92474600D02*
X133848900Y-92474600D01*
X133848900Y-92474600D02*
X125205400Y-101118100D01*
X125205400Y-101118100D02*
X89511000Y-101118100D01*
X89511000Y-101118100D02*
X88064500Y-102564600D01*
X62620000Y-122600000D02*
X63745300Y-122600000D01*
X63745300Y-122600000D02*
X68388200Y-117957100D01*
X68388200Y-117957100D02*
X78196200Y-117957100D01*
X62665300Y-147820000D02*
X65345300Y-150500000D01*
X65345300Y-150500000D02*
X66900000Y-150500000D01*
X61540000Y-147820000D02*
X62665300Y-147820000D01*
X331600000Y-119220000D02*
X331600000Y-118094700D01*
X310100000Y-112600000D02*
X311225300Y-112600000D01*
X311225300Y-112600000D02*
X312385700Y-111439600D01*
X312385700Y-111439600D02*
X328411200Y-111439600D01*
X328411200Y-111439600D02*
X329697000Y-112725400D01*
X329697000Y-112725400D02*
X331780000Y-112725400D01*
X331780000Y-112725400D02*
X332725300Y-113670700D01*
X332725300Y-113670700D02*
X332725300Y-117250800D01*
X332725300Y-117250800D02*
X331881400Y-118094700D01*
X331881400Y-118094700D02*
X331600000Y-118094700D01*
X310100000Y-115140000D02*
X311225300Y-115140000D01*
X331600000Y-116680000D02*
X330474700Y-116680000D01*
X330474700Y-116680000D02*
X330060000Y-116265300D01*
X330060000Y-116265300D02*
X312350600Y-116265300D01*
X312350600Y-116265300D02*
X311225300Y-115140000D01*
X308974700Y-115542400D02*
X270731900Y-115542400D01*
X270731900Y-115542400D02*
X268337900Y-113148400D01*
X268337900Y-113148400D02*
X253362900Y-113148400D01*
X253362900Y-113148400D02*
X252666300Y-113845000D01*
X252666300Y-113845000D02*
X248577900Y-113845000D01*
X308974700Y-115542400D02*
X308974700Y-115606200D01*
X308974700Y-115606200D02*
X309633800Y-116265300D01*
X309633800Y-116265300D02*
X310323900Y-116265300D01*
X310323900Y-116265300D02*
X311225300Y-117166700D01*
X311225300Y-117166700D02*
X311225300Y-117680000D01*
X330474700Y-114140000D02*
X330310800Y-113976100D01*
X330310800Y-113976100D02*
X309672400Y-113976100D01*
X309672400Y-113976100D02*
X308974700Y-114673800D01*
X308974700Y-114673800D02*
X308974700Y-115542400D01*
X331600000Y-114140000D02*
X330474700Y-114140000D01*
X310100000Y-117680000D02*
X311225300Y-117680000D01*
X330474700Y-111600000D02*
X329863900Y-110989200D01*
X329863900Y-110989200D02*
X308367600Y-110989200D01*
X331600000Y-111600000D02*
X330474700Y-111600000D01*
X351200000Y-131900000D02*
X350074700Y-131900000D01*
X257723400Y-124494700D02*
X258281400Y-123936700D01*
X258281400Y-123936700D02*
X288579900Y-123936700D01*
X288579900Y-123936700D02*
X290105700Y-125462500D01*
X290105700Y-125462500D02*
X325563600Y-125462500D01*
X325563600Y-125462500D02*
X328826500Y-128725400D01*
X328826500Y-128725400D02*
X330756800Y-128725400D01*
X330756800Y-128725400D02*
X335881600Y-133850200D01*
X335881600Y-133850200D02*
X348124500Y-133850200D01*
X348124500Y-133850200D02*
X350074700Y-131900000D01*
X245225900Y-131888100D02*
X251676600Y-131888100D01*
X251676600Y-131888100D02*
X252630100Y-130934600D01*
X252630100Y-130934600D02*
X256138500Y-130934600D01*
X256138500Y-130934600D02*
X257695700Y-129377400D01*
X256100400Y-150954100D02*
X260343200Y-150954100D01*
X260343200Y-150954100D02*
X262087300Y-149210000D01*
X262087300Y-149210000D02*
X283658400Y-149210000D01*
X283658400Y-149210000D02*
X286743100Y-146125300D01*
X286743100Y-146125300D02*
X315169400Y-146125300D01*
X315169400Y-146125300D02*
X316294700Y-145000000D01*
X246218500Y-174742900D02*
X247182400Y-174742900D01*
X247182400Y-174742900D02*
X248064400Y-173860900D01*
X248064400Y-173860900D02*
X258669200Y-173860900D01*
X258669200Y-173860900D02*
X258856000Y-174047700D01*
X317420000Y-145000000D02*
X316294700Y-145000000D01*
X187200000Y-179440000D02*
X188325300Y-179440000D01*
X243900000Y-190240000D02*
X238963300Y-190240000D01*
X238963300Y-190240000D02*
X234541000Y-185817700D01*
X234541000Y-185817700D02*
X214122500Y-185817700D01*
X214122500Y-185817700D02*
X213986400Y-185953800D01*
X213986400Y-185953800D02*
X200032900Y-185953800D01*
X200032900Y-185953800D02*
X197329100Y-183250000D01*
X197329100Y-183250000D02*
X192135300Y-183250000D01*
X192135300Y-183250000D02*
X188325300Y-179440000D01*
X335794700Y-181580000D02*
X334650100Y-181580000D01*
X334650100Y-181580000D02*
X333524800Y-182705300D01*
X333524800Y-182705300D02*
X319560000Y-182705300D01*
X319560000Y-182705300D02*
X318954800Y-183310500D01*
X318954800Y-183310500D02*
X285100000Y-183310500D01*
X285100000Y-183310500D02*
X282420500Y-185990000D01*
X282420500Y-185990000D02*
X278869800Y-185990000D01*
X278869800Y-185990000D02*
X276699200Y-188160600D01*
X276699200Y-188160600D02*
X270268600Y-188160600D01*
X270268600Y-188160600D02*
X269675300Y-188753900D01*
X269675300Y-188753900D02*
X253699200Y-188753900D01*
X253699200Y-188753900D02*
X252645300Y-187700000D01*
X336920000Y-181580000D02*
X335794700Y-181580000D01*
X251520000Y-187700000D02*
X252645300Y-187700000D01*
X242774700Y-180080000D02*
X242308200Y-179613500D01*
X242308200Y-179613500D02*
X236750700Y-179613500D01*
X236750700Y-179613500D02*
X232342800Y-175205600D01*
X232342800Y-175205600D02*
X181035200Y-175205600D01*
X181035200Y-175205600D02*
X180424100Y-175816700D01*
X180424100Y-175816700D02*
X161687800Y-175816700D01*
X161687800Y-175816700D02*
X150276600Y-187227900D01*
X150276600Y-187227900D02*
X141577400Y-187227900D01*
X141577400Y-187227900D02*
X138745300Y-190060000D01*
X62665300Y-178300000D02*
X64395300Y-180030000D01*
X64395300Y-180030000D02*
X78779800Y-180030000D01*
X78779800Y-180030000D02*
X81464400Y-182714600D01*
X81464400Y-182714600D02*
X91307200Y-182714600D01*
X91307200Y-182714600D02*
X93003200Y-184410600D01*
X93003200Y-184410600D02*
X117328600Y-184410600D01*
X117328600Y-184410600D02*
X117611100Y-184693100D01*
X117611100Y-184693100D02*
X124094500Y-184693100D01*
X124094500Y-184693100D02*
X124933000Y-183854600D01*
X124933000Y-183854600D02*
X132226000Y-183854600D01*
X243900000Y-180080000D02*
X242774700Y-180080000D01*
X257012300Y-183745400D02*
X250822300Y-183745400D01*
X250822300Y-183745400D02*
X247156900Y-180080000D01*
X247156900Y-180080000D02*
X243900000Y-180080000D01*
X137620000Y-190060000D02*
X138745300Y-190060000D01*
X61540000Y-178300000D02*
X62665300Y-178300000D01*
X243900000Y-177540000D02*
X235314100Y-177540000D01*
X235314100Y-177540000D02*
X232529400Y-174755300D01*
X232529400Y-174755300D02*
X180848500Y-174755300D01*
X180848500Y-174755300D02*
X180237400Y-175366400D01*
X180237400Y-175366400D02*
X161475900Y-175366400D01*
X161475900Y-175366400D02*
X150169700Y-186672600D01*
X150169700Y-186672600D02*
X139592700Y-186672600D01*
X139592700Y-186672600D02*
X138745300Y-187520000D01*
X79573300Y-187650000D02*
X90740900Y-187650000D01*
X90740900Y-187650000D02*
X92755900Y-189665000D01*
X92755900Y-189665000D02*
X112467500Y-189665000D01*
X112467500Y-189665000D02*
X113167100Y-190364600D01*
X113167100Y-190364600D02*
X119322900Y-190364600D01*
X119322900Y-190364600D02*
X120847900Y-188839600D01*
X120847900Y-188839600D02*
X135175100Y-188839600D01*
X135175100Y-188839600D02*
X136494700Y-187520000D01*
X245025300Y-177540000D02*
X245091500Y-177606200D01*
X245091500Y-177606200D02*
X247730900Y-177606200D01*
X247730900Y-177606200D02*
X248903400Y-178778700D01*
X248903400Y-178778700D02*
X248903400Y-179054900D01*
X248903400Y-179054900D02*
X251053800Y-181205300D01*
X251053800Y-181205300D02*
X256020000Y-181205300D01*
X256020000Y-181205300D02*
X259874700Y-185060000D01*
X137620000Y-187520000D02*
X138745300Y-187520000D01*
X244462700Y-177540000D02*
X243900000Y-177540000D01*
X62665300Y-180840000D02*
X69408300Y-187583000D01*
X69408300Y-187583000D02*
X75842500Y-187583000D01*
X137620000Y-187520000D02*
X136494700Y-187520000D01*
X61540000Y-180840000D02*
X62665300Y-180840000D01*
X244462700Y-177540000D02*
X245025300Y-177540000D01*
X261000000Y-185060000D02*
X259874700Y-185060000D01*
X311122000Y-168010000D02*
X307734700Y-168010000D01*
X307734700Y-168010000D02*
X307147000Y-168597700D01*
X307147000Y-168597700D02*
X294365300Y-168597700D01*
X251520000Y-192780000D02*
X252645300Y-192780000D01*
X252645300Y-192780000D02*
X254085300Y-191340000D01*
X254085300Y-191340000D02*
X273684700Y-191340000D01*
X273684700Y-191340000D02*
X273954700Y-191070000D01*
X273954700Y-191070000D02*
X290535200Y-191070000D01*
X250957400Y-192780000D02*
X251520000Y-192780000D01*
X188325300Y-176900000D02*
X189450600Y-178025300D01*
X189450600Y-178025300D02*
X199762100Y-178025300D01*
X199762100Y-178025300D02*
X200111700Y-178374900D01*
X200111700Y-178374900D02*
X208851500Y-178374900D01*
X208851500Y-178374900D02*
X208981400Y-178245000D01*
X208981400Y-178245000D02*
X209582300Y-178245000D01*
X209582300Y-178245000D02*
X209712200Y-178374900D01*
X209712200Y-178374900D02*
X215475200Y-178374900D01*
X215475200Y-178374900D02*
X217854900Y-180754600D01*
X217854900Y-180754600D02*
X237443900Y-180754600D01*
X237443900Y-180754600D02*
X240852800Y-184163500D01*
X240852800Y-184163500D02*
X240852800Y-184285300D01*
X240852800Y-184285300D02*
X242997500Y-186430000D01*
X242997500Y-186430000D02*
X244278000Y-186430000D01*
X244278000Y-186430000D02*
X250394700Y-192546700D01*
X250394700Y-192546700D02*
X250394700Y-192780000D01*
X250957400Y-192780000D02*
X250394700Y-192780000D01*
X187200000Y-176900000D02*
X188325300Y-176900000D01*
X325263900Y-156980800D02*
X313695300Y-156980800D01*
X313695300Y-156980800D02*
X313232100Y-157444000D01*
X313232100Y-157444000D02*
X308211500Y-157444000D01*
X308211500Y-157444000D02*
X308141600Y-157374100D01*
X308141600Y-157374100D02*
X299670500Y-157374100D01*
X299670500Y-157374100D02*
X299263200Y-157781400D01*
X299263200Y-157781400D02*
X280462000Y-157781400D01*
X280462000Y-157781400D02*
X278907900Y-159335500D01*
X350274700Y-119980000D02*
X345800500Y-115505800D01*
X345800500Y-115505800D02*
X338400200Y-115505800D01*
X338400200Y-115505800D02*
X333560700Y-120345300D01*
X333560700Y-120345300D02*
X329651000Y-120345300D01*
X329651000Y-120345300D02*
X329383300Y-120077600D01*
X351400000Y-119980000D02*
X350274700Y-119980000D01*
X287036000Y-174407000D02*
X285278800Y-172649800D01*
X285278800Y-172649800D02*
X281113000Y-172649800D01*
X281113000Y-172649800D02*
X280839500Y-172376300D01*
X280839500Y-172376300D02*
X247638300Y-172376300D01*
X247638300Y-172376300D02*
X247339200Y-172675400D01*
X247339200Y-172675400D02*
X233634000Y-172675400D01*
X233634000Y-172675400D02*
X232567900Y-171609300D01*
X232567900Y-171609300D02*
X229264700Y-171609300D01*
X229264700Y-171609300D02*
X228539400Y-172334600D01*
X241578100Y-183984900D02*
X246378500Y-183984900D01*
X246378500Y-183984900D02*
X248746400Y-186352800D01*
X248746400Y-186352800D02*
X273809700Y-186352800D01*
X273809700Y-186352800D02*
X277982500Y-182180000D01*
X277982500Y-182180000D02*
X278274700Y-182180000D01*
X205700000Y-187360000D02*
X196901200Y-187360000D01*
X196901200Y-187360000D02*
X195471100Y-185929900D01*
X195471100Y-185929900D02*
X172350100Y-185929900D01*
X172350100Y-185929900D02*
X171745400Y-186534600D01*
X171745400Y-186534600D02*
X161049600Y-186534600D01*
X161049600Y-186534600D02*
X159657200Y-187927000D01*
X159657200Y-187927000D02*
X145244700Y-187927000D01*
X145244700Y-187927000D02*
X145197100Y-187974600D01*
X335234800Y-183132300D02*
X330556400Y-187810700D01*
X330556400Y-187810700D02*
X328765300Y-187810700D01*
X328765300Y-187810700D02*
X328715500Y-187760900D01*
X328715500Y-187760900D02*
X326797500Y-187760900D01*
X326797500Y-187760900D02*
X325825000Y-188733400D01*
X325825000Y-188733400D02*
X319595700Y-188733400D01*
X319595700Y-188733400D02*
X319061400Y-188199100D01*
X319061400Y-188199100D02*
X306304400Y-188199100D01*
X306304400Y-188199100D02*
X303964400Y-185859100D01*
X303964400Y-185859100D02*
X286530100Y-185859100D01*
X286530100Y-185859100D02*
X285391400Y-184720400D01*
X285391400Y-184720400D02*
X285391400Y-184103400D01*
X336920000Y-166340000D02*
X338045300Y-166340000D01*
X340546900Y-166294300D02*
X338091000Y-166294300D01*
X338091000Y-166294300D02*
X338045300Y-166340000D01*
X279400000Y-182180000D02*
X278274700Y-182180000D01*
X140720700Y-181889400D02*
X139295900Y-181889400D01*
X139295900Y-181889400D02*
X138745300Y-182440000D01*
X137620000Y-182440000D02*
X138745300Y-182440000D01*
X369474700Y-144520000D02*
X368349400Y-143394700D01*
X368349400Y-143394700D02*
X339882000Y-143394700D01*
X370600000Y-144520000D02*
X369474700Y-144520000D01*
X287020000Y-189800000D02*
X288145300Y-189800000D01*
X290982600Y-189485300D02*
X288460000Y-189485300D01*
X288460000Y-189485300D02*
X288145300Y-189800000D01*
X238800000Y-154920000D02*
X251504700Y-154920000D01*
X251504700Y-154920000D02*
X252681700Y-153743000D01*
X252681700Y-153743000D02*
X255209600Y-153743000D01*
X255209600Y-153743000D02*
X256606800Y-155140200D01*
X256606800Y-155140200D02*
X273020600Y-155140200D01*
X221165300Y-152780000D02*
X222154900Y-153769600D01*
X222154900Y-153769600D02*
X251525100Y-153769600D01*
X251525100Y-153769600D02*
X252914700Y-152380000D01*
X220040000Y-152780000D02*
X221165300Y-152780000D01*
X254040000Y-152380000D02*
X252914700Y-152380000D01*
X46300000Y-145280000D02*
X47425300Y-145280000D01*
X205700000Y-182280000D02*
X204574700Y-182280000D01*
X161797600Y-177769800D02*
X162717400Y-178689600D01*
X162717400Y-178689600D02*
X171970400Y-178689600D01*
X171970400Y-178689600D02*
X172353200Y-178306800D01*
X172353200Y-178306800D02*
X187829000Y-178306800D01*
X187829000Y-178306800D02*
X190087600Y-180565400D01*
X190087600Y-180565400D02*
X202860100Y-180565400D01*
X202860100Y-180565400D02*
X204574700Y-182280000D01*
X108278900Y-168685900D02*
X110700200Y-168685900D01*
X110700200Y-168685900D02*
X111119700Y-169105400D01*
X111119700Y-169105400D02*
X120115500Y-169105400D01*
X120115500Y-169105400D02*
X124332900Y-173322800D01*
X124332900Y-173322800D02*
X132415600Y-173322800D01*
X132415600Y-173322800D02*
X133092900Y-172645500D01*
X133092900Y-172645500D02*
X156528900Y-172645500D01*
X47425300Y-145280000D02*
X48563500Y-146418200D01*
X48563500Y-146418200D02*
X70366700Y-146418200D01*
X70366700Y-146418200D02*
X73985100Y-142799800D01*
X73985100Y-142799800D02*
X100980200Y-142799800D01*
X100980200Y-142799800D02*
X100980200Y-142799900D01*
X100980200Y-142799900D02*
X101273900Y-143093600D01*
X89565300Y-171140000D02*
X90086600Y-171661300D01*
X90086600Y-171661300D02*
X115904200Y-171661300D01*
X115904200Y-171661300D02*
X118551600Y-174308700D01*
X118551600Y-174308700D02*
X139674100Y-174308700D01*
X139674100Y-174308700D02*
X140417600Y-173565200D01*
X140417600Y-173565200D02*
X155786000Y-173565200D01*
X155786000Y-173565200D02*
X156041900Y-173821100D01*
X156041900Y-173821100D02*
X157016000Y-173821100D01*
X157016000Y-173821100D02*
X157271900Y-173565200D01*
X157271900Y-173565200D02*
X179491000Y-173565200D01*
X179491000Y-173565200D02*
X180102100Y-172954100D01*
X180102100Y-172954100D02*
X180738900Y-172954100D01*
X180738900Y-172954100D02*
X181563600Y-172129400D01*
X181563600Y-172129400D02*
X181563600Y-171773700D01*
X88440000Y-171140000D02*
X89565300Y-171140000D01*
X133355800Y-160155500D02*
X133528300Y-159983000D01*
X133528300Y-159983000D02*
X138421900Y-159983000D01*
X138421900Y-159983000D02*
X142741900Y-164303000D01*
X142741900Y-164303000D02*
X183929400Y-164303000D01*
X183929400Y-164303000D02*
X186153600Y-166527200D01*
X186153600Y-166527200D02*
X213947100Y-166527200D01*
X213947100Y-166527200D02*
X215402600Y-165071700D01*
X215402600Y-165071700D02*
X241173900Y-165071700D01*
X241173900Y-165071700D02*
X241334100Y-164911500D01*
X241334100Y-164911500D02*
X242682600Y-164911500D01*
X242682600Y-164911500D02*
X243158700Y-164435400D01*
X243158700Y-164435400D02*
X276612900Y-164435400D01*
X276612900Y-164435400D02*
X276741400Y-164563900D01*
X276741400Y-164563900D02*
X281074300Y-164563900D01*
X281074300Y-164563900D02*
X281202800Y-164435400D01*
X281202800Y-164435400D02*
X285968200Y-164435400D01*
X285968200Y-164435400D02*
X287881700Y-162521900D01*
X287881700Y-162521900D02*
X298959200Y-162521900D01*
X298959200Y-162521900D02*
X299217600Y-162263500D01*
X99400000Y-158945300D02*
X99118700Y-158945300D01*
X99118700Y-158945300D02*
X98264000Y-159800000D01*
X98264000Y-159800000D02*
X98264000Y-160879700D01*
X98264000Y-160879700D02*
X99042300Y-161658000D01*
X99042300Y-161658000D02*
X123056900Y-161658000D01*
X377094700Y-147060000D02*
X375955100Y-145920400D01*
X375955100Y-145920400D02*
X350659600Y-145920400D01*
X350659600Y-145920400D02*
X349930000Y-146650000D01*
X349930000Y-146650000D02*
X320661100Y-146650000D01*
X378220000Y-147060000D02*
X377094700Y-147060000D01*
X99400000Y-157820000D02*
X99400000Y-158945300D01*
X223900000Y-189500000D02*
X222774700Y-189500000D01*
X205700000Y-189900000D02*
X206825300Y-189900000D01*
X206825300Y-189900000D02*
X207964300Y-188761000D01*
X207964300Y-188761000D02*
X222035700Y-188761000D01*
X222035700Y-188761000D02*
X222774700Y-189500000D01*
X223900000Y-181880000D02*
X222774700Y-181880000D01*
X205700000Y-184820000D02*
X206825300Y-184820000D01*
X206825300Y-184820000D02*
X207950600Y-183694700D01*
X207950600Y-183694700D02*
X220960000Y-183694700D01*
X220960000Y-183694700D02*
X222774700Y-181880000D01*
X347811500Y-149735300D02*
X349136800Y-148410000D01*
X349136800Y-148410000D02*
X368124700Y-148410000D01*
X368124700Y-148410000D02*
X369474700Y-147060000D01*
X347811500Y-149735300D02*
X347125400Y-149049200D01*
X347125400Y-149049200D02*
X320054500Y-149049200D01*
X320054500Y-149049200D02*
X318545300Y-147540000D01*
X370600000Y-147060000D02*
X369474700Y-147060000D01*
X317420000Y-147540000D02*
X318545300Y-147540000D01*
X335794700Y-184120000D02*
X331653700Y-188261000D01*
X331653700Y-188261000D02*
X328578700Y-188261000D01*
X328578700Y-188261000D02*
X328528900Y-188211200D01*
X328528900Y-188211200D02*
X327038500Y-188211200D01*
X327038500Y-188211200D02*
X326066000Y-189183700D01*
X326066000Y-189183700D02*
X319409000Y-189183700D01*
X319409000Y-189183700D02*
X318874800Y-188649500D01*
X318874800Y-188649500D02*
X271235800Y-188649500D01*
X271235800Y-188649500D02*
X269745300Y-190140000D01*
X268620000Y-190140000D02*
X269745300Y-190140000D01*
X336920000Y-184120000D02*
X335794700Y-184120000D01*
X115765300Y-170520000D02*
X119018500Y-173773200D01*
X119018500Y-173773200D02*
X133239100Y-173773200D01*
X133239100Y-173773200D02*
X133897400Y-173114900D01*
X133897400Y-173114900D02*
X155972600Y-173114900D01*
X155972600Y-173114900D02*
X156228500Y-173370800D01*
X156228500Y-173370800D02*
X156829400Y-173370800D01*
X156829400Y-173370800D02*
X157085300Y-173114900D01*
X157085300Y-173114900D02*
X179304400Y-173114900D01*
X179304400Y-173114900D02*
X180190600Y-172228700D01*
X180190600Y-172228700D02*
X180407300Y-172228700D01*
X114640000Y-170520000D02*
X115765300Y-170520000D01*
X218722600Y-156590000D02*
X231092500Y-156590000D01*
X231092500Y-156590000D02*
X234603000Y-160100500D01*
X234603000Y-160100500D02*
X239139200Y-160100500D01*
X239139200Y-160100500D02*
X239281500Y-159958200D01*
X239281500Y-159958200D02*
X240630000Y-159958200D01*
X240630000Y-159958200D02*
X241780000Y-158808200D01*
X241780000Y-158808200D02*
X249397100Y-158808200D01*
X249397100Y-158808200D02*
X250508600Y-159919700D01*
X250508600Y-159919700D02*
X278466200Y-159919700D01*
X278466200Y-159919700D02*
X278607400Y-160060900D01*
X278607400Y-160060900D02*
X279208300Y-160060900D01*
X279208300Y-160060900D02*
X280106600Y-159162600D01*
X280106600Y-159162600D02*
X282296800Y-159162600D01*
X185553500Y-170278200D02*
X184737500Y-169462200D01*
X184737500Y-169462200D02*
X144302900Y-169462200D01*
X144302900Y-169462200D02*
X142855700Y-170909400D01*
X142855700Y-170909400D02*
X132731800Y-170909400D01*
X132731800Y-170909400D02*
X131944800Y-171696400D01*
X131944800Y-171696400D02*
X127647900Y-171696400D01*
X127647900Y-171696400D02*
X124893300Y-168941800D01*
X190895900Y-158258400D02*
X192564300Y-156590000D01*
X192564300Y-156590000D02*
X218722600Y-156590000D01*
X307874700Y-171820000D02*
X307729100Y-171674400D01*
X307729100Y-171674400D02*
X290316100Y-171674400D01*
X290316100Y-171674400D02*
X290041000Y-171399300D01*
X309000000Y-171820000D02*
X307874700Y-171820000D01*
X113120200Y-148783300D02*
X122459000Y-148783300D01*
X122459000Y-148783300D02*
X123935700Y-150260000D01*
X123935700Y-150260000D02*
X131200000Y-150260000D01*
X99400000Y-183220000D02*
X103597300Y-183220000D01*
X103597300Y-183220000D02*
X106209100Y-180608200D01*
X307874700Y-169280000D02*
X307831600Y-169323100D01*
X307831600Y-169323100D02*
X290822800Y-169323100D01*
X290822800Y-169323100D02*
X290547700Y-169048000D01*
X160123100Y-134327600D02*
X199225500Y-134327600D01*
X199225500Y-134327600D02*
X202507800Y-131045300D01*
X202507800Y-131045300D02*
X217789400Y-131045300D01*
X217789400Y-131045300D02*
X218914700Y-129920000D01*
X254040000Y-129520000D02*
X252914700Y-129520000D01*
X219477400Y-129920000D02*
X220202700Y-130645300D01*
X220202700Y-130645300D02*
X251789400Y-130645300D01*
X251789400Y-130645300D02*
X252914700Y-129520000D01*
X219477400Y-129920000D02*
X218914700Y-129920000D01*
X220040000Y-129920000D02*
X219477400Y-129920000D01*
X131200000Y-150260000D02*
X139504900Y-150260000D01*
X139504900Y-150260000D02*
X140108500Y-150863600D01*
X309000000Y-169280000D02*
X307874700Y-169280000D01*
X122308000Y-181870500D02*
X108497200Y-181870500D01*
X108497200Y-181870500D02*
X106509600Y-179882900D01*
X106509600Y-179882900D02*
X101322400Y-179882900D01*
X101322400Y-179882900D02*
X100525300Y-180680000D01*
X307874700Y-166740000D02*
X306742300Y-167872400D01*
X306742300Y-167872400D02*
X293989900Y-167872400D01*
X293989900Y-167872400D02*
X293364900Y-168497400D01*
X309000000Y-166740000D02*
X307874700Y-166740000D01*
X132325300Y-152800000D02*
X133515900Y-153990600D01*
X133515900Y-153990600D02*
X166668400Y-153990600D01*
X166668400Y-153990600D02*
X168629400Y-152029600D01*
X168629400Y-152029600D02*
X179472300Y-152029600D01*
X179472300Y-152029600D02*
X180159200Y-151342700D01*
X183360700Y-133602300D02*
X184580200Y-133602300D01*
X184580200Y-133602300D02*
X186392500Y-131790000D01*
X186392500Y-131790000D02*
X199138000Y-131790000D01*
X199138000Y-131790000D02*
X202219300Y-128708700D01*
X202219300Y-128708700D02*
X217586000Y-128708700D01*
X131200000Y-152800000D02*
X132325300Y-152800000D01*
X252914700Y-126980000D02*
X243863400Y-126980000D01*
X243863400Y-126980000D02*
X242724400Y-128119000D01*
X242724400Y-128119000D02*
X221904300Y-128119000D01*
X221904300Y-128119000D02*
X221165300Y-127380000D01*
X99400000Y-180680000D02*
X100525300Y-180680000D01*
X254040000Y-126980000D02*
X252914700Y-126980000D01*
X220040000Y-127380000D02*
X221165300Y-127380000D01*
X377094700Y-149600000D02*
X375962200Y-150732500D01*
X375962200Y-150732500D02*
X361592600Y-150732500D01*
X361592600Y-150732500D02*
X361415800Y-150555700D01*
X361415800Y-150555700D02*
X359622400Y-150555700D01*
X359622400Y-150555700D02*
X359308100Y-150870000D01*
X359308100Y-150870000D02*
X353418600Y-150870000D01*
X353418600Y-150870000D02*
X352169800Y-152118800D01*
X352169800Y-152118800D02*
X333033400Y-152118800D01*
X329300000Y-179040000D02*
X331959000Y-179040000D01*
X331959000Y-179040000D02*
X332363100Y-178635900D01*
X378220000Y-149600000D02*
X377094700Y-149600000D01*
X257132600Y-123506300D02*
X256474100Y-122847800D01*
X256474100Y-122847800D02*
X254890000Y-122847800D01*
X254890000Y-122847800D02*
X254669100Y-123068700D01*
X254669100Y-123068700D02*
X222936600Y-123068700D01*
X222936600Y-123068700D02*
X222559100Y-123446200D01*
X222559100Y-123446200D02*
X194934500Y-123446200D01*
X194934500Y-123446200D02*
X193253200Y-121764900D01*
X193253200Y-121764900D02*
X163778800Y-121764900D01*
X248350200Y-161334700D02*
X242438000Y-161334700D01*
X242438000Y-161334700D02*
X241563000Y-162209700D01*
X241563000Y-162209700D02*
X240214500Y-162209700D01*
X240214500Y-162209700D02*
X240054300Y-162369900D01*
X240054300Y-162369900D02*
X214283000Y-162369900D01*
X214283000Y-162369900D02*
X212827500Y-163825400D01*
X212827500Y-163825400D02*
X187273200Y-163825400D01*
X187273200Y-163825400D02*
X184405100Y-160957300D01*
X184405100Y-160957300D02*
X174619400Y-160957300D01*
X174619400Y-160957300D02*
X173444000Y-162132700D01*
X173444000Y-162132700D02*
X172212900Y-162132700D01*
X172212900Y-162132700D02*
X167255200Y-157175000D01*
X167255200Y-157175000D02*
X166924300Y-157175000D01*
X246174500Y-142075300D02*
X251733700Y-142075300D01*
X251733700Y-142075300D02*
X252765500Y-141043500D01*
X252765500Y-141043500D02*
X254720200Y-141043500D01*
X254720200Y-141043500D02*
X256536700Y-142860000D01*
X256536700Y-142860000D02*
X268000000Y-142860000D01*
X99400000Y-178140000D02*
X100525300Y-178140000D01*
X100525300Y-178140000D02*
X101715900Y-179330600D01*
X101715900Y-179330600D02*
X115211600Y-179330600D01*
X115211600Y-179330600D02*
X115767600Y-178774600D01*
X115767600Y-178774600D02*
X140033500Y-178774600D01*
X140033500Y-178774600D02*
X142246900Y-176561200D01*
X268000000Y-142860000D02*
X279317000Y-142860000D01*
X279317000Y-142860000D02*
X280587000Y-141590000D01*
X280587000Y-141590000D02*
X285399800Y-141590000D01*
X285399800Y-141590000D02*
X287458200Y-139531600D01*
X294349200Y-126321500D02*
X325556200Y-126321500D01*
X325556200Y-126321500D02*
X329374700Y-130140000D01*
X330500000Y-130140000D02*
X329374700Y-130140000D01*
X114640000Y-162900000D02*
X124868800Y-162900000D01*
X124868800Y-162900000D02*
X130614600Y-168645800D01*
X130614600Y-168645800D02*
X131772900Y-168645800D01*
X131772900Y-168645800D02*
X132476100Y-167942600D01*
X132476100Y-167942600D02*
X132476100Y-165827700D01*
X132476100Y-165827700D02*
X130069600Y-163421200D01*
X130069600Y-163421200D02*
X130069600Y-162434200D01*
X130069600Y-162434200D02*
X130840300Y-161663500D01*
X130840300Y-161663500D02*
X137166200Y-161663500D01*
X137166200Y-161663500D02*
X138121400Y-160708300D01*
X284365300Y-127620000D02*
X284700100Y-127954800D01*
X284700100Y-127954800D02*
X324363300Y-127954800D01*
X283240000Y-127620000D02*
X284365300Y-127620000D01*
X222475100Y-126316700D02*
X222944700Y-125847100D01*
X222944700Y-125847100D02*
X260452300Y-125847100D01*
X260452300Y-125847100D02*
X261091900Y-126486700D01*
X261091900Y-126486700D02*
X270213700Y-126486700D01*
X270213700Y-126486700D02*
X271347000Y-127620000D01*
X271347000Y-127620000D02*
X283240000Y-127620000D01*
X188140000Y-135600000D02*
X189265300Y-135600000D01*
X189265300Y-135600000D02*
X189865400Y-134999900D01*
X189865400Y-134999900D02*
X201674800Y-134999900D01*
X201674800Y-134999900D02*
X202944700Y-133730000D01*
X202944700Y-133730000D02*
X213694700Y-133730000D01*
X187577400Y-135600000D02*
X188140000Y-135600000D01*
X187577400Y-135600000D02*
X187014700Y-135600000D01*
X152303900Y-136951100D02*
X176834900Y-136951100D01*
X176834900Y-136951100D02*
X178186000Y-135600000D01*
X178186000Y-135600000D02*
X187014700Y-135600000D01*
X146440000Y-160420000D02*
X156473100Y-160420000D01*
X156473100Y-160420000D02*
X159905800Y-163852700D01*
X159905800Y-163852700D02*
X184116000Y-163852700D01*
X184116000Y-163852700D02*
X186340200Y-166076900D01*
X186340200Y-166076900D02*
X213760500Y-166076900D01*
X213760500Y-166076900D02*
X215216000Y-164621400D01*
X215216000Y-164621400D02*
X240987300Y-164621400D01*
X240987300Y-164621400D02*
X241147500Y-164461200D01*
X241147500Y-164461200D02*
X242496000Y-164461200D01*
X242496000Y-164461200D02*
X242972100Y-163985100D01*
X242972100Y-163985100D02*
X276799500Y-163985100D01*
X276799500Y-163985100D02*
X276928000Y-164113600D01*
X276928000Y-164113600D02*
X280887700Y-164113600D01*
X280887700Y-164113600D02*
X281016200Y-163985100D01*
X281016200Y-163985100D02*
X285781600Y-163985100D01*
X285781600Y-163985100D02*
X287970100Y-161796600D01*
X287970100Y-161796600D02*
X288820700Y-161796600D01*
X100525300Y-175600000D02*
X101687100Y-174438200D01*
X101687100Y-174438200D02*
X116550200Y-174438200D01*
X116550200Y-174438200D02*
X118228000Y-176116000D01*
X118228000Y-176116000D02*
X138892500Y-176116000D01*
X138892500Y-176116000D02*
X140672000Y-174336500D01*
X268000000Y-140320000D02*
X269125300Y-140320000D01*
X272595700Y-141194700D02*
X270000000Y-141194700D01*
X270000000Y-141194700D02*
X269125300Y-140320000D01*
X99400000Y-175600000D02*
X100525300Y-175600000D01*
X266874700Y-140320000D02*
X266364500Y-139809800D01*
X266364500Y-139809800D02*
X266364500Y-135279000D01*
X266364500Y-135279000D02*
X267564100Y-134079400D01*
X267564100Y-134079400D02*
X280019000Y-134079400D01*
X280019000Y-134079400D02*
X280201500Y-134261900D01*
X280201500Y-134261900D02*
X280989100Y-134261900D01*
X280989100Y-134261900D02*
X281171600Y-134079400D01*
X281171600Y-134079400D02*
X304259300Y-134079400D01*
X304259300Y-134079400D02*
X307185300Y-131153400D01*
X307185300Y-131153400D02*
X318210900Y-131153400D01*
X318210900Y-131153400D02*
X319737500Y-132680000D01*
X319737500Y-132680000D02*
X330500000Y-132680000D01*
X268000000Y-140320000D02*
X266874700Y-140320000D01*
X324363300Y-129801200D02*
X284724100Y-129801200D01*
X284724100Y-129801200D02*
X284365300Y-130160000D01*
X283240000Y-130160000D02*
X284365300Y-130160000D01*
X181905900Y-112273100D02*
X182068300Y-112110700D01*
X182068300Y-112110700D02*
X198315100Y-112110700D01*
X198315100Y-112110700D02*
X203175500Y-107250300D01*
X203175500Y-107250300D02*
X245008800Y-107250300D01*
X245008800Y-107250300D02*
X245594000Y-107835500D01*
X280501900Y-133536600D02*
X271087400Y-133536600D01*
X271087400Y-133536600D02*
X269125400Y-131574600D01*
X269125400Y-131574600D02*
X267325200Y-131574600D01*
X267325200Y-131574600D02*
X263111800Y-135788000D01*
X263111800Y-135788000D02*
X244457400Y-135788000D01*
X187014700Y-138140000D02*
X186017000Y-139137700D01*
X186017000Y-139137700D02*
X177751400Y-139137700D01*
X177751400Y-139137700D02*
X177334500Y-139554600D01*
X177334500Y-139554600D02*
X148110700Y-139554600D01*
X148110700Y-139554600D02*
X147565300Y-140100000D01*
X188140000Y-138140000D02*
X187014700Y-138140000D01*
X146440000Y-140100000D02*
X147565300Y-140100000D01*
X147565300Y-157880000D02*
X147585600Y-157900300D01*
X147585600Y-157900300D02*
X167079900Y-157900300D01*
X167079900Y-157900300D02*
X172131700Y-162952100D01*
X172131700Y-162952100D02*
X184489200Y-162952100D01*
X184489200Y-162952100D02*
X186713400Y-165176300D01*
X186713400Y-165176300D02*
X213387300Y-165176300D01*
X213387300Y-165176300D02*
X214842800Y-163720800D01*
X214842800Y-163720800D02*
X240614100Y-163720800D01*
X240614100Y-163720800D02*
X240774300Y-163560600D01*
X240774300Y-163560600D02*
X242122800Y-163560600D01*
X242122800Y-163560600D02*
X242598900Y-163084500D01*
X242598900Y-163084500D02*
X277172700Y-163084500D01*
X277172700Y-163084500D02*
X277301200Y-163213000D01*
X277301200Y-163213000D02*
X280514500Y-163213000D01*
X280514500Y-163213000D02*
X281084100Y-162643400D01*
X281084100Y-162643400D02*
X284934300Y-162643400D01*
X284934300Y-162643400D02*
X286127400Y-161450300D01*
X146440000Y-157880000D02*
X147565300Y-157880000D01*
X146440000Y-157880000D02*
X145314700Y-157880000D01*
X135365800Y-157737600D02*
X145172300Y-157737600D01*
X145172300Y-157737600D02*
X145314700Y-157880000D01*
X108169900Y-187354200D02*
X108440900Y-187625200D01*
X108440900Y-187625200D02*
X111926500Y-187625200D01*
X111926500Y-187625200D02*
X113765300Y-189464000D01*
X113765300Y-189464000D02*
X117399700Y-189464000D01*
X117399700Y-189464000D02*
X119975700Y-186888000D01*
X270467100Y-138264400D02*
X269609700Y-138264400D01*
X269609700Y-138264400D02*
X269125300Y-137780000D01*
X268000000Y-137780000D02*
X269125300Y-137780000D01*
X329374700Y-135220000D02*
X327842400Y-133687700D01*
X327842400Y-133687700D02*
X309152100Y-133687700D01*
X309152100Y-133687700D02*
X306185100Y-136654700D01*
X306185100Y-136654700D02*
X270250600Y-136654700D01*
X270250600Y-136654700D02*
X269125300Y-137780000D01*
X330500000Y-135220000D02*
X329374700Y-135220000D01*
X176555600Y-171422700D02*
X156089100Y-171422700D01*
X156089100Y-171422700D02*
X155786100Y-171725700D01*
X155786100Y-171725700D02*
X132552400Y-171725700D01*
X132552400Y-171725700D02*
X132131300Y-172146800D01*
X132131300Y-172146800D02*
X127380800Y-172146800D01*
X127380800Y-172146800D02*
X124901100Y-169667100D01*
X124901100Y-169667100D02*
X124592900Y-169667100D01*
X124592900Y-169667100D02*
X122905800Y-167980000D01*
X122905800Y-167980000D02*
X115765300Y-167980000D01*
X190709300Y-199028400D02*
X231660600Y-199028400D01*
X231660600Y-199028400D02*
X233194200Y-200562000D01*
X233194200Y-200562000D02*
X233795100Y-200562000D01*
X233795100Y-200562000D02*
X234645200Y-199711900D01*
X234645200Y-199711900D02*
X245758000Y-199711900D01*
X245758000Y-199711900D02*
X246032900Y-199986800D01*
X246032900Y-199986800D02*
X270948400Y-199986800D01*
X270948400Y-199986800D02*
X271398100Y-199537100D01*
X271398100Y-199537100D02*
X286323400Y-199537100D01*
X286323400Y-199537100D02*
X286883100Y-198977400D01*
X286883100Y-198977400D02*
X319258000Y-198977400D01*
X319258000Y-198977400D02*
X319441600Y-198793800D01*
X283240000Y-132700000D02*
X303281800Y-132700000D01*
X303281800Y-132700000D02*
X305278700Y-130703100D01*
X305278700Y-130703100D02*
X318786300Y-130703100D01*
X318786300Y-130703100D02*
X319062100Y-130978900D01*
X329300000Y-173960000D02*
X327969000Y-173960000D01*
X327969000Y-173960000D02*
X327184800Y-174744200D01*
X334215900Y-183039900D02*
X331840500Y-185415300D01*
X331840500Y-185415300D02*
X320842300Y-185415300D01*
X114640000Y-167980000D02*
X115765300Y-167980000D01*
X172900000Y-143220000D02*
X179411500Y-143220000D01*
X182751900Y-161682600D02*
X184493500Y-161682600D01*
X184493500Y-161682600D02*
X187086600Y-164275700D01*
X187086600Y-164275700D02*
X213014100Y-164275700D01*
X213014100Y-164275700D02*
X214469600Y-162820200D01*
X214469600Y-162820200D02*
X240240900Y-162820200D01*
X240240900Y-162820200D02*
X240401100Y-162660000D01*
X240401100Y-162660000D02*
X241749600Y-162660000D01*
X241749600Y-162660000D02*
X242225700Y-162183900D01*
X242225700Y-162183900D02*
X277545900Y-162183900D01*
X277545900Y-162183900D02*
X277674400Y-162312400D01*
X277674400Y-162312400D02*
X280141300Y-162312400D01*
X280141300Y-162312400D02*
X280720100Y-161733600D01*
X280720100Y-161733600D02*
X283751000Y-161733600D01*
X283751000Y-161733600D02*
X285176700Y-160307900D01*
X110862500Y-188570300D02*
X112009700Y-188570300D01*
X112009700Y-188570300D02*
X113353700Y-189914300D01*
X113353700Y-189914300D02*
X118586500Y-189914300D01*
X118586500Y-189914300D02*
X120370600Y-188130200D01*
X145314700Y-155340000D02*
X136519300Y-155340000D01*
X136519300Y-155340000D02*
X136205500Y-155653800D01*
X146440000Y-155340000D02*
X145314700Y-155340000D01*
X268000000Y-136365300D02*
X267718600Y-136365300D01*
X267718600Y-136365300D02*
X266821500Y-137262400D01*
X266821500Y-137262400D02*
X266821500Y-138242500D01*
X266821500Y-138242500D02*
X267568700Y-138989700D01*
X267568700Y-138989700D02*
X286974400Y-138989700D01*
X286974400Y-138989700D02*
X287176300Y-138787800D01*
X287176300Y-138787800D02*
X288030000Y-138787800D01*
X288030000Y-138787800D02*
X288105900Y-138863700D01*
X288105900Y-138863700D02*
X306374300Y-138863700D01*
X306374300Y-138863700D02*
X306663000Y-138575000D01*
X306663000Y-138575000D02*
X310279400Y-138575000D01*
X310279400Y-138575000D02*
X311398000Y-137456400D01*
X311398000Y-137456400D02*
X311998900Y-137456400D01*
X311998900Y-137456400D02*
X313052600Y-138510100D01*
X313052600Y-138510100D02*
X328624600Y-138510100D01*
X328624600Y-138510100D02*
X329374700Y-137760000D01*
X330500000Y-137760000D02*
X329374700Y-137760000D01*
X268000000Y-135240000D02*
X268000000Y-136365300D01*
X99400000Y-167980000D02*
X100525300Y-167980000D01*
X140998900Y-168846200D02*
X139846200Y-169998900D01*
X139846200Y-169998900D02*
X127749100Y-169998900D01*
X127749100Y-169998900D02*
X124604300Y-166854100D01*
X124604300Y-166854100D02*
X109724700Y-166854100D01*
X109724700Y-166854100D02*
X108618200Y-167960600D01*
X108618200Y-167960600D02*
X100544700Y-167960600D01*
X100544700Y-167960600D02*
X100525300Y-167980000D01*
X304585300Y-170524900D02*
X304284100Y-170223700D01*
X304284100Y-170223700D02*
X287492000Y-170223700D01*
X287492000Y-170223700D02*
X287216300Y-169948000D01*
X287216300Y-169948000D02*
X282232600Y-169948000D01*
X282232600Y-169948000D02*
X281959100Y-169674500D01*
X281959100Y-169674500D02*
X246518700Y-169674500D01*
X246518700Y-169674500D02*
X246219600Y-169973600D01*
X246219600Y-169973600D02*
X235109000Y-169973600D01*
X235109000Y-169973600D02*
X234042900Y-168907500D01*
X234042900Y-168907500D02*
X224905000Y-168907500D01*
X224905000Y-168907500D02*
X224483700Y-169328800D01*
X224483700Y-169328800D02*
X190993000Y-169328800D01*
X190993000Y-169328800D02*
X190380100Y-169941700D01*
X190380100Y-169941700D02*
X188119700Y-169941700D01*
X188119700Y-169941700D02*
X186668100Y-168490100D01*
X186668100Y-168490100D02*
X141355000Y-168490100D01*
X141355000Y-168490100D02*
X140998900Y-168846200D01*
X286303300Y-145514600D02*
X303412900Y-145514600D01*
X303412900Y-145514600D02*
X305052900Y-143874600D01*
X305052900Y-143874600D02*
X320941200Y-143874600D01*
X320941200Y-143874600D02*
X324515800Y-140300000D01*
X324515800Y-140300000D02*
X330500000Y-140300000D01*
X312148200Y-170341700D02*
X309490000Y-172999900D01*
X309490000Y-172999900D02*
X305126500Y-172999900D01*
X305126500Y-172999900D02*
X304251300Y-172124700D01*
X304251300Y-172124700D02*
X287509100Y-172124700D01*
X287509100Y-172124700D02*
X286233000Y-170848600D01*
X286233000Y-170848600D02*
X281859400Y-170848600D01*
X281859400Y-170848600D02*
X281585900Y-170575100D01*
X281585900Y-170575100D02*
X246891900Y-170575100D01*
X246891900Y-170575100D02*
X246592800Y-170874200D01*
X246592800Y-170874200D02*
X234380400Y-170874200D01*
X234380400Y-170874200D02*
X233314300Y-169808100D01*
X233314300Y-169808100D02*
X225278200Y-169808100D01*
X225278200Y-169808100D02*
X224667000Y-170419300D01*
X224667000Y-170419300D02*
X222264600Y-170419300D01*
X222264600Y-170419300D02*
X221873900Y-170810000D01*
X221873900Y-170810000D02*
X187476400Y-170810000D01*
X187476400Y-170810000D02*
X185650900Y-168984500D01*
X185650900Y-168984500D02*
X144106400Y-168984500D01*
X144106400Y-168984500D02*
X142631800Y-170459100D01*
X142631800Y-170459100D02*
X129032000Y-170459100D01*
X129032000Y-170459100D02*
X128537000Y-170954100D01*
X128530400Y-175359000D02*
X118328100Y-175359000D01*
X118328100Y-175359000D02*
X116029100Y-173060000D01*
X116029100Y-173060000D02*
X115765300Y-173060000D01*
X312148200Y-170341700D02*
X312148200Y-170071200D01*
X312148200Y-170071200D02*
X311779800Y-169702800D01*
X312148200Y-170341700D02*
X312483400Y-170676900D01*
X312483400Y-170676900D02*
X327431600Y-170676900D01*
X327431600Y-170676900D02*
X328174700Y-171420000D01*
X329300000Y-171420000D02*
X328174700Y-171420000D01*
X114640000Y-173060000D02*
X115765300Y-173060000D01*
X111950400Y-148674600D02*
X112568500Y-148056500D01*
X112568500Y-148056500D02*
X125509000Y-148056500D01*
X125509000Y-148056500D02*
X126587200Y-149134700D01*
X126587200Y-149134700D02*
X144189400Y-149134700D01*
X144189400Y-149134700D02*
X145314700Y-150260000D01*
X99400000Y-165440000D02*
X100525300Y-165440000D01*
X146440000Y-150260000D02*
X145314700Y-150260000D01*
X100525300Y-165440000D02*
X101008200Y-164957100D01*
X101008200Y-164957100D02*
X106078800Y-164957100D01*
X329365900Y-134007500D02*
X330820100Y-134007500D01*
X330820100Y-134007500D02*
X331625400Y-133202200D01*
X331625400Y-133202200D02*
X331625400Y-132134300D01*
X331625400Y-132134300D02*
X330927200Y-131436100D01*
X330927200Y-131436100D02*
X320630900Y-131436100D01*
X320630900Y-131436100D02*
X319447600Y-130252800D01*
X319447600Y-130252800D02*
X304988200Y-130252800D01*
X304988200Y-130252800D02*
X303931300Y-131309700D01*
X303931300Y-131309700D02*
X270275000Y-131309700D01*
X270275000Y-131309700D02*
X269125300Y-130160000D01*
X172900000Y-138140000D02*
X181190300Y-138140000D01*
X181190300Y-138140000D02*
X182315600Y-137014700D01*
X182315600Y-137014700D02*
X198190700Y-137014700D01*
X198190700Y-137014700D02*
X199063300Y-136142100D01*
X199063300Y-136142100D02*
X214337600Y-136142100D01*
X214337600Y-136142100D02*
X216749700Y-133730000D01*
X216749700Y-133730000D02*
X221798400Y-133730000D01*
X221798400Y-133730000D02*
X222307200Y-133221200D01*
X222307200Y-133221200D02*
X263561800Y-133221200D01*
X263561800Y-133221200D02*
X265658800Y-131124200D01*
X265658800Y-131124200D02*
X268161100Y-131124200D01*
X268161100Y-131124200D02*
X269125300Y-130160000D01*
X268000000Y-130160000D02*
X269125300Y-130160000D01*
X266874700Y-127620000D02*
X266361100Y-128133600D01*
X266361100Y-128133600D02*
X245722700Y-128133600D01*
X245722700Y-128133600D02*
X245606400Y-128017300D01*
X245606400Y-128017300D02*
X243888300Y-128017300D01*
X243888300Y-128017300D02*
X243696700Y-128208900D01*
X180229900Y-109976000D02*
X180505000Y-110251100D01*
X180505000Y-110251100D02*
X183457500Y-110251100D01*
X183457500Y-110251100D02*
X186619400Y-107089200D01*
X186619400Y-107089200D02*
X190704300Y-107089200D01*
X190704300Y-107089200D02*
X194968000Y-102825500D01*
X194968000Y-102825500D02*
X245159700Y-102825500D01*
X112805900Y-147164300D02*
X113386500Y-146583700D01*
X113386500Y-146583700D02*
X132153400Y-146583700D01*
X132153400Y-146583700D02*
X133289700Y-147720000D01*
X133289700Y-147720000D02*
X146440000Y-147720000D01*
X99400000Y-162900000D02*
X105872200Y-162900000D01*
X105872200Y-162900000D02*
X105941300Y-162830900D01*
X268000000Y-127620000D02*
X269125300Y-127620000D01*
X269125300Y-127620000D02*
X270250600Y-128745300D01*
X270250600Y-128745300D02*
X324771200Y-128745300D01*
X324771200Y-128745300D02*
X326736700Y-130710800D01*
X326736700Y-130710800D02*
X327949400Y-130710800D01*
X267437400Y-127620000D02*
X268000000Y-127620000D01*
X267437400Y-127620000D02*
X266874700Y-127620000D01*
X172900000Y-135600000D02*
X176716700Y-135600000D01*
X115765300Y-178140000D02*
X116471100Y-177434200D01*
X116471100Y-177434200D02*
X116471100Y-177434100D01*
X116471100Y-177434100D02*
X140348300Y-177434100D01*
X140348300Y-177434100D02*
X143060700Y-174721700D01*
X143060700Y-174721700D02*
X157389200Y-174721700D01*
X157389200Y-174721700D02*
X157645100Y-174465800D01*
X157645100Y-174465800D02*
X179864200Y-174465800D01*
X179864200Y-174465800D02*
X180475300Y-173854700D01*
X180475300Y-173854700D02*
X232902600Y-173854700D01*
X232902600Y-173854700D02*
X233361800Y-174313900D01*
X233361800Y-174313900D02*
X239282300Y-174313900D01*
X114640000Y-178140000D02*
X115765300Y-178140000D01*
X255165300Y-144760000D02*
X254456200Y-145469100D01*
X254456200Y-145469100D02*
X253800800Y-145469100D01*
X253800800Y-145469100D02*
X252166600Y-147103300D01*
X252166600Y-147103300D02*
X243491400Y-147103300D01*
X243491400Y-147103300D02*
X241992200Y-148602500D01*
X241992200Y-148602500D02*
X232392000Y-148602500D01*
X255165300Y-144760000D02*
X256982500Y-146577200D01*
X256982500Y-146577200D02*
X281336200Y-146577200D01*
X283240000Y-143985300D02*
X283521400Y-143985300D01*
X283521400Y-143985300D02*
X284365300Y-144829200D01*
X284365300Y-144829200D02*
X284365300Y-145944600D01*
X284365300Y-145944600D02*
X283732700Y-146577200D01*
X283732700Y-146577200D02*
X281336200Y-146577200D01*
X283240000Y-142860000D02*
X283240000Y-143985300D01*
X254040000Y-144760000D02*
X255165300Y-144760000D01*
X100525300Y-160360000D02*
X101911700Y-158973600D01*
X101911700Y-158973600D02*
X119372400Y-158973600D01*
X145314700Y-145180000D02*
X133055300Y-145180000D01*
X133055300Y-145180000D02*
X131811800Y-143936500D01*
X131811800Y-143936500D02*
X126634000Y-143936500D01*
X269125300Y-125080000D02*
X269762300Y-125080000D01*
X269762300Y-125080000D02*
X270887600Y-126205300D01*
X270887600Y-126205300D02*
X286016800Y-126205300D01*
X286016800Y-126205300D02*
X286975900Y-127164400D01*
X286975900Y-127164400D02*
X325308400Y-127164400D01*
X325308400Y-127164400D02*
X326733900Y-128589900D01*
X255190400Y-123573100D02*
X256837300Y-125220000D01*
X256837300Y-125220000D02*
X266734700Y-125220000D01*
X266734700Y-125220000D02*
X266874700Y-125080000D01*
X180268500Y-111433100D02*
X187775900Y-111433100D01*
X187775900Y-111433100D02*
X189440700Y-109768300D01*
X189440700Y-109768300D02*
X190684100Y-109768300D01*
X190684100Y-109768300D02*
X194175800Y-106276600D01*
X194175800Y-106276600D02*
X256066700Y-106276600D01*
X256066700Y-106276600D02*
X256859100Y-107069000D01*
X256859100Y-107069000D02*
X258237300Y-107069000D01*
X258237300Y-107069000D02*
X258513800Y-106792500D01*
X268000000Y-125080000D02*
X266874700Y-125080000D01*
X172900000Y-133060000D02*
X177463000Y-133060000D01*
X268000000Y-125080000D02*
X269125300Y-125080000D01*
X146440000Y-145180000D02*
X145314700Y-145180000D01*
X99400000Y-160360000D02*
X100525300Y-160360000D01*
X283240000Y-145400000D02*
X282114700Y-145400000D01*
X254040000Y-142220000D02*
X255165300Y-142220000D01*
X255165300Y-142220000D02*
X257220000Y-144274700D01*
X257220000Y-144274700D02*
X280989400Y-144274700D01*
X280989400Y-144274700D02*
X282114700Y-145400000D01*
X253477400Y-142220000D02*
X254040000Y-142220000D01*
X253477400Y-142220000D02*
X252914700Y-142220000D01*
X220040000Y-142620000D02*
X221165300Y-142620000D01*
X221165300Y-142620000D02*
X221890600Y-143345300D01*
X221890600Y-143345300D02*
X251789400Y-143345300D01*
X251789400Y-143345300D02*
X252914700Y-142220000D01*
X219477400Y-142620000D02*
X220040000Y-142620000D01*
X219477400Y-142620000D02*
X218914700Y-142620000D01*
X218914700Y-142620000D02*
X217789400Y-143745300D01*
X217789400Y-143745300D02*
X192986400Y-143745300D01*
X192986400Y-143745300D02*
X192386300Y-144345400D01*
X192386300Y-144345400D02*
X147565400Y-144345400D01*
X147565400Y-144345400D02*
X146985400Y-143765400D01*
X146985400Y-143765400D02*
X135977600Y-143765400D01*
X135977600Y-143765400D02*
X133662600Y-141450400D01*
X133662600Y-141450400D02*
X130950000Y-141450400D01*
X130950000Y-141450400D02*
X130040300Y-140540700D01*
X130040300Y-140540700D02*
X130040300Y-139563700D01*
X130040300Y-139563700D02*
X130918700Y-138685300D01*
X130918700Y-138685300D02*
X131200000Y-138685300D01*
X131200000Y-137560000D02*
X131200000Y-138685300D01*
X252914700Y-139848700D02*
X254851400Y-139848700D01*
X254851400Y-139848700D02*
X256719800Y-141717100D01*
X256719800Y-141717100D02*
X272092400Y-141717100D01*
X272092400Y-141717100D02*
X272295300Y-141920000D01*
X272295300Y-141920000D02*
X277323600Y-141920000D01*
X277323600Y-141920000D02*
X277526600Y-141717000D01*
X132325300Y-140100000D02*
X140048700Y-140100000D01*
X140048700Y-140100000D02*
X142593000Y-142644300D01*
X142593000Y-142644300D02*
X144345000Y-142644300D01*
X144345000Y-142644300D02*
X145476500Y-141512800D01*
X145476500Y-141512800D02*
X167856800Y-141512800D01*
X167856800Y-141512800D02*
X168219300Y-141875300D01*
X168219300Y-141875300D02*
X188884700Y-141875300D01*
X188884700Y-141875300D02*
X189554700Y-141205300D01*
X189554700Y-141205300D02*
X217789400Y-141205300D01*
X217789400Y-141205300D02*
X218914700Y-140080000D01*
X252914700Y-139848700D02*
X251958100Y-140805300D01*
X251958100Y-140805300D02*
X221890600Y-140805300D01*
X221890600Y-140805300D02*
X221165300Y-140080000D01*
X252914700Y-139680000D02*
X252914700Y-139848700D01*
X254040000Y-139680000D02*
X252914700Y-139680000D01*
X220040000Y-140080000D02*
X221165300Y-140080000D01*
X219477400Y-140080000D02*
X220040000Y-140080000D01*
X219477400Y-140080000D02*
X218914700Y-140080000D01*
X131200000Y-140100000D02*
X132325300Y-140100000D01*
X309000000Y-176900000D02*
X307874700Y-176900000D01*
X306215900Y-177101200D02*
X307673500Y-177101200D01*
X307673500Y-177101200D02*
X307874700Y-176900000D01*
X283240000Y-150480000D02*
X282114700Y-150480000D01*
X271909300Y-150494900D02*
X282099800Y-150494900D01*
X282099800Y-150494900D02*
X282114700Y-150480000D01*
X180171100Y-154650000D02*
X168323700Y-154650000D01*
X168323700Y-154650000D02*
X166503700Y-156470000D01*
X166503700Y-156470000D02*
X133929300Y-156470000D01*
X133929300Y-156470000D02*
X131384700Y-153925400D01*
X131384700Y-153925400D02*
X125445900Y-153925400D01*
X125445900Y-153925400D02*
X123545400Y-152024900D01*
X220040000Y-137540000D02*
X218914700Y-137540000D01*
X183736400Y-140030000D02*
X186254700Y-140030000D01*
X186254700Y-140030000D02*
X186730100Y-139554600D01*
X186730100Y-139554600D02*
X195800100Y-139554600D01*
X195800100Y-139554600D02*
X196689400Y-138665300D01*
X196689400Y-138665300D02*
X217789400Y-138665300D01*
X217789400Y-138665300D02*
X218914700Y-137540000D01*
X252914700Y-137140000D02*
X251789400Y-138265300D01*
X251789400Y-138265300D02*
X221890600Y-138265300D01*
X221890600Y-138265300D02*
X221165300Y-137540000D01*
X254040000Y-137140000D02*
X252914700Y-137140000D01*
X220040000Y-137540000D02*
X221165300Y-137540000D01*
X282114700Y-153020000D02*
X277828400Y-153020000D01*
X277828400Y-153020000D02*
X277524800Y-153323600D01*
X283240000Y-153020000D02*
X287496300Y-153020000D01*
X282677400Y-153020000D02*
X283240000Y-153020000D01*
X282677400Y-153020000D02*
X282114700Y-153020000D01*
X252914700Y-134600000D02*
X244616900Y-134600000D01*
X244616900Y-134600000D02*
X243491600Y-135725300D01*
X243491600Y-135725300D02*
X221890600Y-135725300D01*
X221890600Y-135725300D02*
X221165300Y-135000000D01*
X254040000Y-134600000D02*
X252914700Y-134600000D01*
X220040000Y-135000000D02*
X221165300Y-135000000D01*
X132325300Y-145180000D02*
X133450600Y-146305300D01*
X133450600Y-146305300D02*
X171485300Y-146305300D01*
X171485300Y-146305300D02*
X172079400Y-146899400D01*
X172079400Y-146899400D02*
X188940600Y-146899400D01*
X188940600Y-146899400D02*
X189316000Y-146524000D01*
X189316000Y-146524000D02*
X220856200Y-146524000D01*
X131200000Y-145180000D02*
X132325300Y-145180000D01*
X323386200Y-178383400D02*
X323200600Y-178197800D01*
X323200600Y-178197800D02*
X301886900Y-178197800D01*
X301886900Y-178197800D02*
X297370800Y-173681700D01*
X297370800Y-173681700D02*
X286947600Y-173681700D01*
X286947600Y-173681700D02*
X285465400Y-172199500D01*
X285465400Y-172199500D02*
X281299600Y-172199500D01*
X281299600Y-172199500D02*
X281026100Y-171926000D01*
X281026100Y-171926000D02*
X247451700Y-171926000D01*
X247451700Y-171926000D02*
X247152600Y-172225100D01*
X247152600Y-172225100D02*
X233820600Y-172225100D01*
X233820600Y-172225100D02*
X232754500Y-171159000D01*
X232754500Y-171159000D02*
X226602000Y-171159000D01*
X226602000Y-171159000D02*
X225990800Y-171770200D01*
X340218700Y-158582800D02*
X339218700Y-158582800D01*
X339218700Y-158582800D02*
X338385400Y-159416100D01*
X338385400Y-159416100D02*
X326811100Y-159416100D01*
X326811100Y-159416100D02*
X326557000Y-159162000D01*
X326557000Y-159162000D02*
X314279800Y-159162000D01*
X314279800Y-159162000D02*
X314145800Y-159296000D01*
X314145800Y-159296000D02*
X307515900Y-159296000D01*
X307515900Y-159296000D02*
X307439900Y-159220000D01*
X307439900Y-159220000D02*
X300372200Y-159220000D01*
X300372200Y-159220000D02*
X300009600Y-159582600D01*
X300009600Y-159582600D02*
X284813300Y-159582600D01*
X284813300Y-159582600D02*
X283112600Y-161283300D01*
X283112600Y-161283300D02*
X280533500Y-161283300D01*
X280533500Y-161283300D02*
X279954700Y-161862100D01*
X279954700Y-161862100D02*
X277861000Y-161862100D01*
X277861000Y-161862100D02*
X277732500Y-161733600D01*
X277732500Y-161733600D02*
X249774900Y-161733600D01*
X249774900Y-161733600D02*
X248650700Y-160609400D01*
X248650700Y-160609400D02*
X242526400Y-160609400D01*
X242526400Y-160609400D02*
X241376400Y-161759400D01*
X241376400Y-161759400D02*
X240027900Y-161759400D01*
X240027900Y-161759400D02*
X239867700Y-161919600D01*
X239867700Y-161919600D02*
X232886300Y-161919600D01*
X232886300Y-161919600D02*
X231500300Y-160533600D01*
X231500300Y-160533600D02*
X193439500Y-160533600D01*
X193439500Y-160533600D02*
X191393400Y-162579700D01*
X191393400Y-162579700D02*
X187260100Y-162579700D01*
X187260100Y-162579700D02*
X184265700Y-159585300D01*
X184265700Y-159585300D02*
X172900000Y-159585300D01*
X170432700Y-132972800D02*
X150427200Y-132972800D01*
X150427200Y-132972800D02*
X148664400Y-131210000D01*
X148664400Y-131210000D02*
X139330100Y-131210000D01*
X139330100Y-131210000D02*
X135520100Y-127400000D01*
X135520100Y-127400000D02*
X132325300Y-127400000D01*
X131200000Y-127400000D02*
X132325300Y-127400000D01*
X172900000Y-158460000D02*
X172900000Y-159585300D01*
X351200000Y-169280000D02*
X339736500Y-169280000D01*
X339736500Y-169280000D02*
X338206800Y-167750300D01*
X338206800Y-167750300D02*
X318394800Y-167750300D01*
X318394800Y-167750300D02*
X318135100Y-168010000D01*
X318135100Y-168010000D02*
X312247900Y-168010000D01*
X312247900Y-168010000D02*
X309845800Y-170412100D01*
X309845800Y-170412100D02*
X305498300Y-170412100D01*
X305498300Y-170412100D02*
X304859600Y-169773400D01*
X304859600Y-169773400D02*
X287678600Y-169773400D01*
X287678600Y-169773400D02*
X287402900Y-169497700D01*
X287402900Y-169497700D02*
X282419200Y-169497700D01*
X282419200Y-169497700D02*
X282145700Y-169224200D01*
X282145700Y-169224200D02*
X246332100Y-169224200D01*
X246332100Y-169224200D02*
X246033000Y-169523300D01*
X246033000Y-169523300D02*
X235295600Y-169523300D01*
X235295600Y-169523300D02*
X234229500Y-168457200D01*
X234229500Y-168457200D02*
X224718400Y-168457200D01*
X224718400Y-168457200D02*
X224297100Y-168878500D01*
X224297100Y-168878500D02*
X189814000Y-168878500D01*
X189814000Y-168878500D02*
X189506400Y-169186100D01*
X168462300Y-136225700D02*
X139779700Y-136225700D01*
X139779700Y-136225700D02*
X133494000Y-129940000D01*
X133494000Y-129940000D02*
X132325300Y-129940000D01*
X172900000Y-155920000D02*
X174025300Y-155920000D01*
X183244100Y-156248100D02*
X174353400Y-156248100D01*
X174353400Y-156248100D02*
X174025300Y-155920000D01*
X131200000Y-129940000D02*
X132325300Y-129940000D01*
X350074700Y-166740000D02*
X348532400Y-165197700D01*
X348532400Y-165197700D02*
X322807000Y-165197700D01*
X322807000Y-165197700D02*
X322679300Y-165325400D01*
X322679300Y-165325400D02*
X304135700Y-165325400D01*
X304135700Y-165325400D02*
X303190100Y-166271000D01*
X172900000Y-153380000D02*
X179147800Y-153380000D01*
X179147800Y-153380000D02*
X180273200Y-152254600D01*
X180273200Y-152254600D02*
X195620100Y-152254600D01*
X195620100Y-152254600D02*
X196479700Y-151395000D01*
X196479700Y-151395000D02*
X229109700Y-151395000D01*
X229109700Y-151395000D02*
X229270800Y-151233900D01*
X229270800Y-151233900D02*
X254496800Y-151233900D01*
X254496800Y-151233900D02*
X257466500Y-154203600D01*
X257466500Y-154203600D02*
X290718800Y-154203600D01*
X290718800Y-154203600D02*
X290797000Y-154125400D01*
X351200000Y-166740000D02*
X350074700Y-166740000D01*
X168462300Y-138702700D02*
X138548000Y-138702700D01*
X138548000Y-138702700D02*
X132325300Y-132480000D01*
X131200000Y-132480000D02*
X132325300Y-132480000D01*
X191868100Y-136074700D02*
X192492500Y-135450300D01*
X192492500Y-135450300D02*
X203224400Y-135450300D01*
X203224400Y-135450300D02*
X203674700Y-135000000D01*
X204800000Y-135000000D02*
X203674700Y-135000000D01*
X294926000Y-170949000D02*
X294651000Y-170674000D01*
X294651000Y-170674000D02*
X287305400Y-170674000D01*
X287305400Y-170674000D02*
X287029700Y-170398300D01*
X287029700Y-170398300D02*
X282046000Y-170398300D01*
X282046000Y-170398300D02*
X281772500Y-170124800D01*
X281772500Y-170124800D02*
X246705300Y-170124800D01*
X246705300Y-170124800D02*
X246406200Y-170423900D01*
X246406200Y-170423900D02*
X234567000Y-170423900D01*
X234567000Y-170423900D02*
X233500900Y-169357800D01*
X233500900Y-169357800D02*
X225091600Y-169357800D01*
X225091600Y-169357800D02*
X224520400Y-169929000D01*
X224520400Y-169929000D02*
X192075900Y-169929000D01*
X192075900Y-169929000D02*
X191947000Y-170057900D01*
X350074700Y-184520000D02*
X345883400Y-188711300D01*
X345883400Y-188711300D02*
X328392100Y-188711300D01*
X328392100Y-188711300D02*
X328342300Y-188661500D01*
X328342300Y-188661500D02*
X327741400Y-188661500D01*
X327741400Y-188661500D02*
X326768900Y-189634000D01*
X326768900Y-189634000D02*
X304653100Y-189634000D01*
X351200000Y-184520000D02*
X350074700Y-184520000D01*
X348786300Y-155179600D02*
X347509100Y-156456800D01*
X347509100Y-156456800D02*
X335111700Y-156456800D01*
X335111700Y-156456800D02*
X333503300Y-158065200D01*
X333503300Y-158065200D02*
X327370900Y-158065200D01*
X327370900Y-158065200D02*
X327116800Y-157811100D01*
X327116800Y-157811100D02*
X313720000Y-157811100D01*
X313720000Y-157811100D02*
X313635100Y-157896000D01*
X313635100Y-157896000D02*
X308026600Y-157896000D01*
X308026600Y-157896000D02*
X307956500Y-157825900D01*
X307956500Y-157825900D02*
X299855600Y-157825900D01*
X299855600Y-157825900D02*
X299449800Y-158231700D01*
X299449800Y-158231700D02*
X284253500Y-158231700D01*
X284253500Y-158231700D02*
X282552800Y-159932400D01*
X282552800Y-159932400D02*
X279973700Y-159932400D01*
X279973700Y-159932400D02*
X279394900Y-160511200D01*
X279394900Y-160511200D02*
X278420800Y-160511200D01*
X278420800Y-160511200D02*
X278279600Y-160370000D01*
X278279600Y-160370000D02*
X250322000Y-160370000D01*
X250322000Y-160370000D02*
X249210500Y-159258500D01*
X249210500Y-159258500D02*
X241966600Y-159258500D01*
X241966600Y-159258500D02*
X240816600Y-160408500D01*
X240816600Y-160408500D02*
X239468100Y-160408500D01*
X239468100Y-160408500D02*
X239307900Y-160568700D01*
X239307900Y-160568700D02*
X233671100Y-160568700D01*
X233671100Y-160568700D02*
X232283400Y-159181000D01*
X232283400Y-159181000D02*
X195832600Y-159181000D01*
X195832600Y-159181000D02*
X195553100Y-158901500D01*
X203674700Y-137540000D02*
X201079300Y-137540000D01*
X172900000Y-130520000D02*
X174025300Y-130520000D01*
X174025300Y-130520000D02*
X174298000Y-130792700D01*
X174298000Y-130792700D02*
X185369000Y-130792700D01*
X204800000Y-137540000D02*
X203674700Y-137540000D01*
X338316000Y-158429100D02*
X337779300Y-158965800D01*
X337779300Y-158965800D02*
X326997700Y-158965800D01*
X326997700Y-158965800D02*
X326743600Y-158711700D01*
X326743600Y-158711700D02*
X314093200Y-158711700D01*
X314093200Y-158711700D02*
X314008300Y-158796600D01*
X314008300Y-158796600D02*
X307653400Y-158796600D01*
X307653400Y-158796600D02*
X307583300Y-158726500D01*
X307583300Y-158726500D02*
X300228800Y-158726500D01*
X300228800Y-158726500D02*
X299823000Y-159132300D01*
X299823000Y-159132300D02*
X284626700Y-159132300D01*
X284626700Y-159132300D02*
X282926000Y-160833000D01*
X282926000Y-160833000D02*
X280346900Y-160833000D01*
X280346900Y-160833000D02*
X279768100Y-161411800D01*
X279768100Y-161411800D02*
X278047600Y-161411800D01*
X278047600Y-161411800D02*
X277919100Y-161283300D01*
X277919100Y-161283300D02*
X249961500Y-161283300D01*
X249961500Y-161283300D02*
X248837300Y-160159100D01*
X248837300Y-160159100D02*
X242339800Y-160159100D01*
X242339800Y-160159100D02*
X241189800Y-161309100D01*
X241189800Y-161309100D02*
X239841300Y-161309100D01*
X239841300Y-161309100D02*
X239681100Y-161469300D01*
X239681100Y-161469300D02*
X233072900Y-161469300D01*
X233072900Y-161469300D02*
X231685300Y-160081700D01*
X231685300Y-160081700D02*
X192765300Y-160081700D01*
X192765300Y-160081700D02*
X190717600Y-162129400D01*
X190717600Y-162129400D02*
X187627900Y-162129400D01*
X187627900Y-162129400D02*
X187010500Y-161512000D01*
X187010500Y-161512000D02*
X187010500Y-160513500D01*
X187010500Y-160513500D02*
X187667400Y-159856600D01*
X187667400Y-159856600D02*
X188379800Y-159856600D01*
X188379800Y-159856600D02*
X189289300Y-158947100D01*
X189289300Y-158947100D02*
X189289300Y-157069300D01*
X189289300Y-157069300D02*
X188140000Y-155920000D01*
X172900000Y-127980000D02*
X185111600Y-127980000D01*
X185111600Y-127980000D02*
X186251500Y-129119900D01*
X186251500Y-129119900D02*
X197484600Y-129119900D01*
X204800000Y-142620000D02*
X205925300Y-142620000D01*
X208931800Y-142547600D02*
X205997700Y-142547600D01*
X205997700Y-142547600D02*
X205925300Y-142620000D01*
X219554900Y-166802300D02*
X219830000Y-166527200D01*
X219830000Y-166527200D02*
X241629100Y-166527200D01*
X241629100Y-166527200D02*
X241893900Y-166262400D01*
X241893900Y-166262400D02*
X243242400Y-166262400D01*
X243242400Y-166262400D02*
X243709300Y-165795500D01*
X243709300Y-165795500D02*
X276062300Y-165795500D01*
X276062300Y-165795500D02*
X276181600Y-165914800D01*
X276181600Y-165914800D02*
X281634100Y-165914800D01*
X281634100Y-165914800D02*
X281753400Y-165795500D01*
X281753400Y-165795500D02*
X287155700Y-165795500D01*
X287155700Y-165795500D02*
X288479000Y-164472200D01*
X288479000Y-164472200D02*
X299719300Y-164472200D01*
X299719300Y-164472200D02*
X303144400Y-161047100D01*
X303144400Y-161047100D02*
X305984700Y-161047100D01*
X305984700Y-161047100D02*
X306057300Y-161119700D01*
X306057300Y-161119700D02*
X322570500Y-161119700D01*
X322570500Y-161119700D02*
X322985200Y-161534400D01*
X322985200Y-161534400D02*
X324400100Y-161534400D01*
X324400100Y-161534400D02*
X325167500Y-160767000D01*
X325167500Y-160767000D02*
X348342900Y-160767000D01*
X348342900Y-160767000D02*
X349133800Y-159976100D01*
X188140000Y-158460000D02*
X188140000Y-157334700D01*
X188140000Y-157334700D02*
X187858700Y-157334700D01*
X187858700Y-157334700D02*
X186989100Y-156465100D01*
X186989100Y-156465100D02*
X186989100Y-155414200D01*
X186989100Y-155414200D02*
X187849900Y-154553400D01*
X187849900Y-154553400D02*
X203766400Y-154553400D01*
X203766400Y-154553400D02*
X204269800Y-154050000D01*
X204269800Y-154050000D02*
X206569700Y-154050000D01*
X172900000Y-125440000D02*
X174025300Y-125440000D01*
X174025300Y-125440000D02*
X175288900Y-126703600D01*
X175288900Y-126703600D02*
X192788000Y-126703600D01*
X342715200Y-157357400D02*
X335073300Y-157357400D01*
X335073300Y-157357400D02*
X333915200Y-158515500D01*
X333915200Y-158515500D02*
X327184300Y-158515500D01*
X327184300Y-158515500D02*
X326930200Y-158261400D01*
X326930200Y-158261400D02*
X313906600Y-158261400D01*
X313906600Y-158261400D02*
X313821700Y-158346300D01*
X313821700Y-158346300D02*
X307840000Y-158346300D01*
X307840000Y-158346300D02*
X307769900Y-158276200D01*
X307769900Y-158276200D02*
X300042200Y-158276200D01*
X300042200Y-158276200D02*
X299636400Y-158682000D01*
X299636400Y-158682000D02*
X284440100Y-158682000D01*
X284440100Y-158682000D02*
X282739400Y-160382700D01*
X282739400Y-160382700D02*
X280160300Y-160382700D01*
X280160300Y-160382700D02*
X279581500Y-160961500D01*
X279581500Y-160961500D02*
X278234200Y-160961500D01*
X278234200Y-160961500D02*
X278105700Y-160833000D01*
X278105700Y-160833000D02*
X250148100Y-160833000D01*
X250148100Y-160833000D02*
X249023900Y-159708800D01*
X249023900Y-159708800D02*
X242153200Y-159708800D01*
X242153200Y-159708800D02*
X241003200Y-160858800D01*
X241003200Y-160858800D02*
X239654700Y-160858800D01*
X239654700Y-160858800D02*
X239494500Y-161019000D01*
X239494500Y-161019000D02*
X233259500Y-161019000D01*
X233259500Y-161019000D02*
X231871900Y-159631400D01*
X231871900Y-159631400D02*
X190633900Y-159631400D01*
X190633900Y-159631400D02*
X189265300Y-161000000D01*
X184228600Y-131954500D02*
X183954700Y-131680600D01*
X183954700Y-131680600D02*
X159070600Y-131680600D01*
X159070600Y-131680600D02*
X153464700Y-126074700D01*
X153464700Y-126074700D02*
X133540000Y-126074700D01*
X133540000Y-126074700D02*
X132325300Y-124860000D01*
X188140000Y-161000000D02*
X189265300Y-161000000D01*
X131200000Y-124860000D02*
X132325300Y-124860000D01*
X154700000Y-190000000D02*
X158955300Y-190000000D01*
X158955300Y-190000000D02*
X163380600Y-194425300D01*
X163380600Y-194425300D02*
X163907000Y-194425300D01*
X163907000Y-194425300D02*
X164792500Y-195310800D01*
X164792500Y-195310800D02*
X171226500Y-195310800D01*
X171226500Y-195310800D02*
X172654100Y-196738400D01*
X163600000Y-185120000D02*
X171220000Y-185120000D01*
X77202000Y-107135600D02*
X71064400Y-107135600D01*
X71064400Y-107135600D02*
X69700000Y-108500000D01*
X129000000Y-104600000D02*
X126341400Y-107258600D01*
X126341400Y-107258600D02*
X103815700Y-107258600D01*
X103815700Y-107258600D02*
X103182200Y-106625100D01*
X103182200Y-106625100D02*
X93710600Y-106625100D01*
X93710600Y-106625100D02*
X91459100Y-104373600D01*
X91459100Y-104373600D02*
X79964000Y-104373600D01*
X79964000Y-104373600D02*
X77202000Y-107135600D01*
X54200000Y-130200000D02*
X56000000Y-128400000D01*
X56000000Y-128400000D02*
X81974700Y-128400000D01*
X82900000Y-128400000D02*
X81974700Y-128400000D01*
X58600000Y-107640000D02*
X68840000Y-107640000D01*
X68840000Y-107640000D02*
X69700000Y-108500000D01*
X44640000Y-102540000D02*
X46226400Y-104126400D01*
X46226400Y-104126400D02*
X55727900Y-104126400D01*
X55727900Y-104126400D02*
X55995700Y-103858600D01*
X55995700Y-103858600D02*
X103858600Y-103858600D01*
X103858600Y-103858600D02*
X105200000Y-105200000D01*
X94600000Y-119500000D02*
X93674700Y-119500000D01*
X61820000Y-130200000D02*
X62945300Y-130200000D01*
X62945300Y-130200000D02*
X63792700Y-129352600D01*
X63792700Y-129352600D02*
X83822100Y-129352600D01*
X83822100Y-129352600D02*
X93674700Y-119500000D01*
X213320000Y-187360000D02*
X214445300Y-187360000D01*
X219000000Y-187260000D02*
X214545300Y-187260000D01*
X214545300Y-187260000D02*
X214445300Y-187360000D01*
X231520000Y-192040000D02*
X232645300Y-192040000D01*
X236900000Y-192060000D02*
X232665300Y-192060000D01*
X232665300Y-192060000D02*
X232645300Y-192040000D01*
X252496600Y-95520600D02*
X241413200Y-95520600D01*
X241413200Y-95520600D02*
X240297600Y-96636200D01*
X240297600Y-96636200D02*
X196313400Y-96636200D01*
X196313400Y-96636200D02*
X194901900Y-98047700D01*
X194901900Y-98047700D02*
X169053100Y-98047700D01*
X169053100Y-98047700D02*
X168694700Y-97689300D01*
X168694700Y-97689300D02*
X148747500Y-97689300D01*
X148747500Y-97689300D02*
X143456300Y-102980500D01*
X143456300Y-102980500D02*
X114963900Y-102980500D01*
X114963900Y-102980500D02*
X114423800Y-103520600D01*
X242438200Y-144081700D02*
X250172900Y-144081700D01*
X250172900Y-144081700D02*
X251374400Y-145283200D01*
X279400000Y-184720000D02*
X278274700Y-184720000D01*
X275271400Y-185916800D02*
X277077900Y-185916800D01*
X277077900Y-185916800D02*
X278274700Y-184720000D01*
X66900000Y-140340000D02*
X100126200Y-140340000D01*
X100126200Y-140340000D02*
X107056500Y-133409700D01*
X146440000Y-127400000D02*
X151500000Y-127400000D01*
X151500000Y-127400000D02*
X151700000Y-127200000D01*
X211404400Y-167702900D02*
X211679500Y-167427800D01*
X211679500Y-167427800D02*
X217455200Y-167427800D01*
X217455200Y-167427800D02*
X218806100Y-166076900D01*
X218806100Y-166076900D02*
X241442500Y-166076900D01*
X241442500Y-166076900D02*
X241707300Y-165812100D01*
X241707300Y-165812100D02*
X243055800Y-165812100D01*
X243055800Y-165812100D02*
X243522700Y-165345200D01*
X243522700Y-165345200D02*
X276248900Y-165345200D01*
X276248900Y-165345200D02*
X276368200Y-165464500D01*
X276368200Y-165464500D02*
X281447500Y-165464500D01*
X281447500Y-165464500D02*
X281566800Y-165345200D01*
X281566800Y-165345200D02*
X286969100Y-165345200D01*
X286969100Y-165345200D02*
X288292400Y-164021900D01*
X288292400Y-164021900D02*
X299532700Y-164021900D01*
X299532700Y-164021900D02*
X302957800Y-160596800D01*
X302957800Y-160596800D02*
X306171300Y-160596800D01*
X306171300Y-160596800D02*
X306243900Y-160669400D01*
X306243900Y-160669400D02*
X322757100Y-160669400D01*
X322757100Y-160669400D02*
X323171800Y-161084100D01*
X323171800Y-161084100D02*
X324213500Y-161084100D01*
X324213500Y-161084100D02*
X324980900Y-160316700D01*
X324980900Y-160316700D02*
X347427800Y-160316700D01*
X347427800Y-160316700D02*
X348937000Y-158807500D01*
X348937000Y-158807500D02*
X354412200Y-158807500D01*
X354412200Y-158807500D02*
X360618000Y-152601700D01*
X360618000Y-152601700D02*
X360618000Y-152481300D01*
X194820000Y-189600000D02*
X194820000Y-187060000D01*
X114640000Y-152740000D02*
X120695200Y-152740000D01*
X120695200Y-152740000D02*
X126455700Y-158500500D01*
X130000000Y-182440000D02*
X128874700Y-182440000D01*
X117911500Y-183967800D02*
X118869700Y-183009600D01*
X118869700Y-183009600D02*
X128305100Y-183009600D01*
X128305100Y-183009600D02*
X128874700Y-182440000D01*
X114120000Y-201000000D02*
X115245300Y-201000000D01*
X130000000Y-184980000D02*
X128874700Y-184980000D01*
X127336000Y-184979900D02*
X128874700Y-184979900D01*
X128874700Y-184979900D02*
X128874700Y-184980000D01*
X115245300Y-201000000D02*
X115264900Y-200980400D01*
X115264900Y-200980400D02*
X119124400Y-200980400D01*
X236125300Y-167277900D02*
X237010800Y-168163400D01*
X237010800Y-168163400D02*
X242986800Y-168163400D01*
X242986800Y-168163400D02*
X243536800Y-167613400D01*
X243536800Y-167613400D02*
X243536800Y-167613300D01*
X243536800Y-167613300D02*
X243802200Y-167613300D01*
X243802200Y-167613300D02*
X243999000Y-167416500D01*
X243999000Y-167416500D02*
X245601600Y-167416500D01*
X245601600Y-167416500D02*
X246782200Y-168597100D01*
X246782200Y-168597100D02*
X282136300Y-168597100D01*
X282136300Y-168597100D02*
X282686400Y-168047000D01*
X282686400Y-168047000D02*
X288088700Y-168047000D01*
X288088700Y-168047000D02*
X289412000Y-166723700D01*
X289412000Y-166723700D02*
X300652400Y-166723700D01*
X300652400Y-166723700D02*
X304077400Y-163298700D01*
X304077400Y-163298700D02*
X304077400Y-163298600D01*
X304077400Y-163298600D02*
X305051700Y-163298600D01*
X305051700Y-163298600D02*
X305421900Y-163668800D01*
X305421900Y-163668800D02*
X305751600Y-163668800D01*
X370600000Y-139440000D02*
X369474700Y-139440000D01*
X369474700Y-139440000D02*
X368209100Y-140705600D01*
X368209100Y-140705600D02*
X342141900Y-140705600D01*
X342141900Y-140705600D02*
X340596900Y-139160600D01*
X340596900Y-139160600D02*
X322065800Y-139160600D01*
X322065800Y-139160600D02*
X320147900Y-141078500D01*
X320147900Y-141078500D02*
X316587400Y-141078500D01*
D36*
X131300000Y-167500000D02*
X119080000Y-155280000D01*
X119080000Y-155280000D02*
X114640000Y-155280000D01*
X249000000Y-197200000D02*
X248754300Y-196954300D01*
X248754300Y-196954300D02*
X246447700Y-196954300D01*
X246447700Y-196954300D02*
X244897800Y-195404400D01*
X244897800Y-195404400D02*
X230795600Y-195404400D01*
X230795600Y-195404400D02*
X229000000Y-197200000D01*
X112889700Y-150200000D02*
X111430900Y-150200000D01*
X111430900Y-150200000D02*
X109392200Y-148161300D01*
X109392200Y-148161300D02*
X92733500Y-148161300D01*
X92733500Y-148161300D02*
X92445200Y-148449600D01*
X92445200Y-148449600D02*
X83850100Y-148449600D01*
X83850100Y-148449600D02*
X82800000Y-149499700D01*
X45300000Y-135600000D02*
X55000000Y-125900000D01*
X55000000Y-125900000D02*
X55000000Y-122600000D01*
X45300000Y-135600000D02*
X45130300Y-135600000D01*
X45130300Y-135600000D02*
X42050300Y-138680000D01*
X40300000Y-138680000D02*
X42050300Y-138680000D01*
X358820000Y-136980000D02*
X357054300Y-135214300D01*
X357054300Y-135214300D02*
X357054300Y-133665700D01*
X357054300Y-133665700D02*
X358820000Y-131900000D01*
X315300000Y-191800000D02*
X316362900Y-190737100D01*
X316362900Y-190737100D02*
X328601200Y-190737100D01*
X328601200Y-190737100D02*
X329101300Y-190237000D01*
X329101300Y-190237000D02*
X333637000Y-190237000D01*
X333637000Y-190237000D02*
X335400000Y-192000000D01*
X316200000Y-155232500D02*
X313254000Y-155232500D01*
X313254000Y-155232500D02*
X312117900Y-156368600D01*
X312117900Y-156368600D02*
X308656900Y-156368600D01*
X308656900Y-156368600D02*
X307792600Y-155504300D01*
X307792600Y-155504300D02*
X292147400Y-155504300D01*
X336800000Y-155200000D02*
X334592800Y-155200000D01*
X334592800Y-155200000D02*
X332834600Y-156958200D01*
X332834600Y-156958200D02*
X328421700Y-156958200D01*
X328421700Y-156958200D02*
X326696000Y-155232500D01*
X326696000Y-155232500D02*
X316200000Y-155232500D01*
X238800000Y-157460000D02*
X237049700Y-157460000D01*
X234200000Y-157600000D02*
X236909700Y-157600000D01*
X236909700Y-157600000D02*
X237049700Y-157460000D01*
X78200000Y-194800000D02*
X100900000Y-194800000D01*
X100900000Y-194800000D02*
X101400000Y-194300000D01*
X316200000Y-154600000D02*
X316200000Y-155232500D01*
X196200000Y-90049700D02*
X211230000Y-90049700D01*
X211230000Y-90049700D02*
X213614000Y-92433700D01*
X292147400Y-155504300D02*
X279695700Y-155504300D01*
X279695700Y-155504300D02*
X277800000Y-157400000D01*
X292147400Y-155504300D02*
X292147400Y-150847400D01*
X292147400Y-150847400D02*
X292000000Y-150700000D01*
X270370300Y-174900000D02*
X283069700Y-174900000D01*
X283069700Y-174900000D02*
X285269700Y-177100000D01*
X268620000Y-174900000D02*
X270370300Y-174900000D01*
X177400000Y-101500000D02*
X183100000Y-101500000D01*
X351400000Y-122520000D02*
X349649700Y-122520000D01*
X339870300Y-127600000D02*
X344569700Y-127600000D01*
X344569700Y-127600000D02*
X349649700Y-122520000D01*
X292000000Y-147300000D02*
X292000000Y-150700000D01*
X156420000Y-204400000D02*
X158170300Y-204400000D01*
X168720000Y-204400000D02*
X166969700Y-204400000D01*
X166969700Y-204400000D02*
X165219400Y-206150300D01*
X165219400Y-206150300D02*
X159920600Y-206150300D01*
X159920600Y-206150300D02*
X158170300Y-204400000D01*
X353000000Y-191800000D02*
X352800000Y-192000000D01*
X352800000Y-192000000D02*
X335400000Y-192000000D01*
X287020000Y-177100000D02*
X285269700Y-177100000D01*
X338120000Y-127600000D02*
X339870300Y-127600000D01*
X114640000Y-150200000D02*
X112889700Y-150200000D01*
X77620000Y-145900000D02*
X77620000Y-147700300D01*
X82800000Y-151300000D02*
X82800000Y-149499700D01*
X82800000Y-149499700D02*
X79419400Y-149499700D01*
X79419400Y-149499700D02*
X77620000Y-147700300D01*
X358820000Y-144600000D02*
X351200000Y-144600000D01*
X309800000Y-132300000D02*
X317420000Y-132300000D01*
X196200000Y-91600000D02*
X196200000Y-90049700D01*
X213614000Y-94234000D02*
X213614000Y-92433700D01*
D35*
X242686300Y-167438100D02*
X242961400Y-167163000D01*
X242961400Y-167163000D02*
X243615600Y-167163000D01*
X243615600Y-167163000D02*
X244082500Y-166696100D01*
X244082500Y-166696100D02*
X275689100Y-166696100D01*
X275689100Y-166696100D02*
X275808400Y-166815400D01*
X275808400Y-166815400D02*
X282007300Y-166815400D01*
X282007300Y-166815400D02*
X282126600Y-166696100D01*
X282126600Y-166696100D02*
X287528900Y-166696100D01*
X287528900Y-166696100D02*
X288852200Y-165372800D01*
X288852200Y-165372800D02*
X300092500Y-165372800D01*
X300092500Y-165372800D02*
X303517600Y-161947700D01*
X303517600Y-161947700D02*
X305611500Y-161947700D01*
X305611500Y-161947700D02*
X305684100Y-162020300D01*
X305684100Y-162020300D02*
X322197300Y-162020300D01*
X322197300Y-162020300D02*
X322612000Y-162435000D01*
X322612000Y-162435000D02*
X324773300Y-162435000D01*
X324773300Y-162435000D02*
X325462300Y-161746000D01*
X325462300Y-161746000D02*
X367488700Y-161746000D01*
X367488700Y-161746000D02*
X377094700Y-152140000D01*
X378220000Y-152140000D02*
X377094700Y-152140000D01*
X237125700Y-167252600D02*
X241540600Y-167252600D01*
X241540600Y-167252600D02*
X242080500Y-166712700D01*
X242080500Y-166712700D02*
X243429000Y-166712700D01*
X243429000Y-166712700D02*
X243895900Y-166245800D01*
X243895900Y-166245800D02*
X275875700Y-166245800D01*
X275875700Y-166245800D02*
X275995000Y-166365100D01*
X275995000Y-166365100D02*
X281820700Y-166365100D01*
X281820700Y-166365100D02*
X281940000Y-166245800D01*
X281940000Y-166245800D02*
X287342300Y-166245800D01*
X287342300Y-166245800D02*
X288665600Y-164922500D01*
X288665600Y-164922500D02*
X299905900Y-164922500D01*
X299905900Y-164922500D02*
X303331000Y-161497400D01*
X303331000Y-161497400D02*
X305798100Y-161497400D01*
X305798100Y-161497400D02*
X305870700Y-161570000D01*
X305870700Y-161570000D02*
X322383900Y-161570000D01*
X322383900Y-161570000D02*
X322798600Y-161984700D01*
X322798600Y-161984700D02*
X324586700Y-161984700D01*
X324586700Y-161984700D02*
X325275800Y-161295600D01*
X325275800Y-161295600D02*
X360556900Y-161295600D01*
X360556900Y-161295600D02*
X360833700Y-161018800D01*
X142893400Y-141919000D02*
X140216400Y-139242000D01*
X140216400Y-139242000D02*
X135277500Y-139242000D01*
X135277500Y-139242000D02*
X132407200Y-136371700D01*
X132407200Y-136371700D02*
X118427800Y-136371700D01*
X118427800Y-136371700D02*
X112900300Y-141899200D01*
X112900300Y-141899200D02*
X71331500Y-141899200D01*
X71331500Y-141899200D02*
X70490700Y-142740000D01*
X70490700Y-142740000D02*
X61540000Y-142740000D01*
X212194700Y-189900000D02*
X211069400Y-191025300D01*
X211069400Y-191025300D02*
X195296900Y-191025300D01*
X195296900Y-191025300D02*
X195192900Y-190921300D01*
X195192900Y-190921300D02*
X175964600Y-190921300D01*
X175964600Y-190921300D02*
X173901200Y-188857900D01*
X173901200Y-188857900D02*
X147911200Y-188857900D01*
X147911200Y-188857900D02*
X147742200Y-188688900D01*
X213320000Y-189900000D02*
X212194700Y-189900000D01*
X121894700Y-123900000D02*
X117694700Y-128100000D01*
X123020000Y-123900000D02*
X121894700Y-123900000D01*
X117569700Y-127975000D02*
X108625000Y-127975000D01*
X117694700Y-128100000D02*
X117569700Y-127975000D01*
X299620000Y-140200000D02*
X300745300Y-140200000D01*
X309800000Y-139920000D02*
X301025300Y-139920000D01*
X301025300Y-139920000D02*
X300745300Y-140200000D01*
X300760300Y-143700000D02*
X302000300Y-142460000D01*
X302000300Y-142460000D02*
X309800000Y-142460000D01*
X299635000Y-143700000D02*
X300760300Y-143700000D01*
X299620000Y-150700000D02*
X300745300Y-150700000D01*
X309800000Y-147540000D02*
X303905300Y-147540000D01*
X303905300Y-147540000D02*
X300745300Y-150700000D01*
X80700000Y-113400000D02*
X80587400Y-113287400D01*
X80587400Y-113287400D02*
X60377100Y-113287400D01*
X60377100Y-113287400D02*
X59810700Y-113853800D01*
X59810700Y-113853800D02*
X50478600Y-113853800D01*
X50478600Y-113853800D02*
X49977500Y-114354900D01*
X49977500Y-114354900D02*
X43754900Y-114354900D01*
X43754900Y-114354900D02*
X42100000Y-112700000D01*
M02*
