M48
; DRILL file {KiCad (5.1.5)-3} date 8/15/2021 10:03:38 PM
; FORMAT={-:-/ absolute / inch / decimal}
; #@! TF.CreationDate,2021-08-15T22:03:38-05:00
; #@! TF.GenerationSoftware,Kicad,Pcbnew,(5.1.5)-3
; #@! TF.FileFunction,Plated,1,2,PTH
FMAT,2
INCH
T1C0.0157
T2C0.0236
T3C0.0300
T4C0.0315
T5C0.0350
T6C0.0394
T7C0.0512
T8C0.0902
T9C0.1260
%
G90
G05
T1
X1.8827Y-6.88
X1.9368Y-4.4308
X2.1822Y-4.0709
X2.2307Y-8.1785
X2.336Y-6.4723
X2.3635Y-6.3445
X2.4913Y-6.3011
X2.5561Y-6.2042
X2.5908Y-6.373
X2.7281Y-6.8935
X2.762Y-6.4813
X2.8175Y-5.6728
X2.827Y-7.7115
X2.8632Y-5.7626
X2.9258Y-7.1947
X2.9859Y-7.3852
X3.0086Y-7.2636
X3.0117Y-5.8836
X3.0394Y-4.2179
X3.0786Y-4.644
X3.1328Y-7.3878
X3.1725Y-5.4411
X3.1969Y-6.0558
X3.2991Y-5.6506
X3.332Y-5.7904
X3.3427Y-4.0601
X3.4429Y-5.9437
X3.4671Y-4.038
X3.5425Y-6.8076
X3.5737Y-6.4075
X3.5907Y-4.0467
X3.6729Y-5.8863
X3.7065Y-5.413
X3.9872Y-5.6336
X4.1319Y-6.5233
X4.1349Y-7.8683
X4.1536Y-5.9846
X4.1709Y-6.4107
X4.1763Y-6.4944
X4.1815Y-7.1106
X4.2148Y-5.2524
X4.2587Y-7.3761
X4.2629Y-6.6412
X4.3071Y-7.7609
X4.317Y-8.0579
X4.3462Y-6.6859
X4.3647Y-7.424
X4.392Y-5.558
X4.4075Y-5.8533
X4.4412Y-5.7939
X4.4536Y-5.8576
X4.4573Y-8.0307
X4.5049Y-4.0756
X4.5061Y-5.6952
X4.5281Y-5.5838
X4.5297Y-7.541
X4.5675Y-5.7392
X4.6422Y-7.2428
X4.6497Y-4.6391
X4.6532Y-6.2245
X4.6576Y-6.4703
X4.6798Y-7.788
X4.6899Y-7.9126
X4.6997Y-6.2588
X4.7235Y-7.3578
X4.739Y-7.4067
X4.8153Y-7.1603
X4.8448Y-6.3645
X4.864Y-5.9852
X4.9171Y-6.6513
X4.9786Y-6.2402
X4.9835Y-6.7952
X4.9856Y-5.6668
X5.0132Y-7.2827
X5.0603Y-6.9039
X5.0605Y-6.7305
X5.2057Y-7.2384
X5.2478Y-5.1483
X5.2502Y-6.3053
X5.276Y-5.0714
X5.3294Y-6.2101
X5.3624Y-6.1281
X5.3696Y-4.6816
X5.3938Y-4.3954
X5.4379Y-6.3271
X5.5161Y-5.9395
X5.5383Y-6.8636
X5.5402Y-7.161
X5.5511Y-6.6475
X5.6003Y-6.9512
X5.6257Y-5.5874
X5.6606Y-4.4239
X5.7164Y-7.4006
X5.8166Y-7.4287
X5.8749Y-6.4229
X5.9962Y-5.3918
X6.0059Y-8.1322
X6.1626Y-6.7971
X6.3041Y-5.2885
X6.37Y-6.9988
X6.448Y-4.7939
X6.5001Y-6.9645
X6.5718Y-6.188
X6.5926Y-4.122
X6.6324Y-5.3632
X6.6324Y-5.4607
X6.6914Y-7.9501
X6.7099Y-5.2351
X6.7974Y-7.7456
X6.8106Y-7.8177
X6.8809Y-6.3866
X6.8839Y-7.2396
X6.951Y-6.7489
X6.9574Y-5.3386
X6.9867Y-5.2386
X6.9981Y-5.4779
X7.0634Y-5.6386
X7.0648Y-4.255
X7.0755Y-4.0692
X7.0929Y-5.9584
X7.0934Y-6.0886
X7.0957Y-4.3298
X7.0972Y-4.3871
X7.1017Y-5.0852
X7.1026Y-6.7807
X7.1424Y-4.312
X7.1482Y-6.7627
X7.1616Y-4.4202
X7.195Y-6.3655
X7.2143Y-6.1515
X7.2189Y-5.2599
X7.2337Y-5.513
X7.2531Y-5.1951
X7.298Y-5.1493
X7.3053Y-6.7039
X7.3139Y-4.2059
X7.3244Y-4.3015
X7.3691Y-4.2963
X7.4569Y-4.3844
X7.4609Y-6.6609
X7.473Y-4.4903
X7.5082Y-7.8358
X7.5156Y-6.2306
X7.5539Y-5.3573
X7.557Y-6.6952
X7.5901Y-4.9883
X7.6989Y-6.256
X7.745Y-3.9839
X7.775Y-5.0835
X7.8952Y-6.3492
X7.9165Y-5.415
X8.1004Y-4.6719
X8.1327Y-6.065
X8.1619Y-6.3492
X8.182Y-6.6025
X8.2257Y-5.6121
X8.2394Y-7.0461
X8.267Y-4.4403
X8.323Y-6.6025
X8.3655Y-4.4618
X8.4025Y-5.9082
X8.4132Y-5.265
X8.5664Y-5.0673
X8.6025Y-3.5514
X8.6111Y-6.165
X8.6439Y-6.567
X8.6626Y-3.5899
X8.6951Y-5.7687
X8.7142Y-6.0627
X8.7144Y-4.3627
X8.7589Y-4.9731
X8.7681Y-6.7607
X8.7704Y-5.0127
X8.8641Y-6.589
X8.8853Y-4.9941
X8.8865Y-4.5826
X8.8973Y-6.7626
X8.9976Y-6.7848
X9.018Y-5.8996
X9.0395Y-7.9737
X9.0826Y-6.7848
X9.0874Y-5.6785
X9.1232Y-6.5992
X9.1493Y-5.8505
X9.1626Y-6.5847
X9.1927Y-7.8676
X9.2211Y-5.7071
X9.2795Y-4.8746
X9.2885Y-7.9478
X9.2963Y-6.5857
X9.3142Y-5.8172
X9.3357Y-6.5847
X9.3407Y-6.2694
X9.3584Y-7.3141
X9.3749Y-8.1486
X9.3939Y-7.0355
X9.4206Y-6.8628
X9.5109Y-7.2435
X9.5448Y-5.6725
X9.5546Y-6.5921
X9.5944Y-5.0476
X9.5946Y-5.1108
X9.5975Y-5.8206
X9.6178Y-5.8702
X9.6243Y-5.346
X9.6301Y-6.639
X9.652Y-4.0482
X9.6546Y-5.1924
X9.6577Y-5.0686
X9.6691Y-4.2455
X9.6695Y-6.6318
X9.6919Y-5.5935
X9.6936Y-6.8796
X9.6948Y-5.8992
X9.7017Y-4.0364
X9.702Y-6.9461
X9.7067Y-7.825
X9.7324Y-4.2147
X9.7555Y-7.247
X9.7667Y-7.6803
X9.7688Y-7.0484
X9.7753Y-8.0623
X9.7776Y-6.3518
X9.7865Y-4.4821
X9.7994Y-7.927
X9.8054Y-6.5914
X9.8874Y-6.6091
X9.8882Y-7.7699
X9.8966Y-5.7198
X9.9312Y-7.9767
X9.9341Y-4.3248
X9.9408Y-3.7607
X9.9422Y-4.4364
X10.0469Y-4.8651
X10.0784Y-4.5666
X10.0827Y-5.9431
X10.0831Y-7.0335
X10.1186Y-7.2341
X10.1225Y-7.0211
X10.1233Y-4.8625
X10.1244Y-4.1868
X10.1447Y-6.0062
X10.1455Y-5.0936
X10.1466Y-4.9014
X10.1777Y-4.2044
X10.1912Y-6.8523
X10.2492Y-5.7226
X10.2927Y-5.8597
X10.2927Y-3.701
X10.3399Y-7.2329
X10.475Y-3.8112
X10.5179Y-3.7715
X10.6483Y-5.4435
X10.7051Y-5.925
X10.7051Y-7.9038
X10.7321Y-5.5588
X10.7488Y-6.1079
X10.8018Y-7.6161
X10.8375Y-7.3196
X10.9262Y-6.0364
X10.9262Y-5.5794
X10.938Y-7.1436
X10.9806Y-6.2731
X11.0434Y-5.2573
X11.0762Y-5.7708
X11.0825Y-7.7193
X11.114Y-6.2662
X11.1412Y-6.6446
X11.2274Y-6.3113
X11.2359Y-7.2482
X11.2649Y-6.3563
X11.2718Y-5.7289
X11.2957Y-4.2124
X11.3006Y-6.8664
X11.3173Y-5.4934
X11.3188Y-6.0244
X11.3709Y-6.3699
X11.4051Y-5.9688
X11.4189Y-6.748
X11.4329Y-7.3529
X11.4384Y-7.5224
X11.4389Y-6.6554
X11.4487Y-6.0679
X11.456Y-7.4601
X11.5498Y-6.6338
X11.5878Y-4.8729
X11.5886Y-4.9733
X11.5892Y-6.6377
X11.6113Y-6.7303
X11.7039Y-6.1785
X11.7102Y-8.0791
X11.7334Y-6.8233
X11.7802Y-6.3883
X11.8607Y-6.299
X11.9109Y-7.1167
X11.9236Y-7.9767
X11.9366Y-6.5461
X11.9852Y-6.4576
X11.9915Y-6.7136
X11.9942Y-7.4659
X12.006Y-7.3158
X12.0375Y-6.4437
X12.0529Y-5.4358
X12.0557Y-6.9725
X12.0835Y-7.9238
X12.1405Y-4.3697
X12.1455Y-7.8052
X12.2489Y-6.6146
X12.2521Y-5.3831
X12.2716Y-5.4402
X12.2748Y-6.6812
X12.3014Y-6.4428
X12.3465Y-7.6418
X12.4282Y-5.9785
X12.4641Y-5.5543
X12.5364Y-7.7819
X12.539Y-7.7126
X12.5615Y-5.1566
X12.5764Y-7.8265
X12.6245Y-5.7736
X12.6316Y-7.2998
X12.6489Y-7.1203
X12.7005Y-6.8817
X12.7089Y-7.7251
X12.7317Y-7.023
X12.7385Y-7.8081
X12.7525Y-6.3133
X12.7702Y-5.0376
X12.7702Y-5.1103
X12.8008Y-7.383
X12.8057Y-6.1803
X12.8259Y-5.3249
X12.8403Y-7.2468
X12.8454Y-4.1026
X12.8562Y-7.3628
X12.8635Y-5.0626
X12.8813Y-6.8797
X12.8915Y-7.0646
X12.8966Y-7.6464
X12.9016Y-6.8182
X12.9114Y-5.1461
X12.915Y-7.4562
X12.9609Y-4.1137
X12.9666Y-4.8431
X12.9672Y-5.2759
X12.9678Y-4.7275
X12.9699Y-5.5849
X12.9794Y-4.2494
X12.992Y-3.9385
X13.0354Y-4.2352
X13.0852Y-7.0329
X13.0887Y-6.6549
X13.0992Y-4.2208
X13.1055Y-4.0285
X13.1116Y-5.9889
X13.149Y-6.7362
X13.1525Y-4.8716
X13.1581Y-7.2063
X13.1886Y-4.2208
X13.1982Y-7.2099
X13.2349Y-4.0285
X13.2413Y-4.9645
X13.2451Y-4.9074
X13.2685Y-7.8277
X13.2911Y-4.7808
X13.3109Y-6.9045
X13.3195Y-6.2374
X13.3574Y-6.283
X13.371Y-6.8191
X13.3812Y-5.6455
X13.3944Y-6.2434
X13.4074Y-6.547
X13.4779Y-5.9068
X13.4927Y-6.1952
X13.5673Y-6.0203
X13.6934Y-5.8951
X13.6947Y-6.6203
X13.7317Y-6.1094
X13.7454Y-6.2983
X13.7858Y-4.3212
X13.8332Y-4.2899
X13.8757Y-5.9378
X14.0208Y-6.2468
X14.0276Y-4.2884
X14.1359Y-6.2334
X14.1601Y-6.2781
X14.1976Y-6.0032
X14.2061Y-6.3393
X14.2077Y-6.1926
X14.3035Y-6.2781
X14.334Y-6.2334
X14.4589Y-6.4156
X14.5674Y-3.8863
X14.5873Y-3.6101
X14.8916Y-3.9215
X14.8929Y-6.6578
X15.2538Y-3.7571
X15.2867Y-6.7223
T2
X14.1978Y-4.2884
X14.1978Y-4.3671
X3.2638Y-5.0551
X3.2638Y-5.1339
X2.5472Y-3.8858
X2.626Y-3.8858
X3.7244Y-4.7047
X3.7244Y-4.7835
X4.1024Y-4.7087
X4.1024Y-4.7874
X7.7244Y-3.6063
X7.8031Y-3.6063
T3
X11.5236Y-3.8307
X11.5236Y-3.9606
X11.6795Y-3.8307
X11.6795Y-3.9606
X11.8354Y-3.8307
X11.8354Y-3.9606
X11.9913Y-3.8307
X11.9913Y-3.9606
X12.1472Y-3.8307
X12.1472Y-3.9606
X12.3031Y-3.8307
X12.3031Y-3.9606
X12.4591Y-3.8307
X12.4591Y-3.9606
X12.615Y-3.8307
X12.615Y-3.9606
X12.7709Y-3.8307
X12.7709Y-3.9606
X12.9268Y-3.8307
X12.9268Y-3.9606
X13.0827Y-3.8307
X13.0827Y-3.9606
X13.2386Y-3.8307
X13.2386Y-3.9606
X13.3945Y-3.8307
X13.3945Y-3.9606
X13.5504Y-3.8307
X13.5504Y-3.9606
X13.7063Y-3.8307
X13.7063Y-3.9606
X13.8622Y-3.8307
X13.8622Y-3.9606
X14.0181Y-3.8307
X14.0181Y-3.9606
X14.174Y-3.8307
X14.174Y-3.9606
X14.3299Y-3.8307
X14.3299Y-3.9606
X14.4858Y-3.8307
X14.4858Y-3.9606
X14.6417Y-3.8307
X14.6417Y-3.9606
X14.7976Y-3.8307
X14.7976Y-3.9606
T4
X8.815Y-6.9606
X8.815Y-7.0606
X8.815Y-7.1606
X8.815Y-7.2606
X8.815Y-7.3606
X8.815Y-7.4606
X8.815Y-7.5606
X9.115Y-6.9606
X9.115Y-7.0606
X9.115Y-7.1606
X9.115Y-7.2606
X9.115Y-7.3606
X9.115Y-7.4606
X9.115Y-7.5606
X2.6339Y-5.5252
X2.6339Y-5.9252
X14.6575Y-6.9173
X14.8543Y-6.9173
X1.6811Y-4.8228
X1.9811Y-4.8228
X7.3701Y-6.9646
X7.3701Y-7.0646
X7.3701Y-7.1646
X7.3701Y-7.2646
X7.3701Y-7.3646
X7.3701Y-7.4646
X7.3701Y-7.5646
X7.6701Y-6.9646
X7.6701Y-7.0646
X7.6701Y-7.1646
X7.6701Y-7.2646
X7.6701Y-7.3646
X7.6701Y-7.4646
X7.6701Y-7.5646
X6.4252Y-7.7559
X6.622Y-7.7559
X1.8228Y-5.5197
X1.8228Y-5.6197
X1.8228Y-5.7197
X1.8228Y-5.8197
X1.8228Y-5.9197
X1.8228Y-6.0197
X1.8228Y-6.1197
X1.8228Y-6.2197
X1.8228Y-6.3197
X1.8228Y-6.4197
X1.8228Y-6.5197
X1.8228Y-6.6197
X1.8228Y-6.7197
X1.8228Y-6.8197
X1.8228Y-6.9197
X1.8228Y-7.0197
X1.8228Y-7.1197
X1.8228Y-7.2197
X1.8228Y-7.3197
X1.8228Y-7.4197
X2.4228Y-5.5197
X2.4228Y-5.6197
X2.4228Y-5.7197
X2.4228Y-5.8197
X2.4228Y-5.9197
X2.4228Y-6.0197
X2.4228Y-6.1197
X2.4228Y-6.2197
X2.4228Y-6.3197
X2.4228Y-6.4197
X2.4228Y-6.5197
X2.4228Y-6.6197
X2.4228Y-6.7197
X2.4228Y-6.8197
X2.4228Y-6.9197
X2.4228Y-7.0197
X2.4228Y-7.1197
X2.4228Y-7.2197
X2.4228Y-7.3197
X2.4228Y-7.4197
X7.3268Y-8.0512
X7.6268Y-8.0512
X12.1969Y-5.2087
X12.1969Y-5.3087
X12.1969Y-5.4087
X12.1969Y-5.5087
X12.1969Y-5.6087
X12.1969Y-5.7087
X12.1969Y-5.8087
X12.1969Y-5.9087
X12.4969Y-5.2087
X12.4969Y-5.3087
X12.4969Y-5.4087
X12.4969Y-5.5087
X12.4969Y-5.6087
X12.4969Y-5.7087
X12.4969Y-5.8087
X12.4969Y-5.9087
X1.5866Y-6.5551
X1.5866Y-6.8551
X2.6063Y-4.5236
X2.9063Y-4.5236
X3.9921Y-7.6496
X4.189Y-7.6496
X13.0551Y-4.3937
X13.0551Y-4.4937
X13.0551Y-4.5937
X13.0551Y-4.6937
X13.3551Y-4.3937
X13.3551Y-4.4937
X13.3551Y-4.5937
X13.3551Y-4.6937
X11.0039Y-7.752
X11.2008Y-7.752
X12.252Y-6.0866
X12.4488Y-6.0866
X5.8937Y-7.4803
X6.0906Y-7.4803
X6.8071Y-6.5197
X7.0039Y-6.5197
X5.9724Y-5.0079
X6.3724Y-5.0079
X12.5354Y-8.0354
X12.8354Y-8.0354
X6.6063Y-3.5827
X6.6063Y-3.7795
X11.0Y-6.9724
X11.0Y-7.0724
X11.0Y-7.1724
X11.0Y-7.2724
X11.0Y-7.3724
X11.0Y-7.4724
X11.0Y-7.5724
X11.3Y-6.9724
X11.3Y-7.0724
X11.3Y-7.1724
X11.3Y-7.2724
X11.3Y-7.3724
X11.3Y-7.4724
X11.3Y-7.5724
X13.063Y-6.1102
X13.2598Y-6.1102
X7.3378Y-3.7953
X7.6378Y-3.7953
X10.2756Y-6.8858
X10.2756Y-6.9858
X10.2756Y-7.0858
X10.2756Y-7.1858
X10.2756Y-7.2858
X10.2756Y-7.3858
X10.2756Y-7.4858
X10.2756Y-7.5858
X10.5756Y-6.8858
X10.5756Y-6.9858
X10.5756Y-7.0858
X10.5756Y-7.1858
X10.5756Y-7.2858
X10.5756Y-7.3858
X10.5756Y-7.4858
X10.5756Y-7.5858
X2.1339Y-5.126
X2.4339Y-5.126
X1.5866Y-5.4598
X1.5866Y-5.7598
X8.063Y-4.315
X8.063Y-4.415
X8.063Y-4.515
X8.063Y-4.615
X8.063Y-4.715
X8.063Y-4.815
X8.063Y-4.915
X8.063Y-5.015
X8.063Y-5.115
X8.063Y-5.215
X8.063Y-5.315
X8.063Y-5.415
X8.063Y-5.515
X8.063Y-5.615
X8.063Y-5.715
X8.063Y-5.815
X8.063Y-5.915
X8.063Y-6.015
X8.063Y-6.115
X8.063Y-6.215
X8.663Y-4.315
X8.663Y-4.415
X8.663Y-4.515
X8.663Y-4.615
X8.663Y-4.715
X8.663Y-4.815
X8.663Y-4.915
X8.663Y-5.015
X8.663Y-5.115
X8.663Y-5.215
X8.663Y-5.315
X8.663Y-5.415
X8.663Y-5.515
X8.663Y-5.615
X8.663Y-5.715
X8.663Y-5.815
X8.663Y-5.915
X8.663Y-6.015
X8.663Y-6.115
X8.663Y-6.215
X7.374Y-7.752
X7.5709Y-7.752
X13.8268Y-6.4646
X13.8268Y-6.5646
X13.8268Y-6.6646
X13.8268Y-6.7646
X13.8268Y-6.8646
X13.8268Y-6.9646
X13.8268Y-7.0646
X13.8268Y-7.1646
X13.8268Y-7.2646
X13.8268Y-7.3646
X14.1268Y-6.4646
X14.1268Y-6.5646
X14.1268Y-6.6646
X14.1268Y-6.7646
X14.1268Y-6.8646
X14.1268Y-6.9646
X14.1268Y-7.0646
X14.1268Y-7.1646
X14.1268Y-7.2646
X14.1268Y-7.3646
X5.1693Y-6.5945
X5.3661Y-6.5945
X10.7402Y-6.1969
X10.937Y-6.1969
X5.3622Y-4.3189
X5.7622Y-4.3189
X11.4961Y-5.7992
X11.7961Y-5.7992
X1.6929Y-5.0906
X1.8898Y-5.0906
X4.1929Y-8.0906
X4.4929Y-8.0906
X9.3268Y-7.1614
X9.3268Y-7.5614
X3.9134Y-5.9134
X3.9134Y-6.0134
X3.9134Y-6.1134
X3.9134Y-6.2134
X3.9134Y-6.3134
X3.9134Y-6.4134
X3.9134Y-6.5134
X3.9134Y-6.6134
X3.9134Y-6.7134
X3.9134Y-6.8134
X3.9134Y-6.9134
X3.9134Y-7.0134
X3.9134Y-7.1134
X3.9134Y-7.2134
X3.9134Y-7.3134
X3.9134Y-7.4134
X4.5134Y-5.9134
X4.5134Y-6.0134
X4.5134Y-6.1134
X4.5134Y-6.2134
X4.5134Y-6.3134
X4.5134Y-6.4134
X4.5134Y-6.5134
X4.5134Y-6.6134
X4.5134Y-6.7134
X4.5134Y-6.8134
X4.5134Y-6.9134
X4.5134Y-7.0134
X4.5134Y-7.1134
X4.5134Y-7.2134
X4.5134Y-7.3134
X4.5134Y-7.4134
X7.2087Y-3.9961
X7.5087Y-3.9961
X6.6803Y-4.1496
X6.9803Y-4.1496
X2.6535Y-4.7795
X2.9535Y-4.7795
X11.6063Y-4.7441
X11.9063Y-4.7441
X11.6063Y-4.6102
X11.9063Y-4.6102
X8.1575Y-6.4055
X8.3543Y-6.4055
X9.6063Y-7.7638
X9.8031Y-7.7638
X5.0787Y-4.1181
X5.4787Y-4.1181
X4.0797Y-5.0384
X4.2766Y-5.0384
X5.9764Y-4.5472
X6.3764Y-4.5472
X13.878Y-6.0669
X14.0748Y-6.0669
X4.1929Y-7.9134
X4.4929Y-7.9134
X8.622Y-6.9724
X8.622Y-7.3724
X6.3425Y-8.0472
X6.6425Y-8.0472
X2.8819Y-6.1378
X2.8819Y-6.2378
X2.8819Y-6.3378
X2.8819Y-6.4378
X2.8819Y-6.5378
X2.8819Y-6.6378
X2.8819Y-6.7378
X2.8819Y-6.8378
X2.8819Y-6.9378
X2.8819Y-7.0378
X2.8819Y-7.1378
X2.8819Y-7.2378
X2.8819Y-7.3378
X2.8819Y-7.4378
X3.4819Y-6.1378
X3.4819Y-6.2378
X3.4819Y-6.3378
X3.4819Y-6.4378
X3.4819Y-6.5378
X3.4819Y-6.6378
X3.4819Y-6.7378
X3.4819Y-6.8378
X3.4819Y-6.9378
X3.4819Y-7.0378
X3.4819Y-7.1378
X3.4819Y-7.2378
X3.4819Y-7.3378
X3.4819Y-7.4378
X13.8268Y-5.1929
X13.8268Y-5.2929
X13.8268Y-5.3929
X13.8268Y-5.4929
X13.8268Y-5.5929
X13.8268Y-5.6929
X13.8268Y-5.7929
X13.8268Y-5.8929
X14.1268Y-5.1929
X14.1268Y-5.2929
X14.1268Y-5.3929
X14.1268Y-5.4929
X14.1268Y-5.5929
X14.1268Y-5.6929
X14.1268Y-5.7929
X14.1268Y-5.8929
X12.1654Y-6.4646
X12.1654Y-6.5646
X12.1654Y-6.6646
X12.1654Y-6.7646
X12.1654Y-6.8646
X12.1654Y-6.9646
X12.1654Y-7.0646
X12.1654Y-7.1646
X12.1654Y-7.2646
X12.1654Y-7.3646
X12.4654Y-6.4646
X12.4654Y-6.5646
X12.4654Y-6.6646
X12.4654Y-6.7646
X12.4654Y-6.8646
X12.4654Y-6.9646
X12.4654Y-7.0646
X12.4654Y-7.1646
X12.4654Y-7.2646
X12.4654Y-7.3646
X5.8583Y-8.0472
X6.1583Y-8.0472
X3.6378Y-4.437
X3.9378Y-4.437
X9.4016Y-4.2992
X9.4016Y-4.3992
X9.4016Y-4.4992
X9.4016Y-4.5992
X9.4016Y-4.6992
X9.4016Y-4.7992
X9.4016Y-4.8992
X9.4016Y-4.9992
X9.4016Y-5.0992
X9.4016Y-5.1992
X9.4016Y-5.2992
X9.4016Y-5.3992
X9.4016Y-5.4992
X9.4016Y-5.5992
X9.4016Y-5.6992
X9.4016Y-5.7992
X9.4016Y-5.8992
X9.4016Y-5.9992
X9.4016Y-6.0992
X9.4016Y-6.1992
X10.0016Y-4.2992
X10.0016Y-4.3992
X10.0016Y-4.4992
X10.0016Y-4.5992
X10.0016Y-4.6992
X10.0016Y-4.7992
X10.0016Y-4.8992
X10.0016Y-4.9992
X10.0016Y-5.0992
X10.0016Y-5.1992
X10.0016Y-5.2992
X10.0016Y-5.3992
X10.0016Y-5.4992
X10.0016Y-5.5992
X10.0016Y-5.6992
X10.0016Y-5.7992
X10.0016Y-5.8992
X10.0016Y-5.9992
X10.0016Y-6.0992
X10.0016Y-6.1992
X11.6063Y-4.3346
X11.9063Y-4.3346
X2.7638Y-4.0433
X2.9606Y-4.0433
X12.2087Y-4.4331
X12.2087Y-4.5331
X12.2087Y-4.6331
X12.2087Y-4.7331
X12.5087Y-4.4331
X12.5087Y-4.5331
X12.5087Y-4.6331
X12.5087Y-4.7331
X13.0079Y-7.5591
X13.2047Y-7.5591
X4.5984Y-4.6063
X4.9984Y-4.6063
X11.4961Y-5.5197
X11.7961Y-5.5197
X4.1417Y-4.1417
X4.3386Y-4.1417
X2.7441Y-4.2717
X2.9409Y-4.2717
X4.1496Y-4.4331
X4.3465Y-4.4331
X5.878Y-6.7165
X6.0748Y-6.7165
X1.5827Y-7.4213
X1.5827Y-7.7213
X14.8858Y-4.3181
X14.8858Y-4.6181
X3.1772Y-4.4646
X3.4772Y-4.4646
X5.1654Y-4.5157
X5.1654Y-4.6157
X5.1654Y-4.7157
X5.1654Y-4.8157
X5.1654Y-4.9157
X5.1654Y-5.0157
X5.1654Y-5.1157
X5.1654Y-5.2157
X5.1654Y-5.3157
X5.1654Y-5.4157
X5.1654Y-5.5157
X5.1654Y-5.6157
X5.1654Y-5.7157
X5.1654Y-5.8157
X5.1654Y-5.9157
X5.1654Y-6.0157
X5.1654Y-6.1157
X5.1654Y-6.2157
X5.1654Y-6.3157
X5.1654Y-6.4157
X5.7654Y-4.5157
X5.7654Y-4.6157
X5.7654Y-4.7157
X5.7654Y-4.8157
X5.7654Y-4.9157
X5.7654Y-5.0157
X5.7654Y-5.1157
X5.7654Y-5.2157
X5.7654Y-5.3157
X5.7654Y-5.4157
X5.7654Y-5.5157
X5.7654Y-5.6157
X5.7654Y-5.7157
X5.7654Y-5.8157
X5.7654Y-5.9157
X5.7654Y-6.0157
X5.7654Y-6.1157
X5.7654Y-6.2157
X5.7654Y-6.3157
X5.7654Y-6.4157
X3.2047Y-4.1535
X3.5047Y-4.1535
X13.8346Y-4.5236
X13.8346Y-4.6236
X13.8346Y-4.7236
X13.8346Y-4.8236
X14.1346Y-4.5236
X14.1346Y-4.6236
X14.1346Y-4.7236
X14.1346Y-4.8236
X8.8189Y-7.7638
X9.0157Y-7.7638
X12.2165Y-7.5512
X12.4134Y-7.5512
X5.1181Y-7.0827
X5.1181Y-7.1827
X5.1181Y-7.2827
X5.1181Y-7.3827
X5.1181Y-7.4827
X5.1181Y-7.5827
X5.1181Y-7.6827
X5.1181Y-7.7827
X5.1181Y-7.8827
X5.1181Y-7.9827
X5.4181Y-7.0827
X5.4181Y-7.1827
X5.4181Y-7.2827
X5.4181Y-7.3827
X5.4181Y-7.4827
X5.4181Y-7.5827
X5.4181Y-7.6827
X5.4181Y-7.7827
X5.4181Y-7.8827
X5.4181Y-7.9827
X2.0945Y-4.4394
X2.0945Y-4.5394
X2.0945Y-4.6394
X11.4967Y-5.6575
X11.7967Y-5.6575
X14.8898Y-4.8228
X14.8898Y-5.1228
X14.5906Y-5.3898
X14.5906Y-5.4898
X14.5906Y-5.5898
X14.5906Y-5.6898
X14.5906Y-5.7898
X14.5906Y-5.8898
X14.5906Y-5.9898
X14.8906Y-5.3898
X14.8906Y-5.4898
X14.8906Y-5.5898
X14.8906Y-5.6898
X14.8906Y-5.7898
X14.8906Y-5.8898
X14.8906Y-5.9898
X6.6843Y-3.9961
X6.9843Y-3.9961
X6.4409Y-6.9882
X6.4409Y-7.0882
X6.4409Y-7.1882
X6.4409Y-7.2882
X6.4409Y-7.3882
X6.4409Y-7.4882
X6.4409Y-7.5882
X6.7409Y-6.9882
X6.7409Y-7.0882
X6.7409Y-7.1882
X6.7409Y-7.2882
X6.7409Y-7.3882
X6.7409Y-7.4882
X6.7409Y-7.5882
X1.5866Y-6.0157
X1.5866Y-6.3157
X3.185Y-4.7717
X3.485Y-4.7717
X5.8819Y-6.9567
X6.0748Y-6.9567
X2.1654Y-4.8268
X2.4654Y-4.8268
X13.8976Y-7.5512
X14.0945Y-7.5512
X13.0118Y-5.0236
X13.0118Y-5.1236
X13.0118Y-5.2236
X13.0118Y-5.3236
X13.0118Y-5.4236
X13.0118Y-5.5236
X13.0118Y-5.6236
X13.0118Y-5.7236
X13.0118Y-5.8236
X13.0118Y-5.9236
X13.3118Y-5.0236
X13.3118Y-5.1236
X13.3118Y-5.2236
X13.3118Y-5.3236
X13.3118Y-5.4236
X13.3118Y-5.5236
X13.3118Y-5.6236
X13.3118Y-5.7236
X13.3118Y-5.8236
X13.3118Y-5.9236
X10.2913Y-7.7559
X10.4882Y-7.7559
X1.7835Y-5.3386
X1.9803Y-5.3386
X2.3071Y-4.1378
X2.3071Y-4.2378
X2.3071Y-4.3378
X11.4961Y-5.9331
X11.7961Y-5.9331
X5.9094Y-7.8071
X6.1063Y-7.8071
X5.9724Y-4.7126
X6.3724Y-4.7126
X10.5512Y-4.7244
X10.5512Y-4.8244
X10.5512Y-4.9244
X10.5512Y-5.0244
X10.5512Y-5.1244
X10.5512Y-5.2244
X10.5512Y-5.3244
X10.5512Y-5.4244
X10.5512Y-5.5244
X10.5512Y-5.6244
X10.5512Y-5.7244
X10.5512Y-5.8244
X10.5512Y-5.9244
X10.5512Y-6.0244
X11.1512Y-4.7244
X11.1512Y-4.8244
X11.1512Y-4.9244
X11.1512Y-5.0244
X11.1512Y-5.1244
X11.1512Y-5.2244
X11.1512Y-5.3244
X11.1512Y-5.4244
X11.1512Y-5.5244
X11.1512Y-5.6244
X11.1512Y-5.7244
X11.1512Y-5.8244
X11.1512Y-5.9244
X11.1512Y-6.0244
X8.1024Y-7.752
X8.2992Y-7.752
X3.7512Y-8.0906
X4.0512Y-8.0906
X14.6693Y-6.7441
X14.8661Y-6.7441
X8.0984Y-6.9764
X8.0984Y-7.0764
X8.0984Y-7.1764
X8.0984Y-7.2764
X8.0984Y-7.3764
X8.0984Y-7.4764
X8.0984Y-7.5764
X8.3984Y-6.9764
X8.3984Y-7.0764
X8.3984Y-7.1764
X8.3984Y-7.2764
X8.3984Y-7.3764
X8.3984Y-7.4764
X8.3984Y-7.5764
X9.6024Y-6.8898
X9.6024Y-6.9898
X9.6024Y-7.0898
X9.6024Y-7.1898
X9.6024Y-7.2898
X9.6024Y-7.3898
X9.6024Y-7.4898
X9.6024Y-7.5898
X9.9024Y-6.8898
X9.9024Y-6.9898
X9.9024Y-7.0898
X9.9024Y-7.1898
X9.9024Y-7.2898
X9.9024Y-7.3898
X9.9024Y-7.4898
X9.9024Y-7.5898
X11.6016Y-4.4646
X11.9016Y-4.4646
X6.8622Y-8.0433
X7.1622Y-8.0433
X2.8819Y-7.6693
X3.0787Y-7.6693
X12.9646Y-6.4488
X12.9646Y-6.5488
X12.9646Y-6.6488
X12.9646Y-6.7488
X12.9646Y-6.8488
X12.9646Y-6.9488
X12.9646Y-7.0488
X12.9646Y-7.1488
X12.9646Y-7.2488
X12.9646Y-7.3488
X13.2646Y-6.4488
X13.2646Y-6.5488
X13.2646Y-6.6488
X13.2646Y-6.7488
X13.2646Y-6.8488
X13.2646Y-6.9488
X13.2646Y-7.0488
X13.2646Y-7.1488
X13.2646Y-7.2488
X13.2646Y-7.3488
X9.2205Y-6.0079
X9.2205Y-6.2047
X6.8071Y-4.8386
X6.8071Y-4.9386
X6.8071Y-5.0386
X6.8071Y-5.1386
X6.8071Y-5.2386
X6.8071Y-5.3386
X6.8071Y-5.4386
X6.8071Y-5.5386
X6.8071Y-5.6386
X6.8071Y-5.7386
X6.8071Y-5.8386
X6.8071Y-5.9386
X6.8071Y-6.0386
X6.8071Y-6.1386
X6.8071Y-6.2386
X6.8071Y-6.3386
X7.4071Y-4.8386
X7.4071Y-4.9386
X7.4071Y-5.0386
X7.4071Y-5.1386
X7.4071Y-5.2386
X7.4071Y-5.3386
X7.4071Y-5.4386
X7.4071Y-5.5386
X7.4071Y-5.6386
X7.4071Y-5.7386
X7.4071Y-5.8386
X7.4071Y-5.9386
X7.4071Y-6.0386
X7.4071Y-6.1386
X7.4071Y-6.2386
X7.4071Y-6.3386
X3.7087Y-4.1417
X3.9055Y-4.1417
X4.5433Y-4.878
X4.8433Y-4.878
T5
X4.6791Y-3.7441
X4.6791Y-3.8421
X4.9429Y-3.7441
X4.9429Y-3.8421
T6
X10.7441Y-4.4843
X10.8441Y-4.4843
X10.9441Y-4.4843
X3.0559Y-5.7441
X3.1559Y-5.7441
X3.2559Y-5.7441
X8.11Y-3.71
X8.21Y-3.71
X8.31Y-3.71
X8.41Y-3.71
X8.51Y-3.71
X8.61Y-3.71
X8.71Y-3.71
X8.81Y-3.71
X8.91Y-3.71
X9.01Y-3.71
X9.11Y-3.71
X9.21Y-3.71
X9.31Y-3.71
X9.41Y-3.71
X9.51Y-3.71
X9.61Y-3.71
X9.71Y-3.71
X9.81Y-3.71
X9.91Y-3.71
X10.01Y-3.71
X13.1764Y-7.9315
X13.1764Y-8.0315
X13.2764Y-7.9315
X13.2764Y-8.0315
X13.3764Y-7.9315
X13.3764Y-8.0315
X13.4764Y-7.9315
X13.4764Y-8.0315
X13.5764Y-7.9315
X13.5764Y-8.0315
X13.6764Y-7.9315
X13.6764Y-8.0315
X13.7764Y-7.9315
X13.7764Y-8.0315
X13.8764Y-7.9315
X13.8764Y-8.0315
X4.685Y-4.1756
X4.685Y-4.2756
X7.3606Y-3.5748
X7.4606Y-3.5748
X15.1654Y-6.7764
X15.1654Y-6.8854
X15.1654Y-6.9945
X15.1654Y-7.1035
X15.1654Y-7.2126
X15.2772Y-6.8309
X15.2772Y-6.94
X15.2772Y-7.049
X15.2772Y-7.1581
X3.0598Y-5.9567
X3.1598Y-5.9567
X3.2598Y-5.9567
T7
X5.6811Y-3.8976
X5.7795Y-3.9961
X5.878Y-3.5039
X5.9764Y-3.8976
X5.9764Y-4.0945
X6.0748Y-3.5039
X6.1732Y-3.9961
X6.2717Y-3.8976
X1.6575Y-4.437
X1.7575Y-4.037
X1.8575Y-4.437
T8
X4.5449Y-3.626
X4.811Y-3.5941
X5.0772Y-3.626
T9
X2.7756Y-5.3583
X14.575Y-8.025
X14.58Y-4.575
X9.945Y-4.02
X12.26Y-8.015
X1.635Y-8.02
X15.0906Y-3.8898
X15.1772Y-6.5024
X15.1772Y-7.4866
X15.2165Y-8.0079
X6.95Y-3.68
X3.4646Y-8.0394
X1.635Y-3.68
X11.1693Y-3.8819
X9.605Y-8.02
T6
G00X2.0236Y-3.6516
M15
G01X2.0236Y-3.5925
M16
G05
G00X2.2264Y-3.6614
M15
G01X2.1752Y-3.6614
M16
G05
G00X2.2402Y-3.8976
M15
G01X2.1614Y-3.8976
M16
G05
G00X2.378Y-3.6516
M15
G01X2.378Y-3.5925
M16
G05
G00X2.9646Y-3.8209
M15
G01X2.9646Y-3.7697
M16
G05
G00X3.8228Y-3.8209
M15
G01X3.8228Y-3.7697
M16
G05
T7
G00X2.9232Y-3.6181
M15
G01X3.0059Y-3.6181
M16
G05
G00X3.7815Y-3.6181
M15
G01X3.8642Y-3.6181
M16
G05
T0
M30
